<?xml version="1.0" encoding="UTF-8" standalone="no"?><svg xmlns="http://www.w3.org/2000/svg" xmlns:xlink="http://www.w3.org/1999/xlink" contentStyleType="text/css" height="1804px" preserveAspectRatio="none" style="width:1824px;height:1804px;background:#FFFFFF;" version="1.1" viewBox="0 0 1824 1804" width="1824px" zoomAndPan="magnify"><defs/><g><ellipse cx="906" cy="80" fill="#222222" rx="40" ry="40" style="stroke:#222222;stroke-width:4.0;"/><rect fill="#555555" height="24" rx="10" ry="10" style="stroke:#555555;stroke-width:4.0;" width="1738" x="44" y="200"/><rect fill="#F0F8FF" height="136.5313" rx="50" ry="50" style="stroke:#181818;stroke-width:2.0;" width="356" x="92" y="884.5313"/><text fill="#000000" font-family="sans-serif" font-size="48" lengthAdjust="spacing" textLength="276" x="132" y="970.9375">Daily review</text><polygon fill="#F1F1F1" points="1274,304,1498,304,1546,352,1498,400,1274,400,1226,352,1274,304" style="stroke:#181818;stroke-width:2.0;"/><text fill="#000000" font-family="sans-serif" font-size="44" lengthAdjust="spacing" textLength="224" x="1274" y="368.6289">Is Sunday?</text><text fill="#000000" font-family="sans-serif" font-size="44" lengthAdjust="spacing" textLength="72" x="1142" y="342.7188">yes</text><text fill="#000000" font-family="sans-serif" font-size="44" lengthAdjust="spacing" textLength="56" x="1558" y="342.7188">no</text><rect fill="#FF69B4" height="136.5313" rx="50" ry="50" style="stroke:#181818;stroke-width:2.0;" width="544" x="1048" y="656"/><text fill="#000000" font-family="sans-serif" font-size="48" lengthAdjust="spacing" textLength="304" x="1168" y="742.4063">Yearly review</text><rect fill="#ADFF2F" height="136.5313" rx="50" ry="50" style="stroke:#181818;stroke-width:2.0;" width="420" x="1110" y="968.5313"/><text fill="#000000" font-family="sans-serif" font-size="48" lengthAdjust="spacing" textLength="340" x="1150" y="1054.9375">Monthly review</text><polygon fill="#F1F1F1" points="560,560,908,560,956,608,908,656,560,656,512,608,560,560" style="stroke:#181818;stroke-width:2.0;"/><text fill="#000000" font-family="sans-serif" font-size="44" lengthAdjust="spacing" textLength="348" x="560" y="624.6289">Last of the year?</text><text fill="#000000" font-family="sans-serif" font-size="44" lengthAdjust="spacing" textLength="72" x="968" y="598.7188">yes</text><polygon fill="#F1F1F1" points="536,872.5313,932,872.5313,980,920.5313,932,968.5313,536,968.5313,488,920.5313,536,872.5313" style="stroke:#181818;stroke-width:2.0;"/><text fill="#000000" font-family="sans-serif" font-size="44" lengthAdjust="spacing" textLength="396" x="536" y="937.1602">Last of the month?</text><text fill="#000000" font-family="sans-serif" font-size="44" lengthAdjust="spacing" textLength="72" x="992" y="911.25">yes</text><rect fill="#FFE4B5" height="136.5313" rx="50" ry="50" style="stroke:#181818;stroke-width:2.0;" width="404" x="838" y="1185.0625"/><text fill="#000000" font-family="sans-serif" font-size="48" lengthAdjust="spacing" textLength="324" x="878" y="1271.4688">Weekly review</text><polygon fill="#F1F1F1" points="1040,1401.5938,1088,1449.5938,1040,1497.5938,992,1449.5938,1040,1401.5938" style="stroke:#181818;stroke-width:2.0;"/><ellipse cx="1694" cy="480" fill="none" rx="40" ry="40" style="stroke:#222222;stroke-width:6.0;"/><line style="stroke:#222222;stroke-width:10.0;" x1="1669.2513" x2="1718.7487" y1="455.2513" y2="504.7487"/><line style="stroke:#222222;stroke-width:10.0;" x1="1718.7487" x2="1669.2513" y1="455.2513" y2="504.7487"/><rect fill="#555555" height="24" rx="10" ry="10" style="stroke:#555555;stroke-width:4.0;" width="1738" x="44" y="1577.5938"/><ellipse cx="906" cy="1721.5938" fill="none" rx="40" ry="40" style="stroke:#222222;stroke-width:6.0;"/><line style="stroke:#222222;stroke-width:10.0;" x1="881.2513" x2="930.7487" y1="1696.845" y2="1746.3425"/><line style="stroke:#222222;stroke-width:10.0;" x1="930.7487" x2="881.2513" y1="1696.845" y2="1746.3425"/><line style="stroke:#181818;stroke-width:4.0;" x1="956" x2="1320" y1="608" y2="608"/><line style="stroke:#181818;stroke-width:4.0;" x1="1320" x2="1320" y1="608" y2="656"/><polygon fill="#181818" points="1304,616,1320,656,1336,616,1320,632" style="stroke:#181818;stroke-width:4.0;"/><line style="stroke:#181818;stroke-width:4.0;" x1="980" x2="1320" y1="920.5313" y2="920.5313"/><line style="stroke:#181818;stroke-width:4.0;" x1="1320" x2="1320" y1="920.5313" y2="968.5313"/><polygon fill="#181818" points="1304,928.5313,1320,968.5313,1336,928.5313,1320,944.5313" style="stroke:#181818;stroke-width:4.0;"/><line style="stroke:#181818;stroke-width:4.0;" x1="734" x2="734" y1="656" y2="872.5313"/><polygon fill="#181818" points="718,832.5313,734,872.5313,750,832.5313,734,848.5313" style="stroke:#181818;stroke-width:4.0;"/><text fill="#000000" font-family="sans-serif" font-size="44" lengthAdjust="spacing" textLength="56" x="746" y="760.8945">no</text><line style="stroke:#181818;stroke-width:4.0;" x1="1320" x2="1320" y1="792.5313" y2="852.5313"/><line style="stroke:#181818;stroke-width:4.0;" x1="1320" x2="1592" y1="852.5313" y2="852.5313"/><line style="stroke:#181818;stroke-width:4.0;" x1="1592" x2="1592" y1="852.5313" y2="1449.5938"/><line style="stroke:#181818;stroke-width:4.0;" x1="1592" x2="1088" y1="1449.5938" y2="1449.5938"/><polygon fill="#181818" points="1128,1433.5938,1088,1449.5938,1128,1465.5938,1112,1449.5938" style="stroke:#181818;stroke-width:4.0;"/><line style="stroke:#181818;stroke-width:4.0;" x1="1320" x2="1320" y1="1105.0625" y2="1165.0625"/><line style="stroke:#181818;stroke-width:4.0;" x1="1320" x2="1592" y1="1165.0625" y2="1165.0625"/><polygon fill="#181818" points="1552,1149.0625,1592,1165.0625,1552,1181.0625,1568,1165.0625" style="stroke:#181818;stroke-width:4.0;"/><line style="stroke:#181818;stroke-width:4.0;" x1="1226" x2="734" y1="352" y2="352"/><line style="stroke:#181818;stroke-width:4.0;" x1="734" x2="734" y1="352" y2="560"/><polygon fill="#181818" points="718,520,734,560,750,520,734,536" style="stroke:#181818;stroke-width:4.0;"/><line style="stroke:#181818;stroke-width:4.0;" x1="734" x2="734" y1="968.5313" y2="1125.0625"/><line style="stroke:#181818;stroke-width:4.0;" x1="734" x2="1040" y1="1125.0625" y2="1125.0625"/><line style="stroke:#181818;stroke-width:4.0;" x1="1040" x2="1040" y1="1125.0625" y2="1185.0625"/><polygon fill="#181818" points="1024,1145.0625,1040,1185.0625,1056,1145.0625,1040,1161.0625" style="stroke:#181818;stroke-width:4.0;"/><text fill="#000000" font-family="sans-serif" font-size="44" lengthAdjust="spacing" textLength="56" x="746" y="1073.4258">no</text><line style="stroke:#181818;stroke-width:4.0;" x1="1040" x2="1040" y1="1321.5938" y2="1341.5938"/><line style="stroke:#181818;stroke-width:4.0;" x1="1040" x2="1040" y1="1341.5938" y2="1401.5938"/><polygon fill="#181818" points="1024,1361.5938,1040,1401.5938,1056,1361.5938,1040,1377.5938" style="stroke:#181818;stroke-width:4.0;"/><line style="stroke:#181818;stroke-width:4.0;" x1="1546" x2="1694" y1="352" y2="352"/><line style="stroke:#181818;stroke-width:4.0;" x1="1694" x2="1694" y1="352" y2="440"/><polygon fill="#181818" points="1678,400,1694,440,1710,400,1694,416" style="stroke:#181818;stroke-width:4.0;"/><line style="stroke:#181818;stroke-width:4.0;" x1="1040" x2="1040" y1="1497.5938" y2="1517.5938"/><line style="stroke:#181818;stroke-width:4.0;" x1="1040" x2="1386" y1="1517.5938" y2="1517.5938"/><line style="stroke:#181818;stroke-width:4.0;" x1="1386" x2="1386" y1="1517.5938" y2="1577.5938"/><polygon fill="#181818" points="1370,1537.5938,1386,1577.5938,1402,1537.5938,1386,1553.5938" style="stroke:#181818;stroke-width:4.0;"/><line style="stroke:#181818;stroke-width:4.0;" x1="270" x2="270" y1="224" y2="884.5313"/><polygon fill="#181818" points="254,844.5313,270,884.5313,286,844.5313,270,860.5313" style="stroke:#181818;stroke-width:4.0;"/><line style="stroke:#181818;stroke-width:4.0;" x1="1386" x2="1386" y1="224" y2="304"/><polygon fill="#181818" points="1370,264,1386,304,1402,264,1386,280" style="stroke:#181818;stroke-width:4.0;"/><line style="stroke:#181818;stroke-width:4.0;" x1="270" x2="270" y1="1021.0625" y2="1577.5938"/><polygon fill="#181818" points="254,1537.5938,270,1577.5938,286,1537.5938,270,1553.5938" style="stroke:#181818;stroke-width:4.0;"/><line style="stroke:#181818;stroke-width:4.0;" x1="906" x2="906" y1="120" y2="200"/><polygon fill="#181818" points="890,160,906,200,922,160,906,176" style="stroke:#181818;stroke-width:4.0;"/><line style="stroke:#181818;stroke-width:4.0;" x1="906" x2="906" y1="1601.5938" y2="1681.5938"/><polygon fill="#181818" points="890,1641.5938,906,1681.5938,922,1641.5938,906,1657.5938" style="stroke:#181818;stroke-width:4.0;"/><!--MD5=[eb3bb7972b2cc5d5157adf52f725fe32]
@startuml overviewReview
scale 5
!pragma useVerticalIf on

start
fork
    #AliceBlue :Daily review;
fork again
  if (Is Sunday?) then (yes )
    if (Last of the year?) then ( yes)
        #HotPink :     Yearly review     ;
    ( no) elseif (Last of the month?) then ( yes)
        #GreenYellow :Monthly review;
    else ( no)
        #Moccasin :Weekly review;
    endif
  else ( no)
    end;
  endif
end fork
end
@enduml

PlantUML version 1.2022.7(Mon Aug 22 12:01:30 CDT 2022)
(GPL source distribution)
Java Runtime: OpenJDK Runtime Environment
JVM: OpenJDK 64-Bit Server VM
Default Encoding: UTF-8
Language: en
Country: MX
--></g></svg>