<?xml version="1.0" encoding="UTF-8" standalone="no"?>
<!-- Created with Inkscape (http://www.inkscape.org/) -->

<svg
   xmlns:dc="http://purl.org/dc/elements/1.1/"
   xmlns:cc="http://creativecommons.org/ns#"
   xmlns:rdf="http://www.w3.org/1999/02/22-rdf-syntax-ns#"
   xmlns:svg="http://www.w3.org/2000/svg"
   xmlns="http://www.w3.org/2000/svg"
   xmlns:sodipodi="http://sodipodi.sourceforge.net/DTD/sodipodi-0.dtd"
   xmlns:inkscape="http://www.inkscape.org/namespaces/inkscape"
   width="300mm"
   height="598.53918mm"
   viewBox="0 0 300 598.53918"
   version="1.1"
   id="svg970"
   inkscape:version="0.92.4 5da689c313, 2019-01-14"
   sodipodi:docname="abstract_path.svg">
  <defs
     id="defs964">
    <clipPath
       clipPathUnits="userSpaceOnUse"
       id="clipPath941">
      <rect
         style="fill:#a34d14;fill-opacity:1;stroke-width:0.67685014"
         id="rect943"
         width="2154.2305"
         height="1945.8702"
         x="270.71463"
         y="-748.72498"
         transform="matrix(0.0835306,0.99650521,0.94451596,-0.32846552,0,0)" />
    </clipPath>
  </defs>
  <sodipodi:namedview
     id="base"
     pagecolor="#ffffff"
     bordercolor="#666666"
     borderopacity="1.0"
     inkscape:pageopacity="0.0"
     inkscape:pageshadow="2"
     inkscape:zoom="0.0875"
     inkscape:cx="280.36909"
     inkscape:cy="2427.8061"
     inkscape:document-units="mm"
     inkscape:current-layer="layer1"
     showgrid="false"
     fit-margin-top="0"
     fit-margin-left="0"
     fit-margin-right="0"
     fit-margin-bottom="0"
     inkscape:window-width="1366"
     inkscape:window-height="719"
     inkscape:window-x="0"
     inkscape:window-y="24"
     inkscape:window-maximized="0" />
  <metadata
     id="metadata967">
    <rdf:RDF>
      <cc:Work
         rdf:about="">
        <dc:format>image/svg+xml</dc:format>
        <dc:type
           rdf:resource="http://purl.org/dc/dcmitype/StillImage" />
        <dc:title></dc:title>
      </cc:Work>
    </rdf:RDF>
  </metadata>
  <g
     inkscape:label="Layer 1"
     inkscape:groupmode="layer"
     id="layer1"
     transform="translate(210.02672,-160.86561)">
    <g
       id="g20601"
       transform="matrix(0.0896406,0.33997028,0.25776519,-0.02849751,-281.5907,363.78683)"
       clip-path="url(#clipPath941)">
      <path
         inkscape:connector-curvature="0"
         style="fill:none;fill-opacity:1;stroke:#e9ecef;stroke-width:5;stroke-linecap:round;stroke-linejoin:round;stroke-miterlimit:4;stroke-dasharray:none;stroke-dashoffset:0;stroke-opacity:1"
         d="M 1168.9123,4.0401064 C 1095.3636,95.248666 1023.4841,185.80045 964.00199,260.33021 880.09962,365.56664 812.56833,448.87399 742.34542,527.25729 c -32.90961,36.70838 -65.08154,70.34268 -97.93855,101.78402 0,0 -2.1e-4,2e-4 -2.1e-4,2e-4 -31.95441,30.67689 -64.92361,59.00695 -99.56813,85.09953 -34.0673,25.8742 -71.2709,49.39161 -110.8235,69.9641 -40.67246,21.46411 -85.65375,38.18256 -131.68598,49.98022 0,0 -3.1e-4,8e-5 -3.1e-4,8e-5 -52.89385,13.50753 -105.0649,16.68341 -151.79825,13.20577 C 84.402102,841.54821 36.258415,821.52847 4.3645617,799.07379 -31.326458,773.39699 -48.406672,744.23456 -54.309444,716.32274 c -5.965872,-28.21021 -1.010404,-56.80217 9.876639,-85.00168 11.011133,-28.52093 28.067134,-56.78653 47.4513305,-86.65877 C 21.874343,515.60431 44.195327,483.22093 62.07572,450.36235 85.021329,407.83074 102.5237,361.62776 103.70673,314.27664 104.82654,275.35646 98.360869,236.77922 87.346714,200.85603 76.845948,163.26038 63.282839,125.99646 53.538452,90.39733 40.927053,42.969646 30.786559,3.9329264 24.438823,-39.90658 c 0,0 -9e-6,-1.16e-4 -9e-6,-1.16e-4 C 17.12173,-88.434605 14.096132,-112.48413 9.2368216,-149.38054 c -3.9733057,-30.16904 -7.1266623,-52.3434 -11.4786403,-63.16752 -4.2672749,-10.61345 -9.9251423,-10.01126 -16.4969263,4.806 -6.448117,14.53843 -13.316618,42.43473 -16.471729,81.40497 -2.205511,23.57138 0.509969,48.993412 10.824619,74.658102 0,0 4.4e-5,1.09e-4 4.4e-5,1.09e-4 6.912885,16.14886 20.8811456,32.862192 42.463716,48.5037833 18.192635,11.9150295 38.470639,26.7702707 61.653227,44.5290587 20.760358,16.734749 34.378438,36.205663 40.416618,58.116069 4.74451,22.312328 -1.69535,42.381408 -19.21672,60.820928 -19.375292,19.52148 -47.486998,34.41395 -84.453466,46.04901 -40.692555,12.71161 -87.026087,21.28941 -140.251914,27.31568 -58.4536,6.63806 -120.39237,10.41488 -189.07694,12.77811 -12.69347,0.42786 -25.52683,0.81751 -38.51631,1.17101"
         id="path19608" />
      <path
         inkscape:connector-curvature="0"
         style="fill:none;fill-opacity:1;stroke:#006bff;stroke-width:5;stroke-linecap:round;stroke-linejoin:round;stroke-miterlimit:4;stroke-dasharray:none;stroke-dashoffset:0;stroke-opacity:0.88317757"
         d="m 1534.7774,320.07241 c -116.5076,120.89441 -210.8094,219.33581 -301.3895,310.05024 -84.899,85.11601 -160.8473,156.81257 -238.00679,220.47061 -37.13371,30.68154 -75.29608,59.9341 -114.98774,87.56878 -38.73001,27.10136 -81.08583,53.77283 -126.44011,78.98156 -44.8046,25.2848 -96.75882,49.8951 -152.62524,72.0167 -58.08528,23.6662 -125.22484,42.1013 -193.80476,54.774 -80.66638,14.9453 -160.40776,14.5194 -230.45123,5.4905 -104.207546,-15.0938 -173.7125581,-51.6766 -216.029358,-88.5843 -37.212483,-33.4379 -55.243021,-68.36118 -61.819412,-101.30258 -6.6182,-33.15081 -2.04801,-66.05872 8.817395,-97.7964 10.932625,-31.93403 28.472148,-63.45835 49.211238,-95.28997 21.141894,-32.44987 44.4564452,-63.59414 68.723675,-97.95906 38.266632,-53.79508 74.124052,-111.3955 93.593392,-173.6494 15.65637,-49.87698 20.44051,-99.61443 17.42246,-147.75884 -2.5896,-49.85909 -12.51626,-98.75066 -21.61806,-143.94579 C 103.80136,144.54829 89.865536,89.477168 79.568903,39.975681 71.246372,0.70101527 62.327232,-37.710355 54.558188,-66.272662 46.465607,-96.024427 38.58172,-119.21016 30.074939,-133.82249 c -8.510739,-14.61912 -17.58996,-20.44069 -27.1906713,-16.3449 -9.4911902,4.04906 -19.1595717,17.91424 -26.6590547,40.40034 -6.06645,17.277586 -7.569504,38.185148 -0.02189,59.162314 4.883387,12.485067 17.1714925,25.743659 38.51564,37.535951 17.938537,8.8534546 38.254257,20.4298221 63.322635,35.189563 22.102892,13.928693 37.845662,30.770995 46.541702,50.547974 7.29002,20.026817 3.77339,38.111508 -11.09079,54.843928 -16.441286,17.53076 -41.577068,30.64694 -76.039221,40.46438 -37.72153523,10.63012 -81.210906,17.24784 -131.986732,21.11406 -55.498777,4.24495 -114.695857,5.70494 -180.913477,5.49085 -40.5101,-0.17994 -82.30608,-0.7824 -126.1257,-1.75753"
         id="path19606" />
      <path
         inkscape:connector-curvature="0"
         style="fill:none;fill-opacity:1;stroke:#cedbd9;stroke-width:5;stroke-linecap:round;stroke-linejoin:round;stroke-miterlimit:4;stroke-dasharray:none;stroke-dashoffset:0;stroke-opacity:0.9766355"
         d="m 1518.714,307.94182 c -113.3845,118.1373 -207.9423,216.54853 -297.4575,305.5278 -84.7827,84.35604 -161.5145,155.93123 -239.68917,219.47202 -37.14551,30.24017 -75.426,59.17924 -115.37495,86.61885 -38.4448,26.53425 -80.55101,52.78936 -125.89751,77.79244 -43.9159,24.57677 -94.94513,48.75127 -150.473,70.82857 -56.02347,22.9055 -121.21845,41.3429 -189.47425,54.617 -76.22495,14.8431 -153.3765,16.4332 -224.77871,9.5155 -92.980122,-10.4948 -163.611301,-37.3488 -215.049727,-68.3108 -97.592893,-60.5531 -127.864503,-131.8534 -132.552813,-191.43075 -3.71124,-48.83737 8.51975,-96.45292 28.22474,-141.84778 19.8576,-45.74643 47.869018,-90.5877 78.208319,-135.88157 26.023934,-38.78673 55.7121501,-80.69483 81.18146,-121.71569 C 41.589901,431.2373 64.797545,387.88883 79.958778,342.30646 100.04314,280.35801 105.10634,218.11955 90.010498,158.36671 74.7089,97.692565 46.96166,42.017159 17.611878,-4.5475639 -2.637333,-38.356631 -33.444445,-86.284716 -49.977535,-112.55318 c -19.882095,-31.5895 -37.598668,-60.55038 -50.354745,-83.37208 -12.64184,-22.61735 -22.71707,-42.93453 -23.11097,-57.11008 -0.41928,-15.08895 8.64785,-26.1717 43.873387,-37.76048 27.312412,-8.76318 67.450741,-13.29051 129.244519,-9.99726 45.959831,4.08591 91.456984,14.36656 131.038654,34.30431 33.63313,18.4428 56.53337,37.76969 61.49084,58.13774 4.2609,19.63164 -2.62775,35.87531 -25.28733,48.10141 -23.30519,12.44204 -55.14722,20.93949 -98.81103,25.27062 -45.573304,4.57638 -97.456823,6.16812 -159.350343,4.89811 -144.788877,-3.64902 -276.692947,-12.16143 -479.757107,-25.54587"
         id="path19604" />
      <path
         inkscape:connector-curvature="0"
         style="fill:none;fill-opacity:1;stroke:#002e5f;stroke-width:7.33961582;stroke-linecap:butt;stroke-linejoin:miter;stroke-miterlimit:4;stroke-dasharray:none;stroke-opacity:0"
         d="m 1624.3762,492.81166 c -110.3309,104.00126 -204.6792,192.28805 -293.3103,271.39598 -85.2703,76.09522 -164.1664,142.33157 -245.2475,201.94886 -38.3041,28.25757 -78.3556,56.0461 -120.67211,83.0241 0,0 -2.9e-4,2e-4 -2.9e-4,2e-4 -40.35699,25.8676 -85.42445,52.4874 -134.74791,78.7297 -47.18126,25.5387 -103.39586,51.8151 -165.65397,76.8734 -61.91665,25.6933 -135.73382,47.4808 -214.67867,64.4582 -86.46875,18.5736 -175.7637,23.0961 -260.86783,18.2133 -106.39322,-7.9534 -190.4910332,-32.9055 -255.132937,-63.6042 -102.939653,-50.5878 -154.250843,-108.4698 -179.606973,-159.463 -45.19322,-91.39137 -24.3107,-177.80733 14.15809,-251.122 19.9135,-37.95161 45.74381,-74.68476 74.45437,-111.02117 29.08659,-36.81231 60.105772,-72.00145 92.093129,-109.3952 C -12.698903,532.04408 40.246989,467.40679 70.90228,397.02909 94.088834,342.93714 104.03934,287.79356 96.696294,234.47394 89.394945,180.70829 70.592637,130.12535 48.748521,87.165252 33.677148,55.774429 15.455114,22.067877 0.99938122,-4.5639531 -14.258624,-32.673811 -28.107727,-58.133099 -40.209838,-80.530199 -54.583609,-107.53887 -66.156227,-128.06338 -76.708393,-146.3102 c -9.703954,-16.7801 -18.225375,-30.83882 -20.845394,-38.77293 1e-5,0 -1e-5,-3e-5 -1e-5,-3e-5 -1.776423,-5.81941 -0.941613,-10.07326 5.434706,-13.29823 6.573994,-3.32495 18.516986,-5.50997 41.073356,-8.39681 25.238114,-3.36132 59.5862406,-2.53672 109.358222,4.31313 38.973767,6.80143 75.384113,18.88199 105.437693,38.47361 25.91755,18.53002 40.93867,37.1072 40.00331,55.97466 -1.60343,18.525497 -13.68198,33.358809 -39.65248,44.36358 -27.11357,11.336514 -61.98436,18.705527 -107.408862,22.270898 -47.8765915,3.797491 -101.346824,4.654568 -164.019698,2.908946 -122.34874,-3.852961 -242.71208,-11.488546 -405.02319,-22.883217"
         id="path19602" />
      <path
         inkscape:connector-curvature="0"
         style="fill:none;fill-opacity:1;stroke:#ffffff;stroke-width:5;stroke-linecap:round;stroke-linejoin:round;stroke-miterlimit:4;stroke-dasharray:none;stroke-dashoffset:0;stroke-opacity:1"
         d="m 1339.424,319.69714 c -69.3017,68.76798 -133.2458,132.52875 -192.7937,191.33131 -86.2363,85.21711 -161.43043,157.81128 -239.58954,226.68108 -35.69572,31.47298 -71.9795,61.85824 -109.91001,91.38609 -35.52644,27.78448 -74.06064,55.49947 -115.91844,82.64812 -39.18065,25.74282 -84.69151,51.55698 -135.37055,76.25113 -48.93511,24.35613 -106.627,45.72723 -169.76197,63.32203 -66.26468,18.3546 -135.93333,26.8005 -205.2067,27.5427 -81.008373,-0.4389 -150.015235,-12.9406 -207.568341,-31.6874 -77.876289,-26.2165 -131.371359,-58.05784 -168.098589,-89.11436 -67.32825,-56.66781 -94.55577,-111.82715 -102.99684,-158.65286 -11.4321,-62.37882 6.50254,-119.13931 38.34129,-169.67188 32.33747,-51.32409 79.66557,-97.60041 132.87766,-143.47604 54.739105,-47.19206 122.235077,-98.61395 170.891167,-152.14814 -4e-6,-1e-5 1.04e-4,-1.1e-4 1.04e-4,-1.1e-4 C 67.58331,297.1345 92.78625,257.94546 101.06908,214.75037 107.26342,177.66427 102.59894,141.64644 85.644923,108.67151 68.163665,75.124877 46.529973,44.684318 26.057706,20.329578 -2.3980961,-16.180148 -20.387471,-42.561173 -34.276626,-69.712407 c -14.459938,-29.249904 -23.37526,-50.908073 -28.162881,-59.281013 -2.343608,-4.09867 -3.795374,-5.19708 -3.604077,-2.63001 0.173444,2.3275 1.994462,8.33326 6.867538,16.5129 1.6e-5,-1e-5 2.1e-5,4e-5 2.1e-5,4e-5 6.098903,9.47461 20.64143,24.371869 52.5579903,39.193881 21.5176637,9.011789 46.6120747,21.493199 79.4938047,39.231512 26.439164,15.263528 47.27265,34.3769169 60.21474,57.950853 10.73305,22.585537 10.27733,43.895874 -3.50223,64.246185 -14.7288,20.530959 -38.966977,36.862539 -74.254703,49.763279 -37.414091,13.56907 -81.399707,23.08714 -134.027675,29.67614 -56.064982,7.04893 -116.537572,11.16889 -185.128692,13.51667 -71.90752,2.36099 -147.21836,3.29649 -230.54808,3.2519"
         id="path19600" />
      <path
         inkscape:connector-curvature="0"
         style="fill:none;fill-opacity:1;stroke:#002e5f;stroke-width:5;stroke-linecap:round;stroke-linejoin:round;stroke-miterlimit:4;stroke-dasharray:none;stroke-dashoffset:0;stroke-opacity:1"
         d="m 1531.1644,515.43934 c -84.3654,76.93009 -158.3724,144.49922 -229.6063,208.26227 -85.4218,76.45364 -162.8558,143.5389 -243.5977,206.85723 -37.1687,29.2158 -75.88631,58.22094 -116.99208,86.95086 -38.46102,27.0343 -81.52818,55.154 -129.12928,83.5093 -44.49313,26.9446 -98.02783,55.1649 -158.4801,83.0078 -58.4423,27.6382 -129.1804,52.4268 -207.3057,73.3964 -82.32719,21.9627 -169.55745,31.7782 -256.64578,32.4209 -102.082145,-1.0658 -188.1719917,-16.8753 -259.606257,-40.2314 -96.706503,-32.8125 -161.343563,-71.2623 -204.842593,-108.249 -80.76034,-68.2951 -110.52324,-132.1484 -118.5537,-185.02825 -10.01002,-64.33199 8.18173,-122.17339 39.82368,-173.05003 32.06505,-51.55695 78.98181,-97.86749 132.61036,-142.32018 61.23644,-50.75619 133.236176,-98.71627 196.481761,-152.90326 40.723045,-34.9393 76.960919,-72.4321 99.415303,-114.1977 C 93.216425,338.67511 102.23432,302.58729 99.626501,267.82972 97.160028,233.23585 88.15408,199.90018 77.383917,171.51067 63.124899,130.12617 53.495737,107.31187 43.874327,72.777087 35.189403,40.57097 30.632766,22.19579 25.31684,-1.0183801 20.75799,-20.926464 17.861468,-34.64265 15.120394,-41.030152 c -2.568472,-5.98529 -5.2108543,-4.929945 -6.5397919,5.452296 -1.2795574,9.996461 -1.0064621,28.3343717 4.5647859,52.32812 3.992298,16.080896 13.235156,34.808786 30.319059,54.850777 12.652026,13.309563 27.352963,30.031219 43.278255,49.566979 13.563838,17.20783 20.746928,36.8081 20.148788,58.40133 -1.67136,21.11865 -13.269012,40.14586 -35.36987,57.46333 -23.554199,17.86218 -54.959052,31.5154 -94.899798,42.20103 -42.984291,11.42493 -91.104672,19.05938 -146.347572,24.45328 -59.55515,5.82547 -122.20147,8.98245 -192.30177,10.91727 -43.82297,1.20862 -89.07222,1.96168 -136.65656,2.354"
         id="path19598" />
      <path
         inkscape:connector-curvature="0"
         style="fill:none;fill-opacity:1;stroke:#0a2431;stroke-width:5;stroke-linecap:round;stroke-linejoin:round;stroke-miterlimit:4;stroke-dasharray:none;stroke-dashoffset:0;stroke-opacity:1"
         d="m 1425.331,410.1828 c -75.7418,72.41562 -142.8809,136.69942 -207.9182,198.01048 -85.5182,80.65258 -162.1561,150.78977 -241.87056,217.04933 -36.34335,30.24955 -73.8267,59.91753 -113.36756,89.05461 -36.79603,27.25364 -77.43226,55.07671 -122.06171,82.79223 -41.44428,26.11635 -90.54485,52.98065 -145.84479,79.19925 -52.95215,25.7083 -116.3928,48.6859 -186.62051,68.0114 -73.00301,19.9639 -150.4504,29.3348 -228.36135,30.3308 -89.648058,-0.3798 -166.544142,-13.6365 -231.436914,-34.0733 -84.908476,-27.7029 -144.620646,-60.8603 -186.652926,-93.754 -68.63207,-53.37293 -104.19233,-104.90244 -122.23564,-150.01091 -22.26754,-54.91244 -24.1605,-106.01279 -14.58942,-152.09394 9.62184,-46.32562 31.25676,-89.71407 59.73627,-130.01488 28.66796,-40.56747 64.57246,-78.49265 104.38935,-115.25576 40.11367,-37.03712 82.99788,-71.84846 126.736499,-107.91945 C -26.848387,343.74227 29.303996,295.9442 69.893451,241.28128 100.82606,198.95963 118.78987,155.76465 118.47468,109.57945 116.83946,65.359196 101.48467,25.999926 75.381593,-8.1602622 40.741463,-52.525587 5.5603594,-86.511938 -18.003712,-109.4531 c -17.233177,-17.8411 -28.912996,-32.22042 -33.002085,-41.21028 -4.239549,-9.32064 -1.173496,-13.43911 14.296947,-13.8856 17.085667,-0.70103 47.01583,4.28881 100.213252,21.18623 32.37245,11.45606 63.923028,28.60877 87.875788,54.115257 18.71629,22.09533 27.22163,44.690396 19.28558,67.57071 C 162.36475,0.00140372 143.761,18.33633 111.17514,33.144773 78.066886,48.075663 37.203899,59.229165 -14.48282,67.090981 c -53.404021,8.170716 -112.35288,13.461557 -181.05026,16.710484 -116.39664,5.224623 -235.52523,6.485331 -386.39258,6.306383"
         id="path19596" />
      <path
         inkscape:connector-curvature="0"
         style="fill:none;fill-opacity:1;stroke:#d4e5ea;stroke-width:5;stroke-linecap:round;stroke-linejoin:round;stroke-miterlimit:4;stroke-dasharray:none;stroke-dashoffset:0;stroke-opacity:1"
         d="m 1287.0282,325.84725 c -69.9755,69.69422 -89.5003,89.29824 -159.4758,158.99246 -85.9827,85.59672 -160.6701,158.72278 -238.96711,229.28691 -35.21849,31.75341 -71.00712,62.53333 -108.50396,92.63582 -34.73288,28.01051 -72.41607,56.06695 -113.52122,83.75051 -37.97436,25.89553 -82.16277,52.03174 -131.78202,77.30977 -47.16057,24.50783 -103.02253,46.43008 -165.00558,64.91658 -63.76217,18.8811 -131.5281,28.6676 -200.23349,30.934 -78.062933,1.3178 -146.268141,-8.542 -204.81723,-25.0628 -75.11176,-21.9254 -130.43782,-49.14173 -170.95798,-76.78894 -62.57312,-42.36318 -100.64116,-84.25594 -123.85187,-121.63627 -39.11093,-62.28391 -47.97256,-119.86738 -41.03926,-170.06407 7.00108,-50.68741 30.51006,-97.32777 63.15661,-139.6562 33.01677,-42.80845 75.50052,-81.5177 123.08062,-118.96452 47.38622,-37.29424 99.321043,-72.84724 149.093133,-109.5537 C 14.802717,264.61859 60.592027,226.76108 92.407141,182.53343 117.33011,147.06176 129.37696,110.86991 124.63883,72.333472 118.66503,35.618796 101.04819,3.7386705 74.077867,-23.001121 40.399622,-55.312926 9.6588394,-78.851632 -12.881363,-94.365247 c -24.212352,-18.010513 -37.423666,-30.796523 -39.252733,-33.379633 -1.092717,-1.5432 0.702318,-0.53595 5.768558,2.57333 4.655524,2.85723 14.521788,9.01429 28.474619,16.05084 2.4e-5,-1e-5 6.6e-5,4e-5 6.6e-5,4e-5 20.3514293,9.35742 47.645068,23.554614 88.614032,47.932077 27.122935,17.1049 50.495061,39.140284 64.844611,67.4853479 11.05083,25.0987461 11.10755,49.7765531 -3.96963,73.9705491 -15.36109,23.379926 -40.72669,42.966076 -78.583571,59.249186 -38.88813,16.63408 -84.921029,29.34289 -140.798541,39.28815 -58.174088,10.39029 -121.188858,17.85471 -193.457678,23.81024 -90.51888,7.35397 -185.42302,12.50225 -294.69653,16.85403"
         id="path19576" />
    </g>
  </g>
</svg>
