<?xml version="1.0" encoding="UTF-8" standalone="no"?>
<!-- Created with Inkscape (http://www.inkscape.org/) -->

<svg
   xmlns:dc="http://purl.org/dc/elements/1.1/"
   xmlns:cc="http://creativecommons.org/ns#"
   xmlns:rdf="http://www.w3.org/1999/02/22-rdf-syntax-ns#"
   xmlns:svg="http://www.w3.org/2000/svg"
   xmlns="http://www.w3.org/2000/svg"
   xmlns:sodipodi="http://sodipodi.sourceforge.net/DTD/sodipodi-0.dtd"
   xmlns:inkscape="http://www.inkscape.org/namespaces/inkscape"
   width="913.13953mm"
   height="4307.7715mm"
   viewBox="0 0 913.13953 4307.7715"
   version="1.1"
   id="svg19029"
   inkscape:version="0.92.3 (2405546, 2018-03-11)"
   sodipodi:docname="abstract_path.svg">
  <sodipodi:namedview
     id="base"
     pagecolor="#ffffff"
     bordercolor="#666666"
     borderopacity="1.0"
     inkscape:pageopacity="0.0"
     inkscape:pageshadow="2"
     inkscape:zoom="0.028284271"
     inkscape:cx="5301.5235"
     inkscape:cy="10846.217"
     inkscape:document-units="mm"
     inkscape:current-layer="layer1"
     showgrid="false"
     inkscape:window-width="1366"
     inkscape:window-height="727"
     inkscape:window-x="0"
     inkscape:window-y="41"
     inkscape:window-maximized="0"
     fit-margin-top="0"
     fit-margin-left="0"
     fit-margin-right="0"
     fit-margin-bottom="0" />
  <defs
     id="defs19023">
    <inkscape:path-effect
       effect="bend_path"
       id="path-effect20701"
       is_visible="true"
       bendpath="M -692.9793,69.001245 C 340.71599,861.1375 10.878547,577.09791 1217.4,-183.55556"
       prop_scale="1.2944145"
       scale_y_rel="false"
       vertical="false"
       bendpath-nodetypes="cc" />
    <inkscape:path-effect
       strokepath-nodetypes="cc"
       scale_y_rel="false"
       prop_scale="1"
       strokepath="m -527.80776,297.60749 144.55201,-423.35493"
       endpoint_spacing_variation="0;1"
       endpoint_edge_variation="0;1"
       startpoint_spacing_variation="0;1"
       startpoint_edge_variation="0;1"
       count="2"
       is_visible="true"
       id="path-effect19583"
       effect="curvestitching" />
    <inkscape:path-effect
       strokepath-nodetypes="cc"
       scale_y_rel="false"
       prop_scale="1"
       strokepath="M 265.47427,-136.33841 C 292.02135,-1372.7863 497.47338,1074.0703 610.92934,-512.45428"
       endpoint_spacing_variation="1.1;1664300568"
       endpoint_edge_variation="0.2;1728549841"
       startpoint_spacing_variation="2.8;2147483646"
       startpoint_edge_variation="0.3;1646326552"
       count="8"
       is_visible="true"
       id="path-effect19581"
       effect="curvestitching" />
    <inkscape:path-effect
       strokepath-nodetypes="cc"
       scale_y_rel="false"
       prop_scale="1"
       strokepath="M -38.562904,230.85417 C 864.35195,883.75015 -377.94467,513.84118 122.70907,522.8813"
       endpoint_spacing_variation="0;1"
       endpoint_edge_variation="0;1"
       startpoint_spacing_variation="0;1"
       startpoint_edge_variation="0;1"
       count="40"
       is_visible="true"
       id="path-effect19579"
       effect="curvestitching" />
    <clipPath
       clipPathUnits="userSpaceOnUse"
       id="clipPath20705">
      <rect
         style="opacity:1;fill:#ffffff;fill-opacity:0.26635515;stroke:#0a2431;stroke-width:2.736444;stroke-linecap:round;stroke-linejoin:round;stroke-miterlimit:4;stroke-dasharray:none;stroke-dashoffset:0;stroke-opacity:1;paint-order:stroke fill markers"
         id="rect20707"
         width="1992.7269"
         height="2042.3207"
         x="-1640.9829"
         y="-656.29083"
         transform="matrix(-0.67947647,-0.7336973,-0.52878223,0.84875753,0,0)"
         d="m -1351.2699,-1462.2337 c 705.47133,339.408 1165.45503,750.49013 1536.9238,1017.615 35.44432,25.41866 66.33219,47.25948 93.16633,64.7049 22.41171,14.26943 36.73385,23.61447 43.51342,26.86391 1e-5,0 1e-5,1e-5 2e-5,1e-5 5.98724,2.24515 -1.21711,-0.23287 -21.24008,-8.96886 -17.47691,-8.2883 -50.81358,-16.59621 -100.19272,-26.45056 -46.57362,-8.41274 -99.46141,-10.17137 -159.440488,-5.83037 -9.8e-5,10e-6 -1.95e-4,2e-5 -2.92e-4,3e-5 -58.909182,6.38521 -107.350587,16.2035 -145.87379,30.32639 -39.71008,14.98881 -64.38395,25.09276 -73.84785,31.73886 -10.64208,6.62522 -10.72774,5.90437 0.29371,-0.95495 10.13108,-6.78207 24.22349,-17.31373 42.5732,-31.14933 L 1458.182,1745.1701 c -36.3495,27.5071 -81.107,60.1218 -134.5684,97.3988 -54.8438,39.2065 -131.526,87.2981 -230.5973,143.0671 -85.6825,49.637 -201.47903,101.3354 -347.56347,153.6681 -137.20051,48.4759 -294.93357,82.0543 -472.64963,99.8637 l -4.4e-4,10e-5 c -180.232494,14.1478 -348.339275,7.4615 -503.54323,-19.5045 -169.11986,-31.0436 -307.23995,-69.2637 -414.17754,-113.1334 -126.73619,-50.4983 -226.94253,-97.6925 -300.99198,-140.0479 -91.92261,-51.0908 -166.92411,-96.852 -225.55161,-136.1124 -72.8896,-48.1205 -135.8864,-92.0608 -189.4932,-131.0033 -542.7343,-393.0415 -817.5021,-670.5335 -981.2762,-616.8444 z" />
    </clipPath>
  </defs>
  <metadata
     id="metadata19026">
    <rdf:RDF>
      <cc:Work
         rdf:about="">
        <dc:format>image/svg+xml</dc:format>
        <dc:type
           rdf:resource="http://purl.org/dc/dcmitype/StillImage" />
        <dc:title></dc:title>
      </cc:Work>
    </rdf:RDF>
  </metadata>
  <g
     id="layer1"
     inkscape:groupmode="layer"
     inkscape:label="Layer 1"
     transform="translate(758.15847,2226.7009)">
    <g
       id="g20601"
       transform="matrix(-0.41440004,-1.901983,0.38377554,-1.1849495,-400.57201,1320.6889)"
       inkscape:path-effect="#path-effect20701"
       clip-path="url(#clipPath20705)">
      <path
         inkscape:connector-curvature="0"
         style="fill:none;fill-opacity:1;stroke:#e9ecef;stroke-width:5;stroke-linecap:round;stroke-linejoin:round;stroke-miterlimit:4;stroke-dasharray:none;stroke-dashoffset:0;stroke-opacity:1"
         d="M 1168.9123,4.0401025 C 1095.3636,95.248662 1023.4841,185.80044 964.00199,260.3302 880.09961,365.56664 812.56832,448.87398 742.34542,527.25729 c -32.90961,36.70837 -65.08155,70.34267 -97.93856,101.78401 0,0 -2.1e-4,2e-4 -2.1e-4,2e-4 -31.9544,30.67689 -64.92361,59.00695 -99.56812,85.09953 -34.0673,25.8742 -71.27091,49.39161 -110.8235,69.9641 -40.67246,21.46411 -85.65375,38.18256 -131.68598,49.98022 0,0 -3.1e-4,8e-5 -3.1e-4,8e-5 -52.89386,13.50753 -105.0649,16.68341 -151.79825,13.20577 C 84.402102,841.5482 36.258417,821.52846 4.3645632,799.07379 -31.326456,773.39698 -48.40667,744.23456 -54.309442,716.32273 -60.275314,688.11252 -55.319847,659.52056 -44.432804,631.32105 -33.421671,602.80012 -16.36567,574.53453 3.0185256,544.66229 21.874343,515.60432 44.195327,483.22094 62.075719,450.36235 85.021328,407.83075 102.5237,361.62777 103.70673,314.27665 104.82654,275.35646 98.360872,236.77923 87.346718,200.85604 76.845953,163.26039 63.282845,125.99647 53.53846,90.397344 40.927062,42.969662 30.78657,3.9329425 24.438835,-39.906563 c 0,0 -9e-6,-1.16e-4 -9e-6,-1.16e-4 C 17.121743,-88.434587 14.096146,-112.48411 9.2368361,-149.38053 5.263531,-179.54956 2.110175,-201.72392 -2.2418028,-212.54804 c -4.2672747,-10.61345 -9.9251412,-10.01126 -16.4969272,4.806 -6.448116,14.53843 -13.316618,42.43473 -16.471731,81.40497 -2.205511,23.57138 0.509968,48.993412 10.824616,74.658101 0,0 4.4e-5,1.09e-4 4.4e-5,1.09e-4 6.912884,16.14886 20.8811438,32.862192 42.463712,48.503783 18.192633,11.9150294 38.470636,26.77027 61.653223,44.529058 20.760356,16.734748 34.378436,36.205662 40.416616,58.116067 4.74451,22.312322 -1.69535,42.381412 -19.21673,60.820922 -19.375288,19.52148 -47.486993,34.41395 -84.453461,46.04901 -40.692555,12.71161 -87.026087,21.2894 -140.251909,27.31567 -58.45361,6.63807 -120.39237,10.41488 -189.07695,12.77811 -12.69346,0.42786 -25.52682,0.81751 -38.5163,1.17101"
         id="path19608"
         inkscape:original-d="M 1012.7122,170.51856 C -1586.1571,958.96079 1740.2655,-1552.2764 -388.25282,20.186807" />
      <path
         inkscape:connector-curvature="0"
         style="fill:none;fill-opacity:1;stroke:#006bff;stroke-width:5;stroke-linecap:round;stroke-linejoin:round;stroke-miterlimit:4;stroke-dasharray:none;stroke-dashoffset:0;stroke-opacity:0.88317757"
         d="M 1534.7774,320.07239 C 1418.2698,440.9668 1323.968,539.4082 1233.3878,630.12263 c -84.8989,85.11601 -160.8473,156.81257 -238.00671,220.47061 -37.13371,30.68154 -75.29608,59.9341 -114.98773,87.56878 -38.73002,27.10136 -81.08584,53.77283 -126.44012,78.98158 -44.80459,25.2848 -96.75881,49.8951 -152.62523,72.0166 -58.08528,23.6663 -125.22484,42.1014 -193.80476,54.7741 -80.66638,14.9453 -160.40775,14.5194 -230.45122,5.4904 -104.207545,-15.0937 -173.7125559,-51.6765 -216.029355,-88.5842 -37.212482,-33.438 -55.24302,-68.36119 -61.819415,-101.3026 -6.61819,-33.15081 -2.04801,-66.05871 8.817398,-97.79639 10.932625,-31.93403 28.472148,-63.45835 49.211237,-95.28997 C -21.606212,734.00167 1.7083394,702.8574 25.975569,668.49249 64.2422,614.69741 100.09962,557.09699 119.56896,494.84309 135.22533,444.96611 140.00947,395.22866 136.99142,347.08426 134.40182,297.22516 124.47517,248.3336 115.37337,203.13847 103.80137,144.54831 89.865545,89.477181 79.568913,39.975696 71.246382,0.70103037 62.327243,-37.710339 54.5582,-66.272645 46.46562,-96.02441 38.581733,-119.21015 30.074953,-133.82247 c -8.510739,-14.61912 -17.58996,-20.44069 -27.1906708,-16.3449 -9.4911902,4.04906 -19.1595722,17.91424 -26.6590552,40.40034 -6.066451,17.277586 -7.569506,38.185148 -0.02189,59.162313 4.883386,12.485067 17.1714898,25.74366 38.515636,37.535951 17.938535,8.8534547 38.254254,20.4298219 63.32263,35.189562 22.102891,13.928693 37.845661,30.770995 46.541701,50.547973 7.29001,20.026816 3.77338,38.111511 -11.09079,54.843921 -16.441293,17.53077 -41.577075,30.64694 -76.039228,40.46438 -37.72153504,10.63012 -81.210905,17.24784 -131.986731,21.11405 -55.498771,4.24496 -114.695851,5.70495 -180.913471,5.49086 -40.5101,-0.17994 -82.30608,-0.78241 -126.1257,-1.75754"
         id="path19606"
         inkscape:original-d="M 1127.4301,528.89215 C -1645.848,1133.9482 1759.5014,-1489.6258 -447.00136,9.0733808" />
      <path
         inkscape:connector-curvature="0"
         style="fill:none;fill-opacity:1;stroke:#cedbd9;stroke-width:5;stroke-linecap:round;stroke-linejoin:round;stroke-miterlimit:4;stroke-dasharray:none;stroke-dashoffset:0;stroke-opacity:0.9766355"
         d="m 1518.714,307.9418 c -113.3845,118.1373 -207.9423,216.54853 -297.4575,305.5278 -84.7827,84.35605 -161.5145,155.93123 -239.68918,219.47202 -37.14552,30.24017 -75.426,59.17924 -115.37495,86.61885 -38.4448,26.53425 -80.55101,52.78936 -125.89751,77.79244 -43.9159,24.57679 -94.94514,48.75129 -150.47301,70.82859 -56.02346,22.9055 -121.21844,41.3429 -189.47424,54.617 -76.22495,14.8431 -153.37649,16.4332 -224.7787,9.5155 C 82.588788,1121.8192 11.957611,1094.9652 -39.480813,1064.0032 -137.0737,1003.4501 -167.34531,932.14979 -172.03362,872.57243 c -3.71124,-48.83736 8.51975,-96.4529 28.22474,-141.84777 19.85759,-45.74643 47.86901,-90.5877 78.20831,-135.88156 C -39.576637,556.05637 -9.8884211,514.14827 15.580888,473.12741 41.5899,431.23731 64.797544,387.88884 79.958777,342.30646 100.04314,280.35802 105.10634,218.11956 90.010499,158.36672 74.708903,97.692581 46.961665,42.017177 17.611885,-4.547545 -2.6373257,-38.356612 -33.444436,-86.284694 -49.977525,-112.55316 c -19.882094,-31.5895 -37.598666,-60.55038 -50.354735,-83.37208 -12.64185,-22.61735 -22.71708,-42.93452 -23.11098,-57.11007 -0.41928,-15.08895 8.64786,-26.1717 43.873387,-37.76048 27.31241,-8.76318 67.450737,-13.29051 129.244511,-9.99726 45.959829,4.08591 91.456982,14.36656 131.038642,34.30431 33.63314,18.4428 56.53338,37.76969 61.49085,58.13774 4.26089,19.63163 -2.62777,35.8753 -25.28735,48.10141 -23.30519,12.44203 -55.14721,20.93948 -98.81102,25.27061 -45.573306,4.57637 -97.456825,6.16812 -159.350345,4.89811 -144.788875,-3.64903 -276.692945,-12.16144 -479.757105,-25.54588"
         id="path19604"
         inkscape:original-d="M 1121.2447,514.34295 C -1653.082,1123.87 1612.5969,-1640.015 -692.9793,-149.55541" />
      <path
         inkscape:connector-curvature="0"
         style="fill:none;fill-opacity:1;stroke:#002e5f;stroke-width:7.33961582;stroke-linecap:butt;stroke-linejoin:miter;stroke-miterlimit:4;stroke-dasharray:none;stroke-opacity:0"
         d="m 1624.3762,492.81164 c -110.3309,104.00126 -204.6792,192.28805 -293.3103,271.39597 -85.2703,76.09523 -164.1665,142.33158 -245.2475,201.94887 -38.3041,28.25757 -78.3556,56.04612 -120.67213,83.02412 0,0 -2.9e-4,2e-4 -2.9e-4,2e-4 -40.35699,25.8676 -85.42445,52.4874 -134.7479,78.7297 -47.18127,25.5387 -103.39587,51.815 -165.65398,76.8734 -61.91665,25.6932 -135.73381,47.4807 -214.67866,64.4582 -86.46875,18.5736 -175.7637,23.0961 -260.86782,18.2133 -106.39322,-7.9534 -190.4910306,-32.9055 -255.132933,-63.6042 -102.939647,-50.5878 -154.250837,-108.4699 -179.606967,-159.463 -45.19322,-91.39138 -24.3107,-177.80734 14.15808,-251.12201 19.91351,-37.95161 45.74381,-74.68476 74.45437,-111.02117 29.08659,-36.81231 60.105774,-72.00145 92.09313,-109.39519 C -12.698903,532.04408 40.246988,467.40679 70.902279,397.02909 94.088833,342.93715 104.03934,287.79357 96.696295,234.47395 89.394948,180.7083 70.59264,130.12536 48.748526,87.165268 33.677154,55.774445 15.455122,22.067895 0.9993898,-4.5639349 -14.258615,-32.673792 -28.107717,-58.13308 -40.209827,-80.530178 c -14.37377,-27.008672 -25.946387,-47.533172 -36.498553,-65.780002 -9.703954,-16.7801 -18.225375,-30.83882 -20.845394,-38.77292 1.1e-5,-1e-5 -10e-6,-3e-5 -10e-6,-3e-5 -1.776423,-5.81942 -0.941613,-10.07326 5.434705,-13.29824 6.573993,-3.32495 18.516984,-5.50996 41.073353,-8.39681 25.238113,-3.36131 59.5862367,-2.53672 109.358216,4.31314 38.973764,6.80143 75.38411,18.88199 105.43769,38.47361 25.91754,18.53002 40.93867,37.10719 40.0033,55.97466 -1.60343,18.525488 -13.68198,33.358799 -39.65248,44.36357 -27.11357,11.336512 -61.98437,18.705524 -107.408863,22.270894 -47.8765907,3.79749 -101.346822,4.654566 -164.019697,2.908942 -122.34874,-3.852962 -242.71208,-11.488549 -405.02319,-22.883223"
         id="path19602"
         inkscape:original-d="M 1112.7615,678.67796 C -1733.1532,1151.2663 1656.0431,-1558.553 -641.66903,-95.809933" />
      <path
         inkscape:connector-curvature="0"
         style="fill:none;fill-opacity:1;stroke:#ffffff;stroke-width:5;stroke-linecap:round;stroke-linejoin:round;stroke-miterlimit:4;stroke-dasharray:none;stroke-dashoffset:0;stroke-opacity:1"
         d="m 1339.424,319.69713 c -69.3017,68.76797 -133.2458,132.52875 -192.7937,191.33131 -86.2363,85.21711 -161.43044,157.81127 -239.58956,226.68107 -35.69571,31.47298 -71.97949,61.85824 -109.91001,91.38609 -35.52643,27.78448 -74.06063,55.49947 -115.91843,82.64813 -39.18065,25.74281 -84.69151,51.55697 -135.37055,76.25112 -48.93511,24.35605 -106.627,45.72725 -169.76197,63.32205 -66.26468,18.3546 -135.93332,26.8005 -205.20669,27.5427 -81.008373,-0.4389 -150.015233,-12.9406 -207.568338,-31.6874 -77.876282,-26.2165 -131.371362,-58.05786 -168.098582,-89.11438 -67.32826,-56.6678 -94.55578,-111.82714 -102.99685,-158.65285 -11.43209,-62.37882 6.50254,-119.13931 38.3413,-169.67188 32.33746,-51.32408 79.66556,-97.60041 132.87765,-143.47603 54.739104,-47.19206 122.235075,-98.61395 170.891165,-152.14813 -5e-6,-10e-6 1.04e-4,-1.2e-4 1.04e-4,-1.2e-4 33.263768,-36.9743 58.466708,-76.16334 66.749541,-119.35843 6.19434,-37.0861 1.52986,-73.10393 -15.424156,-106.07885 C 68.163668,75.124894 46.529978,44.684335 26.057712,20.329596 -2.3980878,-16.18013 -20.387461,-42.561153 -34.276615,-69.712387 -48.736552,-98.96229 -57.651873,-120.62046 -62.439494,-128.9934 c -2.343608,-4.09867 -3.795374,-5.19708 -3.604077,-2.63001 0.173444,2.3275 1.994462,8.33326 6.867537,16.5129 1.6e-5,-10e-6 2.1e-5,4e-5 2.1e-5,4e-5 6.098903,9.47461 20.641427,24.371871 52.5579855,39.193882 21.5176625,9.01179 46.6120715,21.493199 79.4937995,39.231512 26.439162,15.263527 47.272648,34.3769153 60.214728,57.95085 10.73306,22.585536 10.27733,43.895873 -3.50223,64.246182 -14.7288,20.530954 -38.966974,36.862534 -74.2547,49.763274 -37.414091,13.56907 -81.399706,23.08714 -134.027673,29.67614 -56.064987,7.04893 -116.537567,11.16889 -185.128687,13.51667 -71.90753,2.36098 -147.21836,3.29648 -230.54808,3.25189"
         id="path19600"
         inkscape:original-d="M 985.78915,446.56519 C -1813.8819,941.34676 1630.0781,-1511.8608 -512.00115,45.170583" />
      <path
         inkscape:connector-curvature="0"
         style="fill:none;fill-opacity:1;stroke:#002e5f;stroke-width:5;stroke-linecap:round;stroke-linejoin:round;stroke-miterlimit:4;stroke-dasharray:none;stroke-dashoffset:0;stroke-opacity:1"
         d="m 1531.1644,515.43932 c -84.3654,76.93009 -158.3725,144.49922 -229.6063,208.26227 -85.4218,76.45363 -162.8558,143.5389 -243.5977,206.85722 -37.1687,29.2158 -75.88633,58.22095 -116.9921,86.95089 -38.46101,27.0342 -81.52817,55.154 -129.12928,83.5093 -44.49313,26.9446 -98.02782,55.1649 -158.48009,83.0077 -58.4423,27.6383 -129.1804,52.4269 -207.3057,73.3965 -82.32718,21.9627 -169.55744,31.7782 -256.64577,32.4209 -102.082145,-1.0658 -188.1719892,-16.8753 -259.606253,-40.2314 -96.706497,-32.8125 -161.343557,-71.2623 -204.842587,-108.249 -80.76034,-68.2951 -110.52324,-132.1485 -118.5537,-185.02827 -10.01002,-64.33199 8.18173,-122.17339 39.82368,-173.05003 32.06505,-51.55694 78.98181,-97.86748 132.61035,-142.32017 61.23644,-50.75618 133.236176,-98.71626 196.481761,-152.90325 40.723044,-34.9393 76.960918,-72.4321 99.415302,-114.19769 C 93.216424,338.67512 102.23432,302.5873 99.626502,267.82973 97.160029,233.23586 88.154083,199.90019 77.383921,171.51068 63.124905,130.12618 53.495743,107.31189 43.874335,72.777102 35.189412,40.570986 30.632776,22.195807 25.31685,-1.0183636 20.758002,-20.926447 17.861479,-34.642633 15.120406,-41.030135 c -2.568472,-5.985289 -5.2108544,-4.929944 -6.5397924,5.452297 -1.2795578,9.99646 -1.0064631,28.3343708 4.5647834,52.328118 3.992298,16.080897 13.235154,34.808786 30.319056,54.850778 12.652025,13.309562 27.35296,30.031222 43.27825,49.566972 13.563837,17.20783 20.746917,36.8081 20.148777,58.40133 -1.67136,21.11865 -13.269006,40.14586 -35.369864,57.46333 -23.554199,17.86218 -54.959052,31.5154 -94.899797,42.20102 -42.984291,11.42494 -91.104669,19.05939 -146.347569,24.45328 -59.55515,5.82548 -122.20147,8.98245 -192.30177,10.91727 -43.82297,1.20861 -89.07222,1.96168 -136.65656,2.354"
         id="path19598"
         inkscape:original-d="M 1031.5167,654.37665 C -1860.3307,1057.005 1666.711,-1429.9595 -450.16158,130.79886" />
      <path
         inkscape:connector-curvature="0"
         style="fill:none;fill-opacity:1;stroke:#0a2431;stroke-width:5;stroke-linecap:round;stroke-linejoin:round;stroke-miterlimit:4;stroke-dasharray:none;stroke-dashoffset:0;stroke-opacity:1"
         d="m 1425.331,410.18278 c -75.7418,72.41562 -142.8809,136.69942 -207.9182,198.01048 -85.5182,80.65258 -162.1561,150.78977 -241.87057,217.04933 -36.34336,30.24955 -73.82671,59.91753 -113.36757,89.05461 -36.79602,27.25364 -77.43226,55.07672 -122.0617,82.79223 -41.44429,26.11637 -90.54485,52.98067 -145.84479,79.19927 -52.95215,25.7083 -116.3928,48.6859 -186.62051,68.0114 -73.003,19.9638 -150.45039,29.3348 -228.36134,30.3308 -89.648058,-0.3798 -166.54414,-13.6365 -231.43691,-34.0734 -84.90848,-27.7028 -144.62065,-60.8602 -186.65292,-93.7539 -68.63207,-53.37295 -104.19233,-104.90246 -122.23564,-150.01093 -22.26754,-54.91243 -24.1605,-106.01278 -14.58943,-152.09393 9.62185,-46.32562 31.25676,-89.71406 59.73628,-130.01487 28.66795,-40.56748 64.57245,-78.49266 104.38934,-115.25576 40.11367,-37.03712 82.99788,-71.84845 126.736497,-107.91945 C -26.84839,343.74227 29.303992,295.9442 69.893447,241.28129 100.82605,198.95965 118.78987,155.76466 118.47468,109.57947 116.83946,65.359213 101.48467,25.999945 75.381595,-8.1602427 40.741467,-52.525566 5.5603656,-86.511916 -18.003704,-109.45307 c -17.233176,-17.8411 -28.912995,-32.22043 -33.002084,-41.21028 -4.239548,-9.32064 -1.173495,-13.43912 14.296946,-13.88561 17.085666,-0.70103 47.015827,4.28881 100.213246,21.18624 32.372448,11.45606 63.923026,28.60876 87.875786,54.115249 18.71628,22.095329 27.22162,44.690395 19.28557,67.570707 -8.30101,21.67818564 -26.90477,40.013111 -59.49063,54.821552 -33.108253,14.930889 -73.971239,26.08439 -125.657958,33.946205 -53.404021,8.170715 -112.352882,13.461555 -181.050252,16.71048 -116.39665,5.224621 -235.52524,6.485327 -386.39258,6.306377"
         id="path19596"
         inkscape:original-d="M 1004.4624,541.50852 C -1850.591,996.89509 1539.8866,-1555.8147 -612.17549,29.771608" />
      <path
         inkscape:connector-curvature="0"
         style="fill:none;fill-opacity:1;stroke:#d4e5ea;stroke-width:5;stroke-linecap:round;stroke-linejoin:round;stroke-miterlimit:4;stroke-dasharray:none;stroke-dashoffset:0;stroke-opacity:1"
         d="m 1287.0282,325.84724 c -69.9755,69.69417 -89.5004,89.29828 -159.4759,158.99245 -85.9826,85.59673 -160.67001,158.72278 -238.96702,229.28692 -35.21849,31.75341 -71.00712,62.53332 -108.50396,92.63582 -34.73288,28.01051 -72.41607,56.06694 -113.52122,83.7505 -37.97436,25.89554 -82.16277,52.03175 -131.78202,77.30977 -47.16057,24.50783 -103.02253,46.4301 -165.00557,64.9166 -63.76218,18.8811 -131.5281,28.6676 -200.23349,30.934 -78.062933,1.3178 -146.26814,-8.542 -204.817227,-25.0628 -75.111753,-21.9254 -130.437813,-49.14175 -170.957983,-76.78896 -62.57311,-42.36317 -100.64115,-84.25593 -123.85186,-121.63626 -39.11093,-62.28391 -47.97256,-119.86739 -41.03927,-170.06407 7.00108,-50.68741 30.51006,-97.32776 63.15661,-139.65619 33.01677,-42.80845 75.50052,-81.5177 123.08062,-118.96452 47.38622,-37.29424 99.321041,-72.84724 149.09313,-109.5537 C 14.802713,264.6186 60.592023,226.76109 92.407137,182.53344 117.3301,147.06177 129.37695,110.86992 124.63882,72.333488 118.66503,35.618814 101.04819,3.7386897 74.077869,-23.001101 40.399626,-55.312905 9.6588454,-78.85161 -12.881356,-94.365225 c -24.21235,-18.010515 -37.423663,-30.796515 -39.25273,-33.379635 -1.092717,-1.5432 0.702318,-0.53595 5.768558,2.57334 4.655523,2.85722 14.521786,9.01429 28.474616,16.05084 2.5e-5,-1e-5 6.6e-5,3e-5 6.6e-5,3e-5 20.3514287,9.357423 47.645065,23.554616 88.614027,47.932079 27.122933,17.104899 50.495059,39.140282 64.844599,67.4853448 11.05084,25.0987452 11.10756,49.7765512 -3.96963,73.9705452 -15.36108,23.379931 -40.726686,42.966081 -78.583568,59.249191 -38.88813,16.63407 -84.921028,29.34288 -140.79854,39.28814 -58.174082,10.39029 -121.188862,17.8547 -193.457672,23.81024 -90.51888,7.35397 -185.42302,12.50225 -294.69652,16.85402"
         id="path19576"
         inkscape:original-d="M 945.55344,427.95045 C -1871.6204,913.31156 1520.7887,-1544.4273 -545.74861,106.44753" />
    </g>
  </g>
</svg>
