<?xml version="1.0" encoding="UTF-8" standalone="no"?>
<!-- Created with Inkscape (http://www.inkscape.org/) -->

<svg
   xmlns:dc="http://purl.org/dc/elements/1.1/"
   xmlns:cc="http://creativecommons.org/ns#"
   xmlns:rdf="http://www.w3.org/1999/02/22-rdf-syntax-ns#"
   xmlns:svg="http://www.w3.org/2000/svg"
   xmlns="http://www.w3.org/2000/svg"
   xmlns:sodipodi="http://sodipodi.sourceforge.net/DTD/sodipodi-0.dtd"
   xmlns:inkscape="http://www.inkscape.org/namespaces/inkscape"
   width="431.5361mm"
   height="50.074261mm"
   viewBox="0 0 431.5361 50.074261"
   version="1.1"
   id="svg1778"
   inkscape:version="0.92.3 (2405546, 2018-03-11)"
   sodipodi:docname="levels_abstraction.svg">
  <defs
     id="defs1772">
    <inkscape:path-effect
       effect="rough_hatches"
       id="path-effect959"
       is_visible="true"
       direction="-5.5630785,208.24698 , 3.3168657,0"
       dist_rdm="75;2147483646"
       growth="1"
       do_bend="false"
       bender="-5.5630785,213.24698 , 5,0"
       bottom_edge_variation="1.312212;2147483646"
       top_edge_variation="1.312212;152884365"
       bottom_tgt_variation="0;2147483646"
       top_tgt_variation="0;170058102"
       scale_bf="1"
       scale_bb="1"
       scale_tf="1"
       scale_tb="1"
       top_smth_variation="0;1"
       bottom_smth_variation="0;1"
       fat_output="true"
       stroke_width_top="1"
       stroke_width_bottom="1"
       front_thickness="1"
       back_thickness="0.25" />
    <inkscape:path-effect
       effect="copy_rotate"
       starting_point="112.87575,213.24698"
       origin="101.83896,213.24698"
       id="path-effect123660"
       is_visible="true"
       copies_to_360="true"
       fuse_paths="false"
       starting_angle="0"
       rotation_angle="72"
       num_copies="5" />
    <inkscape:path-effect
       effect="sketch"
       id="path-effect123674"
       is_visible="true"
       nbiter_approxstrokes="5"
       strokelength="100"
       strokelength_rdm="0.3;1"
       strokeoverlap="0.3"
       strokeoverlap_rdm="0.3;1"
       ends_tolerance="0.1;1"
       parallel_offset="5;1"
       tremble_size="5;1"
       tremble_frequency="1"
       nbtangents="5"
       tgt_places_rdmness="1;1"
       tgtscale="10"
       tgtlength="20"
       tgtlength_rdm="0.3;1" />
    <inkscape:path-effect
       effect="interpolate_points"
       id="path-effect123560"
       is_visible="true"
       interpolator_type="CentripetalCatmullRom" />
    <inkscape:path-effect
       effect="bend_path"
       id="path-effect123564"
       is_visible="true"
       bendpath="M 270.40832,214.48223 H 308.1755"
       prop_scale="1"
       scale_y_rel="false"
       vertical="false" />
    <inkscape:path-effect
       effect="join_type"
       id="path-effect123558"
       is_visible="true"
       linecap_type="square"
       line_width="0.8"
       linejoin_type="round"
       miter_limit="100"
       attempt_force_join="true" />
    <inkscape:path-effect
       effect="bend_path"
       id="path-effect123644"
       is_visible="true"
       bendpath="m 293.97169,148.53641 c 3.85458,0.76819 9.42533,-0.84442 17.01264,-0.70475"
       prop_scale="1"
       scale_y_rel="false"
       vertical="false"
       bendpath-nodetypes="cc" />
    <inkscape:path-effect
       effect="roughen"
       id="path-effect123648"
       is_visible="true"
       method="size"
       max_segment_size="37"
       segments="18"
       displace_x="5;1"
       displace_y="5;1"
       global_randomize="1;2147483646"
       handles="along"
       shift_nodes="true"
       fixed_displacement="true"
       spray_tool_friendly="true" />
    <inkscape:path-effect
       effect="taper_stroke"
       id="path-effect945"
       is_visible="true"
       stroke_width="3.1"
       attach_start="0.2"
       end_offset="0.2"
       smoothing="10"
       jointype="bevel"
       miter_limit="100" />
    <inkscape:path-effect
       effect="perspective-envelope"
       up_left_point="382.61938,145.71623"
       up_right_point="383.88442,149.06499"
       down_left_point="378.92713,151.09221"
       down_right_point="384.76567,150.99227"
       id="path-effect947"
       is_visible="true"
       deform_type="envelope_deformation"
       horizontal_mirror="false"
       vertical_mirror="false"
       overflow_perspective="false" />
  </defs>
  <sodipodi:namedview
     id="base"
     pagecolor="#ffffff"
     bordercolor="#666666"
     borderopacity="1.0"
     inkscape:pageopacity="0.0"
     inkscape:pageshadow="2"
     inkscape:zoom="0.35"
     inkscape:cx="890.93617"
     inkscape:cy="-24.653579"
     inkscape:document-units="mm"
     inkscape:current-layer="layer1"
     showgrid="false"
     fit-margin-top="0"
     fit-margin-left="0"
     fit-margin-right="0"
     fit-margin-bottom="0"
     inkscape:window-width="1366"
     inkscape:window-height="713"
     inkscape:window-x="0"
     inkscape:window-y="0"
     inkscape:window-maximized="1" />
  <metadata
     id="metadata1775">
    <rdf:RDF>
      <cc:Work
         rdf:about="">
        <dc:format>image/svg+xml</dc:format>
        <dc:type
           rdf:resource="http://purl.org/dc/dcmitype/StillImage" />
        <dc:title></dc:title>
      </cc:Work>
    </rdf:RDF>
  </metadata>
  <g
     inkscape:label="Layer 1"
     inkscape:groupmode="layer"
     id="layer1"
     transform="translate(100.10734,-102.62954)">
    <g
       transform="translate(-99.879152,-82.805653)"
       id="g1250"
       style="display:inline;opacity:1">
      <g
         id="g1136">
        <g
           id="g1127"
           style="opacity:0.3">
          <path
             id="path123294"
             d="m 421.82774,187.23992 h -40.44373 v 40.44374 h 40.44373 z"
             style="opacity:1;fill:#00b2ff;fill-opacity:1;stroke:#ffffff;stroke-width:0.55530155;stroke-linecap:round;stroke-linejoin:round;stroke-miterlimit:4;stroke-dasharray:none;stroke-dashoffset:0;stroke-opacity:1;paint-order:normal"
             inkscape:connector-curvature="0" />
          <path
             style="opacity:1;fill:#00b2ff;fill-opacity:1;stroke:#ffffff;stroke-width:0.55530155;stroke-linecap:round;stroke-linejoin:round;stroke-miterlimit:4;stroke-dasharray:none;stroke-dashoffset:0;stroke-opacity:1;paint-order:normal"
             d="m 423.49364,185.71284 h -40.44373 v 40.44374 h 40.44373 z"
             id="path123314"
             inkscape:connector-curvature="0" />
        </g>
        <g
           id="g123514">
          <path
             id="path123408"
             d="m 429.27301,192.87407 h -42.34467 v 42.34468 h 42.34467 z"
             style="opacity:1;fill:#00b2ff;fill-opacity:1;stroke:#ffffff;stroke-width:0.581402;stroke-linecap:round;stroke-linejoin:round;stroke-miterlimit:4;stroke-dasharray:none;stroke-dashoffset:0;stroke-opacity:1;paint-order:normal"
             inkscape:connector-curvature="0" />
          <path
             style="opacity:1;fill:#00b2ff;fill-opacity:1;stroke:#ffffff;stroke-width:0.581402;stroke-linecap:round;stroke-linejoin:round;stroke-miterlimit:4;stroke-dasharray:none;stroke-dashoffset:0;stroke-opacity:1;paint-order:normal"
             d="m 431.01722,191.27521 h -42.34467 v 42.34468 h 42.34467 z"
             id="path123428"
             inkscape:connector-curvature="0" />
        </g>
      </g>
      <g
         transform="translate(0,0.32763298)"
         id="g1192">
        <g
           id="g1091"
           style="opacity:0.3">
          <path
             inkscape:connector-curvature="0"
             style="opacity:1;fill:#9000ff;fill-opacity:1;stroke:#ffffff;stroke-width:0.15111409;stroke-linecap:round;stroke-linejoin:round;stroke-miterlimit:4;stroke-dasharray:none;stroke-dashoffset:0;stroke-opacity:1;paint-order:normal"
             d="M 11.182447,201.95881 H 0.17649966 v 11.00595 H 11.182447 Z"
             id="path123296" />
          <path
             id="path123316"
             d="M 12.848347,200.43173 H 1.8423997 v 11.00595 H 12.848347 Z"
             style="opacity:1;fill:#9000ff;fill-opacity:1;stroke:#ffffff;stroke-width:0.15111409;stroke-linecap:round;stroke-linejoin:round;stroke-miterlimit:4;stroke-dasharray:none;stroke-dashoffset:0;stroke-opacity:1;paint-order:normal"
             inkscape:connector-curvature="0" />
        </g>
        <g
           id="g957"
           inkscape:path-effect="#path-effect959"
           transform="rotate(-15,-2.0249723,164.77191)">
          <path
             inkscape:connector-curvature="0"
             style="opacity:1;fill:#9000ff;fill-opacity:1;stroke:#ffffff;stroke-width:0.1582168;stroke-linecap:round;stroke-linejoin:round;stroke-miterlimit:4;stroke-dasharray:none;stroke-dashoffset:0;stroke-opacity:1;paint-order:normal"
             d="m -0.91946652,208.28478 c 0,0 -0.49999998,10.31823 -0.25394758,10.31823 -0.1289475,0 -0.1289475,-10.11832 -0.3704178,-10.11832 -0.6164703,0 -0.6164703,9.73901 -0.291814,9.73901 -0.050344,0 -0.050344,-9.67238 -0.7630744,-9.67238 -1.0877309,0 -1.0877309,9.7954 -0.9953546,9.7954 -0.2826238,0 -0.2826238,-10.12345 -0.6587358,-10.12345 -0.751112,0 -0.751112,11.02047 -0.4731741,11.02047 -0.097062,0 -0.097062,-11.51255 -0.3476326,-11.51255 -0.6255706,0 -0.6255706,11.06147 -0.8270762,11.06147 -0.5765056,0 -0.5765056,-10.35411 -1.4112328,-10.35411 -1.2097272,0 -1.2097272,9.9953 -1.2052039,9.9953 -0.3704768,0 -0.3704768,-10.04655 -1.2604934,-10.04655 -1.2650163,0 -1.2650163,9.96454 -1.3648353,9.96454 -0.474818,0 -0.599818,-10.06706 -0.599818,-10.06706 0,0 -0.125,11.06706 0.599818,11.06706 1.099819,0 1.099819,-9.96454 1.3648353,-9.96454 0.6400166,0 0.6400166,10.04655 1.2604934,10.04655 0.9954767,0 0.9954767,-9.9953 1.2052039,-9.9953 0.5847272,0 0.5847272,10.35411 1.4112328,10.35411 1.2015056,0 1.2015056,-11.06147 0.8270762,-11.06147 5.706e-4,0 5.706e-4,11.51255 0.3476326,11.51255 0.7220621,0 0.7220621,-11.02047 0.4731741,-11.02047 0.126112,0 0.126112,10.12345 0.6587358,10.12345 0.9076237,0 0.9076237,-9.7954 0.9953546,-9.7954 0.4627308,0 0.4627308,9.67238 0.7630744,9.67238 0.6753437,0 0.6753437,-9.73901 0.291814,-9.73901 -0.00853,0 -0.00853,10.11832 0.3704178,10.11832 0.75394758,0 0.25394758,-11.31823 0.25394758,-11.31823 z"
             id="path123410"
             inkscape:original-d="M -0.67355706,208.28478 H -12.19681 v 11.52326 h 11.52325294 z" />
          <path
             id="path123430"
             d="m 0.40727976,206.68592 c 0,0 -0.5,9.87228 -0.23062582,9.87228 -0.10562582,0 -0.10562582,-10.23109 -0.69650706,-10.23109 -0.96588128,0 -0.96588128,11.18962 -1.06291918,11.18962 -0.4720379,0 -0.4720379,-10.17983 -1.2422392,-10.17983 -1.1452012,0 -1.1452012,10.12857 -0.9993395,10.12857 -0.2291383,0 -0.2291383,-10.37974 -0.9034995,-10.37974 -1.0493611,0 -1.0493611,9.9953 -1.2309556,9.9953 -0.5565946,0 -0.5565946,-10.71291 -1.4886972,-10.71291 -1.3071026,0 -1.3071026,11.05634 -1.5755148,11.05634 -0.6434122,0 -0.7684122,-10.73854 -0.7684122,-10.73854 0,0 -0.125,11.73854 0.7684122,11.73854 1.2684122,0 1.2684122,-11.05634 1.5755148,-11.05634 0.6821026,0 0.6821026,10.71291 1.4886972,10.71291 1.1815945,0 1.1815945,-9.9953 1.2309556,-9.9953 0.4243612,0 0.4243612,10.37974 0.9034995,10.37974 0.8541383,0 0.8541383,-10.12857 0.9993395,-10.12857 0.5202013,0 0.5202013,10.17983 1.2422392,10.17983 1.09703793,0 1.09703793,-11.18962 1.06291918,-11.18962 0.34088124,0 0.34088124,10.23109 0.69650706,10.23109 0.73062582,0 0.23062582,-10.87228 0.23062582,-10.87228 z"
             style="opacity:1;fill:#9000ff;fill-opacity:1;stroke:#ffffff;stroke-width:0.1582168;stroke-linecap:round;stroke-linejoin:round;stroke-miterlimit:4;stroke-dasharray:none;stroke-dashoffset:0;stroke-opacity:1;paint-order:normal"
             inkscape:connector-curvature="0"
             inkscape:original-d="M 1.0706529,206.68592 H -10.4526 v 11.52326 H 1.0706529 Z" />
        </g>
      </g>
      <g
         transform="translate(13.260552,-0.115576)"
         id="g1176">
        <g
           id="g1111"
           transform="translate(-10.583333)">
          <path
             inkscape:connector-curvature="0"
             d="m 128.50968,197.75341 c 0,0 -19.41674,0 -19.41674,0 0,0 0,1.9e-4 0,5.2e-4 0,0.0896 0,19.41624 0,19.41624 0,0 19.41674,0 19.41674,0 0,0 0,-1.9e-4 0,-5.3e-4 0,-0.0896 0,-19.41623 0,-19.41623"
             style="opacity:0.3;fill:#6632ff;fill-opacity:1;stroke:#ffffff;stroke-width:0.2665962;stroke-linecap:round;stroke-linejoin:round;stroke-miterlimit:4;stroke-dasharray:none;stroke-dashoffset:0;stroke-opacity:1;paint-order:normal"
             id="path123300" />
          <path
             inkscape:connector-curvature="0"
             id="path123320"
             style="opacity:0.3;fill:#6632ff;fill-opacity:1;stroke:#ffffff;stroke-width:0.2665962;stroke-linecap:round;stroke-linejoin:round;stroke-miterlimit:4;stroke-dasharray:none;stroke-dashoffset:0;stroke-opacity:1;paint-order:normal"
             d="m 130.17558,196.22633 c 0,0 -19.41674,0 -19.41674,0 0,0 0,1.9e-4 0,5.2e-4 0,0.0896 0,19.41624 0,19.41624 0,0 19.41674,0 19.41674,0 0,0 0,-1.9e-4 0,-5.3e-4 0,-0.0896 0,-19.41623 0,-19.41623" />
        </g>
        <g
           id="g123538"
           inkscape:path-effect="#path-effect123660"
           transform="matrix(0.48967711,0,0,0.48967711,57.765913,108.89712)">
          <path
             inkscape:connector-curvature="0"
             d="m 122.16832,203.88172 c 0,0 -20.32936,0 -20.32936,0 0,0 0,1.9e-4 0,5.5e-4 0,0.0938 0,20.32884 0,20.32884 0,0 20.32936,0 20.32936,0 0,0 0,-2e-4 0,-5.5e-4 0,-0.0938 0,-20.32884 0,-20.32884 z M 99.214186,191.01859 c 0,0 -6.282118,19.33437 -6.282118,19.33437 0,0 1.81e-4,5e-5 5.24e-4,1.7e-4 0.08921,0.029 19.333878,6.28195 19.333878,6.28195 0,0 6.28212,-19.33437 6.28212,-19.33437 0,0 -2e-4,-6e-5 -5.3e-4,-1.7e-4 -0.0892,-0.029 -19.333874,-6.28195 -19.333874,-6.28195 z m -19.326785,17.85575 c 0,0 16.446797,11.94929 16.446797,11.94929 0,0 1.12e-4,-1.5e-4 3.24e-4,-4.4e-4 0.05513,-0.0759 11.948988,-16.44638 11.948988,-16.44638 0,0 -16.446794,-11.9493 -16.446794,-11.9493 0,0 -1.17e-4,1.7e-4 -3.23e-4,4.5e-4 -0.05513,0.0759 -11.948992,16.44638 -11.948992,16.44638 z m 11.009523,23.89859 c 0,0 16.446796,-11.9493 16.446796,-11.9493 0,0 -1.1e-4,-1.5e-4 -3.2e-4,-4.4e-4 -0.0551,-0.0759 -11.948994,-16.44638 -11.948994,-16.44638 0,0 -16.446798,11.9493 -16.446798,11.9493 0,0 1.18e-4,1.6e-4 3.24e-4,4.5e-4 0.05513,0.0759 11.948992,16.44637 11.948992,16.44637 z m 26.131046,-3.0856 c 0,0 -6.28212,-19.33437 -6.28212,-19.33437 0,0 -1.8e-4,5e-5 -5.2e-4,1.7e-4 -0.0892,0.029 -19.333877,6.28195 -19.333877,6.28195 0,0 6.282117,19.33437 6.282117,19.33437 0,0 1.91e-4,-6e-5 5.24e-4,-1.7e-4 0.08921,-0.029 19.333876,-6.28195 19.333876,-6.28195 z"
             style="opacity:1;fill:#6632ff;fill-opacity:1;stroke:#ffffff;stroke-width:0.27912685;stroke-linecap:round;stroke-linejoin:round;stroke-miterlimit:4;stroke-dasharray:none;stroke-dashoffset:0;stroke-opacity:1;paint-order:normal"
             id="path123414"
             inkscape:original-d="m 122.16832,203.88172 c 0,0 -20.32936,0 -20.32936,0 0,0 0,1.9e-4 0,5.5e-4 0,0.0938 0,20.32884 0,20.32884 0,0 20.32936,0 20.32936,0 0,0 0,-2e-4 0,-5.5e-4 0,-0.0938 0,-20.32884 0,-20.32884" />
          <path
             inkscape:connector-curvature="0"
             id="path123434"
             style="opacity:1;fill:#6632ff;fill-opacity:1;stroke:#ffffff;stroke-width:0.27912685;stroke-linecap:round;stroke-linejoin:round;stroke-miterlimit:4;stroke-dasharray:none;stroke-dashoffset:0;stroke-opacity:1;paint-order:normal"
             d="m 123.91253,202.28286 c 0,0 -20.32936,0 -20.32936,0 0,0 0,1.9e-4 0,5.5e-4 0,0.0938 0,20.32884 0,20.32884 0,0 20.32936,0 20.32936,0 0,0 0,-2e-4 0,-5.5e-4 0,-0.0938 0,-20.32884 0,-20.32884 z M 98.23257,188.86567 c 0,0 -6.282117,19.33437 -6.282117,19.33437 0,0 1.8e-4,6e-5 5.23e-4,1.7e-4 0.08921,0.029 19.333874,6.28196 19.333874,6.28196 0,0 6.28212,-19.33437 6.28212,-19.33437 0,0 -1.9e-4,-7e-5 -5.2e-4,-1.7e-4 -0.0892,-0.029 -19.33388,-6.28196 -19.33388,-6.28196 z m -20.696051,20.27695 c 0,0 16.446797,11.9493 16.446797,11.9493 0,0 1.12e-4,-1.6e-4 3.24e-4,-4.5e-4 0.05513,-0.0759 11.94899,-16.44637 11.94899,-16.44637 0,0 -16.446796,-11.9493 -16.446796,-11.9493 0,0 -1.17e-4,1.6e-4 -3.23e-4,4.4e-4 -0.05513,0.0759 -11.948992,16.44638 -11.948992,16.44638 z m 12.889096,25.94904 c 0,0 16.446795,-11.9493 16.446795,-11.9493 0,0 -1.1e-4,-1.5e-4 -3.2e-4,-4.4e-4 -0.0551,-0.0759 -11.948993,-16.44638 -11.948993,-16.44638 0,0 -16.446798,11.9493 -16.446798,11.9493 0,0 1.18e-4,1.6e-4 3.23e-4,4.4e-4 0.05513,0.0759 11.948993,16.44638 11.948993,16.44638 z m 28.661955,-4.23957 c 0,0 -6.28212,-19.33437 -6.28212,-19.33437 0,0 -1.8e-4,6e-5 -5.2e-4,1.7e-4 -0.0892,0.029 -19.333881,6.28196 -19.333881,6.28196 0,0 6.282118,19.33437 6.282118,19.33437 0,0 1.9e-4,-6e-5 5.23e-4,-1.7e-4 0.08921,-0.029 19.33388,-6.28196 19.33388,-6.28196 z"
             inkscape:original-d="m 123.91253,202.28286 c 0,0 -20.32936,0 -20.32936,0 0,0 0,1.9e-4 0,5.5e-4 0,0.0938 0,20.32884 0,20.32884 0,0 20.32936,0 20.32936,0 0,0 0,-2e-4 0,-5.5e-4 0,-0.0938 0,-20.32884 0,-20.32884" />
        </g>
      </g>
      <g
         transform="translate(19.064437,-3.8074101)"
         id="g1168">
        <path
           id="path123302"
           style="opacity:0.3;fill:#524cff;fill-opacity:1;stroke:#ffffff;stroke-width:0.32433727;stroke-linecap:round;stroke-linejoin:round;stroke-miterlimit:4;stroke-dasharray:none;stroke-dashoffset:0;stroke-opacity:1;paint-order:normal"
           d="m 176.58994,195.65071 c 0,0 -23.62214,0 -23.62214,0 0,0 0,2.7e-4 0,7.9e-4 0,0.13433 0,23.62137 0,23.62137 0,0 23.62214,0 23.62214,0 0,0 0,-2.8e-4 0,-8e-4 0,-0.13432 0,-23.62136 0,-23.62136"
           inkscape:connector-curvature="0" />
        <path
           d="m 178.25584,194.12363 c 0,0 -23.62214,0 -23.62214,0 0,0 0,2.7e-4 0,7.9e-4 0,0.13433 0,23.62137 0,23.62137 0,0 23.62214,0 23.62214,0 0,0 0,-2.8e-4 0,-8e-4 0,-0.13432 0,-23.62136 0,-23.62136"
           style="opacity:0.3;fill:#524cff;fill-opacity:1;stroke:#ffffff;stroke-width:0.32433727;stroke-linecap:round;stroke-linejoin:round;stroke-miterlimit:4;stroke-dasharray:none;stroke-dashoffset:0;stroke-opacity:1;paint-order:normal"
           id="path123322"
           inkscape:connector-curvature="0" />
        <g
           id="g123534"
           transform="matrix(0.77546821,0,0,0.77546821,28.955042,51.493905)"
           inkscape:path-effect="#path-effect123674">
          <path
             inkscape:connector-curvature="0"
             d="m 180.11306,209.57047 c -1.75965,-0.0618 -3.62978,-0.1203 -5.619,-0.17387 -3.08404,-0.0831 -5.90508,-0.13951 -8.2811,-0.17908 -1.13582,-0.0189 -2.09416,-0.0327 -2.76038,-0.0418 -0.10127,-0.001 -0.6771,-0.009 -0.77837,-0.0103 -0.028,-3.6e-4 -0.17871,-0.002 -0.2067,-0.003 -0.007,-10e-5 -0.0464,-5.9e-4 -0.0538,-6.8e-4 -0.006,-8e-5 -0.0129,-1.6e-4 -0.0192,-2.4e-4 -2e-5,0 -3e-5,0 -3e-5,0 3.7e-4,-4.2e-4 7.4e-4,-5.4e-4 0.001,-4e-4 0.008,0.68922 0.068,5.54454 0.0248,12.32119 -0.0202,3.17005 -0.0574,6.06202 -0.0958,8.47489 -0.0183,1.15464 -0.0358,2.12958 -0.0484,2.80389 -0.002,0.10287 -0.013,0.68593 -0.0149,0.7888 -5.5e-4,0.0284 -0.004,0.18097 -0.004,0.20933 -1.5e-4,0.007 -9.2e-4,0.047 -0.001,0.0544 -1.3e-4,0.006 -2.6e-4,0.013 -3.8e-4,0.0194 0,2e-5 0,4e-5 0,4e-5 0,0 1e-5,0 3e-5,0 0.008,4e-5 0.0113,6e-5 0.019,1e-4 -0.01,-5e-5 0.0633,3.5e-4 0.0533,3e-4 -0.0377,-2.1e-4 0.24267,0.001 0.20495,0.001 -0.13116,-7.5e-4 0.90321,0.005 0.77205,0.005 -0.35716,-0.002 3.09882,0.0204 2.74166,0.0182 2.43116,0.0176 5.10631,0.0406 8.2702,0.0719 3.09008,0.0306 8.88064,0.0978 11.97072,0.12841 2e-5,0 3e-5,0 3e-5,1e-5 -0.001,3.5e-4 -0.002,4.1e-4 -0.003,2.2e-4 -0.002,-0.0695 -0.21859,-6.17523 -0.4378,-12.28403 3e-5,6.9e-4 -0.005,-0.15026 -0.005,-0.14958 m -7.90831,2.36596 c 3.64316,-0.0624 6.7407,-0.0949 6.64626,-0.0939 2e-5,0 3e-5,0 3e-5,0 -3.6e-4,-3.7e-4 -7.2e-4,-0.001 -0.001,-0.002 -0.007,-0.627 -0.067,-5.76107 -0.0378,-12.48358 0.0139,-3.1912 0.0437,-6.05286 0.0765,-8.45816 0.0156,-1.14878 0.0308,-2.10961 0.0419,-2.77944 0.002,-0.10144 0.0115,-0.67898 0.0132,-0.78042 4.8e-4,-0.028 0.003,-0.17897 0.004,-0.20699 1.3e-4,-0.007 8.1e-4,-0.0465 9.4e-4,-0.0538 1.2e-4,-0.006 2.3e-4,-0.0128 3.4e-4,-0.0192 0,-3e-5 0,-4e-5 0,-4e-5 0,0 -1e-5,0 -3e-5,0 -0.63398,0.004 -5.47,0.0308 -12.07816,0.11372 -3.09101,0.0388 -5.89168,0.0808 -8.21893,0.11836 -0.31791,0.005 -2.38272,0.0399 -2.70064,0.045 -0.099,0.002 -0.65932,0.0114 -0.75829,0.0131 -0.0273,4.7e-4 -0.17387,0.003 -0.20112,0.004 -0.007,1.2e-4 -0.0452,7.9e-4 -0.0523,9.2e-4 -0.006,1e-4 -0.0125,2.1e-4 -0.0187,3.2e-4 -2e-5,0 -3e-5,0 -3e-5,0 0.001,5.7e-4 0.003,0.001 0.004,0.003 0.0271,0.71965 0.21211,5.70144 0.52381,12.63725 0.002,0.0361 0.13531,2.9617 0.13693,2.99778 m 8.83815,-9.61567 c 0.057,9.4e-4 -3.12881,-0.0524 -3.07182,-0.0515 -3.35371,-0.0572 -6.23061,-0.10981 -8.74999,-0.15828 -0.31616,-0.006 -2.54539,-0.0502 -2.86155,-0.0563 -0.10328,-0.002 -0.69904,-0.0142 -0.80232,-0.0162 -0.0287,-5.8e-4 -0.184,-0.004 -0.21272,-0.004 -0.008,-1.5e-4 -0.0478,-9.8e-4 -0.0553,-0.001 -0.007,-1.3e-4 -0.0132,-2.7e-4 -0.0197,-4e-4 -2e-5,0 -4e-5,0 -4e-5,0 -5.7e-4,-7e-4 -0.001,-0.001 -0.002,-0.001 -0.0119,0.68543 -0.10093,5.50038 -0.10182,12.11989 -4.2e-4,3.0947 0.0173,5.90112 0.0392,8.23419 0.0104,1.11655 0.0212,2.05734 0.0291,2.70744 0.001,0.0992 0.008,0.66104 0.009,0.76023 3.5e-4,0.0273 0.002,0.17433 0.003,0.20165 9e-5,0.007 5.9e-4,0.0453 6.8e-4,0.0524 9e-5,0.006 1.7e-4,0.0125 2.5e-4,0.0187 0,2e-5 0,3e-5 0,3e-5 0,0 1e-5,0 3e-5,0 0.007,-2.1e-4 0.0129,-4e-4 0.0197,-6.1e-4 -0.0104,3.2e-4 0.0654,-0.002 0.0551,-0.002 -0.0394,0.001 0.25116,-0.008 0.21177,-0.007 -0.14133,0.004 0.93981,-0.0297 0.79848,-0.0253 -0.44045,0.014 3.28465,-0.10676 2.84421,-0.0927 2.45673,-0.082 5.39555,-0.18513 8.65269,-0.3106 6.91154,-0.26625 12.04779,-0.51266 12.66782,-0.54199 2e-5,0 4e-5,0 4e-5,0 8.8e-4,-0.002 0.002,-0.004 0.003,-0.006 0.002,-0.0624 0.12096,-4.70727 0.26225,-10.09296 m -1.39945,12.35762 c 3.98545,0.128 7.40436,0.21528 7.27937,0.212 3e-5,0 4e-5,0 4e-5,0 0.001,9.1e-4 0.002,0.002 0.004,0.002 0.0273,-0.73747 0.20445,-5.40362 0.35811,-12.12781 0.071,-3.10896 0.12228,-5.96978 0.1597,-8.33163 0.005,-0.32873 0.0358,-2.42595 0.041,-2.75469 0.001,-0.10149 0.009,-0.67331 0.0106,-0.7748 3.8e-4,-0.0279 0.002,-0.17772 0.003,-0.2056 1e-4,-0.007 6.2e-4,-0.0462 7.2e-4,-0.0535 8e-5,-0.006 1.7e-4,-0.0128 2.5e-4,-0.0191 0,-2e-5 0,-3e-5 0,-3e-5 0,0 -1e-5,0 -3e-5,0 -1.28319,0.0163 -4.84211,0.0616 -12.23894,0.13465 -2.34735,0.0232 -6.08188,0.0587 -8.42924,0.0818 -0.2399,0.002 -2.543,0.0253 -2.78291,0.0276 -0.0977,9.8e-4 -0.68463,0.007 -0.78234,0.008 -0.0278,2.8e-4 -0.17972,0.002 -0.20757,0.002 -0.007,7e-5 -0.0466,4.7e-4 -0.054,5.5e-4 -0.006,6e-5 -0.0129,1.3e-4 -0.0193,2e-4 -3e-5,0 -4e-5,0 -4e-5,0 2.5e-4,3.4e-4 4.9e-4,9.6e-4 7.3e-4,0.002 -0.003,-0.37097 0.046,6.74801 0.10771,12.55086 0.0349,3.2789 0.0718,6.09225 0.11021,8.59941 0.005,0.31025 0.0416,2.534 0.0463,2.84425 0.002,0.10276 0.0123,0.69756 0.0141,0.80032 5.1e-4,0.0287 0.003,0.18373 0.004,0.2124 1.3e-4,0.008 8.6e-4,0.0477 9.9e-4,0.0552 1.2e-4,0.007 2.4e-4,0.0131 3.6e-4,0.0197 0,2e-5 0,3e-5 0,3e-5 0,0 1e-5,0 4e-5,0 0.007,1.4e-4 0.0127,2.5e-4 0.0198,3.9e-4 -0.0104,-2e-4 0.0658,0.001 0.0554,0.001 -0.0397,-7.8e-4 0.25266,0.005 0.21298,0.004 -0.14305,-0.003 0.94605,0.0191 0.803,0.0163 -0.45307,-0.009 3.31341,0.0707 2.86034,0.0614 2.46526,0.0552 5.43295,0.12796 8.71221,0.22294 -0.002,-5e-5 1.36508,0.0403 1.36353,0.0403 m -5.58199,-33.63106 c 2.6e-4,1e-5 -3.98779,-0.0921 -3.98753,-0.0921 -3.23096,-0.0721 -6.18196,-0.13208 -8.57836,-0.17893 -0.3399,-0.007 -2.45427,-0.047 -2.79418,-0.0536 -0.10304,-0.002 -0.67933,-0.0127 -0.78237,-0.0147 -0.0282,-5.2e-4 -0.1792,-0.003 -0.20736,-0.004 -0.007,-1.4e-4 -0.0465,-8.7e-4 -0.0539,-0.001 -0.006,-1.2e-4 -0.0129,-2.4e-4 -0.0192,-3.6e-4 -3e-5,0 -4e-5,0 -4e-5,0 2.9e-4,-6.2e-4 5.9e-4,-9.4e-4 8.8e-4,-0.001 0.005,0.59112 0.0408,5.60754 0.27737,12.19237 0.11263,3.13545 0.24458,5.95231 0.36971,8.329 0.0597,1.13467 0.11344,2.0834 0.15181,2.74614 0.006,0.10022 0.0394,0.67152 0.0452,0.77174 0.002,0.0277 0.0105,0.17704 0.0122,0.20474 4.3e-4,0.007 0.003,0.046 0.003,0.0532 3.8e-4,0.006 7.6e-4,0.0127 0.001,0.019 0,3e-5 0,4e-5 0,4e-5 0,0 1e-5,0 4e-5,0 0.007,-1.1e-4 0.0136,-2.2e-4 0.0205,-3.3e-4 -0.0109,1.7e-4 0.0685,-0.001 0.0576,-9.1e-4 -0.0422,6.7e-4 0.26366,-0.004 0.22147,-0.003 -0.16094,0.003 0.99632,-0.0158 0.83538,-0.0132 -0.58818,0.009 3.56835,-0.0571 2.98017,-0.0478 -1.38036,0.0224 10.49133,-0.17688 9.11097,-0.15451 7.57087,-0.13532 12.53977,-0.2461 13.46784,-0.26656 2e-5,0 4e-5,0 4e-5,0 0.003,-8e-4 0.007,-0.002 0.01,-0.003 0.0664,-0.69308 0.54745,-5.77139 1.31591,-12.7493 0.26007,-2.36162 0.51456,-4.59638 0.75438,-6.65739 m -3.12697,25.3074 c 1.4346,0.0416 2.64514,0.0667 2.53612,0.0643 2e-5,0 3e-5,0 3e-5,1e-5 -8.4e-4,7e-4 -0.002,0.001 -0.002,0.001 -0.0151,-0.59337 -0.15267,-5.57735 -0.13756,-12.34281 0.007,-3.22004 0.0453,-6.15039 0.0916,-8.63895 0.0221,-1.18815 0.0444,-2.18667 0.0609,-2.88497 0.002,-0.10564 0.0173,-0.70839 0.0197,-0.81403 7.3e-4,-0.0293 0.005,-0.18694 0.005,-0.2162 2e-4,-0.008 0.001,-0.0486 0.001,-0.0562 1.7e-4,-0.007 3.3e-4,-0.0134 5e-4,-0.0201 0,-2e-5 0,-4e-5 10e-6,-4e-5 0,0 -10e-6,0 -4e-5,0 -0.52871,-0.021 -5.52406,-0.20873 -11.90456,-0.642 -3.04251,-0.2066 -5.75239,-0.42283 -8.03034,-0.61918 -1.08736,-0.0937 -1.994,-0.17587 -2.6268,-0.2341 -0.0957,-0.009 -0.64083,-0.0596 -0.73652,-0.0684 -0.0264,-0.002 -0.16886,-0.0159 -0.19528,-0.0183 -0.007,-6.5e-4 -0.0438,-0.004 -0.0508,-0.005 -0.006,-5.7e-4 -0.0121,-0.001 -0.0181,-0.002 -2e-5,0 -3e-5,0 -2e-5,-1e-5 0.002,-0.003 0.004,-0.006 0.007,-0.008 0.0437,0.59971 0.37024,5.16651 0.92463,11.18085 0.26131,2.83479 0.51501,5.37352 0.73478,7.49035 0.10507,1.01196 0.19531,1.85917 0.25845,2.44719 0.005,0.0497 0.0534,0.4955 0.0588,0.54518 m 15.87106,-20.3218 c -2.58415,9.7e-4 -6.38311,-3.7e-4 -10.91701,-0.0131 -3.2237,-0.009 -6.07049,-0.0218 -8.4795,-0.0349 -0.31688,-0.002 -2.45191,-0.0145 -2.76878,-0.0162 -0.1006,-6.3e-4 -0.67529,-0.004 -0.77588,-0.005 -0.0278,-1.8e-4 -0.17786,-0.001 -0.20569,-0.001 -0.007,-5e-5 -0.0462,-3.1e-4 -0.0535,-3.5e-4 -0.006,-5e-5 -0.0127,-9e-5 -0.0191,-1.3e-4 -2e-5,0 -3e-5,0 -3e-5,0 5.5e-4,-2.2e-4 0.001,-1.5e-4 0.002,1.8e-4 0.0105,0.62027 0.0879,5.65493 0.34004,12.3017 0.1196,3.15256 0.25108,5.98659 0.37208,8.36957 0.0578,1.13825 0.10905,2.09115 0.14541,2.75534 0.006,0.10061 0.0373,0.67343 0.0428,0.77404 0.002,0.0278 0.01,0.17754 0.0115,0.20533 4.1e-4,0.007 0.003,0.0461 0.003,0.0534 3.5e-4,0.006 7.1e-4,0.0127 0.001,0.0191 1e-5,3e-5 1e-5,4e-5 1e-5,4e-5 0,0 1e-5,0 4e-5,-1e-5 0.007,-9e-5 0.0133,-1.7e-4 0.0205,-2.6e-4 -0.0108,1.4e-4 0.0682,-9e-4 0.0574,-7.6e-4 -0.0409,5.4e-4 0.26165,-0.003 0.22073,-0.003 -0.14549,0.002 0.97794,-0.013 0.83244,-0.0111 -0.43816,0.006 3.40557,-0.0469 2.96742,-0.041 2.57952,-0.0366 5.62178,-0.0822 9.05036,-0.13832 7.1023,-0.11632 12.80778,-0.22923 13.32054,-0.23924 2e-5,0 4e-5,0 4e-5,0 0.003,-7.1e-4 0.006,-0.002 0.008,-0.003 -0.12986,1.59194 0.29245,-3.56526 0.16259,-1.97333 m -9.86099,-2.03096 c 0.78826,-0.008 1.5814,-0.0138 2.37939,-0.0188 6.69738,-0.0417 12.01432,0.0265 12.4449,0.0313 2e-5,0 4e-5,0 4e-5,0 -1.2e-4,3.8e-4 -2.3e-4,4.6e-4 -3.5e-4,2.9e-4 -0.002,-0.59615 -0.013,-5.65373 -0.15623,-12.15979 -0.0682,-3.09786 -0.15038,-5.86032 -0.22907,-8.18201 -0.0376,-1.10842 -0.0715,-2.03287 -0.0958,-2.67805 -0.004,-0.0976 -0.025,-0.65339 -0.0287,-0.75096 -0.001,-0.0269 -0.007,-0.17217 -0.008,-0.19911 -2.8e-4,-0.007 -0.002,-0.0447 -0.002,-0.0518 -2.4e-4,-0.006 -4.7e-4,-0.0123 -7.1e-4,-0.0185 -1e-5,-2e-5 -1e-5,-3e-5 -1e-5,-3e-5 0,0 -10e-6,0 -3e-5,0 -0.52659,0.0223 -5.90775,0.24412 -12.9181,0.63689 -3.36392,0.18847 -6.39246,0.37529 -8.96799,0.54217 -1.22843,0.0796 -2.25549,0.1483 -2.97563,0.19696 -0.10862,0.007 -0.72931,0.0496 -0.83794,0.057 -0.0301,0.002 -0.19234,0.0132 -0.22243,0.0152 -0.008,5.4e-4 -0.05,0.003 -0.0579,0.004 -0.007,4.8e-4 -0.0138,9.4e-4 -0.0207,0.001 -2e-5,0 -3e-5,0 -3e-5,0 -0.002,0.002 -0.004,0.005 -0.006,0.008 0.001,-0.0213 -0.16318,2.75963 -0.3914,6.31556 m 18.63349,-4.69304 c -2.14351,0.0413 -4.52168,0.0756 -7.12718,0.0962 -3.14084,0.0248 -5.97985,0.0246 -8.38869,0.0142 -1.14959,-0.005 -2.11277,-0.0119 -2.78682,-0.0174 -0.10186,-8.3e-4 -0.6832,-0.006 -0.78506,-0.007 -0.0282,-2.6e-4 -0.18021,-0.002 -0.20841,-0.002 -0.007,-7e-5 -0.0468,-4.4e-4 -0.0542,-5.1e-4 -0.007,-7e-5 -0.0128,-1.3e-4 -0.0194,-1.9e-4 -2e-5,0 -4e-5,0 -4e-5,0 1.1e-4,-3.2e-4 2.1e-4,-3.5e-4 3.1e-4,-1.2e-4 0.002,0.67788 0.0208,5.58222 -0.0389,12.18739 -0.028,3.09743 -0.0663,5.88903 -0.10331,8.21113 -0.0177,1.11084 -0.0341,2.04417 -0.0457,2.69014 -0.002,0.0984 -0.012,0.65622 -0.0138,0.75462 -5e-4,0.0271 -0.003,0.17299 -0.004,0.2001 -1.4e-4,0.007 -8.5e-4,0.0449 -9.8e-4,0.052 -1.1e-4,0.006 -2.3e-4,0.0124 -3.4e-4,0.0186 0,2e-5 -1e-5,3e-5 -1e-5,3e-5 0,0 1e-5,0 4e-5,0 0.007,-2.7e-4 0.0123,-4.9e-4 0.0191,-7.6e-4 -0.01,4e-4 0.0634,-0.003 0.0534,-0.002 -0.038,0.002 0.2433,-0.01 0.20531,-0.008 -0.13434,0.005 0.90783,-0.0368 0.7735,-0.0314 0.66741,-0.0274 1.61055,-0.0669 2.7481,-0.11699 2.39278,-0.10546 5.16721,-0.23703 8.30005,-0.40212 6.34047,-0.33412 11.69749,-0.68117 12.03194,-0.7025 3e-5,-1e-5 4e-5,-1e-5 4e-5,-1e-5 -9.7e-4,-0.002 -0.002,-0.004 -0.003,-0.007 -0.002,-0.0746 -0.18342,-6.63427 -0.372,-13.23227 0.0801,2.80298 -0.33875,-11.89238 -0.25864,-9.08941 -0.003,-0.10656 -0.0561,-2.00053 -0.0591,-2.10709 m 0.66359,21.66498 c 1.40618,0.0661 2.61554,0.11913 2.49791,0.11393 2e-5,0 3e-5,0 3e-5,0 -5.4e-4,0.001 -0.001,0.003 -0.002,0.004 -0.01,-0.58042 -0.0976,-5.45764 -0.0866,-11.9328 0.005,-3.0803 0.0305,-5.85721 0.0608,-8.2021 0.0145,-1.11963 0.0291,-2.05692 0.0399,-2.71163 0.002,-0.099 0.0113,-0.6636 0.0129,-0.76263 4.8e-4,-0.0274 0.003,-0.17498 0.004,-0.20236 1.2e-4,-0.007 8e-4,-0.0454 9.3e-4,-0.0526 1.1e-4,-0.006 2.2e-4,-0.0125 3.3e-4,-0.0188 0,-2e-5 0,-3e-5 0,-3e-5 0,0 -1e-5,0 -3e-5,0 -0.0164,4.7e-4 -6.0826,0.16927 -12.06579,0.33464 0.21507,-0.006 -8.40776,0.23877 -8.19269,0.23282 -0.28069,0.008 -2.40812,0.0726 -2.68881,0.0809 -0.0962,0.003 -0.65845,0.0203 -0.75467,0.0232 -0.027,8.4e-4 -0.17318,0.005 -0.20015,0.006 -0.007,2.2e-4 -0.0449,0.001 -0.052,0.002 -0.006,2e-4 -0.0124,3.9e-4 -0.0186,5.8e-4 -2e-5,0 -3e-5,0 -3e-5,0 0.001,9.9e-4 0.003,0.002 0.004,0.004 0.0296,0.70748 0.23853,5.79162 0.59809,12.81721 0.16865,3.29521 0.33292,6.2986 0.47455,8.81206 0.0193,0.34195 0.1475,2.57889 0.16677,2.92084 0.006,0.10719 0.0415,0.71527 0.0477,0.82246 0.002,0.0296 0.011,0.18876 0.0127,0.21833 4.5e-4,0.008 0.003,0.049 0.003,0.0568 3.9e-4,0.007 7.9e-4,0.0135 0.001,0.0203 0,2e-5 0,4e-5 0,4e-5 1e-5,0 2e-5,0 4e-5,0 0.007,3.3e-4 0.0133,6.1e-4 0.0206,9.4e-4 -0.0109,-5e-4 0.0685,0.003 0.0577,0.003 -0.0413,-0.002 0.26322,0.0121 0.22191,0.0102 -0.14866,-0.007 0.98524,0.0459 0.83658,0.039 0.71578,0.0337 1.74995,0.0831 2.97838,0.14458 2.56799,0.12861 5.64894,0.2933 9.04875,0.49909 0.59711,0.0361 1.19194,0.0728 1.78458,0.11005 m -19.97765,1.09889 h 32.17188 m -6.45509,-4.57256 v -28.70313 m 0,38.55887 V 201.8677 m 2.75248,-0.18752 h -38.03125 m -5.63229,24.73246 h 33.90625"
             style="opacity:1;fill:#524cff;fill-opacity:1;stroke:#ffffff;stroke-width:0.33958188;stroke-linecap:round;stroke-linejoin:round;stroke-miterlimit:4;stroke-dasharray:none;stroke-dashoffset:0;stroke-opacity:1;paint-order:normal"
             id="path123416"
             inkscape:original-d="m 183.58925,201.68018 c 0,0 -24.73243,0 -24.73243,0 0,0 0,2.9e-4 0,8.4e-4 0,0.14063 0,24.73162 0,24.73162 0,0 24.73243,0 24.73243,0 0,0 0,-2.9e-4 0,-8.4e-4 0,-0.14063 0,-24.73162 0,-24.73162" />
          <path
             inkscape:connector-curvature="0"
             id="path123436"
             style="opacity:1;fill:#524cff;fill-opacity:1;stroke:#ffffff;stroke-width:0.33958188;stroke-linecap:round;stroke-linejoin:round;stroke-miterlimit:4;stroke-dasharray:none;stroke-dashoffset:0;stroke-opacity:1;paint-order:normal"
             d="m 177.59942,200.00334 c -1.3971,0.0212 -2.84604,0.0408 -4.3492,0.0584 -3.06224,0.0359 -5.85095,0.0577 -8.20934,0.0715 -0.31605,0.002 -2.419,0.0118 -2.73505,0.0136 -0.10017,4.1e-4 -0.67091,0.003 -0.77108,0.003 -0.0277,1.1e-4 -0.17704,6.3e-4 -0.20475,7.3e-4 -0.007,3e-5 -0.046,1.6e-4 -0.0533,1.9e-4 -0.006,2e-5 -0.0128,4e-5 -0.019,6e-5 -2e-5,1e-5 -3e-5,1e-5 -3e-5,1e-5 6.8e-4,1.1e-4 0.001,5.1e-4 0.002,0.001 0.015,0.74018 0.11881,5.59827 0.15091,12.40513 0.0149,3.15974 0.0121,6.04136 0.004,8.42317 -0.004,1.14092 -0.009,2.10712 -0.0127,2.77103 -5.8e-4,0.10181 -0.004,0.6765 -0.005,0.77831 -1.7e-4,0.028 -0.001,0.17847 -0.001,0.20646 -4e-5,0.007 -3e-4,0.0463 -3.4e-4,0.0537 -4e-5,0.006 -8e-5,0.0127 -1.3e-4,0.0192 0,2e-5 0,3e-5 0,3e-5 0,0 1e-5,0 4e-5,0 0.70456,-0.006 5.46526,-0.0454 12.24068,-0.13118 3.13083,-0.0396 6.00439,-0.0802 8.37085,-0.11504 0.33075,-0.005 2.42935,-0.0365 2.7601,-0.0414 0.10175,-0.002 0.67418,-0.0103 0.77593,-0.0119 0.0279,-4.3e-4 0.17795,-0.003 0.20588,-0.003 0.007,-1.2e-4 0.0462,-7.2e-4 0.0535,-8.3e-4 0.006,-1e-4 0.0128,-2e-4 0.0191,-2.9e-4 2e-5,0 3e-5,0 3e-5,0 -5.1e-4,-5.1e-4 -0.001,-0.001 -0.002,-0.002 0.0136,0.90129 -0.113,-7.31232 -0.18113,-12.60498 4.8e-4,0.0374 -0.0403,-3.28873 -0.0398,-3.25131 m -9.51331,10.58159 c 0.0108,2.7e-4 0.70822,0.0173 0.71901,0.0176 1.21134,0.029 2.2207,0.0499 2.92504,0.0638 0.10651,0.002 0.71319,0.0136 0.81969,0.0157 0.0294,5.5e-4 0.1879,0.003 0.21731,0.004 0.008,1.4e-4 0.0488,8.9e-4 0.0565,0.001 0.007,1.2e-4 0.0135,2.4e-4 0.0202,3.6e-4 2e-5,0 4e-5,0 4e-5,1e-5 0.001,6.2e-4 0.003,9.6e-4 0.004,0.001 0.0264,-0.66878 0.22552,-5.52138 0.34772,-12.28942 0.0574,-3.17649 0.0867,-6.07822 0.1022,-8.51033 0.007,-1.16333 0.0111,-2.14541 0.0132,-2.82635 3.1e-4,-0.1037 0.002,-0.6924 0.002,-0.7961 6e-5,-0.0286 3.6e-4,-0.18272 4.2e-4,-0.21134 2e-5,-0.008 9e-5,-0.0475 1e-4,-0.055 2e-5,-0.006 3e-5,-0.0133 4e-5,-0.0196 0,-2e-5 0,-4e-5 0,-4e-5 0,0 -1e-5,0 -3e-5,0 -0.008,-1.1e-4 -0.0116,-1.7e-4 -0.0194,-2.9e-4 0.0102,1.5e-4 -0.0645,-9.9e-4 -0.0543,-8.3e-4 0.0386,5.9e-4 -0.24737,-0.004 -0.20875,-0.003 0.13641,0.002 -0.92363,-0.0147 -0.78722,-0.0126 -0.6801,-0.0112 -1.64104,-0.0278 -2.80545,-0.0507 -2.45046,-0.0481 -5.30006,-0.11378 -8.54715,-0.20569 -3.22171,-0.0912 -6.14648,-0.18872 -8.60429,-0.27679 -1.1747,-0.0421 -2.16246,-0.0792 -2.84939,-0.10533 -0.10431,-0.004 -0.6975,-0.0268 -0.80181,-0.0308 -0.0288,-0.001 -0.18399,-0.007 -0.21279,-0.008 -0.008,-3e-4 -0.0478,-0.002 -0.0553,-0.002 -0.007,-2.6e-4 -0.0132,-5.1e-4 -0.0198,-7.7e-4 -2e-5,0 -3e-5,0 -3e-5,0 -5.9e-4,-0.001 -0.001,-0.002 -0.002,-0.003 -0.026,1.40004 -0.0866,4.6674 -0.24592,11.85789 -0.0864,3.90036 -0.0924,4.13788 -0.17885,8.03824 -0.005,0.24373 -0.0521,2.3992 -0.0574,2.64293 -0.002,0.0933 -0.0138,0.649 -0.0158,0.74226 -5.6e-4,0.0264 -0.004,0.17044 -0.004,0.19688 -1.4e-4,0.007 -9.3e-4,0.0442 -0.001,0.0512 -1.3e-4,0.006 -2.6e-4,0.0122 -3.9e-4,0.0183 0,2e-5 0,3e-5 0,3e-5 0,-1e-5 1e-5,-1e-5 4e-5,-1e-5 0.71688,-0.0399 4.55221,-0.2521 10.88371,-0.62521 m 4.07666,-16.95938 c -1.23002,0.012 -2.49237,0.0281 -3.78537,0.049 -3.0935,0.0499 -5.85397,0.1188 -8.21641,0.19008 -1.12501,0.0339 -2.06075,0.0655 -2.72003,0.0884 -0.099,0.003 -0.66632,0.0238 -0.76535,0.0272 -0.0275,0.001 -0.17565,0.006 -0.20311,0.007 -0.007,2.7e-4 -0.0456,0.002 -0.0528,0.002 -0.006,2.3e-4 -0.0126,4.5e-4 -0.0189,6.8e-4 -2e-5,0 -3e-5,1e-5 -3e-5,1e-5 9.5e-4,0.001 0.002,0.003 0.003,0.004 0.0355,1.29001 0.14458,5.24216 0.33088,12.97972 0.0414,1.71932 0.17266,7.29153 0.21406,9.01086 0.005,0.21052 0.0663,2.78875 0.0713,2.99928 0.002,0.10426 0.0178,0.74128 0.0202,0.84554 7.2e-4,0.0301 0.005,0.19447 0.005,0.22452 1.9e-4,0.008 0.001,0.0504 0.001,0.0584 1.7e-4,0.007 3.3e-4,0.0139 5e-4,0.0208 0,2e-5 0,4e-5 0,4e-5 0,0 10e-6,0 4e-5,0 0.46163,0.0354 5.90447,0.44236 12.70736,1.11195 3.29969,0.32478 6.24623,0.64302 8.76484,0.92908 1.19976,0.13626 2.19915,0.25352 2.90248,0.33693 0.10576,0.0125 0.71127,0.0849 0.81703,0.0975 0.0293,0.004 0.18754,0.0225 0.21686,0.0261 0.008,9.3e-4 0.0487,0.006 0.0564,0.007 0.007,8.1e-4 0.0134,0.002 0.0201,0.002 2e-5,0 4e-5,0 4e-5,0 0.001,0.004 0.002,0.008 0.004,0.0117 0.012,-0.28012 0.21834,-5.25487 0.52813,-10.70096 0.0881,-1.54802 0.17736,-3.01806 0.26748,-4.41788 m 0.60149,10.35219 c 0.23113,0.0117 1.84564,0.0929 2.07676,0.10465 0.10088,0.005 0.65833,0.0328 0.7592,0.0379 0.0274,0.001 0.17408,0.009 0.20151,0.01 0.007,3.6e-4 0.0452,0.002 0.0524,0.003 0.006,3.1e-4 0.0125,6.2e-4 0.0187,9.3e-4 2e-5,0 3e-5,0 3e-5,0 -0.001,0.002 -0.002,0.003 -0.004,0.004 -0.0354,-0.93395 -0.19395,-5.07971 -0.40792,-11.81962 -0.094,-2.96241 -0.18044,-5.83613 -0.2465,-8.05813 -0.0112,-0.37655 -0.0673,-2.27559 -0.0784,-2.65214 -0.003,-0.1066 -0.0188,-0.63822 -0.0219,-0.74483 -8.1e-4,-0.0276 -0.005,-0.16991 -0.006,-0.19756 -2.1e-4,-0.007 -0.001,-0.0443 -0.002,-0.0514 -1.8e-4,-0.006 -3.6e-4,-0.0123 -5.3e-4,-0.0183 0,-3e-5 -1e-5,-4e-5 -1e-5,-3e-5 0,0 -1e-5,0 -3e-5,0 -0.007,3.4e-4 -0.0132,6.5e-4 -0.0199,9.9e-4 0.0105,-5.3e-4 -0.0664,0.003 -0.0559,0.003 0.0402,-0.002 -0.25513,0.0127 -0.21492,0.0107 0.14656,-0.007 -0.95657,0.048 -0.81,0.0407 0.48063,-0.0242 -3.36157,0.17159 -2.88094,0.14737 -2.46843,0.12822 -5.46965,0.2893 -8.73283,0.47832 -3.31977,0.19229 -6.21495,0.37316 -8.74958,0.54 -1.20054,0.079 -2.18882,0.14627 -2.89383,0.1948 -0.10485,0.007 -0.70943,0.0492 -0.81428,0.0564 -0.0292,0.002 -0.18692,0.0131 -0.21611,0.0151 -0.008,5.4e-4 -0.0485,0.003 -0.0562,0.004 -0.007,4.6e-4 -0.0134,9.3e-4 -0.0201,0.001 -2e-5,0 -3e-5,0 -3e-5,0 -0.001,0.002 -0.002,0.005 -0.003,0.008 -0.007,0.22043 -0.20137,6.54408 -0.46504,13.40882 -0.12947,3.37079 -0.25497,6.36172 -0.37309,9.0117 m 17.15374,-26.71771 c -0.80286,-0.0221 -1.61372,-0.0433 -2.43292,-0.0637 -3.17821,-0.079 -6.06825,-0.13491 -8.49978,-0.17528 -1.16212,-0.0193 -2.14048,-0.0337 -2.8209,-0.0434 -0.10335,-0.001 -0.69112,-0.01 -0.79447,-0.011 -0.0285,-3.8e-4 -0.18235,-0.002 -0.2109,-0.003 -0.007,-1e-4 -0.0474,-6.3e-4 -0.0548,-7.3e-4 -0.006,-9e-5 -0.0131,-1.8e-4 -0.0196,-2.6e-4 -2e-5,0 -4e-5,0 -4e-5,0 -2.9e-4,-4.5e-4 -5.9e-4,-6e-4 -8.8e-4,-5e-4 -0.005,0.55607 -0.0466,5.67211 -0.18338,12.29908 -0.0656,3.17782 -0.13822,6.02973 -0.20634,8.45071 -0.0325,1.15479 -0.0614,2.11896 -0.082,2.79484 -0.003,0.10194 -0.0212,0.68424 -0.0243,0.78618 -8.8e-4,0.0282 -0.006,0.18041 -0.007,0.20863 -2.3e-4,0.007 -0.001,0.0468 -0.002,0.0542 -2e-4,0.006 -4e-4,0.0129 -6.1e-4,0.0194 0,2e-5 0,4e-5 0,4e-5 0,0 1e-5,0 3e-5,0 0.88857,0.002 5.12827,0.01 11.9114,0.0527 0.88208,0.006 7.22504,0.0521 8.10712,0.0576 0.37465,0.003 2.28852,0.0179 2.66317,0.0208 0.1061,8.4e-4 0.64155,0.005 0.74765,0.006 0.0276,2.2e-4 0.17066,0.001 0.1983,0.002 0.007,5e-5 0.0445,3.5e-4 0.0516,4.1e-4 0.006,4e-5 0.0123,9e-5 0.0184,1.4e-4 2e-5,0 3e-5,0 3e-5,0 -0.002,2.5e-4 -0.003,2.1e-4 -0.005,-8e-5 -0.0305,-0.58364 -0.29322,-5.68263 -0.70124,-12.31598 -6.2e-4,-0.01 -0.132,-2.11951 -0.13262,-2.12953 m -3.40144,17.30202 c 0.001,3e-5 0.20658,0.006 0.2077,0.006 0.32571,0.009 2.43673,0.0673 2.76245,0.0766 0.10167,0.003 0.67705,0.0181 0.77872,0.0209 0.028,7.5e-4 0.17875,0.005 0.20677,0.006 0.007,1.9e-4 0.0464,0.001 0.0538,0.001 0.006,1.7e-4 0.0129,3.4e-4 0.0192,5.1e-4 2e-5,0 3e-5,0 3e-5,0 -3.6e-4,8.7e-4 -7.2e-4,0.001 -0.001,0.002 -0.006,-0.57862 -0.0679,-5.57037 -0.0259,-12.10948 0.02,-3.11823 0.0579,-5.91957 0.099,-8.28648 0.0196,-1.12978 0.0384,-2.07417 0.0522,-2.7344 0.002,-0.0998 0.0143,-0.66886 0.0163,-0.76864 6e-4,-0.0276 0.004,-0.17634 0.004,-0.20393 1.6e-4,-0.007 0.001,-0.0458 0.001,-0.053 1.4e-4,-0.006 2.8e-4,-0.0126 4.2e-4,-0.0189 0,-2e-5 0,-4e-5 0,-4e-5 0,1e-5 -10e-6,1e-5 -3e-5,1e-5 -0.006,1.3e-4 -0.0127,2.6e-4 -0.019,3.9e-4 0.0111,-2.3e-4 -0.0643,0.001 -0.0532,0.001 0.0512,-0.001 -0.25572,0.005 -0.20453,0.004 0.24215,-0.005 -1.0125,0.0213 -0.77035,0.0162 0.9047,-0.019 -3.63885,0.0767 -2.73414,0.0577 1.81424,-0.0384 -10.04429,0.21686 -8.23005,0.17845 -3.13448,0.0702 -5.78242,0.13294 -8.15349,0.192 -0.29031,0.007 -2.38497,0.0609 -2.67528,0.0681 -0.0963,0.003 -0.65447,0.0172 -0.7508,0.0197 -0.0269,7.1e-4 -0.17225,0.005 -0.19912,0.005 -0.007,1.9e-4 -0.0447,0.001 -0.0518,0.001 -0.006,1.6e-4 -0.0123,3.2e-4 -0.0185,4.9e-4 -2e-5,0 -3e-5,0 -3e-5,0 0.002,8.4e-4 0.003,0.002 0.005,0.003 0.031,0.66166 0.26795,5.80955 0.66415,12.75517 0.18725,3.28269 0.36871,6.25579 0.52634,8.75677 0.0212,0.33651 0.16412,2.56239 0.18533,2.8989 0.007,0.10612 0.0462,0.70979 0.0531,0.81591 0.002,0.0293 0.0123,0.18724 0.0142,0.21655 5e-4,0.008 0.003,0.0486 0.004,0.0563 4.3e-4,0.007 8.7e-4,0.0134 0.001,0.0201 0,2e-5 0,3e-5 0,3e-5 0,1e-5 2e-5,1e-5 4e-5,1e-5 0.31107,0.0117 6.31683,0.23202 13.25817,0.56426 -6.3e-4,-3e-5 0.89708,0.0433 0.89645,0.0433 m 8.39715,-26.21308 c -0.37894,0.008 -0.79083,0.0162 -1.23254,0.0243 -2.39236,0.0439 -5.19336,0.0765 -8.35999,0.0782 -3.15684,0.002 -5.99711,-0.0275 -8.40606,-0.0665 -1.14933,-0.0186 -2.11032,-0.038 -2.78326,-0.0524 -0.10159,-0.002 -0.68164,-0.0152 -0.78324,-0.0174 -0.0281,-6.5e-4 -0.17975,-0.004 -0.20787,-0.005 -0.007,-1.7e-4 -0.0467,-0.001 -0.0541,-0.001 -0.006,-1.5e-4 -0.0128,-3e-4 -0.0193,-4.5e-4 -3e-5,0 -4e-5,0 -4e-5,0 1.9e-4,-7.8e-4 3.9e-4,-0.001 5.8e-4,-0.002 0.004,0.76702 0.0331,5.40818 0.0366,11.9754 0.002,3.01816 -0.002,5.77309 -0.007,8.02121 -6.6e-4,0.31622 -0.006,2.30338 -0.006,2.6196 -2.6e-4,0.0965 -0.002,0.63763 -0.002,0.7341 -8e-5,0.0264 -5.1e-4,0.16819 -5.9e-4,0.1946 -2e-5,0.007 -1.3e-4,0.0437 -1.5e-4,0.0506 -2e-5,0.006 -3e-5,0.012 -5e-5,0.0181 0,2e-5 0,3e-5 0,3e-5 0,-1e-5 1e-5,-1e-5 3e-5,-1e-5 0.54697,-0.036 5.6437,-0.364 12.31984,-0.92668 3.18059,-0.26807 6.04041,-0.53066 8.45465,-0.76195 1.15253,-0.11041 2.11718,-0.20543 2.79084,-0.27239 0.10192,-0.0101 0.68284,-0.0682 0.78476,-0.0784 0.0282,-0.003 0.18005,-0.0181 0.20823,-0.0209 0.007,-7.4e-4 0.0468,-0.005 0.0541,-0.005 0.006,-6.5e-4 0.0129,-0.001 0.0193,-0.002 2e-5,0 4e-5,0 4e-5,0 -1.4e-4,-0.003 -2.8e-4,-0.007 -4.1e-4,-0.0109 0.0463,12.45753 -0.0859,-26.2019 -0.0396,-13.74437 -0.006,-3.59908 -0.008,-6.71853 -0.007,-9.47887 1.5e-4,-0.34476 0.003,-2.79705 0.003,-3.14181 1.5e-4,-0.11367 0.001,-0.77076 0.001,-0.88444 6e-5,-0.0317 3.4e-4,-0.20306 3.9e-4,-0.23475 1e-5,-0.008 9e-5,-0.0527 1e-4,-0.0611 1e-5,-0.008 2e-5,-0.0142 4e-5,-0.0218 0,-3e-5 0,-4e-5 0,-4e-5 0,-1e-5 -1e-5,-1e-5 -4e-5,-1e-5 -0.007,-8.4e-4 -0.0128,-0.002 -0.0194,-0.002 0.0102,0.001 -0.0645,-0.008 -0.0543,-0.007 0.0386,0.005 -0.2473,-0.0317 -0.20868,-0.0267 0.0679,0.009 -0.57814,-0.0742 -0.51021,-0.0655 m -3.57885,25.86903 c 0.13858,0.003 1.57513,0.0376 1.7137,0.0409 0.10009,0.002 0.69081,0.0166 0.7909,0.019 0.0282,6.8e-4 0.18164,0.004 0.20987,0.005 0.007,1.7e-4 0.0471,0.001 0.0546,0.001 0.006,1.6e-4 0.013,3.2e-4 0.0195,4.7e-4 3e-5,0 4e-5,0 4e-5,0 1.2e-4,8.1e-4 2.5e-4,0.001 3.8e-4,0.002 0.002,-0.44023 0.0209,-5.72367 0.0665,-12.08718 0.0223,-3.11335 0.0461,-5.86549 0.0687,-8.22011 0.003,-0.30614 0.0241,-2.39758 0.0271,-2.70372 0.001,-0.0982 0.007,-0.66103 0.008,-0.75924 2.9e-4,-0.0272 0.002,-0.17416 0.002,-0.20138 8e-5,-0.007 4.9e-4,-0.0452 5.7e-4,-0.0524 6e-5,-0.006 1.3e-4,-0.0125 2e-4,-0.0187 0,-2e-5 0,-3e-5 0,-3e-5 0,0 -1e-5,0 -3e-5,0 -0.007,2.2e-4 -0.0126,4.2e-4 -0.0192,6.4e-4 0.0101,-3.4e-4 -0.0639,0.002 -0.0538,0.002 0.0385,-0.001 -0.24543,0.008 -0.20691,0.007 0.13864,-0.005 -0.91831,0.0308 -0.77968,0.0262 0.43621,-0.0148 -3.20787,0.1108 -2.77167,0.096 -2.38697,0.0847 -5.24377,0.19117 -8.3832,0.32024 -3.17206,0.13041 -5.95379,0.25594 -8.36022,0.37108 -1.14245,0.0547 -2.08513,0.10148 -2.754,0.13513 -0.0999,0.005 -0.67396,0.0342 -0.77381,0.0392 -0.0277,0.001 -0.17754,0.009 -0.20528,0.0105 -0.007,3.7e-4 -0.0461,0.002 -0.0534,0.003 -0.006,3.3e-4 -0.0127,6.5e-4 -0.0191,9.8e-4 -3e-5,0 -4e-5,0 -4e-5,0 6.1e-4,0.002 0.001,0.004 0.002,0.006 0.009,0.50533 0.10494,6.12256 0.25451,13.1043 0.0728,3.39888 0.14319,6.43339 0.20626,9.03578 0.008,0.33978 0.0658,2.6581 0.0741,2.99787 0.003,0.10922 0.0186,0.73512 0.0214,0.84433 7.7e-4,0.0303 0.005,0.19384 0.006,0.22414 2e-4,0.008 0.001,0.0503 0.001,0.0583 1.8e-4,0.007 3.5e-4,0.0139 5.3e-4,0.0208 0,3e-5 0,4e-5 0,4e-5 0,0 1e-5,1e-5 4e-5,1e-5 0.37846,0.0283 5.99795,0.43995 12.73724,1.04774 3.3024,0.29783 6.23332,0.58333 8.75838,0.84075 m -1.41907,-31.31681 c 0.0209,-1.9e-4 -0.88165,0.008 -0.86076,0.007 -2.42263,0.02 -5.24289,0.0354 -8.40412,0.0382 -3.15075,0.003 -5.96166,-0.008 -8.33316,-0.0225 -1.13156,-0.007 -2.07479,-0.0146 -2.73438,-0.0202 -0.0996,-8.5e-4 -0.66773,-0.006 -0.76733,-0.007 -0.0275,-2.6e-4 -0.17596,-0.002 -0.20349,-0.002 -0.007,-6e-5 -0.0457,-4.2e-4 -0.0529,-4.9e-4 -0.006,-6e-5 -0.0126,-1.2e-4 -0.0189,-1.8e-4 -2e-5,0 -4e-5,0 -3e-5,0 8.9e-4,-3e-4 0.002,-3.2e-4 0.003,-8e-5 0.0136,0.49636 0.1518,5.7641 0.41619,12.23382 0.12826,3.13845 0.25882,5.9192 0.3785,8.28646 0.057,1.12761 0.10662,2.06369 0.14206,2.72205 0.005,0.099 0.0362,0.66522 0.0415,0.76419 0.001,0.0274 0.01,0.17527 0.0111,0.20268 3.9e-4,0.007 0.002,0.0455 0.003,0.0527 3.4e-4,0.006 6.8e-4,0.0126 0.001,0.0188 0,2e-5 0,3e-5 0,3e-5 0,0 1e-5,0 4e-5,0 0.58722,-0.0149 5.94731,-0.14772 13.11589,-0.37707 3.40982,-0.10909 6.49753,-0.21606 9.10981,-0.31013 0.34904,-0.0126 2.6764,-0.0983 3.02544,-0.11082 0.11068,-0.004 0.74163,-0.0278 0.85231,-0.0319 0.0306,-0.001 0.19565,-0.007 0.22627,-0.009 0.008,-3.1e-4 0.0508,-0.002 0.0588,-0.002 0.007,-2.6e-4 0.014,-5.3e-4 0.021,-7.9e-4 2e-5,0 4e-5,0 4e-5,0 0.003,-0.001 0.005,-0.003 0.008,-0.005 0.0236,-0.29786 0.4061,-5.19502 0.96207,-11.26844 m -21.20947,19.99461 c 2.11465,-0.0455 4.04092,-0.084 5.67622,-0.11541 0.34255,-0.007 2.55389,-0.0475 2.89644,-0.0541 0.1064,-0.002 0.70792,-0.0127 0.81433,-0.0147 0.0293,-5.2e-4 0.18679,-0.003 0.21607,-0.004 0.008,-1.4e-4 0.0485,-8.7e-4 0.0562,-0.001 0.007,-1.2e-4 0.0134,-2.4e-4 0.0201,-3.6e-4 2e-5,0 3e-5,0 3e-5,0 0.001,-6.1e-4 0.002,-0.002 0.003,-0.003 -0.0176,0.53711 0.22668,-6.96878 0.42342,-12.61079 0.11461,-3.28631 0.21698,-6.0881 0.31212,-8.58888 0.0117,-0.30822 0.0979,-2.52256 0.10959,-2.83079 0.004,-0.10213 0.0275,-0.69347 0.0315,-0.7956 0.001,-0.0285 0.007,-0.1826 0.008,-0.21108 3e-4,-0.007 0.002,-0.0474 0.002,-0.0549 2.6e-4,-0.007 5.2e-4,-0.0131 7.8e-4,-0.0196 0,-2e-5 1e-5,-4e-5 1e-5,-4e-5 0,0 -1e-5,0 -3e-5,0 -0.006,-9e-5 -0.0125,-1.7e-4 -0.0186,-2.6e-4 0.009,1.3e-4 -0.0615,-8.8e-4 -0.0522,-7.5e-4 0.029,4.1e-4 -0.2296,-0.003 -0.2006,-0.003 -0.0733,-0.001 -0.68254,-0.01 -0.75582,-0.0108 1.61397,0.0231 -4.29936,-0.0617 -2.68539,-0.0386 2.07761,0.0299 -10.18236,-0.14952 -8.10476,-0.1196 -0.20649,-0.003 -7.84094,-0.12698 -8.04744,-0.13013 -0.28563,-0.005 -2.35567,-0.0417 -2.6413,-0.0467 -0.095,-0.002 -0.64614,-0.0118 -0.74118,-0.0135 -0.0265,-4.9e-4 -0.17003,-0.003 -0.19655,-0.004 -0.007,-1.3e-4 -0.0441,-8.2e-4 -0.0511,-9.5e-4 -0.006,-1.1e-4 -0.0122,-2.2e-4 -0.0182,-3.3e-4 -2e-5,0 -3e-5,0 -3e-5,0 0.002,-5.8e-4 0.004,-8.7e-4 0.006,-9e-4 0.0222,0.36207 0.35136,5.84581 0.83509,12.16172 0.24015,3.13556 0.47177,5.8892 0.68284,8.25947 0.1003,1.1263 0.18622,2.05637 0.2478,2.71477 0.009,0.0984 0.0626,0.66373 0.0718,0.76218 0.003,0.0273 0.0166,0.17483 0.0192,0.20215 6.9e-4,0.007 0.004,0.0454 0.005,0.0526 5.9e-4,0.006 0.001,0.0125 0.002,0.0188 0,2e-5 0,3e-5 0,3e-5 1e-5,0 2e-5,0 4e-5,0 -0.14134,0.004 3.15088,-0.0828 7.01997,-0.2008 m 21.77731,11.34921 v -30.625 m 0,24.05451 v -29.875 m 0,14.27009 v -28.09375 m -24.73243,-4.04516 v 36.85937 m 0,-32.75282 v 36.39063"
             inkscape:original-d="m 185.33346,200.08132 c 0,0 -24.73243,0 -24.73243,0 0,0 0,2.9e-4 0,8.4e-4 0,0.14063 0,24.73162 0,24.73162 0,0 24.73243,0 24.73243,0 0,0 0,-2.9e-4 0,-8.4e-4 0,-0.14063 0,-24.73162 0,-24.73162" />
        </g>
      </g>
      <g
         transform="translate(14.833558,-1.7647655)"
         id="g1153">
        <g
           id="g1119"
           style="opacity:0.3"
           transform="translate(-10.583333)">
          <path
             inkscape:connector-curvature="0"
             d="m 304.50051,191.44532 c 0,0 -32.03293,0 -32.03293,0 0,0 0,4.4e-4 0,10e-4 0,0.22392 0,32.03161 0,32.03161 0,0 32.03293,0 32.03293,0 0,0 0,-4.4e-4 0,-10e-4 0,-0.22392 0,-32.03161 0,-32.03161"
             style="opacity:1;fill:#297fff;fill-opacity:1;stroke:#ffffff;stroke-width:0.4398194;stroke-linecap:round;stroke-linejoin:round;stroke-miterlimit:4;stroke-dasharray:none;stroke-dashoffset:0;stroke-opacity:1;paint-order:normal"
             id="path123306" />
          <path
             inkscape:connector-curvature="0"
             id="path123326"
             style="opacity:1;fill:#297fff;fill-opacity:1;stroke:#ffffff;stroke-width:0.4398194;stroke-linecap:round;stroke-linejoin:round;stroke-miterlimit:4;stroke-dasharray:none;stroke-dashoffset:0;stroke-opacity:1;paint-order:normal"
             d="m 306.16641,189.91824 c 0,0 -32.03293,0 -32.03293,0 0,0 0,4.4e-4 0,0.001 0,0.22392 0,32.03161 0,32.03161 0,0 32.03293,0 32.03293,0 0,0 0,-4.4e-4 0,-0.001 0,-0.22392 0,-32.03161 0,-32.03161" />
        </g>
        <g
           id="g123526"
           inkscape:path-effect="#path-effect123560;#path-effect123564"
           transform="translate(-10.583333)">
          <path
             inkscape:connector-curvature="0"
             d="m 306.20143,198.51257 c -5.98336,0 -35.83516,-0.0607 -35.90015,0 -3.6e-4,3.4e-4 0,3.4e-4 0,10e-4 0,0.12143 -5.98317,27.94759 0,33.53717 5.9833,5.58971 35.83516,0.0607 35.90015,0 3.6e-4,-3.3e-4 0,-3.3e-4 0,-10e-4 0,-0.12142 0,-27.94763 0,-33.53716"
             style="opacity:1;fill:#297fff;fill-opacity:1;stroke:#ffffff;stroke-width:0.46049193;stroke-linecap:round;stroke-linejoin:round;stroke-miterlimit:4;stroke-dasharray:none;stroke-dashoffset:0;stroke-opacity:1;paint-order:normal"
             id="path123420"
             inkscape:original-d="m 306.43114,197.27714 c 0,0 -33.53856,0 -33.53856,0 0,0 0,4.6e-4 0,0.001 0,0.23444 0,33.53717 0,33.53717 0,0 33.53856,0 33.53856,0 0,0 0,-4.7e-4 0,-0.001 0,-0.23444 0,-33.53716 0,-33.53716" />
          <g
             id="g123521">
            <path
               d="m 308.06846,196.91371 c -5.98336,0 -35.83517,-0.0607 -35.90015,0 -3.6e-4,3.4e-4 0,3.4e-4 0,0.001 0,0.12143 -5.98318,27.94759 0,33.53717 5.98329,5.58971 35.83516,0.0607 35.90015,0 3.5e-4,-3.3e-4 0,-3.3e-4 0,-10e-4 0,-0.12142 0,-27.94763 0,-33.53716"
               style="opacity:1;fill:#297fff;fill-opacity:1;stroke:#ffffff;stroke-width:0.46049193;stroke-linecap:round;stroke-linejoin:round;stroke-miterlimit:4;stroke-dasharray:none;stroke-dashoffset:0;stroke-opacity:1;paint-order:normal"
               id="path123440"
               inkscape:connector-curvature="0"
               inkscape:original-d="m 308.17535,195.67828 c 0,0 -33.53856,0 -33.53856,0 0,0 0,4.6e-4 0,0.001 0,0.23444 0,33.53717 0,33.53717 0,0 33.53856,0 33.53856,0 0,0 0,-4.7e-4 0,-0.001 0,-0.23444 0,-33.53716 0,-33.53716" />
          </g>
        </g>
      </g>
      <g
         transform="translate(5.9819023,-0.14830989)"
         id="g1144">
        <g
           id="g1123"
           style="opacity:0.3"
           transform="translate(-5.2916667)">
          <path
             inkscape:connector-curvature="0"
             d="m 363.16413,189.34262 c 0,0 -36.23833,0 -36.23833,0 0,0 0,5.2e-4 0,0.002 0,0.26873 0,36.23676 0,36.23676 0,0 36.23833,0 36.23833,0 0,0 0,-5.2e-4 0,-0.002 0,-0.26873 0,-36.23676 0,-36.23676"
             style="opacity:1;fill:#1498ff;fill-opacity:1;stroke:#ffffff;stroke-width:0.49756047;stroke-linecap:round;stroke-linejoin:round;stroke-miterlimit:4;stroke-dasharray:none;stroke-dashoffset:0;stroke-opacity:1;paint-order:normal"
             id="path123308" />
          <path
             inkscape:connector-curvature="0"
             id="path123328"
             style="opacity:1;fill:#1498ff;fill-opacity:1;stroke:#ffffff;stroke-width:0.49756047;stroke-linecap:round;stroke-linejoin:round;stroke-miterlimit:4;stroke-dasharray:none;stroke-dashoffset:0;stroke-opacity:1;paint-order:normal"
             d="m 364.83003,187.81554 c 0,0 -36.23833,0 -36.23833,0 0,0 0,5.2e-4 0,0.002 0,0.26873 0,36.23676 0,36.23676 0,0 36.23833,0 36.23833,0 0,0 0,-5.2e-4 0,-0.002 0,-0.26873 0,-36.23676 0,-36.23676" />
        </g>
        <g
           id="g123518"
           inkscape:path-effect="#path-effect123558"
           transform="translate(-5.2916667)">
          <path
             inkscape:connector-curvature="0"
             d="m 367.85207,194.6756 c -75.88322,0 37.94161,0 -37.94161,0 a 0.4,0.4 0 0 0 -0.4,0.4 c 0,0.001 0,5.5e-4 0,0.002 0,0.14068 0,9.62567 0,19.0755 0,4.72491 0,9.44103 0,12.97592 0,1.76744 0,3.23958 0,4.26986 0,0.51514 0,0.91981 0,1.1957 0,0.13794 0,0.24369 0,0.31495 0,0.0713 0,0.0345 0,0.10804 a 0.4,0.4 0 0 0 0.4,0.4 c 75.88322,0 -37.94161,0 37.94161,0 a 0.4,0.4 0 0 0 0.4,-0.4 c 0,-0.001 0,-5.5e-4 0,-0.002 0,-0.14068 0,-9.62567 0,-19.07549 0,-4.72492 0,-9.44103 0,-12.97593 0,-1.76744 0,-3.23958 0,-4.26986 0,-0.51514 0,-0.91981 0,-1.1957 0,-0.13794 0,-0.24369 0,-0.31495 0,-0.0713 0,-0.0345 0,-0.10804 v -0.4 h -0.8 v 0.4 c 0,0.0735 0,0.0368 0,0.10804 0,0.0713 0,0.17701 0,0.31495 0,0.27589 0,0.68056 0,1.1957 0,1.03028 0,2.50242 0,4.26986 0,3.53489 0,8.25101 0,12.97592 0,8.37333 0,16.77427 0,18.6775 -74.9493,0 37.80769,0 -37.14161,0 0,-0.008 0,-0.0152 0,-0.023 0,-0.27589 0,-0.68056 0,-1.1957 0,-1.03028 0,-2.50242 0,-4.26986 0,-3.53489 0,-8.25101 0,-12.97592 0,-9.44983 0,-18.93482 0,-19.0755 0,-0.001 0,-9e-4 0,-0.002 l -0.4,0.4 c 75.88322,0 -37.94161,0 37.94161,0 h 0.4 v -0.8 z"
             style="opacity:1;fill:#1498ff;fill-opacity:1;stroke:#ffffff;stroke-width:0.52094698;stroke-linecap:round;stroke-linejoin:round;stroke-miterlimit:4;stroke-dasharray:none;stroke-dashoffset:0;stroke-opacity:1;paint-order:normal"
             id="path123422"
             inkscape:original-d="m 367.85207,195.0756 c 0,0 -37.94161,0 -37.94161,0 0,0 0,5.5e-4 0,0.002 0,0.28136 0,37.93997 0,37.93997 0,0 37.94161,0 37.94161,0 0,0 0,-5.5e-4 0,-0.002 0,-0.28136 0,-37.93997 0,-37.93997" />
          <path
             inkscape:connector-curvature="0"
             id="path123442"
             style="opacity:1;fill:#1498ff;fill-opacity:1;stroke:#ffffff;stroke-width:0.52094698;stroke-linecap:round;stroke-linejoin:round;stroke-miterlimit:4;stroke-dasharray:none;stroke-dashoffset:0;stroke-opacity:1;paint-order:normal"
             d="m 369.59628,193.07674 c -75.88322,0 37.94161,0 -37.94161,0 a 0.4,0.4 0 0 0 -0.4,0.4 c 0,0.001 0,5.5e-4 0,0.002 0,0.14068 0,9.62567 0,19.07549 0,4.72492 0,9.44104 0,12.97593 0,1.76744 0,3.23958 0,4.26986 0,0.51514 0,0.91981 0,1.1957 0,0.13794 0,0.24369 0,0.31495 0,0.0713 0,0.0345 0,0.10804 a 0.4,0.4 0 0 0 0.4,0.4 c 75.88322,0 -37.94161,0 37.94161,0 a 0.4,0.4 0 0 0 0.4,-0.4 c 0,-0.001 0,-5.5e-4 0,-0.002 0,-0.14068 0,-9.62567 0,-19.0755 0,-4.72491 0,-9.44103 0,-12.97592 0,-1.76744 0,-3.23958 0,-4.26986 0,-0.51514 0,-0.91981 0,-1.1957 0,-0.13794 0,-0.24369 0,-0.31495 0,-0.0713 0,-0.0345 0,-0.10804 v -0.4 h -0.8 v 0.4 c 0,0.0735 0,0.0368 0,0.10804 0,0.0713 0,0.17701 0,0.31495 0,0.27589 0,0.68056 0,1.1957 0,1.03028 0,2.50242 0,4.26986 0,3.53489 0,8.25101 0,12.97592 0,8.37333 0,16.77427 0,18.6775 -74.9493,0 37.80769,0 -37.14161,0 0,-0.008 0,-0.0152 0,-0.023 0,-0.27589 0,-0.68056 0,-1.1957 0,-1.03028 0,-2.50242 0,-4.26986 0,-3.53489 0,-8.25101 0,-12.97592 0,-9.44983 0,-18.93482 0,-19.0755 0,-0.001 0,-9e-4 0,-0.002 l -0.4,0.4 c 75.88322,0 -37.94161,0 37.94161,0 h 0.4 v -0.8 z"
             inkscape:original-d="m 369.59628,193.47674 c 0,0 -37.94161,0 -37.94161,0 0,0 0,5.5e-4 0,0.002 0,0.28136 0,37.93997 0,37.93997 0,0 37.94161,0 37.94161,0 0,0 0,-5.5e-4 0,-0.002 0,-0.28136 0,-37.93997 0,-37.93997" />
        </g>
      </g>
      <g
         transform="translate(18.674991,-1.0281986)"
         id="g1161">
        <g
           id="g1115"
           style="opacity:0.3"
           transform="translate(-11.1125)">
          <path
             inkscape:connector-curvature="0"
             d="m 245.8369,193.54802 c 0,0 -27.82754,0 -27.82754,0 0,0 0,3.4e-4 0,0.001 0,0.17924 0,27.82648 0,27.82648 0,0 27.82754,0 27.82754,0 0,0 0,-3.4e-4 0,-10e-4 0,-0.17924 0,-27.82648 0,-27.82648"
             style="opacity:1;fill:#3d65ff;fill-opacity:1;stroke:#ffffff;stroke-width:0.38207835;stroke-linecap:round;stroke-linejoin:round;stroke-miterlimit:4;stroke-dasharray:none;stroke-dashoffset:0;stroke-opacity:1;paint-order:normal"
             id="path123304" />
          <path
             inkscape:connector-curvature="0"
             id="path123324"
             style="opacity:1;fill:#3d65ff;fill-opacity:1;stroke:#ffffff;stroke-width:0.38207835;stroke-linecap:round;stroke-linejoin:round;stroke-miterlimit:4;stroke-dasharray:none;stroke-dashoffset:0;stroke-opacity:1;paint-order:normal"
             d="m 247.5028,192.02094 c 0,0 -27.82754,0 -27.82754,0 0,0 0,3.4e-4 0,0.001 0,0.17924 0,27.82648 0,27.82648 0,0 27.82754,0 27.82754,0 0,0 0,-3.4e-4 0,-0.001 0,-0.17924 0,-27.82648 0,-27.82648" />
        </g>
        <g
           id="g123630"
           transform="matrix(1.7791317,0,0,1.7791317,-322.95723,-50.455463)"
           inkscape:path-effect="#path-effect123644;#path-effect123648"
           style="stroke:#ffffff;stroke-opacity:1">
          <path
             inkscape:connector-curvature="0"
             d="m 291.29253,143.66188 c 0,0 4.93971,-1.05861 5.68498,-1.09329 0.75923,-0.0353 1.4668,0.87714 3.25729,0.76088 l -0.15029,-0.98685 c 2.81568,-0.41584 7.45369,-0.55318 9.72618,-0.65305 2.07282,-0.0911 0.87035,0.14089 0.87035,0.14089 l 0.21352,-0.15482 4.1079,14.21724 c -4.24913,-1.07153 -6.25999,1.08251 -7.93536,1.16171 -1.87006,0.0884 -4.13989,-3.23971 -6.56298,-2.99941 l 0.97062,1.84814 c -1.3733,-0.27062 -1.94978,-1.32412 -3.70541,-1.34707 -1.60319,-0.021 -4.6605,2.02787 -4.6605,2.02787 l 0.40849,-0.98196 z"
             style="opacity:1;fill:#3d65ff;fill-opacity:1;stroke:#ffffff;stroke-width:0.18204804;stroke-linecap:round;stroke-linejoin:round;stroke-miterlimit:4;stroke-dasharray:none;stroke-dashoffset:0;stroke-opacity:1;paint-order:normal"
             id="path123626"
             inkscape:original-d="m 294.76544,142.27075 c 0,0 13.25893,0 13.25893,0 0,0 0,1.6e-4 0,5e-4 0,0.0854 0,13.25842 0,13.25842 0,0 -13.25893,0 -13.25893,0 0,0 0,-1.6e-4 0,-5e-4 0,-0.0854 0,-13.25842 0,-13.25842" />
          <path
             inkscape:connector-curvature="0"
             id="path123628"
             style="opacity:1;fill:#3d65ff;fill-opacity:1;stroke:#ffffff;stroke-width:0.18204804;stroke-linecap:round;stroke-linejoin:round;stroke-miterlimit:4;stroke-dasharray:none;stroke-dashoffset:0;stroke-opacity:1;paint-order:normal"
             d="m 291.62868,144.38153 c 0,0 3.76364,-2.28626 4.48659,-2.2933 0.74225,-0.007 1.26109,-1.54819 3.27093,-1.67055 4.29814,-0.45551 12.81326,-2.18447 12.81326,-2.18447 l -1.59198,3.50104 -0.47296,16.47088 c -0.20422,-4.11856 -7.23507,-4.32848 -11.44089,-3.90987 -1.91379,0.27956 -0.14849,0.0253 -2.2322,-0.0645 -1.89292,-0.0816 -4.74627,-0.58557 -4.74627,-0.58557 l 0.79084,1.43761 z"
             inkscape:original-d="m 293.97169,141.54315 c 0,0 13.25893,0 13.25893,0 0,0 0,1.6e-4 0,5e-4 0,0.0854 0,13.25842 0,13.25842 0,0 -13.25893,0 -13.25893,0 0,0 0,-1.6e-4 0,-5e-4 0,-0.0854 0,-13.25842 0,-13.25842" />
        </g>
      </g>
      <g
         transform="translate(10.657505,1.3062272)"
         id="g1184">
        <g
           id="g1107"
           style="opacity:0.3"
           transform="translate(-10.583333)">
          <path
             inkscape:connector-curvature="0"
             d="m 69.846052,199.85611 c 0,0 -15.211332,0 -15.211332,0 0,0 0,8e-5 0,2.7e-4 0,0.0447 0,15.21108 0,15.21108 0,0 15.211332,0 15.211332,0 0,0 0,-8e-5 0,-2.7e-4 0,-0.0447 0,-15.21108 0,-15.21108"
             style="opacity:1;fill:#7b19ff;fill-opacity:1;stroke:#ffffff;stroke-width:0.20885515;stroke-linecap:round;stroke-linejoin:round;stroke-miterlimit:4;stroke-dasharray:none;stroke-dashoffset:0;stroke-opacity:1;paint-order:normal"
             id="path123298" />
          <path
             inkscape:connector-curvature="0"
             id="path123318"
             style="opacity:1;fill:#7b19ff;fill-opacity:1;stroke:#ffffff;stroke-width:0.20885515;stroke-linecap:round;stroke-linejoin:round;stroke-miterlimit:4;stroke-dasharray:none;stroke-dashoffset:0;stroke-opacity:1;paint-order:normal"
             d="m 71.511952,198.32903 c 0,0 -15.211332,0 -15.211332,0 0,0 0,8e-5 0,2.7e-4 0,0.0447 0,15.21108 0,15.21108 0,0 15.211332,0 15.211332,0 0,0 0,-8e-5 0,-2.7e-4 0,-0.0447 0,-15.21108 0,-15.21108" />
        </g>
        <g
           id="g123686"
           transform="matrix(-2.3455947,0,0,2.3455947,949.58371,-136.6813)"
           inkscape:path-effect="#path-effect945;#path-effect947">
          <path
             inkscape:connector-curvature="0"
             d="m 383.14861,145.88179 c -0.15833,-0.73188 -0.57562,0.84876 -0.57562,0.84876 0,0 -1.01639,0.50012 -0.50905,0.96883 0,0 -0.004,0.007 -0.004,0.007 0,0 1.26064,1.15901 1.26064,1.15901 0,0 0.5747,0.52838 0.5747,0.52838 0,0 0.17612,0.16192 0.17612,0.16192 0,0 0.0481,0.0442 0.0481,0.0442 0,0 0.0168,0.0154 0.0168,0.0154 0,0 -0.49553,-0.95939 -0.49553,-0.95939 0,0 0,4e-5 0,4e-5 0,0 -1.4e-4,1.18035 -1.4e-4,1.18035 0,0 -8e-5,0.6714 -8e-5,0.6714 0,0 -3.50705,-0.4041 -3.50705,-0.4041 0,0 0.49553,0.9594 0.49553,0.9594 0,0 4e-5,-7e-5 4e-5,-7e-5 0,0 1.92162,-3.56003 1.92162,-3.56003 0.0705,-0.13064 0.11271,-0.23653 0.13431,-0.32277 0.0574,-0.0429 0.0235,-0.18769 0.008,-0.22956 0,0 0,0 0,0 -0.34302,-0.62951 -0.28786,-0.52893 -0.033,-0.0594 0,0 0,0 0,0 -0.0348,-0.0382 -0.10965,-0.0496 -0.19304,-0.0638 -0.1266,0.004 -0.25953,0.0533 -0.25953,0.0533 0,0 0.0298,-0.20384 0.039,-0.41065 4.8e-4,-0.14451 0.006,-0.28124 -0.012,-0.34516 0,0 1e-5,0 1e-5,0 0.26093,0.46006 0.31658,0.55988 -0.033,-0.0594 0,0 0,0 0,0 -0.0256,-0.0255 -0.1228,-0.0721 -0.17269,0.0518 -0.0737,0.0619 -0.16996,0.17107 -0.29317,0.34144 0,0 -3.35765,4.6429 -3.35765,4.6429 0,0 -7e-5,9e-5 -7e-5,9e-5 0,0 0.49554,0.9594 0.49554,0.9594 0,0 6.06335,-0.69417 6.06335,-0.69417 0,0 0.95411,-0.39383 0.95411,-0.39383 0,0 -0.0179,-0.0128 -0.0179,-0.0128 0,0 -0.0507,-0.0363 -0.0507,-0.0363 0,0 -0.181,-0.12964 -0.181,-0.12964 0,0 -0.54956,-0.39361 -0.54956,-0.39361 0,0 -0.80274,-0.57493 -0.80274,-0.57493 0,0 -3e-5,-2e-5 -3e-5,-2e-5 0,0 -0.49553,-0.9594 -0.49553,-0.9594 0,0 -0.005,-0.0242 -0.005,-0.0242 0,0 -0.0148,-0.0693 -0.0148,-0.0693 0,0 -0.0543,-0.25375 -0.0543,-0.25375 0,0 -0.17735,-0.828 -0.17735,-0.828 0,0 -0.38902,-1.81627 -0.38902,-1.81627 0,0 -0.004,0.007 -0.004,0.007 z"
             style="opacity:1;fill:#7b19ff;fill-opacity:1;stroke:#ffffff;stroke-width:0.09951276;stroke-linecap:round;stroke-linejoin:round;stroke-miterlimit:4;stroke-dasharray:none;stroke-dashoffset:0;stroke-opacity:1;paint-order:normal"
             id="path123680"
             inkscape:original-d="m 378.61942,145.27635 c 0,0 7.24771,0 7.24771,0 0,0 0,4e-5 0,1.3e-4 0,0.0213 0,7.24759 0,7.24759 0,0 -7.24771,0 -7.24771,0 0,0 0,-4e-5 0,-1.3e-4 0,-0.0213 0,-7.24759 0,-7.24759" />
          <path
             inkscape:connector-curvature="0"
             id="path123682"
             style="opacity:1;fill:#7b19ff;fill-opacity:1;stroke:#ffffff;stroke-width:0.09951276;stroke-linecap:round;stroke-linejoin:round;stroke-miterlimit:4;stroke-dasharray:none;stroke-dashoffset:0;stroke-opacity:1;paint-order:normal"
             d="m 383.36735,145.05568 c -0.0758,-0.79413 -0.65442,0.90819 -0.65442,0.90819 0,0 -1.02916,0.50975 -0.60437,1.0407 0,0 -0.005,0.008 -0.005,0.008 0,0 1.05606,1.31328 1.05606,1.31328 0,0 0.48144,0.5987 0.48144,0.5987 0,0 0.14754,0.18347 0.14754,0.18347 0,0 0.0403,0.0501 0.0403,0.0501 0,0 0.0141,0.0175 0.0141,0.0175 0,0 -0.32738,-1.0862 -0.32738,-1.0862 0,0 0,4e-5 0,4e-5 0,0 -0.20571,1.33537 -0.20571,1.33537 0,0 -0.11701,0.75957 -0.11701,0.75957 0,0 -3.21142,-0.62702 -3.21142,-0.62702 0,0 0.32737,1.0862 0.32737,1.0862 0,0 5e-5,-7e-5 5e-5,-7e-5 0,0 2.28931,-3.8373 2.28931,-3.8373 0.18091,-0.30325 0.2259,-0.48772 0.20455,-0.59914 0,0 0,0 0,0 -0.25657,-0.69426 -0.21537,-0.58372 -0.0247,-0.0653 0,0 0,0 0,0 -0.0966,-0.14703 -0.43272,-0.0261 -0.43272,-0.0261 0,0 0.15218,-0.59005 0.11253,-0.82003 0,0 0,0 0,0 0.19756,0.50831 0.23931,0.61804 -0.0247,-0.0653 0,0 0,0 0,0 -0.054,-0.0639 -0.19435,0.0215 -0.48876,0.41032 0,0 -3.72535,4.92016 -3.72535,4.92016 0,0 -7e-5,1e-4 -7e-5,1e-4 0,0 0.32737,1.0862 0.32737,1.0862 0,0 5.6873,-0.4106 5.6873,-0.4106 0,0 0.96142,-0.39934 0.96142,-0.39934 0,0 -0.0133,-0.0163 -0.0133,-0.0163 0,0 -0.0377,-0.0461 -0.0377,-0.0461 0,0 -0.13465,-0.16459 -0.13465,-0.16459 0,0 -0.40883,-0.49974 -0.40883,-0.49974 0,0 -0.59716,-0.72994 -0.59716,-0.72994 0,0 -2e-5,-3e-5 -2e-5,-3e-5 0,0 -0.32737,-1.0862 -0.32737,-1.0862 0,0 -0.002,-0.0263 -0.002,-0.0263 0,0 -0.007,-0.0752 -0.007,-0.0752 0,0 -0.0258,-0.27529 -0.0258,-0.27529 0,0 -0.0841,-0.89833 -0.0841,-0.89833 0,0 -0.18444,-1.97054 -0.18444,-1.97054 0,0 -0.005,0.008 -0.005,0.008 z"
             inkscape:original-d="m 377.82567,144.54875 c 0,0 7.24771,0 7.24771,0 0,0 0,4e-5 0,1.3e-4 0,0.0213 0,7.24759 0,7.24759 0,0 -7.24771,0 -7.24771,0 0,0 0,-4e-5 0,-1.3e-4 0,-0.0213 0,-7.24759 0,-7.24759" />
        </g>
      </g>
    </g>
  </g>
</svg>
