<?xml version="1.0" encoding="UTF-8" standalone="no"?>
<!-- Generator: Adobe Illustrator 21.0.2, SVG Export Plug-In . SVG Version: 6.00 Build 0)  -->

<svg
   xmlns:dc="http://purl.org/dc/elements/1.1/"
   xmlns:cc="http://creativecommons.org/ns#"
   xmlns:rdf="http://www.w3.org/1999/02/22-rdf-syntax-ns#"
   xmlns:svg="http://www.w3.org/2000/svg"
   xmlns="http://www.w3.org/2000/svg"
   xmlns:sodipodi="http://sodipodi.sourceforge.net/DTD/sodipodi-0.dtd"
   xmlns:inkscape="http://www.inkscape.org/namespaces/inkscape"
   version="1.2"
   id="Layer_1"
   x="0px"
   y="0px"
   viewBox="0 0 48.179573 48.18"
   overflow="scroll"
   xml:space="preserve"
   sodipodi:docname="gmail.svg"
   width="48.179573"
   height="48.18"
   style="overflow:scroll"
   inkscape:version="0.92.1 r15371"><metadata
     id="metadata37"><rdf:RDF><cc:Work
         rdf:about=""><dc:format>image/svg+xml</dc:format><dc:type
           rdf:resource="http://purl.org/dc/dcmitype/StillImage" /><dc:title></dc:title></cc:Work></rdf:RDF></metadata><defs
     id="defs35" /><sodipodi:namedview
     pagecolor="#ffffff"
     bordercolor="#666666"
     borderopacity="1"
     objecttolerance="10"
     gridtolerance="10"
     guidetolerance="10"
     inkscape:pageopacity="0"
     inkscape:pageshadow="2"
     inkscape:window-width="1366"
     inkscape:window-height="709"
     id="namedview33"
     showgrid="false"
     fit-margin-top="0"
     fit-margin-left="0"
     fit-margin-right="0"
     fit-margin-bottom="0"
     inkscape:zoom="4"
     inkscape:cx="28.88824"
     inkscape:cy="40.834852"
     inkscape:window-x="0"
     inkscape:window-y="27"
     inkscape:window-maximized="1"
     inkscape:current-layer="Layer_1" /><linearGradient
     id="SVGID_1_"
     gradientUnits="userSpaceOnUse"
     x1="14.0005"
     y1="30.743601"
     x2="32"
     y2="30.743601"><stop
       offset="0"
       style="stop-color:#C8C8C8"
       id="stop18" /><stop
       offset="1"
       style="stop-color:#CDCDCD"
       id="stop20" /></linearGradient><linearGradient
     id="SVGID_2_"
     gradientUnits="userSpaceOnUse"
     x1="28.664499"
     y1="36.447399"
     x2="50"
     y2="36.447399"><stop
       offset="0"
       style="stop-color:#D9D9D9"
       id="stop25" /><stop
       offset="1"
       style="stop-color:#E2E2E2"
       id="stop27" /></linearGradient><rect
     style="fill:none;fill-opacity:0.75585279;stroke:none;stroke-width:1.43735945;stroke-opacity:1"
     id="rect4514"
     width="48.179573"
     height="48.18"
     x="0"
     y="0" /><g
     id="g4528"
     transform="translate(-7.9102135,-7.9099998)"><path
       id="path2"
       d="M 53,50 H 11 C 9.343,50 8,48.657 8,47 V 17 c 0,-1.657 1.343,-3 3,-3 h 42 c 1.657,0 3,1.343 3,3 v 30 c 0,1.657 -1.343,3 -3,3 z"
       inkscape:connector-curvature="0"
       style="fill:#eaeaea" /><path
       id="path4"
       d="M 14,50 H 11 C 9.343,50 8,48.657 8,47 V 17 c 0,-1.657 1.343,-3 3,-3 v 0 c 1.657,0 3,1.343 3,3 z"
       inkscape:connector-curvature="0"
       style="fill:#d54c3f" /><path
       id="path6"
       d="m 50,50 h 3 c 1.657,0 3,-1.343 3,-3 V 17 c 0,-1.657 -1.343,-3 -3,-3 v 0 c -1.657,0 -3,1.343 -3,3 z"
       inkscape:connector-curvature="0"
       style="fill:#b63524" /><path
       id="path8"
       d="M 54.718,19.46 C 55.493,18.917 56,18.018 56,17 c 0,-1.657 -1.343,-3 -3,-3 -0.639,0 -1.232,0.2 -1.718,0.54 0,0 -19.28,14.037 -19.28,14.037 L 32,28.578 31.998,28.577 12.718,14.54 C 12.232,14.2 11.639,14 11,14 c -1.657,0 -3,1.343 -3,3 0,1.018 0.507,1.917 1.282,2.46 L 9.202,19.401 32,36"
       inkscape:connector-curvature="0"
       style="fill:#de5145" /><line
       id="line10"
       y2="36"
       x2="32"
       y1="19.400999"
       x1="54.799"
       style="fill:#de5145" /><path
       id="path12"
       d="m 53,14 c -0.639,0 -1.232,0.2 -1.718,0.54 0,0 -19.28,14.037 -19.28,14.037 L 32,28.578 31.998,28.577 12.718,14.54 C 12.232,14.2 11.639,14 11,14 Z"
       inkscape:connector-curvature="0"
       style="fill:#efefef" /><path
       id="path14"
       d="M 14.001,24.188 8.945,19.18 8.943,19.184 c 0.106,0.1 0.219,0.192 0.339,0.276 l -0.08,-0.059 4.8,3.495 -0.001,1.328"
       inkscape:connector-curvature="0"
       style="fill:#c64132" /><polyline
       id="polyline16"
       points="28.668,38.591 14,50 14.001,24.063 28.665,38.587 "
       style="fill:#e3e3e3" /><polygon
       id="polygon23"
       points="32,36 14.001,22.896 14.001,24.063 28.665,38.587 28.668,38.591 "
       style="fill:url(#SVGID_1_)" /><polygon
       id="polygon30"
       points="50,50 50,22.895 32,36 28.665,38.587 40.061,50 "
       style="fill:url(#SVGID_2_)" /></g></svg>