<?xml version="1.0" standalone="no"?>
<!DOCTYPE svg PUBLIC "-//W3C//DTD SVG 20010904//EN"
 "http://www.w3.org/TR/2001/REC-SVG-20010904/DTD/svg10.dtd">
<svg version="1.0" xmlns="http://www.w3.org/2000/svg"
 width="880.000000pt" height="880.000000pt" viewBox="0 0 880.000000 880.000000"
 preserveAspectRatio="xMidYMid meet">
<metadata>
Created by potrace 1.11, written by Peter Selinger 2001-2013
</metadata>
<g transform="translate(0.000000,880.000000) scale(0.100000,-0.100000)"
fill="#000000" stroke="none">
<path d="M6266 8659 c-70 -176 -26 -752 124 -1594 148 -831 344 -1744 684
-3175 271 -1143 326 -1384 326 -1426 0 -14 -10 -30 -25 -40 -67 -44 -138 49
-262 346 -138 330 -240 621 -653 1855 -695 2078 -946 2744 -1159 3068 -91 137
-127 149 -174 56 -41 -82 -57 -201 -57 -424 0 -591 187 -1702 530 -3145 209
-877 465 -1814 541 -1975 23 -48 19 -81 -11 -90 -25 -8 -53 7 -74 40 -51 78
-184 479 -572 1725 -601 1932 -815 2576 -1054 3175 -134 337 -286 621 -327
613 -115 -22 -126 -528 -28 -1223 109 -768 261 -1549 620 -3170 164 -741 212
-973 236 -1132 11 -73 10 -84 -5 -107 -23 -37 -66 -35 -111 5 -128 113 -331
624 -852 2149 -653 1912 -936 2662 -1175 3120 -103 198 -226 360 -272 360 -26
0 -73 -49 -95 -99 -47 -111 -56 -193 -55 -526 1 -262 5 -348 27 -555 84 -781
249 -1709 607 -3410 306 -1455 338 -1642 290 -1690 -97 -97 -244 124 -480 722
-40 103 -75 186 -77 184 -3 -3 152 -431 214 -591 167 -425 323 -719 416 -779
25 -17 28 -17 53 -1 36 23 71 106 91 212 21 109 24 514 5 733 -37 425 -131
1069 -258 1765 -50 272 -276 1404 -379 1900 -215 1036 -284 1406 -288 1548 -2
83 -1 90 23 109 68 55 157 -23 270 -237 135 -259 404 -948 650 -1670 26 -77
85 -246 130 -375 45 -129 103 -298 130 -375 610 -1774 881 -2478 1085 -2816
49 -82 123 -169 144 -169 27 0 70 58 90 124 153 496 -110 2142 -789 4946 -126
523 -132 548 -120 570 6 11 15 20 20 20 4 0 15 3 23 6 27 10 87 -56 132 -145
84 -169 225 -550 418 -1136 104 -317 198 -608 442 -1380 506 -1598 697 -2170
857 -2564 79 -195 145 -321 169 -321 17 0 29 50 40 156 43 427 -194 1778 -681
3879 -253 1093 -350 1536 -350 1601 0 21 37 54 60 54 31 0 97 -66 137 -138
142 -254 320 -739 831 -2262 421 -1254 523 -1548 705 -2032 225 -595 412 -968
487 -968 43 0 76 104 90 280 26 337 -56 1010 -237 1955 -202 1059 -619 2828
-904 3838 -48 171 -50 179 -33 198 43 48 92 7 155 -126 107 -229 338 -929 714
-2160 354 -1158 588 -1915 593 -1911 8 9 -96 370 -440 1516 -486 1620 -813
2582 -1011 2975 -52 105 -101 175 -121 175 -8 0 -21 -18 -30 -41z"/>
<path d="M1360 7743 l-1 -748 98 -343 98 -342 41 -21 c211 -102 549 -872 1115
-2544 71 -209 129 -373 129 -363 0 9 -16 91 -35 183 -178 846 -355 1812 -434
2375 -79 559 -96 756 -96 1125 0 328 8 401 56 531 35 93 114 164 184 164 247
0 617 -842 1470 -3350 364 -1069 549 -1585 695 -1934 55 -132 142 -304 147
-290 6 17 -49 285 -173 849 -315 1429 -430 1983 -543 2610 -61 341 -159 977
-186 1210 -34 291 -12 677 47 801 44 95 122 128 194 83 59 -36 149 -184 250
-414 47 -105 56 -120 76 -118 38 3 66 -6 89 -30 30 -31 108 -196 174 -372 68
-177 308 -902 421 -1267 43 -141 80 -255 82 -254 1 2 -4 35 -13 75 -15 70 -67
349 -106 563 -36 200 -94 582 -124 823 -50 393 -45 853 10 1005 36 101 113
168 179 156 103 -19 243 -240 424 -666 38 -91 97 -219 130 -285 82 -163 163
-357 262 -622 46 -123 85 -221 87 -219 2 2 -14 98 -36 212 -85 444 -128 788
-118 951 9 136 35 183 101 183 47 0 81 -74 212 -460 46 -135 83 -240 83 -235
1 6 -12 82 -28 170 -114 619 -181 1162 -181 1461 l0 94 -2390 0 -2390 0 0
-747z"/>
<path d="M6540 8487 c0 -2 18 -46 41 -98 161 -371 416 -1117 730 -2134 59
-192 108 -345 108 -339 1 6 -17 91 -40 190 -22 98 -63 278 -90 399 -85 374
-338 1519 -394 1785 -15 69 -31 142 -36 163 l-10 37 -154 0 c-85 0 -155 -1
-155 -3z"/>
<path d="M6970 8479 c0 -7 56 -192 124 -413 602 -1943 1050 -3574 1241 -4517
85 -421 111 -740 66 -832 -26 -53 -67 -76 -106 -59 -63 29 -170 287 -368 887
-155 470 -202 619 -581 1855 -431 1407 -671 2168 -675 2140 -1 -3 59 -246 133
-540 263 -1046 459 -1913 620 -2740 31 -157 85 -397 121 -535 160 -606 290
-1160 360 -1525 77 -403 100 -693 62 -792 -18 -48 -52 -78 -85 -78 -57 0 -127
124 -232 408 -40 108 -67 169 -73 163 -5 -5 -10 -85 -11 -178 -1 -148 -4 -174
-22 -214 -26 -56 -70 -80 -109 -59 -62 33 -184 355 -444 1170 -94 294 -198
612 -231 705 -121 337 -274 785 -559 1635 -325 970 -412 1223 -418 1217 -2 -3
48 -225 111 -493 410 -1743 603 -2679 710 -3449 49 -354 60 -482 60 -712 l1
-203 937 0 938 0 0 3585 0 3585 -785 0 c-584 0 -785 -3 -785 -11z"/>
<path d="M7151 7544 c0 -11 3 -14 6 -6 3 7 2 16 -1 19 -3 4 -6 -2 -5 -13z"/>
<path d="M7160 7513 c0 -11 109 -503 215 -973 42 -184 82 -364 90 -400 24
-109 241 -1042 315 -1350 122 -511 254 -982 392 -1399 56 -168 56 -186 -1
-186 -17 0 -31 -2 -31 -4 0 -2 23 -65 51 -140 65 -172 119 -291 132 -291 19 0
0 322 -28 490 -94 567 -365 1655 -674 2715 -27 94 -88 305 -136 470 -99 346
-315 1068 -321 1074 -2 2 -4 0 -4 -6z"/>
<path d="M260 3895 l0 -3585 924 0 924 0 -53 118 c-61 137 -158 389 -241 624
l-59 168 -232 0 c-228 0 -232 0 -247 22 -14 20 -16 111 -16 787 l0 765 -74
260 c-410 1434 -819 2953 -806 2991 5 13 18 21 38 23 38 4 30 26 183 -508 145
-508 356 -1227 509 -1735 62 -203 121 -397 130 -430 18 -58 18 -8 19 1770 l1
1830 -25 95 c-28 102 -27 135 5 145 19 6 20 15 20 126 l0 119 -500 0 -500 0 0
-3585z"/>
<path d="M6047 7306 c-38 -97 59 -742 225 -1506 94 -433 125 -550 260 -980 64
-201 141 -450 173 -555 31 -104 86 -287 121 -405 81 -268 135 -429 231 -690
80 -219 190 -489 203 -504 5 -5 2 19 -6 53 -217 934 -329 1361 -584 2231 -30
103 -272 980 -343 1245 -36 132 -91 335 -122 452 -59 218 -63 256 -25 266 19
5 17 13 -34 159 -78 221 -91 254 -99 234z"/>
<path d="M4520 7092 c0 -5 26 -78 59 -163 32 -85 68 -179 79 -209 11 -30 29
-61 41 -68 21 -14 21 -14 7 24 -30 86 -130 332 -152 377 -23 45 -34 57 -34 39z"/>
<path d="M5416 7079 c-8 -29 39 -249 255 -1183 507 -2199 715 -3322 724 -3923
2 -122 8 -230 13 -240 12 -23 -3 -63 -26 -70 -9 -2 -28 -21 -41 -41 -21 -33
-22 -40 -11 -72 25 -70 129 -277 155 -308 36 -42 48 -32 71 61 57 226 -15 897
-202 1867 -127 656 -261 1265 -559 2535 -223 952 -218 930 -212 977 6 42 -38
165 -123 343 -34 73 -38 78 -44 54z"/>
<path d="M2680 7053 c0 -39 64 -440 76 -472 4 -11 8 -10 19 6 19 27 75 53 114
53 18 0 31 5 31 12 0 23 -180 373 -210 408 l-29 35 -1 -42z"/>
<path d="M4354 6870 c4 -14 22 -86 41 -160 l34 -135 -6 80 c-4 54 -15 104 -35
155 -32 80 -43 101 -34 60z"/>
<path d="M1361 6390 c0 -183 1 -203 14 -185 9 11 28 34 45 51 l29 30 -39 145
c-22 79 -42 149 -44 154 -3 6 -5 -82 -5 -195z"/>
<path d="M2854 6536 c-11 -8 -30 -37 -44 -65 l-23 -51 26 -128 c462 -2226 574
-2811 691 -3599 78 -521 116 -914 116 -1189 0 -147 0 -149 55 -362 53 -203 55
-215 39 -233 -28 -31 -59 -23 -98 23 -20 23 -36 45 -36 50 0 20 -19 5 -25 -20
-10 -47 121 -335 212 -469 46 -67 67 -69 93 -9 57 127 55 475 -5 966 -72 590
-268 1625 -550 2910 -19 85 -55 250 -80 365 -25 116 -57 260 -70 320 -118 536
-185 883 -185 963 0 64 13 82 60 82 46 0 90 -38 136 -115 14 -25 28 -44 30
-42 3 3 -103 290 -167 451 -25 63 -110 166 -138 166 -9 0 -26 -6 -37 -14z"/>
<path d="M4566 6285 c19 -163 146 -817 245 -1265 91 -410 110 -482 235 -925
69 -242 159 -558 200 -702 41 -145 107 -381 148 -525 193 -682 255 -898 351
-1228 90 -309 157 -524 180 -582 9 -23 -30 -61 -55 -53 -17 6 -14 -8 24 -117
41 -114 84 -222 117 -291 12 -26 14 -27 20 -10 21 53 5 377 -31 637 -45 314
-173 973 -289 1490 -23 99 -70 267 -105 375 -66 201 -257 799 -481 1506 -202
638 -450 1406 -509 1580 -42 120 -54 148 -50 110z"/>
<path d="M1457 6159 c-95 -133 -109 -609 -36 -1215 87 -737 265 -1693 544
-2929 51 -226 74 -327 150 -665 13 -58 38 -166 55 -240 68 -297 101 -456 103
-491 3 -77 -57 -93 -117 -32 -43 45 -123 198 -195 373 -87 211 -92 208 -14
-10 100 -277 215 -551 285 -679 47 -86 104 -168 121 -174 22 -8 49 15 68 59
73 164 65 657 -21 1264 -50 355 -64 441 -141 880 -59 338 -264 1363 -384 1925
-166 774 -248 1204 -269 1400 -12 111 -67 344 -129 549 -2 6 -11 -1 -20 -15z"/>
<path d="M1600 6167 c0 -4 28 -101 61 -215 51 -171 67 -211 89 -232 98 -87
255 -426 473 -1015 135 -365 209 -578 612 -1765 187 -553 244 -715 244 -702 1
7 -13 77 -30 155 -48 220 -554 1730 -817 2437 -224 602 -413 1030 -541 1221
-56 84 -90 128 -91 116z"/>
<path d="M3074 5905 c9 -63 56 -307 96 -495 17 -80 40 -185 50 -235 11 -49 42
-193 70 -320 385 -1745 598 -2858 665 -3472 l7 -63 415 0 c328 0 414 3 410 13
-171 425 -400 1045 -587 1592 -26 77 -103 300 -170 495 -67 195 -155 452 -195
570 -346 1019 -593 1666 -720 1890 -47 84 -49 85 -41 25z"/>
<path d="M6521 5840 c0 -8 4 -24 9 -35 5 -13 9 -14 9 -5 0 8 -4 24 -9 35 -5
13 -9 14 -9 5z"/>
<path d="M6541 5764 c0 -11 3 -14 6 -6 3 7 2 16 -1 19 -3 4 -6 -2 -5 -13z"/>
<path d="M6551 5724 c0 -11 3 -14 6 -6 3 7 2 16 -1 19 -3 4 -6 -2 -5 -13z"/>
<path d="M1815 5437 c9 -43 331 -1095 456 -1487 407 -1276 730 -2137 899
-2399 22 -33 42 -61 45 -61 9 0 -7 82 -26 135 -10 28 -49 140 -88 250 -64 185
-106 308 -366 1075 -479 1413 -590 1726 -763 2150 -87 213 -165 381 -157 337z"/>
<path d="M5221 5060 c0 -8 4 -24 9 -35 5 -13 9 -14 9 -5 0 8 -4 24 -9 35 -5
13 -9 14 -9 5z"/>
<path d="M5245 4975 c3 -16 49 -169 102 -340 52 -170 104 -340 116 -378 11
-37 22 -65 24 -63 2 2 -44 161 -102 352 -109 357 -149 482 -140 429z"/>
<path d="M1841 4847 c-1 -5 42 -214 95 -465 305 -1455 445 -2193 530 -2782 20
-140 38 -261 40 -267 3 -10 62 -13 253 -13 l249 0 -50 117 c-257 607 -629
1731 -1018 3083 -93 326 -98 341 -99 327z"/>
<path d="M1361 3830 l-1 -826 105 -334 c107 -338 343 -1046 413 -1240 l38
-105 56 -3 56 -3 -19 83 c-10 46 -41 184 -69 308 -114 502 -144 638 -205 925
-153 720 -269 1343 -358 1925 -13 87 -14 30 -16 -730z"/>
<path d="M5501 4140 c0 -8 4 -22 9 -30 12 -18 12 -2 0 25 -6 13 -9 15 -9 5z"/>
<path d="M7644 2910 c16 -145 27 -303 33 -495 l6 -210 44 -125 c56 -159 58
-167 43 -185 -15 -18 -51 -20 -68 -3 -19 19 -16 8 39 -139 63 -167 124 -303
137 -303 15 0 19 89 10 225 -7 121 -40 348 -79 545 -33 169 -160 735 -166 740
-3 3 -3 -20 1 -50z"/>
<path d="M5191 2819 c-1 -9 8 -96 19 -195 53 -482 42 -865 -32 -1036 -19 -45
-20 -55 -9 -111 67 -347 66 -397 -9 -397 -73 0 -163 135 -293 441 -25 58 -59
128 -75 155 -17 27 -53 94 -81 149 -27 55 -50 96 -51 91 -1 -24 233 -604 331
-818 108 -238 237 -444 295 -470 21 -10 28 -8 49 12 31 29 58 102 76 200 17
94 17 460 0 620 -42 402 -76 646 -142 1017 -36 208 -76 382 -78 342z"/>
<path d="M1360 1882 l0 -562 181 0 c159 0 180 2 175 15 -16 44 -205 632 -272
850 -42 138 -78 252 -80 254 -2 2 -4 -248 -4 -557z"/>
<path d="M5934 2115 c3 -16 33 -174 65 -350 33 -176 64 -347 68 -380 l8 -60
128 -3 c70 -1 127 -1 127 0 0 13 -114 254 -124 262 -47 39 -107 154 -208 396
-38 91 -67 152 -64 135z"/>
<path d="M7337 1868 c46 -130 98 -260 116 -293 10 -18 12 -16 18 20 10 49 11
187 3 237 -5 27 -12 38 -30 42 -12 3 -44 31 -71 61 -80 91 -88 75 -36 -67z"/>
<path d="M5450 1937 c0 -9 9 -85 19 -169 11 -84 25 -219 32 -300 l12 -148 70
0 c62 0 68 2 62 18 -3 9 -47 150 -97 312 -50 162 -92 297 -94 299 -2 2 -4 -3
-4 -12z"/>
<path d="M5028 1463 c-16 -2 -28 -9 -28 -14 0 -5 14 -36 30 -69 22 -43 36 -60
50 -60 23 0 25 14 9 93 -7 31 -17 56 -23 56 -6 -1 -23 -4 -38 -6z"/>
<path d="M1966 1198 c27 -89 174 -432 181 -424 4 4 -77 374 -93 429 -4 13 -16
17 -50 17 -42 0 -45 -1 -38 -22z"/>
<path d="M2524 1178 c28 -190 50 -643 39 -775 l-9 -93 2443 0 2443 0 0 455 0
455 -404 0 -404 0 -20 -34 c-26 -44 -65 -69 -105 -69 -24 0 -41 10 -78 52
l-48 52 -143 -3 c-136 -3 -143 -4 -141 -23 34 -275 44 -561 23 -637 -16 -55
-56 -98 -91 -98 -39 0 -70 34 -113 125 -31 65 -142 366 -208 560 l-23 70 -81
3 -81 3 -6 -168 c-10 -275 -45 -414 -123 -482 -91 -81 -178 -43 -292 128 -60
89 -158 276 -227 434 l-39 87 -426 0 c-235 0 -429 -2 -431 -5 -3 -2 -1 -41 3
-87 11 -126 11 -463 -1 -548 -13 -89 -59 -190 -99 -216 -15 -10 -44 -18 -66
-18 -34 -1 -44 6 -87 52 -26 28 -67 87 -90 129 -36 66 -141 285 -152 318 -2 5
-21 2 -45 -9 -59 -27 -103 -16 -163 41 -55 51 -114 137 -179 261 l-44 82 -269
0 -269 0 6 -42z"/>
</g>
</svg>
