<svg version="1" xmlns="http://www.w3.org/2000/svg" width="800" height="800" viewBox="0 0 600.000000 600.000000"><path d="M490.8 109.9c-7.5 2.4-11.5 5-17.2 11.1-10.5 11.3-14 26.2-16.6 71.5-.5 9.9-1.3 20.6-1.6 23.8l-.6 5.8-7.9 4c-12.8 6.4-24 8.4-33 5.9-5.1-1.4-12.1-7.9-15.4-14.3l-2.8-5.3 4.7-14.5c5.5-16.5 6.1-22.4 3-26.6-4.8-6.4-13.3-4.8-18.2 3.6-3.9 6.7-3.7 16.3.6 28.5l3.2 8.9-3.7 8.1c-6.8 15.3-27.2 55.1-34.2 66.9-19.5 32.7-35.4 50.3-61.1 67.6-16.4 11.1-48.8 30.3-49.9 29.7-1.2-.8-8.8-14-14.4-25.2l-4.6-9.2 12.7-15c7-8.2 23.3-27.3 36.3-42.3 35.6-41.4 49.9-59.8 64.4-83.4 12.1-19.4 15.6-30 13.5-39.7-1.3-6.5-3.9-10.7-9.7-15.8-8.8-7.7-26.2-14-38.7-14-18 0-37.8 10.9-61.8 33.8-23.7 22.6-36.7 42.7-42.4 65.2-2.8 11-2.6 35.7.4 49.5 2.4 10.9 10.6 38.8 15.3 52.2 1.6 4.6 2.7 8.9 2.3 9.6-.4.7-3.3 4.3-6.4 8.2-3.1 3.8-12 15.4-19.8 25.7-30 39.5-45.3 56.3-68.7 75.5-18.7 15.4-25.4 18.5-32.4 14.9-3.4-1.8-5.1-5.4-5.1-11.1 0-3.7.7-5.3 4.3-9.7 2.3-2.8 7.5-7.7 11.5-10.7 7.1-5.4 8.9-8.5 5.7-9.7-3.4-1.3-21.9 14.8-25.4 22-4.1 8.4-1.8 18.8 5.1 23.8 4.8 3.3 13.5 3.2 20.4-.4 7.9-4.1 31.5-24.1 45.4-38.4 14.5-14.9 22.3-24.4 48.9-59.2 10.6-13.8 19.6-25.2 20-25.2.4 0 2.3 3.2 4.2 7.2 1.9 3.9 5.8 11.2 8.7 16.1 2.9 5 5.1 9.1 5 9.2-.2.2-7.5 4.5-16.3 9.5-33.2 19.2-47 30.3-52.7 42.7-5.9 12.5-3.9 22.4 6.3 32.4 10.4 10.2 24.5 14.4 44.8 13.7 10.7-.4 14-1 21.9-3.6 19.3-6.6 29.5-16.5 32.2-31.3 2.1-11.2-2.1-21.9-18.3-46.9l-9.4-14.5L266 377c38.7-23.2 51.5-33.5 68.9-55.5 14.6-18.4 24.7-35.5 44-74.5l13.8-27.7 1.8 3.2c2.7 5.1 9.5 11.6 14.5 13.8 9.9 4.4 24.7 2.9 38.2-3.8l7-3.5-.7 4.2c-3.6 23.5-11.7 60-20.5 92.2-6 22.1-8.5 30.5-14.6 49.7l-1.4 4.6-8.8-2.1c-7-1.6-12.3-2-27.2-2-21.8 0-28.2 1.3-44.5 9.4-22.5 11.1-42.9 33.2-50.2 54.2-2.2 6.3-2.5 8.5-2.1 16.8.5 11 2.4 15.6 9.1 22.1 4.5 4.4 10.1 7.6 18.7 10.5 8.3 2.8 26.4 2.7 34.4-.3 15.7-5.9 30.2-18.8 43.1-38.3 9.3-13.9 20-34.7 26.6-51.5 2.3-6.1 4.3-11.1 4.4-11.3.1-.1 4.2 1.2 9.1 2.9 10.7 3.7 22.9 9.9 34.3 17.3 6.4 4.2 8.8 5.3 9.8 4.4.7-.6 1.3-1.7 1.3-2.4 0-3.6-30.1-20.7-44.9-25.5-3.9-1.3-7.1-2.7-7.1-3.3 0-.5 1.8-6.4 3.9-13 12.3-37.8 30.8-114.5 32.8-136.1.5-5.9.6-6.1 5.6-9.5 14.4-9.9 25-21.1 37.2-39.5 14-21.1 21.5-38.7 21.5-50.9 0-16.2-6.5-23.7-20.7-23.5-3.7 0-9.3.8-12.5 1.8zm21.1 5.6c5.4 2.7 7.6 14.1 5 25.3-3 12.7-20.1 42.3-32.2 55.8-8.1 9.2-22.2 21.5-23.1 20.3-.1-.2.1-5.6.5-11.9.5-6.3 1.3-18.2 1.9-26.5 1.3-19.2 3.6-34.4 6.1-40.9 4-10.5 11.8-18.5 21.2-21.7 6.4-2.2 16.8-2.4 20.6-.4zm-194.4 33.9c9.3 3.2 18 8.7 21.2 13.5 7.7 11.5 4.7 22.4-13.9 50.8-16 24.4-30.2 42.2-72.2 90.6-11.3 13.1-23.6 27.4-27.3 31.8l-6.8 8.1-5.3-16.3c-17.8-54.7-18.7-79.2-4.1-108.3 6.2-12.4 14.3-23 28.4-37.1 19.6-19.6 35.8-30.9 50-35 7.6-2.2 20.3-1.4 30 1.9zm81 25.3c2.1 2 1.6 5-2.9 18.8-3.3 9.9-3.3 10-4.6 7-2-5-3.3-13.9-2.6-17.8.7-3.9 5-9.7 7.1-9.7.8 0 2.1.7 3 1.7zm4.8 208.2c6 1.1 11 2.1 11.2 2.3.7.7-9.6 25.1-15.8 37.4-21.5 42.1-44 62.4-69.1 62.4-17.6-.1-32.9-7.6-37.8-18.8-2.2-5-2.6-15.5-.8-22.2 1.9-7.2 8.5-18.9 15.5-27.8 12.6-15.6 31.1-27.6 50.5-32.6 12.2-3.2 30.3-3.4 46.3-.7zm-154.8 26.6c11.7 18.1 14.9 24.2 16.4 31.7 4.7 22.4-18.1 39.8-51.9 39.8-17.4 0-29-4.1-37.8-13.4-7.9-8.4-8.8-15.6-3.2-26.6 2.6-5.1 14.1-15.5 25.8-23.3 12.9-8.7 38.4-23.6 39.9-23.4.6.1 5.5 6.9 10.8 15.2z"/></svg>