<?xml version="1.0" standalone="no"?>
<!DOCTYPE svg PUBLIC "-//W3C//DTD SVG 20010904//EN"
 "http://www.w3.org/TR/2001/REC-SVG-20010904/DTD/svg10.dtd">
<svg version="1.0" xmlns="http://www.w3.org/2000/svg"
 width="700.000000pt" height="700.000000pt" viewBox="0 0 700.000000 700.000000"
 preserveAspectRatio="xMidYMid meet">
<metadata>
Created by potrace 1.11, written by Peter Selinger 2001-2013
</metadata>
<g transform="translate(0.000000,700.000000) scale(0.100000,-0.100000)"
fill="#000000" stroke="none">
<path d="M4360 6990 c-114 -15 -148 -23 -250 -56 -481 -159 -836 -617 -857
-1104 -14 -329 139 -597 422 -737 47 -24 149 -57 220 -72 28 -6 64 -14 80 -17
17 -4 104 -8 195 -9 154 -2 219 1 345 20 28 4 56 8 63 8 28 1 7 15 -90 62 -56
28 -116 59 -133 70 -17 11 -46 29 -65 39 -147 82 -307 231 -368 346 -104 191
16 385 278 451 87 22 288 18 385 -8 162 -44 295 -121 411 -237 208 -209 317
-505 328 -891 7 -235 -107 -600 -283 -907 -11 -21 -30 -55 -42 -75 -66 -118
-369 -541 -409 -573 -4 -3 -40 -43 -80 -90 -41 -47 -110 -122 -154 -168 l-81
-83 -7 33 c-4 18 -10 49 -13 68 -25 172 -91 388 -167 549 -82 173 -181 312
-319 450 -168 167 -432 330 -709 436 -105 41 -323 115 -356 121 -11 2 -50 13
-85 24 -35 12 -107 32 -159 45 -52 13 -176 44 -275 70 -99 26 -187 48 -195 50
-58 13 -353 99 -394 115 -12 5 -55 21 -96 35 -258 93 -399 225 -402 377 -2 71
16 122 66 189 104 141 284 241 513 285 93 18 312 24 393 10 25 -4 59 -9 75
-12 l30 -4 -35 30 c-68 60 -176 139 -255 187 -302 185 -618 247 -945 188 -305
-56 -659 -306 -805 -570 -15 -27 -31 -54 -35 -60 -17 -23 -73 -184 -84 -246
-25 -127 -10 -281 37 -374 115 -232 378 -396 872 -543 147 -44 393 -109 475
-127 168 -36 682 -166 850 -215 723 -210 1076 -449 1229 -832 102 -255 132
-567 81 -858 -21 -117 -32 -160 -71 -270 -67 -187 -161 -344 -291 -483 -38
-40 -50 -59 -25 -40 6 6 75 42 152 81 464 235 927 514 1290 781 72 52 132 98
135 101 3 3 41 35 85 70 121 98 122 99 224 191 150 134 327 315 428 436 10 12
26 31 36 42 95 114 247 334 330 476 100 173 230 475 273 632 37 138 55 210 59
236 3 15 8 42 11 60 3 17 8 42 9 54 2 13 6 42 10 65 9 49 11 67 21 193 9 111
9 293 0 400 -14 172 -69 422 -116 530 -5 11 -21 49 -36 85 -101 248 -279 477
-501 643 -223 167 -478 267 -813 317 -92 14 -335 19 -410 10z"/>
<path d="M6926 4242 c-36 -127 -105 -322 -152 -429 -8 -18 -21 -50 -30 -70
-86 -200 -268 -519 -414 -727 -56 -79 -239 -317 -279 -362 -20 -22 -61 -69
-91 -105 -87 -102 -374 -384 -505 -497 -122 -106 -407 -324 -525 -402 -234
-155 -524 -312 -765 -415 -107 -46 -405 -149 -455 -158 -14 -3 -44 -10 -67
-16 -61 -17 -238 -48 -319 -57 -137 -16 -428 -10 -524 10 -14 3 -38 8 -55 12
-62 12 -172 47 -243 77 l-74 31 5 85 c14 210 77 396 231 671 158 284 207 448
201 675 -6 214 -59 403 -149 529 -76 106 -201 209 -342 279 -83 42 -253 100
-343 118 l-65 12 -59 -64 c-125 -134 -210 -298 -281 -539 -21 -74 -62 -297
-71 -390 -4 -41 -9 -83 -11 -93 -12 -65 -18 -339 -15 -702 9 -1012 6 -1315
-14 -1458 -17 -121 -27 -197 -32 -225 -4 -30 -2 -33 16 -28 38 11 56 15 81 20
14 2 65 14 113 25 82 20 345 75 412 87 50 9 198 34 230 40 17 2 37 7 45 9 8 2
38 6 65 10 28 3 61 7 75 10 47 9 249 38 345 50 59 7 94 12 155 20 25 3 63 7
85 10 22 3 56 7 75 10 19 2 53 7 75 9 120 14 152 18 175 21 14 2 54 6 90 10
36 3 101 10 145 15 110 13 160 18 230 25 33 3 71 8 85 10 24 4 69 9 175 20 28
3 66 8 85 10 19 3 55 8 80 10 89 10 321 42 370 51 14 2 41 7 60 10 19 2 58 9
85 14 28 5 61 11 75 14 84 14 121 22 270 58 781 188 1225 508 1506 1083 96
198 193 510 230 743 3 19 8 44 10 56 5 22 22 146 29 206 2 19 7 58 10 85 22
180 29 361 29 695 1 274 -8 567 -19 675 -2 22 -6 80 -9 129 -3 49 -7 90 -9 92
-2 2 -16 -40 -31 -94z"/>
</g>
</svg>
