<?xml version="1.0" standalone="no"?>
<!DOCTYPE svg PUBLIC "-//W3C//DTD SVG 20010904//EN"
 "http://www.w3.org/TR/2001/REC-SVG-20010904/DTD/svg10.dtd">
<svg version="1.0" xmlns="http://www.w3.org/2000/svg"
 width="700.000000pt" height="700.000000pt" viewBox="0 0 700.000000 700.000000"
 preserveAspectRatio="xMidYMid meet">
<metadata>
Created by potrace 1.11, written by Peter Selinger 2001-2013
</metadata>
<g transform="translate(0.000000,700.000000) scale(0.100000,-0.100000)"
fill="#000000" stroke="none">
<path d="M2570 6971 c-19 -9 -60 -31 -90 -48 -30 -16 -93 -50 -140 -75 -131
-70 -281 -150 -325 -174 -22 -12 -69 -38 -105 -56 -36 -19 -100 -53 -142 -76
-113 -61 -212 -114 -308 -165 -47 -24 -139 -74 -205 -109 -122 -66 -197 -106
-360 -193 -170 -90 -365 -197 -365 -199 0 -2 46 -32 103 -67 56 -35 103 -67
105 -71 2 -5 7 -8 12 -8 4 0 100 -59 214 -130 234 -148 197 -141 318 -62 77
49 380 242 422 267 39 24 317 199 586 370 107 68 225 143 263 166 37 23 67 44
68 48 1 3 2 140 2 304 1 192 -2 297 -8 297 -5 -1 -26 -9 -45 -19z"/>
<path d="M2 4879 l3 -512 95 -57 c52 -31 365 -218 695 -415 330 -197 640 -382
688 -411 49 -30 90 -54 93 -54 17 0 112 -73 108 -83 -3 -6 -127 -85 -277 -174
-150 -89 -517 -308 -817 -486 -300 -179 -555 -333 -568 -343 l-23 -19 3 -506
3 -506 165 104 c91 57 192 121 225 142 33 21 227 143 430 271 204 128 393 247
420 265 28 18 205 130 395 250 190 119 365 230 390 246 25 16 169 107 320 202
l275 174 0 384 1 384 -191 121 c-104 67 -552 350 -995 629 -443 279 -827 522
-855 540 -27 18 -106 67 -175 110 -69 44 -181 114 -249 157 -68 44 -132 83
-143 89 -18 9 -18 -6 -16 -502z"/>
<path d="M3790 4961 c-1 -119 -1 -3118 0 -3214 l0 -77 336 2 337 3 1 1350 1
1350 1268 3 1267 2 0 334 0 333 -1605 0 -1605 0 0 -86z"/>
<path d="M5715 2840 c0 -181 2 -331 5 -332 3 -1 138 -2 300 -4 162 -1 297 -3
301 -3 3 -1 5 -188 5 -416 l-1 -415 338 0 337 0 0 750 0 750 -643 0 -642 0 0
-330z"/>
<path d="M3790 730 c-1 -131 -1 -665 0 -702 l0 -28 1605 0 1605 0 -2 417 -3
417 -1603 1 -1602 0 0 -105z"/>
</g>
</svg>
