<?xml version="1.0" standalone="no"?>
<!DOCTYPE svg PUBLIC "-//W3C//DTD SVG 20010904//EN"
 "http://www.w3.org/TR/2001/REC-SVG-20010904/DTD/svg10.dtd">
<svg version="1.0" xmlns="http://www.w3.org/2000/svg"
 width="700.000000pt" height="700.000000pt" viewBox="0 0 700.000000 700.000000"
 preserveAspectRatio="xMidYMid meet">
<metadata>
Created by potrace 1.11, written by Peter Selinger 2001-2013
</metadata>
<g transform="translate(0.000000,700.000000) scale(0.100000,-0.100000)"
fill="#000000" stroke="none">
<path d="M4970 6993 c-299 -52 -516 -241 -644 -561 -39 -97 -81 -250 -92 -330
-3 -26 -9 -74 -14 -107 -9 -64 -6 -369 5 -445 3 -25 8 -56 10 -70 29 -215 121
-486 222 -654 231 -388 556 -569 938 -524 101 12 212 39 283 68 12 6 32 14 45
19 52 22 145 67 190 93 26 15 49 28 51 28 7 0 -9 -137 -24 -215 -6 -27 -12
-61 -15 -74 -10 -54 -69 -232 -110 -333 -82 -199 -237 -487 -351 -649 -19 -27
-50 -73 -71 -101 -64 -93 -242 -321 -318 -408 -90 -103 -115 -131 -172 -190
-34 -36 -70 -75 -81 -87 -11 -13 -24 -23 -29 -23 -5 0 -17 48 -26 108 -47 294
-164 619 -295 821 -100 154 -272 349 -377 426 -22 17 -42 33 -45 36 -3 4 -54
40 -115 81 -119 81 -345 199 -465 243 -41 15 -79 31 -85 35 -9 7 -268 93 -400
134 -50 15 -456 125 -485 131 -9 2 -88 22 -175 45 -628 166 -861 260 -996 401
-73 78 -94 129 -94 229 0 73 4 93 28 143 71 143 261 285 467 348 41 12 80 23
87 25 6 1 35 7 64 13 140 30 406 31 506 2 18 -5 35 -6 37 -3 6 10 -178 155
-277 219 -72 47 -201 114 -297 156 -80 35 -246 79 -350 93 -70 10 -289 10
-355 0 -445 -65 -842 -349 -1038 -741 -34 -69 -83 -210 -93 -269 -12 -71 -11
-234 2 -296 47 -221 221 -404 527 -554 110 -54 259 -113 387 -154 154 -49 552
-159 680 -187 44 -9 341 -82 515 -126 202 -51 569 -156 641 -183 21 -8 73 -26
114 -41 41 -15 89 -33 105 -41 17 -7 58 -24 93 -39 144 -59 385 -200 477 -280
64 -55 159 -152 200 -205 109 -142 200 -371 240 -605 21 -123 27 -383 12 -515
-30 -276 -130 -561 -268 -770 -49 -75 -157 -210 -167 -210 -4 0 -13 -9 -19
-19 -9 -14 24 -1 105 41 191 99 498 267 617 336 60 36 124 73 140 82 240 140
606 387 855 577 42 32 239 191 265 214 334 292 560 533 775 824 307 416 508
847 610 1310 25 113 38 184 45 244 4 30 8 62 10 71 19 98 26 516 11 665 -8 77
-10 91 -21 145 -2 14 -7 41 -10 60 -3 19 -13 62 -21 95 -9 33 -18 69 -20 79
-6 30 -55 176 -76 226 -131 312 -317 565 -548 746 -257 203 -574 329 -960 385
-80 11 -318 19 -360 12z m803 -928 c122 -58 216 -271 245 -555 8 -82 9 -405 1
-510 -5 -61 -6 -65 -29 -64 -105 2 -296 48 -408 97 -188 80 -309 204 -353 357
-19 69 -19 71 -19 142 -1 63 12 137 29 183 114 290 343 441 534 350z"/>
<path d="M3405 1383 c-419 -75 -643 -282 -690 -638 -4 -27 -6 -138 -5 -245 3
-268 2 -375 -4 -443 -6 -52 -4 -58 11 -53 26 7 82 18 85 16 2 -1 15 3 30 9 27
10 156 34 248 46 25 3 56 8 70 10 14 2 50 7 80 10 30 3 71 8 90 10 19 2 71 7
115 11 44 3 94 7 110 9 17 1 71 6 120 9 50 4 101 9 115 11 14 2 52 7 85 10
146 16 344 70 450 122 206 103 372 307 490 603 38 93 95 273 110 339 l7 33
-43 -30 c-46 -31 -187 -135 -204 -149 -5 -5 -86 -62 -179 -128 -554 -392 -838
-536 -1140 -580 -87 -12 -307 -3 -335 15 -34 21 -35 248 -2 360 35 114 121
290 178 360 6 8 35 44 63 80 28 36 80 95 116 131 64 65 70 79 29 72z"/>
</g>
</svg>
