<?xml version="1.0" encoding="UTF-8" standalone="no"?>
<!-- Created with Inkscape (http://www.inkscape.org/) -->

<svg
   xmlns:dc="http://purl.org/dc/elements/1.1/"
   xmlns:cc="http://creativecommons.org/ns#"
   xmlns:rdf="http://www.w3.org/1999/02/22-rdf-syntax-ns#"
   xmlns:svg="http://www.w3.org/2000/svg"
   xmlns="http://www.w3.org/2000/svg"
   xmlns:sodipodi="http://sodipodi.sourceforge.net/DTD/sodipodi-0.dtd"
   xmlns:inkscape="http://www.inkscape.org/namespaces/inkscape"
   width="14.922325mm"
   height="15.492339mm"
   viewBox="0 0 14.922325 15.492339"
   version="1.1"
   id="svg4684"
   inkscape:export-filename="/home/sglavoie/Pictures/Inkscape/favicon.png"
   inkscape:export-xdpi="600"
   inkscape:export-ydpi="600"
   inkscape:version="0.92.3 (2405546, 2018-03-11)"
   sodipodi:docname="favicon.svg">
  <defs
     id="defs4678">
    <inkscape:path-effect
       effect="rough_hatches"
       id="path-effect959"
       is_visible="true"
       direction="-5.5630785,208.24698 , 3.3168657,0"
       dist_rdm="75;2147483646"
       growth="1"
       do_bend="false"
       bender="-5.5630785,213.24698 , 5,0"
       bottom_edge_variation="1.312212;2147483646"
       top_edge_variation="1.312212;152884365"
       bottom_tgt_variation="0;2147483646"
       top_tgt_variation="0;170058102"
       scale_bf="1"
       scale_bb="1"
       scale_tf="1"
       scale_tb="1"
       top_smth_variation="0;1"
       bottom_smth_variation="0;1"
       fat_output="true"
       stroke_width_top="1"
       stroke_width_bottom="1"
       front_thickness="1"
       back_thickness="0.25" />
  </defs>
  <sodipodi:namedview
     id="base"
     pagecolor="#ffffff"
     bordercolor="#666666"
     borderopacity="1.0"
     inkscape:pageopacity="0.0"
     inkscape:pageshadow="2"
     inkscape:zoom="3.959798"
     inkscape:cx="36.457081"
     inkscape:cy="9.4683772"
     inkscape:document-units="mm"
     inkscape:current-layer="layer1"
     showgrid="false"
     fit-margin-top="0"
     fit-margin-left="0"
     fit-margin-right="0"
     fit-margin-bottom="0"
     inkscape:window-width="1366"
     inkscape:window-height="713"
     inkscape:window-x="0"
     inkscape:window-y="0"
     inkscape:window-maximized="1" />
  <metadata
     id="metadata4681">
    <rdf:RDF>
      <cc:Work
         rdf:about="">
        <dc:format>image/svg+xml</dc:format>
        <dc:type
           rdf:resource="http://purl.org/dc/dcmitype/StillImage" />
        <dc:title></dc:title>
      </cc:Work>
    </rdf:RDF>
  </metadata>
  <g
     inkscape:label="Layer 1"
     inkscape:groupmode="layer"
     id="layer1"
     transform="translate(-96.104309,-48.105022)">
    <g
       style="display:inline;opacity:1;fill:#000400;fill-opacity:1"
       id="g4505"
       transform="matrix(1.1637191,0,0,1.1637191,95.98684,-184.68751)">
      <path
         id="path4501"
         d="M 11.182447,201.95881 H 0.17649966 v 11.00595 H 11.182447 Z"
         style="opacity:1;fill:#000400;fill-opacity:1;stroke:#ffffff;stroke-width:0.15111409;stroke-linecap:round;stroke-linejoin:round;stroke-miterlimit:4;stroke-dasharray:none;stroke-dashoffset:0;stroke-opacity:1;paint-order:normal"
         inkscape:connector-curvature="0" />
      <path
         inkscape:connector-curvature="0"
         style="opacity:1;fill:#000400;fill-opacity:1;stroke:#ffffff;stroke-width:0.15111409;stroke-linecap:round;stroke-linejoin:round;stroke-miterlimit:4;stroke-dasharray:none;stroke-dashoffset:0;stroke-opacity:1;paint-order:normal"
         d="M 12.848347,200.43173 H 1.8423997 v 11.00595 H 12.848347 Z"
         id="path4503" />
    </g>
    <g
       style="display:inline"
       transform="rotate(-15,-547.415,-280.68318)"
       inkscape:path-effect="#path-effect959"
       id="g4511">
      <path
         inkscape:original-d="M -0.67355706,208.28478 H -12.19681 v 11.52326 h 11.52325294 z"
         id="path4507"
         d="m -0.91946652,208.28478 c 0,0 -0.49999998,10.31823 -0.25394758,10.31823 -0.1289475,0 -0.1289475,-10.11832 -0.3704178,-10.11832 -0.6164703,0 -0.6164703,9.73901 -0.291814,9.73901 -0.050344,0 -0.050344,-9.67238 -0.7630744,-9.67238 -1.0877309,0 -1.0877309,9.7954 -0.9953546,9.7954 -0.2826238,0 -0.2826238,-10.12345 -0.6587358,-10.12345 -0.751112,0 -0.751112,11.02047 -0.4731741,11.02047 -0.097062,0 -0.097062,-11.51255 -0.3476326,-11.51255 -0.6255706,0 -0.6255706,11.06147 -0.8270762,11.06147 -0.5765056,0 -0.5765056,-10.35411 -1.4112328,-10.35411 -1.2097272,0 -1.2097272,9.9953 -1.2052039,9.9953 -0.3704768,0 -0.3704768,-10.04655 -1.2604934,-10.04655 -1.2650163,0 -1.2650163,9.96454 -1.3648353,9.96454 -0.474818,0 -0.599818,-10.06706 -0.599818,-10.06706 0,0 -0.125,11.06706 0.599818,11.06706 1.099819,0 1.099819,-9.96454 1.3648353,-9.96454 0.6400166,0 0.6400166,10.04655 1.2604934,10.04655 0.9954767,0 0.9954767,-9.9953 1.2052039,-9.9953 0.5847272,0 0.5847272,10.35411 1.4112328,10.35411 1.2015056,0 1.2015056,-11.06147 0.8270762,-11.06147 5.706e-4,0 5.706e-4,11.51255 0.3476326,11.51255 0.7220621,0 0.7220621,-11.02047 0.4731741,-11.02047 0.126112,0 0.126112,10.12345 0.6587358,10.12345 0.9076237,0 0.9076237,-9.7954 0.9953546,-9.7954 0.4627308,0 0.4627308,9.67238 0.7630744,9.67238 0.6753437,0 0.6753437,-9.73901 0.291814,-9.73901 -0.00853,0 -0.00853,10.11832 0.3704178,10.11832 0.75394758,0 0.25394758,-11.31823 0.25394758,-11.31823 z"
         style="opacity:1;fill:#9000ff;fill-opacity:1;stroke:#ffffff;stroke-width:0.1582168;stroke-linecap:round;stroke-linejoin:round;stroke-miterlimit:4;stroke-dasharray:none;stroke-dashoffset:0;stroke-opacity:1;paint-order:normal"
         inkscape:connector-curvature="0" />
      <path
         inkscape:original-d="M 1.0706529,206.68592 H -10.4526 v 11.52326 H 1.0706529 Z"
         inkscape:connector-curvature="0"
         style="opacity:1;fill:#9000ff;fill-opacity:1;stroke:#ffffff;stroke-width:0.1582168;stroke-linecap:round;stroke-linejoin:round;stroke-miterlimit:4;stroke-dasharray:none;stroke-dashoffset:0;stroke-opacity:1;paint-order:normal"
         d="m 0.40727976,206.68592 c 0,0 -0.5,9.87228 -0.23062582,9.87228 -0.10562582,0 -0.10562582,-10.23109 -0.69650706,-10.23109 -0.96588128,0 -0.96588128,11.18962 -1.06291918,11.18962 -0.4720379,0 -0.4720379,-10.17983 -1.2422392,-10.17983 -1.1452012,0 -1.1452012,10.12857 -0.9993395,10.12857 -0.2291383,0 -0.2291383,-10.37974 -0.9034995,-10.37974 -1.0493611,0 -1.0493611,9.9953 -1.2309556,9.9953 -0.5565946,0 -0.5565946,-10.71291 -1.4886972,-10.71291 -1.3071026,0 -1.3071026,11.05634 -1.5755148,11.05634 -0.6434122,0 -0.7684122,-10.73854 -0.7684122,-10.73854 0,0 -0.125,11.73854 0.7684122,11.73854 1.2684122,0 1.2684122,-11.05634 1.5755148,-11.05634 0.6821026,0 0.6821026,10.71291 1.4886972,10.71291 1.1815945,0 1.1815945,-9.9953 1.2309556,-9.9953 0.4243612,0 0.4243612,10.37974 0.9034995,10.37974 0.8541383,0 0.8541383,-10.12857 0.9993395,-10.12857 0.5202013,0 0.5202013,10.17983 1.2422392,10.17983 1.09703793,0 1.09703793,-11.18962 1.06291918,-11.18962 0.34088124,0 0.34088124,10.23109 0.69650706,10.23109 0.73062582,0 0.23062582,-10.87228 0.23062582,-10.87228 z"
         id="path4509" />
    </g>
  </g>
</svg>
