<?xml version="1.0" encoding="UTF-8" standalone="no"?>
<!-- Created with Inkscape (http://www.inkscape.org/) -->

<svg
   xmlns:dc="http://purl.org/dc/elements/1.1/"
   xmlns:cc="http://creativecommons.org/ns#"
   xmlns:rdf="http://www.w3.org/1999/02/22-rdf-syntax-ns#"
   xmlns:svg="http://www.w3.org/2000/svg"
   xmlns="http://www.w3.org/2000/svg"
   xmlns:sodipodi="http://sodipodi.sourceforge.net/DTD/sodipodi-0.dtd"
   xmlns:inkscape="http://www.inkscape.org/namespaces/inkscape"
   version="1.1"
   id="svg2"
   width="332.47174"
   height="333.43011"
   viewBox="0 0 332.47174 333.43011"
   sodipodi:docname="facebook.svg"
   inkscape:version="0.92.3 (2405546, 2018-03-11)">
  <metadata
     id="metadata8">
    <rdf:RDF>
      <cc:Work
         rdf:about="">
        <dc:format>image/svg+xml</dc:format>
        <dc:type
           rdf:resource="http://purl.org/dc/dcmitype/StillImage" />
        <dc:title></dc:title>
      </cc:Work>
    </rdf:RDF>
  </metadata>
  <defs
     id="defs6" />
  <sodipodi:namedview
     pagecolor="#ffffff"
     bordercolor="#666666"
     borderopacity="1"
     objecttolerance="10"
     gridtolerance="10"
     guidetolerance="10"
     inkscape:pageopacity="0"
     inkscape:pageshadow="2"
     inkscape:window-width="1366"
     inkscape:window-height="713"
     id="namedview4"
     showgrid="false"
     fit-margin-top="0"
     fit-margin-left="0"
     fit-margin-right="0"
     fit-margin-bottom="0"
     inkscape:zoom="0.70799998"
     inkscape:cx="113.74011"
     inkscape:cy="168.18002"
     inkscape:window-x="0"
     inkscape:window-y="0"
     inkscape:window-maximized="1"
     inkscape:current-layer="svg2" />
  <path
     style="fill:#4267b2;fill-opacity:1;stroke-width:1.33333337"
     d="M 10.09478,330.9938 C 7.58024,329.7116 4.28024,326.96853 2.76144,324.89809 0.00595,321.14177 0,320.80029 0,166.66253 0,12.524762 0.006,12.183282 2.76144,8.426963 4.28024,6.356521 7.58024,3.613455 10.09478,2.331261 14.36789,0.152348 24.55636,0 166,0 c 141.44364,0 151.63211,0.152348 155.90523,2.331261 2.51453,1.282194 5.81453,4.025136 7.33333,6.095428 2.7503,3.748973 2.76282,4.381483 3.10183,156.666671 0.31961,143.56336 0.19745,153.18175 -2,157.4744 -1.28721,2.51453 -4.0334,5.81453 -6.10264,7.33333 -3.60404,2.64532 -5.66444,2.77758 -49,3.14524 L 230,333.43012 V 269.37967 205.3292 h 22 c 16.70975,0 22.00062,-0.40078 22.00256,-1.66667 0.004,-2.63744 5.27683,-44.00503 6.03318,-47.33333 l 0.68173,-3 h -25.47588 -25.47588 l 0.45048,-21.23907 c 0.40524,-19.10585 0.73232,-21.61681 3.25652,-25 5.46681,-7.327164 9.54601,-8.613508 29.86583,-9.417908 L 282,96.933472 v -22.44341 -22.4434 l -3.5,-0.87844 c -1.925,-0.48315 -14.375,-0.92093 -27.66666,-0.97284 -21.19954,-0.0828 -25.18951,0.25022 -32.49753,2.71245 -16.01736,5.39661 -27.5898,15.18029 -34.38576,29.07073 -5.44749,11.13429 -7.23476,23.036818 -7.26024,48.350638 l -0.0231,23 H 155.33333 134 v 26 26 h 21.33333 21.33334 v 64 64 l -81.00001,-0.003 c -74.48085,-10e-4 -81.36796,-0.1897 -85.57188,-2.33333 z"
     id="path817"
     inkscape:connector-curvature="0" />
</svg>
