<?xml version="1.0" encoding="UTF-8" standalone="no"?>
<!-- Created with Inkscape (http://www.inkscape.org/) -->

<svg
   xmlns:dc="http://purl.org/dc/elements/1.1/"
   xmlns:cc="http://creativecommons.org/ns#"
   xmlns:rdf="http://www.w3.org/1999/02/22-rdf-syntax-ns#"
   xmlns:svg="http://www.w3.org/2000/svg"
   xmlns="http://www.w3.org/2000/svg"
   xmlns:sodipodi="http://sodipodi.sourceforge.net/DTD/sodipodi-0.dtd"
   xmlns:inkscape="http://www.inkscape.org/namespaces/inkscape"
   version="1.1"
   id="svg2"
   width="41.558987"
   height="45.881275"
   viewBox="0 0 41.558986 45.881275"
   sodipodi:docname="hackerrank.svg"
   inkscape:version="0.92.3 (2405546, 2018-03-11)">
  <metadata
     id="metadata8">
    <rdf:RDF>
      <cc:Work
         rdf:about="">
        <dc:format>image/svg+xml</dc:format>
        <dc:type
           rdf:resource="http://purl.org/dc/dcmitype/StillImage" />
        <dc:title></dc:title>
      </cc:Work>
    </rdf:RDF>
  </metadata>
  <defs
     id="defs6" />
  <sodipodi:namedview
     pagecolor="#ffffff"
     bordercolor="#666666"
     borderopacity="1"
     objecttolerance="10"
     gridtolerance="10"
     guidetolerance="10"
     inkscape:pageopacity="0"
     inkscape:pageshadow="2"
     inkscape:window-width="1366"
     inkscape:window-height="713"
     id="namedview4"
     showgrid="false"
     fit-margin-top="0"
     fit-margin-left="0"
     fit-margin-right="0"
     fit-margin-bottom="0"
     inkscape:zoom="10.26444"
     inkscape:cx="9.9932379"
     inkscape:cy="27.142445"
     inkscape:window-x="0"
     inkscape:window-y="0"
     inkscape:window-maximized="1"
     inkscape:current-layer="svg2" />
  <path
     style="fill:#2fc363;fill-opacity:1;stroke-width:0.096"
     d="M 19.617936,45.640477 C 16.611306,44.6012 10.225689,41.137161 5.1778606,37.807093 3.4083406,36.639735 1.5707865,35.267665 1.1735275,34.817127 0.67367257,34.250232 0.34925457,32.568562 0.12034157,29.357769 c -0.160605,-2.252686 -0.160408,-10.450091 3.07e-4,-12.768001 0.222695,-3.211825 0.470552,-4.652137 0.91653893,-5.326068 C 2.2387635,9.447997 14.241464,2.2382587 19.19386,0.35741681 c 1.693869,-0.64330438 2.310847,-0.51687662 5.856001,1.19997909 1.904604,0.9223663 9.019394,5.0095744 11.136,6.3972586 2.569915,1.6848813 4.137257,2.9477585 4.458918,3.5927505 0.333007,0.667743 0.583829,2.250601 0.791413,4.994363 0.186179,2.460839 0.153931,10.955289 -0.0513,13.513014 -0.292855,3.649752 -0.490868,4.332941 -1.511936,5.216512 -1.673528,1.44817 -5.153607,3.732662 -9.351095,6.13851 -2.347042,1.345238 -6.878232,3.615223 -8.112,4.063857 -1.371244,0.498624 -1.764095,0.522097 -2.791925,0.166816 z m 8.894976,-11.594094 c 1.443921,-1.305515 1.768949,-1.645949 1.768949,-1.8528 0,-0.362473 -0.168539,-0.483814 -0.672,-0.483814 -0.24288,0 -0.49344,-0.05184 -0.5568,-0.1152 -0.08799,-0.08799 -0.1152,-2.273655 -0.1152,-9.252246 0,-8.382124 -0.01312,-9.147931 -0.158755,-9.2688 -0.230667,-0.191437 -4.155823,-0.191437 -4.386491,0 -0.142319,0.118115 -0.158754,0.491304 -0.158754,3.6048 0,2.573258 -0.02985,3.502891 -0.1152,3.588245 -0.165032,0.165032 -6.612569,0.165032 -6.777601,0 -0.16467,-0.16467 -0.16467,-5.940929 0,-6.1056 0.06336,-0.06336 0.31392,-0.1152 0.5568,-0.1152 0.481222,0 0.672,-0.121689 0.672,-0.428641 0,-0.292051 -3.290258,-3.507359 -3.589116,-3.507359 -0.144886,0 -3.586042,3.066976 -3.741518,3.334677 -0.04865,0.08377 -0.03963,0.236663 0.02194,0.371803 0.0912,0.200172 0.1699,0.22952 0.615435,0.22952 0.280971,0 0.562697,0.05184 0.626057,0.1152 0.088,0.088 0.1152,2.286183 0.1152,9.308623 0,8.991016 0.0041,9.19561 0.185689,9.2928 0.110876,0.05934 0.98775,0.09938 2.176441,0.09938 1.717697,0 2.014832,-0.02179 2.166311,-0.158879 0.164077,-0.148487 0.175559,-0.392113 0.175559,-3.7248 0,-2.645495 0.02973,-3.595656 0.1152,-3.681121 0.164985,-0.164985 6.516616,-0.164985 6.681601,0 0.164834,0.164834 0.164834,6.228765 0,6.3936 -0.06336,0.06336 -0.31392,0.1152 -0.5568,0.1152 -0.465012,0 -0.672,0.121685 -0.672,0.395062 0,0.09056 0.764771,0.902724 1.699492,1.8048 1.226423,1.183591 1.762836,1.640138 1.927051,1.640138 0.15952,0 0.75646,-0.478205 1.996508,-1.599386 z"
     id="path817"
     inkscape:connector-curvature="0" />
</svg>
