<?xml version="1.0" encoding="UTF-8" standalone="no"?>
<!-- Created with Inkscape (http://www.inkscape.org/) -->

<svg
   xmlns:dc="http://purl.org/dc/elements/1.1/"
   xmlns:cc="http://creativecommons.org/ns#"
   xmlns:rdf="http://www.w3.org/1999/02/22-rdf-syntax-ns#"
   xmlns:svg="http://www.w3.org/2000/svg"
   xmlns="http://www.w3.org/2000/svg"
   xmlns:sodipodi="http://sodipodi.sourceforge.net/DTD/sodipodi-0.dtd"
   xmlns:inkscape="http://www.inkscape.org/namespaces/inkscape"
   width="24.870832mm"
   height="24.870831mm"
   viewBox="0 0 24.870832 24.870831"
   version="1.1"
   id="svg844"
   inkscape:version="0.92.3 (2405546, 2018-03-11)"
   sodipodi:docname="linkedin.svg">
  <defs
     id="defs838" />
  <sodipodi:namedview
     id="base"
     pagecolor="#ffffff"
     bordercolor="#666666"
     borderopacity="1.0"
     inkscape:pageopacity="0.0"
     inkscape:pageshadow="2"
     inkscape:zoom="3.959798"
     inkscape:cx="65.282493"
     inkscape:cy="34.606014"
     inkscape:document-units="mm"
     inkscape:current-layer="layer1"
     showgrid="false"
     inkscape:window-width="1366"
     inkscape:window-height="713"
     inkscape:window-x="0"
     inkscape:window-y="0"
     inkscape:window-maximized="1"
     fit-margin-top="0"
     fit-margin-left="0"
     fit-margin-right="0"
     fit-margin-bottom="0" />
  <metadata
     id="metadata841">
    <rdf:RDF>
      <cc:Work
         rdf:about="">
        <dc:format>image/svg+xml</dc:format>
        <dc:type
           rdf:resource="http://purl.org/dc/dcmitype/StillImage" />
        <dc:title></dc:title>
      </cc:Work>
    </rdf:RDF>
  </metadata>
  <g
     inkscape:label="Layer 1"
     inkscape:groupmode="layer"
     id="layer1"
     transform="translate(94.078274,-153.02887)">
    <path
       inkscape:connector-curvature="0"
       id="path821"
       d="m -93.549107,177.37054 c -0.512757,-0.51276 -0.529167,-0.88195 -0.529167,-11.90625 0,-11.02431 0.0164,-11.3935 0.529167,-11.90625 0.512744,-0.51275 0.881944,-0.52917 11.895941,-0.52917 11.352504,0 11.367456,7.3e-4 11.90625,0.57906 0.525415,0.56396 0.539475,0.87295 0.539475,11.85636 0,10.9834 -0.01405,11.29239 -0.539475,11.85636 -0.538794,0.57833 -0.553746,0.57905 -11.90625,0.57905 -11.013997,0 -11.383197,-0.0164 -11.895941,-0.52916 z m 6.746875,-9.26042 v -5.95313 h -1.719792 -1.719791 l -0.07158,5.682 c -0.03937,3.1251 -0.01114,5.8395 0.06272,6.03199 0.09633,0.25104 0.602779,0.32769 1.791374,0.27112 l 1.65707,-0.0789 z m 5.953503,2.38125 c 0.08045,-2.16584 0.265099,-3.80383 0.469085,-4.16112 0.691155,-1.2106 2.28555,-1.50344 3.12755,-0.57444 0.432353,0.47703 0.52284,1.10726 0.63632,4.43178 l 0.132292,3.87565 h 1.719791 1.719792 l 0.07166,-4.49791 c 0.06736,-4.22774 0.03558,-4.56944 -0.529167,-5.68854 -1.068805,-2.11799 -3.639992,-2.74281 -6.120064,-1.48723 -1.212479,0.61383 -1.250058,0.61679 -1.516168,0.11956 -0.229066,-0.42801 -0.514522,-0.4972 -1.778109,-0.43099 l -1.505235,0.0789 -0.07158,5.682 c -0.03937,3.1251 -0.01114,5.8395 0.06272,6.03199 0.09633,0.25104 0.602779,0.32769 1.791374,0.27112 l 1.65707,-0.0789 z m -6.065443,-10.56298 c 1.039815,-1.03982 1.039815,-2.17589 0,-3.21571 -0.527841,-0.52784 -1.038336,-0.77339 -1.607852,-0.77339 -1.138213,0 -2.38125,1.24303 -2.38125,2.38125 0,1.13821 1.243037,2.38125 2.38125,2.38125 0.569516,0 1.080011,-0.24556 1.607852,-0.7734 z"
       style="fill:#0076b4;stroke-width:0.26458332" />
  </g>
</svg>
