<?xml version="1.0" encoding="UTF-8" standalone="no"?>
<!-- Created with Inkscape (http://www.inkscape.org/) -->

<svg
   xmlns:dc="http://purl.org/dc/elements/1.1/"
   xmlns:cc="http://creativecommons.org/ns#"
   xmlns:rdf="http://www.w3.org/1999/02/22-rdf-syntax-ns#"
   xmlns:svg="http://www.w3.org/2000/svg"
   xmlns="http://www.w3.org/2000/svg"
   xmlns:sodipodi="http://sodipodi.sourceforge.net/DTD/sodipodi-0.dtd"
   xmlns:inkscape="http://www.inkscape.org/namespaces/inkscape"
   version="1.1"
   id="svg869"
   width="367.58612"
   height="397.46982"
   viewBox="0 0 367.58612 397.46982"
   sodipodi:docname="pelican_logo.svg"
   inkscape:version="0.92.3 (2405546, 2018-03-11)">
  <metadata
     id="metadata875">
    <rdf:RDF>
      <cc:Work
         rdf:about="">
        <dc:format>image/svg+xml</dc:format>
        <dc:type
           rdf:resource="http://purl.org/dc/dcmitype/StillImage" />
        <dc:title></dc:title>
      </cc:Work>
    </rdf:RDF>
  </metadata>
  <defs
     id="defs873" />
  <sodipodi:namedview
     pagecolor="#ffffff"
     bordercolor="#666666"
     borderopacity="1"
     objecttolerance="10"
     gridtolerance="10"
     guidetolerance="10"
     inkscape:pageopacity="0"
     inkscape:pageshadow="2"
     inkscape:window-width="1366"
     inkscape:window-height="713"
     id="namedview871"
     showgrid="false"
     fit-margin-top="0"
     fit-margin-left="0"
     fit-margin-right="0"
     fit-margin-bottom="0"
     inkscape:zoom="0.46492271"
     inkscape:cx="130.59223"
     inkscape:cy="275.28856"
     inkscape:window-x="0"
     inkscape:window-y="0"
     inkscape:window-maximized="1"
     inkscape:current-layer="svg869" />
  <path
     inkscape:connector-curvature="0"
     id="path893"
     d="m 1.5657592,396.68492 c -3.526119,-2.18442 -1.16526496,-5.1492 7.780681,-9.77102 5.9061048,-3.05132 14.8789668,-11.5219 21.0629408,-19.88387 5.860479,-7.92455 14.661939,-24.64928 18.90593,-35.92547 1.429222,-3.79741 3.180343,-7.80438 3.89138,-8.90438 1.387849,-2.14705 7.714056,-21.77201 9.670654,-30 1.257098,-5.28642 9.384777,-34.90908 10.974946,-40 10.288927,-32.93997 13.157517,-40.97459 18.199617,-50.97521 4.26072,-8.45081 9.966882,-16.61785 14.219132,-20.35138 6.23674,-5.47593 9.63385,-6.3968 25.54734,-6.92526 14.8782,-0.49407 19.59034,-0.006 37.49738,3.88407 7.31517,1.58912 13.49028,2.18096 23,2.20438 12.34762,0.0304 13.38931,-0.1274 20.75777,-3.14503 21.15137,-8.66218 29.31268,-14.72712 34.86798,-25.91153 2.09444,-4.2167 2.34825,-5.98802 2.15366,-15.03004 -0.16204,-7.52969 0.10335,-10.24539 1,-10.23264 0.67133,0.01 4.14559,0.63261 7.72059,1.38457 3.575,0.75195 10.775,1.68172 16,2.06615 5.225,0.38442 16.475,1.27391 25,1.97665 16.92606,1.39527 25.70105,0.9064 25.19007,-1.40335 -0.59688,-2.69806 -4.36057,-7.06261 -8.61368,-9.98882 -2.3599,-1.62366 -10.52154,-5.02327 -18.13697,-7.55469 -17.02903,-5.66057 -25.23776,-9.8948 -34.10083,-17.589908 -8.71456,-7.566172 -13.50632,-9.866992 -23.10993,-11.0965 -13.40693,-1.716429 -44.22866,1.67127 -44.22866,4.86129 0,0.78025 1.18031,5.06474 2.62292,9.521089 2.74432,8.477469 4.40513,10.569879 17.7661,22.382939 5.22414,4.6189 5.85895,7.56697 2.5384,11.78836 -2.7185,3.45601 -7.56971,3.47694 -14.92742,0.0644 -9.58732,-4.44666 -12.63411,-8.29034 -19.52724,-24.63458 C 181.33757,98.127081 170.74589,83.670489 161.4889,75.011028 151.36557,65.541151 141.9312,61.957774 119.81576,59.182666 68.084089,52.691229 50.405592,47.651716 29.393008,33.406337 20.779029,27.566532 8.3102902,15.275892 4.2962252,8.6680265 0.40901724,2.2689925 -0.26386876,-0.99685517 2.5657592,0.26921513 3.5282592,0.69986993 60.340759,1.3804586 128.81576,1.7816344 c 68.475,0.4011758 126.075,1.0185047 128,1.371842 1.925,0.3533373 7.775,1.3202226 13,2.1486341 38.93225,6.1726175 71.34676,25.3733315 85.84052,50.8475695 7.53192,13.238114 12.99374,40.34575 11.75398,58.33634 -3.47376,50.4088 -40.9378,86.39158 -110.5945,106.2218 -7.425,2.11379 -15.975,4.31816 -19,4.89861 -3.025,0.58044 -10.675,2.13246 -17,3.44893 -6.325,1.31647 -13.95326,2.72982 -16.9517,3.14078 -4.79124,0.65668 -6.14592,1.40937 -11.18208,6.21306 -9.97796,9.51736 -17.36665,26.60141 -31.86052,73.66757 -13.62618,44.24847 -27.52069,64.90875 -51.55955,76.66581 -14.837592,7.25686 -21.361162,8.10062 -66.446151,8.59411 -27.347123,0.29933 -40.0384188,0.0988 -41.2499998,-0.65177 z M 133.31576,159.03508 c -4.54989,-1.06539 -10.35033,-1.26434 -24,-0.82317 -17.233492,0.557 -18.300582,0.47864 -25.058512,-1.84027 -9.921134,-3.40433 -13.057328,-5.20056 -19.286922,-11.04642 -5.694628,-5.34385 -14.154567,-17.32747 -14.154567,-20.05015 0,-2.27434 1.388162,-1.96045 6.220764,1.40667 5.679942,3.95749 24.628175,10.01844 31.320475,10.01844 9.95882,0 32.007742,2.1825 37.353842,3.69744 6.54358,1.85429 13.23992,7.66206 16.69442,14.47917 1.32577,2.6163 2.4105,4.99686 2.4105,5.29015 0,0.87057 -5.08619,0.36997 -11.5,-1.13186 z m 21.5,-30.90055 c -7.20134,-4.60161 -21.57273,-8.89032 -36.5,-10.89233 -6.6,-0.88518 -16.82902,-2.29045 -22.731162,-3.12282 C 69.070404,110.38009 52.081046,101.55127 37.172891,83.764704 30.38571,75.667076 28.118657,72.063953 29.157347,71.025262 c 0.372865,-0.372864 3.936043,0.742485 7.918174,2.478551 18.957483,8.264788 37.457467,12.736444 65.073319,15.728959 6.67562,0.723384 23.07511,6.128421 31.4707,10.372289 8.21827,4.154229 17.67622,11.405179 21.30145,16.330799 5.11901,6.95522 8.58076,15.82186 6.14477,15.73872 -0.4125,-0.0141 -3.225,-1.6071 -6.25,-3.54005 z"
     style="fill:#96d6d7" />
  <path
     inkscape:connector-curvature="0"
     id="path891"
     d="m 10.144805,396.78099 c -4.4940248,-0.31945 -8.4956508,-0.90744 -8.8925008,-1.30664 -1.19189596,-1.19898 1.522487,-3.66202 8.574766,-7.78078 7.7945698,-4.55227 15.9792568,-12.42344 22.6744168,-21.80587 4.296017,-6.02033 17.314272,-30.86476 17.314272,-33.04307 0,-1.64625 3.964132,-9.87039 5.238357,-10.86769 0.693904,-0.5431 6.046404,-2.62205 11.894446,-4.61988 24.622586,-8.41165 49.724568,-21.03424 71.970198,-36.19035 11.30654,-7.70324 29.76427,-22.42492 33.897,-27.03589 l 2.5,-2.7893 -4.5,2.55797 c -24.86546,14.13447 -53.89739,25.51753 -81.375832,31.90646 -19.561603,4.54822 -22.889807,5.08245 -23.681588,3.80132 -0.377788,-0.61127 0.114923,-3.87793 1.094914,-7.25925 0.97999,-3.38131 4.085875,-14.36508 6.901967,-24.40836 9.439577,-33.66526 17.630947,-54.86844 25.829197,-66.85831 5.226482,-7.64368 8.608342,-10.75859 14.731342,-13.56849 4.5902,-2.10649 6.35233,-2.29036 21.5,-2.24349 13.45215,0.0416 18.25482,0.464 26,2.28658 30.0482,7.07091 42.55626,5.9271 66.5,-6.08114 9.18433,-4.60612 11.27562,-6.30094 16.60304,-13.45539 6.08918,-8.17746 7.27936,-12.10998 6.59596,-21.79391 -0.32235,-4.5677 -0.35804,-8.53296 -0.0793,-8.81168 0.27873,-0.27873 3.08593,0.0949 6.23824,0.83028 3.1523,0.73539 12.23634,1.84043 20.18677,2.45567 7.95042,0.61523 19.40531,1.50668 25.45531,1.981 14.41895,1.13044 23.5,0.36361 23.5,-1.98441 0,-2.46708 -7.48392,-10.61281 -12.3489,-13.44092 -2.28312,-1.32722 -9.55112,-4.20569 -16.15112,-6.3966 -19.69197,-6.53686 -25.48439,-9.63569 -36.27134,-19.40439 -9.35253,-8.469697 -11.93985,-9.208254 -32.22866,-9.199758 -16.94035,0.0071 -31.8487,1.894181 -34.29563,4.341116 -1.31748,1.31748 4.01004,17.410032 7.23962,21.868342 1.59117,2.19654 5.61431,6.08769 8.94032,8.647 6.24843,4.80805 9.11569,8.06575 9.11569,10.35698 0,2.1489 -4.72098,6.2321 -7.20455,6.23125 -3.62329,-0.001 -13.97545,-5.41946 -17.5609,-9.1912 -1.796,-1.88931 -5.32,-8.10348 -7.83111,-13.80928 C 180.10637,92.264833 165.18657,73.642099 152.75266,66.429997 146.88679,63.027586 131.68476,59.052214 119.51496,57.73825 99.564278,55.58419 79.755898,49.19186 55.603705,37.113546 36.075899,27.347852 6.3322622,7.9944995 2.9950222,2.8825483 L 1.4819982,0.56491263 12.398879,1.1244514 c 6.004284,0.3077463 61.09188,0.9774179 122.416881,1.4881591 61.82194,0.5148799 115.73266,1.3843942 121,1.9515827 48.7909,5.2538163 85.53233,25.3814848 100.43774,55.0217388 7.30432,14.525072 11.63456,40.951638 9.66974,59.012548 -4.00764,36.83891 -26.5607,65.218 -67.60748,85.0722 -22.83304,11.04427 -44.36922,17.66127 -78,23.96551 -24.50525,4.59362 -23.49921,4.21392 -30.00174,11.32321 -9.5438,10.43435 -15.1902,24.20859 -32.07281,78.24078 -5.03069,16.10055 -12.83026,33.75106 -19.06542,43.14522 -5.34704,8.05609 -14.71579,17.84276 -21.47473,22.43267 -14.80014,10.05058 -26.480212,12.59907 -63.826405,13.92636 -28.027586,0.9961 -30.726938,1.00083 -43.72985,0.0766 z M 136.72525,158.27634 c -0.23311,-0.23312 -4.40185,-1.1182 -9.26386,-1.96684 -10.77434,-1.88063 -25.61648,-6.42112 -39.645632,-12.12835 -20.034374,-8.15022 -27.314286,-12.21665 -17.097355,-9.55028 2.253546,0.58812 5.784856,1.49758 7.847355,2.02102 2.0625,0.52343 11.625,1.45223 21.25,2.064 27.252172,1.73214 34.360742,4.35087 40.287602,14.84158 l 2.90544,5.14271 h -2.92985 c -1.61142,0 -3.12059,-0.19073 -3.3537,-0.42384 z m 16.59051,-32.60992 c -6.92422,-4.06174 -15.57039,-6.61684 -32.3951,-9.57334 C 102.11595,112.78866 89.122408,108.07498 66.975241,96.523253 48.386896,86.827768 28.47275,73.681571 32.410771,73.705738 c 0.497744,0.0031 5.503235,1.791596 11.123316,3.974536 15.984119,6.208522 34.995681,10.494457 55.781671,12.575333 8.828422,0.883808 25.601522,6.384537 35.953332,11.790863 9.01667,4.70905 19.10228,13.87625 22.40401,20.36387 3.65491,7.18161 3.07431,7.61547 -4.35734,3.25608 z"
     style="fill:#6fcbce" />
  <path
     inkscape:connector-curvature="0"
     id="path889"
     d="m 3.5657592,396.01085 c -3.23629396,-0.84573 -1.789498,-2.94849 4.599536,-6.68494 8.8405398,-5.17014 17.0178858,-12.73731 23.8673998,-22.08646 5.831799,-7.96003 14.949348,-25.45194 18.915028,-36.28826 1.157559,-3.16305 2.643918,-6.32744 3.303021,-7.03197 0.659102,-0.70453 6.793364,-3.2395 13.631692,-5.63327 26.900302,-9.4165 49.397884,-20.85131 73.419674,-37.31691 11.25732,-7.71627 29.63089,-22.54428 35.01365,-28.25705 1.65,-1.75116 3.8038,-3.61975 4.78622,-4.15243 2.02263,-1.0967 2.00624,-1.04861 -4.30703,12.64062 -3.71579,8.05706 -8.90556,22.95465 -14.9796,43 -9.69707,32.00192 -16.51902,47.43074 -27.29499,61.73154 -14.56205,19.32529 -31.43243,27.20962 -63.597787,29.72224 -12.972661,1.01337 -63.8138948,1.28276 -67.3568138,0.35689 z M 66.815759,287.34787 c 0,-0.5936 2.897361,-11.44467 6.438579,-24.11348 15.30414,-54.75103 26.03685,-77.20154 40.241452,-84.17643 5.66694,-2.78264 6.24068,-2.8577 21.81997,-2.85487 14.13937,0.003 17.51176,0.34769 29,2.96774 11.14004,2.54063 15.07457,2.96838 27.5,2.98972 14.4533,0.0248 14.52958,0.0129 23.68387,-3.70031 19.21149,-7.79266 28.83481,-15.18207 34.41738,-26.42789 2.04583,-4.12123 2.39057,-6.24167 2.34313,-14.41235 l -0.0556,-9.58018 4.05562,0.83489 c 2.23059,0.45919 8.33062,1.26045 13.55562,1.78059 33.01985,3.28704 55.12573,3.80324 57.17412,1.33508 2.24661,-2.70701 -7.51564,-13.72982 -14.90184,-16.82605 -2.07478,-0.86972 -9.1723,-3.41276 -15.7723,-5.65121 -17.50753,-5.93783 -23.10154,-9.06345 -34.62757,-19.347916 -8.7379,-7.796687 -12.89156,-8.96502 -31.87243,-8.96502 -19.26956,0 -36,2.814663 -36,6.056498 0,1.825259 4.82982,16.214968 6.52609,19.443498 1.48348,2.82353 8.08089,9.24053 13.79231,13.41515 4.76653,3.48399 6.30798,6.54592 4.75562,9.44655 -1.77628,3.31899 -5.4119,3.63932 -11.81399,1.0409 -9.15844,-3.71713 -12.37604,-7.37187 -18.2117,-20.68591 C 181.36582,92.809629 166.93344,74.520022 154.72538,66.654197 147.12866,61.759524 134.69451,58.322598 118.78772,56.720664 91.484668,53.971038 42.346656,31.343626 9.2492852,6.2796438 L 5.1828122,3.200184 107.24929,3.4709265 c 109.16403,0.2895695 147.38406,1.1723 162.56647,3.7546384 45.50973,7.7406361 80.29514,31.4695651 89.53518,61.0765811 5.52736,17.710789 7.81634,40.717294 5.48793,55.158994 -4.48677,27.82859 -20.59224,51.32823 -47.02311,68.61181 -24.86967,16.26269 -53.31881,26.35526 -97.5,34.58892 -24.75106,4.61263 -24.0971,4.37019 -30.97582,11.48381 -14.96796,15.47912 -62.89757,37.22465 -101.381482,45.9965 -16.345848,3.7258 -21.142699,4.45311 -21.142699,3.20569 z M 126.98525,154.66509 c -16.77108,-4.22653 -46.890112,-14.57762 -45.746052,-15.72168 1.13751,-1.13751 37.526112,2.01276 43.578002,3.77269 6.53909,1.9016 12.1211,6.27871 14.88033,11.66834 2.10661,4.11487 2.47021,4.10684 -12.71228,0.28065 z m 26.33051,-29.99867 c -6.54748,-3.84075 -14.96696,-6.42325 -29.30952,-8.99009 C 109.74269,113.12363 92.602578,106.89226 72.815759,97.065795 59.623167,90.514131 42.769157,80.926559 40.348078,78.59623 c -0.979105,-0.942403 5.456586,0.852688 10.967681,3.059188 6.212266,2.487233 27.488389,6.965324 40.499999,8.524237 27.249862,3.264791 51.703462,14.174965 61.410722,27.398905 2.86947,3.909 6.22921,10.27583 5.31453,10.07124 -0.12389,-0.0277 -2.47525,-1.37024 -5.22525,-2.98338 z M 5.5921922,0.96668743 c 2.352038,-0.2112452 5.9520378,-0.2082734 7.9999998,0.0066 2.047962,0.21488147 0.123567,0.38771847 -4.2764328,0.38408627 -4.4,-0.00363 -6.075605,-0.1794411 -3.723567,-0.39068627 z"
     style="fill:#50c2c5" />
  <path
     inkscape:connector-curvature="0"
     id="path887"
     d="m 6.8157592,395.79999 c -2.475,-0.3299 -4.486689,-1.04981 -4.470421,-1.59981 0.01627,-0.55 3.166269,-2.87856 7,-5.17458 8.0784488,-4.83817 17.5332008,-13.85667 23.9408498,-22.83618 4.922916,-6.89885 14.897837,-26.44247 18.453476,-36.15544 2.49479,-6.81504 1.445821,-6.11389 16.946894,-11.32771 36.596312,-12.30925 79.438132,-38.0294 106.356162,-63.85108 2.59982,-2.49394 4.97183,-4.28955 5.27113,-3.99025 0.2993,0.2993 -1.26276,4.47389 -3.47125,9.27687 -2.20849,4.80299 -7.18675,18.70598 -11.0628,30.89554 -11.59521,36.4651 -13.07869,40.77441 -17.25186,50.11408 -6.3559,14.22469 -12.40991,23.33724 -21.70286,32.6673 -10.19939,10.24013 -20.28731,15.73002 -34.603882,18.83157 -14.33709,3.106 -70.260186,5.1684 -85.4054388,3.14969 z M 259.81576,173.76395 v -42.87346 l 3.75,0.41372 c 2.0625,0.22755 14.775,1.03498 28.25,1.7943 26.89498,1.51555 35.2813,1.13948 35.80468,-1.60559 0.65497,-3.43525 -7.5162,-12.57634 -14.38419,-16.09158 -1.69373,-0.86691 -8.21873,-3.36007 -14.5,-5.54037 -18.77656,-6.51757 -26.96044,-11.225539 -35.67049,-20.520333 l -3.25,-3.468186 V 46.17791 6.4833679 l 2.25,0.545202 c 1.2375,0.2998611 5.85,1.0323966 10.25,1.6278566 25.29415,3.4231045 50.77683,14.9569055 67.15498,30.3952475 14.26743,13.448729 20.14583,25.392966 24.36058,49.497883 3.3347,19.071773 2.19759,35.657883 -3.57535,52.150623 -11.28906,32.25176 -43.23948,58.33061 -88.32614,72.09431 -5.28774,1.6142 -10.17657,3.13921 -10.86407,3.38891 -0.98762,0.35871 -1.25,-8.54521 -1.25,-42.41945 z"
     style="fill:#3dc0cb" />
  <path
     inkscape:connector-curvature="0"
     id="path885"
     d="m 2.8157592,394.41317 c 0,-0.70785 2.8125,-2.91867 6.25,-4.91294 16.5163648,-9.58199 30.3155868,-28.08674 41.2379138,-55.30005 1.986731,-4.95 3.979418,-9.36721 4.428194,-9.81603 0.448776,-0.44882 6.613741,-2.76059 13.699924,-5.13726 35.842399,-12.02138 73.996849,-34.70156 106.133969,-63.08929 2.8875,-2.55062 5.23593,-4.25947 5.21873,-3.79745 -0.0172,0.46201 -1.33748,3.54003 -2.93397,6.84003 -1.59649,3.3 -6.53699,17.25 -10.97889,31 -12.49667,38.68374 -14.13503,43.34741 -18.68614,53.19092 -12.97347,28.06011 -29.6405,43.15371 -53.852802,48.76892 -10.86786,2.52043 -27.743904,3.50731 -60.266929,3.52433 C 9.0603472,395.69695 2.8157592,395.4345 2.8157592,394.41317 Z M 296.81576,168.16832 v -33.53186 l 11.75,-0.007 c 15.40683,-0.009 17.92702,-0.21146 19.26612,-1.54782 3.4043,-3.39736 -8.38704,-16.21665 -18.58139,-20.20129 -3.2641,-1.27583 -7.39723,-2.95605 -9.18473,-3.73382 l -3.25,-1.41413 V 61.648835 15.565269 l 2.25,0.683406 c 5.13994,1.561185 16.70738,6.834689 23.20651,10.579667 18.01946,10.383314 31.03451,25.320545 36.45558,41.83969 9.68671,29.517419 7.83863,63.279018 -4.64814,84.914708 -10.48901,18.17419 -27.87163,33.99291 -48.93293,44.53046 -3.94294,1.9729 -7.43044,3.58698 -7.75,3.58698 -0.31956,0 -0.58102,-15.08934 -0.58102,-33.53186 z"
     style="fill:#2ebccd" />
  <path
     inkscape:connector-curvature="0"
     id="path883"
     d="m 3.9733682,394.81875 c -1.475079,-0.9349 0.46915,-2.54181 8.9525248,-7.39925 5.670722,-3.24697 15.326873,-13.04188 21.41163,-21.71932 4.912173,-7.00522 13.201969,-23.30661 17.461948,-34.33786 l 2.640602,-6.83787 12.437843,-4.24892 c 38.928664,-13.29852 80.388984,-37.91579 107.687844,-63.94018 2.3375,-2.22837 4.25,-3.56407 4.25,-2.96822 0,0.59585 -1.51595,4.40989 -3.36877,8.47565 -3.23562,7.1001 -8.85697,23.58456 -15.63779,45.8574 -5.9218,19.45121 -8.15887,25.45298 -13.98099,37.50922 -6.78557,14.05131 -12.41093,21.8949 -22.20853,30.96598 -12.35969,11.44318 -26.166482,16.46638 -50.697107,18.44469 -15.826002,1.27631 -67.0161978,1.42382 -68.9492048,0.19868 z M 335.81576,106.24833 c 0,-77.021634 -0.92961,-70.722337 8.85655,-60.014727 7.21075,7.889708 11.97471,16.986251 15.20829,29.039446 7.65392,28.530011 6.0158,52.700741 -5.07803,74.927131 -3.79705,7.60737 -15.07034,22.39077 -17.73681,23.25945 -0.99169,0.32307 -1.25,-13.56597 -1.25,-67.2113 z"
     style="fill:#1bb4ce" />
  <path
     inkscape:connector-curvature="0"
     id="path881"
     d="m 7.4490542,394.80827 c -3.687192,-0.57986 -3.780042,-0.68381 -2,-2.23909 1.026688,-0.89706 3.523063,-2.47206 5.5474998,-3.5 6.153859,-3.12475 16.373212,-12.93161 22.426565,-21.52134 5.985391,-8.4933 14.759357,-25.3276 18.471195,-35.44003 1.192639,-3.2492 2.490202,-6.26247 2.883474,-6.69616 0.393272,-0.4337 6.300199,-2.74367 13.126505,-5.13327 39.319377,-13.76407 70.735627,-32.23071 105.661467,-62.10837 2.3375,-1.99963 4.25,-3.38621 4.25,-3.08128 0,0.30493 -1.16628,3.15475 -2.59174,6.33294 -3.27096,7.29289 -8.93877,23.72693 -14.40867,41.77851 -5.47085,18.0547 -10.4354,32.14038 -13.85169,39.30071 -13.97414,29.289 -30.22473,43.82158 -55.044132,49.2249 -13.60483,2.96184 -71.746361,5.08353 -84.4704738,3.08248 z"
     style="fill:#0d9fc3" />
</svg>
