<?xml version="1.0" encoding="UTF-8" standalone="no"?>
<!-- Created with Inkscape (http://www.inkscape.org/) -->

<svg
   xmlns:dc="http://purl.org/dc/elements/1.1/"
   xmlns:cc="http://creativecommons.org/ns#"
   xmlns:rdf="http://www.w3.org/1999/02/22-rdf-syntax-ns#"
   xmlns:svg="http://www.w3.org/2000/svg"
   xmlns="http://www.w3.org/2000/svg"
   xmlns:sodipodi="http://sodipodi.sourceforge.net/DTD/sodipodi-0.dtd"
   xmlns:inkscape="http://www.inkscape.org/namespaces/inkscape"
   version="1.1"
   id="svg2"
   width="127.64384"
   height="127.75729"
   viewBox="0 0 127.64384 127.75729"
   sodipodi:docname="twitter.svg"
   inkscape:version="0.92.3 (2405546, 2018-03-11)">
  <metadata
     id="metadata8">
    <rdf:RDF>
      <cc:Work
         rdf:about="">
        <dc:format>image/svg+xml</dc:format>
        <dc:type
           rdf:resource="http://purl.org/dc/dcmitype/StillImage" />
        <dc:title></dc:title>
      </cc:Work>
    </rdf:RDF>
  </metadata>
  <defs
     id="defs6" />
  <sodipodi:namedview
     pagecolor="#ffffff"
     bordercolor="#666666"
     borderopacity="1"
     objecttolerance="10"
     gridtolerance="10"
     guidetolerance="10"
     inkscape:pageopacity="0"
     inkscape:pageshadow="2"
     inkscape:window-width="1366"
     inkscape:window-height="713"
     id="namedview4"
     showgrid="false"
     fit-margin-top="0"
     fit-margin-left="0"
     fit-margin-right="0"
     fit-margin-bottom="0"
     inkscape:zoom="2.6074563"
     inkscape:cx="50.197815"
     inkscape:cy="64.636381"
     inkscape:window-x="0"
     inkscape:window-y="0"
     inkscape:window-maximized="1"
     inkscape:current-layer="svg2" />
  <path
     style="fill:#1da1f3;fill-opacity:1;stroke-width:0.31999999"
     d="m 58.395735,127.65457 c -0.44,-0.0754 -2.096,-0.29704 -3.68,-0.49252 -11.035786,-1.36188 -23.23258,-6.79807 -32.0338,-14.27766 C 10.722905,102.72117 3.305975,89.64303 0.58189497,73.91574 c -0.77585996,-4.47936 -0.77585996,-15.68064 0,-20.16 C 3.718445,35.647119 13.480975,20.44732 28.320245,10.568411 35.950567,5.488704 44.258234,2.2269362 53.755735,0.58189507 c 4.47936,-0.7758601 15.68064,-0.7758601 20.16,0 C 96.947553,4.5711846 115.42193,19.558355 123.61834,40.902684 c 2.97507,7.74737 4.0255,13.731635 4.0255,22.933056 0,7.401648 -0.35176,10.382973 -1.94444,16.48 -6.32109,24.19809 -26.532526,42.49442 -51.623665,46.73213 -2.874275,0.48545 -13.898518,0.912 -15.68,0.6067 z m 0.918931,-30.723327 c 6.479114,-0.961087 13.12873,-3.645449 18.359024,-7.411289 3.146096,-2.265206 8.192813,-7.474502 10.322045,-10.654569 4.838707,-7.226739 7.84,-16.430874 7.84,-24.043101 v -2.820678 l 3.32033,-3.282935 c 1.826175,-1.805613 3.483635,-3.600195 3.683235,-3.987958 0.35655,-0.692663 0.34462,-0.697386 -0.68033,-0.269322 -1.18264,0.493933 -4.255133,1.290119 -6.163235,1.597107 l -1.28,0.205936 1.12,-0.883753 c 2.257213,-1.781088 4.726465,-4.939562 5.263325,-6.732426 0.1992,-0.665229 0.0531,-0.633331 -2.445731,0.533959 -1.461677,0.682793 -3.548032,1.47063 -4.636346,1.750742 l -1.978752,0.509296 -2.074691,-1.57033 c -2.667434,-2.018972 -5.118087,-2.938083 -8.404173,-3.151961 -3.174138,-0.206595 -5.300778,0.248579 -8.207974,1.75679 -5.316938,2.758346 -8.655399,8.903255 -8.083591,14.878989 0.242135,2.530448 0.625546,2.381834 -4.270998,1.655501 -6.170592,-0.915322 -12.55832,-3.412112 -17.952624,-7.017194 -1.315354,-0.879069 -3.923872,-3.074307 -5.796704,-4.878307 -1.872832,-1.804 -3.478903,-3.28 -3.56904,-3.28 -0.09014,0 -0.49681,0.756 -0.903715,1.68 -1.108312,2.516758 -1.253346,7.332189 -0.306013,10.16 0.887939,2.650499 2.176864,4.667469 4.180182,6.541338 0.872765,0.816371 1.586845,1.566889 1.586845,1.66782 0,0.356052 -3.062915,-0.270304 -4.88,-0.997945 l -1.84,-0.736819 0.005,0.682803 c 0.009,1.334825 0.963321,4.719971 1.790169,6.35167 1.327357,2.619415 4.009216,5.193315 6.939104,6.65977 1.397059,0.699251 2.77543,1.273568 3.063053,1.276262 0.45454,0.0043 0.460156,0.04548 0.04294,0.315101 -0.264,0.170611 -1.74,0.312406 -3.28,0.315101 -1.710231,0.0029 -2.8,0.133584 -2.8,0.335536 0,0.792544 1.693091,3.559043 3.148553,5.144723 2.569335,2.7992 4.895162,3.937069 10.103479,4.94295 l 0.932035,0.180004 -1.572035,1.124678 c -4.620541,3.305667 -10.820416,5.25895 -16.961159,5.343645 l -3.869129,0.05336 0.98913,0.611469 c 3.805472,2.352512 10.005744,4.595286 15.069126,5.450837 3.548208,0.59953 10.132614,0.59638 14.198931,-0.007 z"
     id="path817"
     inkscape:connector-curvature="0" />
</svg>
