<?xml version="1.0" encoding="UTF-8" standalone="no"?><svg xmlns="http://www.w3.org/2000/svg" xmlns:xlink="http://www.w3.org/1999/xlink" contentStyleType="text/css" height="9508px" preserveAspectRatio="none" style="width:2948px;height:9508px;background:#FFFFFF;" version="1.1" viewBox="0 0 2948 9508" width="2948px" zoomAndPan="magnify"><defs/><g><ellipse cx="1474" cy="80" fill="#222222" rx="40" ry="40" style="stroke:#222222;stroke-width:4.0;"/><rect fill="#FFE4B5" height="9145.6094" style="stroke:#000000;stroke-width:6.0;" width="2860" x="44" y="160"/><path d="M480,160 L480,197.9531 L440,237.9531 L44,237.9531 " fill="none" style="stroke:#000000;stroke-width:6.0;"/><text fill="#000000" font-family="sans-serif" font-size="56" lengthAdjust="spacing" textLength="380" x="56" y="218.1406">Weekly review</text><rect fill="#87CEFA" height="3155.7969" style="stroke:#000000;stroke-width:6.0;" width="2528" x="210" y="277.9531"/><path d="M598,277.9531 L598,315.9063 L558,355.9063 L210,355.9063 " fill="none" style="stroke:#000000;stroke-width:6.0;"/><text fill="#000000" font-family="sans-serif" font-size="56" font-weight="bold" lengthAdjust="spacing" textLength="332" x="222" y="336.0938">1. Declutter</text><text fill="#000000" font-family="sans-serif" font-size="56" lengthAdjust="spacing" textLength="16" x="554" y="336.0938"> </text><rect fill="#F1F1F1" height="136.5313" rx="50" ry="50" style="stroke:#181818;stroke-width:2.0;" width="436" x="1256" y="423.9063"/><text fill="#000000" font-family="sans-serif" font-size="48" font-weight="bold" lengthAdjust="spacing" textLength="356" x="1296" y="510.3125">Physical space</text><line style="stroke:#181818;stroke-width:6.0;" x1="708" x2="2196" y1="640.4375" y2="640.4375"/><rect fill="#F1F1F1" height="136.5313" rx="50" ry="50" style="stroke:#181818;stroke-width:2.0;" width="704" x="356" y="720.4375"/><text fill="#000000" font-family="sans-serif" font-size="48" lengthAdjust="spacing" textLength="624" x="396" y="806.8438">Clean desk and workspace</text><rect fill="#F1F1F1" height="136.5313" rx="50" ry="50" style="stroke:#181818;stroke-width:2.0;" width="516" x="1172" y="720.4375"/><text fill="#000000" font-family="sans-serif" font-size="48" lengthAdjust="spacing" textLength="436" x="1212" y="806.8438">Tidy random items</text><rect fill="#F1F1F1" height="136.5313" rx="50" ry="50" style="stroke:#181818;stroke-width:2.0;" width="792" x="1800" y="720.4375"/><text fill="#000000" font-family="sans-serif" font-size="48" lengthAdjust="spacing" textLength="712" x="1840" y="806.8438">Remove garbage and recycling</text><line style="stroke:#181818;stroke-width:6.0;" x1="708" x2="2196" y1="936.9688" y2="936.9688"/><rect fill="#F1F1F1" height="136.5313" rx="50" ry="50" style="stroke:#181818;stroke-width:2.0;" width="404" x="1272" y="1016.9688"/><text fill="#000000" font-family="sans-serif" font-size="48" font-weight="bold" lengthAdjust="spacing" textLength="324" x="1312" y="1103.375">Mental space</text><line style="stroke:#181818;stroke-width:6.0;" x1="570" x2="2200" y1="1233.5" y2="1233.5"/><rect fill="#F1F1F1" height="136.5313" rx="50" ry="50" style="stroke:#181818;stroke-width:2.0;" width="368" x="386" y="1590.0313"/><text fill="#000000" font-family="sans-serif" font-size="48" lengthAdjust="spacing" textLength="180" x="426" y="1676.4375">Emails (</text><text fill="#000000" font-family="sans-serif" font-size="48" font-style="italic" lengthAdjust="spacing" textLength="92" x="606" y="1676.4375">Mail</text><text fill="#000000" font-family="sans-serif" font-size="48" lengthAdjust="spacing" textLength="16" x="698" y="1676.4375">)</text><rect fill="#F1F1F1" height="136.5313" rx="50" ry="50" style="stroke:#181818;stroke-width:2.0;" width="528" x="306" y="1866.5625"/><text fill="#000000" font-family="sans-serif" font-size="48" lengthAdjust="spacing" textLength="448" x="346" y="1952.9688">Archive, tag, delete</text><rect fill="#F1F1F1" height="136.5313" rx="50" ry="50" style="stroke:#181818;stroke-width:2.0;" width="700" x="946" y="1313.5"/><text fill="#000000" font-family="sans-serif" font-size="48" lengthAdjust="spacing" textLength="380" x="986" y="1399.9063">Text messages (</text><text fill="#000000" font-family="sans-serif" font-size="48" font-style="italic" lengthAdjust="spacing" textLength="224" x="1366" y="1399.9063">Messages</text><text fill="#000000" font-family="sans-serif" font-size="48" lengthAdjust="spacing" textLength="16" x="1590" y="1399.9063">)</text><rect fill="#F1F1F1" height="136.5313" rx="50" ry="50" style="stroke:#181818;stroke-width:2.0;" width="196" x="1198" y="1590.0313"/><text fill="#000000" font-family="sans-serif" font-size="48" font-style="italic" lengthAdjust="spacing" textLength="116" x="1238" y="1676.4375">Slack</text><rect fill="#F1F1F1" height="136.5313" rx="50" ry="50" style="stroke:#181818;stroke-width:2.0;" width="312" x="1140" y="1866.5625"/><text fill="#000000" font-family="sans-serif" font-size="48" font-style="italic" lengthAdjust="spacing" textLength="232" x="1180" y="1952.9688">WhatsApp</text><rect fill="#F1F1F1" height="136.5313" rx="50" ry="50" style="stroke:#181818;stroke-width:2.0;" width="404" x="1094" y="2143.0938"/><text fill="#000000" font-family="sans-serif" font-size="48" lengthAdjust="spacing" textLength="324" x="1134" y="2229.5">Reply, archive</text><rect fill="#F1F1F1" height="136.5313" rx="50" ry="50" style="stroke:#181818;stroke-width:2.0;" width="884" x="1758" y="1451.7656"/><text fill="#000000" font-family="sans-serif" font-size="48" lengthAdjust="spacing" textLength="804" x="1798" y="1538.1719">Idea dump (personal/professional)</text><rect fill="#F1F1F1" height="136.5313" rx="50" ry="50" style="stroke:#181818;stroke-width:2.0;" width="364" x="2018" y="1728.2969"/><text fill="#000000" font-family="sans-serif" font-size="48" font-style="italic" lengthAdjust="spacing" textLength="284" x="2058" y="1814.7031">Apple Notes</text><rect fill="#F1F1F1" height="136.5313" rx="50" ry="50" style="stroke:#181818;stroke-width:2.0;" width="480" x="1960" y="2004.8281"/><text fill="#000000" font-family="sans-serif" font-size="48" font-style="italic" lengthAdjust="spacing" textLength="400" x="2000" y="2091.2344">Apple Reminders</text><line style="stroke:#181818;stroke-width:6.0;" x1="570" x2="2200" y1="2359.625" y2="2359.625"/><rect fill="#F1F1F1" height="136.5313" rx="50" ry="50" style="stroke:#181818;stroke-width:2.0;" width="404" x="1272" y="2439.625"/><text fill="#000000" font-family="sans-serif" font-size="48" font-weight="bold" lengthAdjust="spacing" textLength="324" x="1312" y="2526.0313">Digital space</text><line style="stroke:#181818;stroke-width:6.0;" x1="860" x2="1908" y1="2656.1563" y2="2656.1563"/><rect fill="#F1F1F1" height="136.5313" rx="50" ry="50" style="stroke:#181818;stroke-width:2.0;" width="756" x="482" y="2952.6875"/><text fill="#000000" font-family="sans-serif" font-size="48" lengthAdjust="spacing" textLength="676" x="522" y="3039.0938">File away items from desktop</text><rect fill="#F1F1F1" height="136.5313" rx="50" ry="50" style="stroke:#181818;stroke-width:2.0;" width="1116" x="1350" y="2736.1563"/><text fill="#000000" font-family="sans-serif" font-size="48" lengthAdjust="spacing" textLength="1036" x="1390" y="2822.5625">Run desktop cleaner tools (optimize storage)</text><rect fill="#F1F1F1" height="136.5313" rx="50" ry="50" style="stroke:#181818;stroke-width:2.0;" width="704" x="1556" y="2952.6875"/><text fill="#000000" font-family="sans-serif" font-size="48" lengthAdjust="spacing" textLength="624" x="1596" y="3039.0938">Remove large, unused files</text><rect fill="#F1F1F1" height="136.5313" rx="50" ry="50" style="stroke:#181818;stroke-width:2.0;" width="664" x="1576" y="3169.2188"/><text fill="#000000" font-family="sans-serif" font-size="48" lengthAdjust="spacing" textLength="584" x="1616" y="3255.625">Optimize backup storage</text><line style="stroke:#181818;stroke-width:6.0;" x1="860" x2="1908" y1="3385.75" y2="3385.75"/><rect fill="#C9FFC9" height="1043.5469" style="stroke:#000000;stroke-width:6.0;" width="2364" x="292" y="3473.75"/><path d="M616,3473.75 L616,3511.7031 L576,3551.7031 L292,3551.7031 " fill="none" style="stroke:#000000;stroke-width:6.0;"/><text fill="#000000" font-family="sans-serif" font-size="56" font-weight="bold" lengthAdjust="spacing" textLength="268" x="304" y="3531.8906">2. Reflect</text><text fill="#000000" font-family="sans-serif" font-size="56" lengthAdjust="spacing" textLength="16" x="572" y="3531.8906"> </text><line style="stroke:#181818;stroke-width:6.0;" x1="730" x2="2282" y1="3619.7031" y2="3619.7031"/><rect fill="#F1F1F1" height="136.5313" rx="50" ry="50" style="stroke:#181818;stroke-width:2.0;" width="684" x="388" y="3699.7031"/><text fill="#000000" font-family="sans-serif" font-size="48" font-weight="bold" lengthAdjust="spacing" textLength="156" x="428" y="3786.1094">Todos</text><text fill="#000000" font-family="sans-serif" font-size="48" lengthAdjust="spacing" textLength="16" x="600" y="3786.1094">(</text><text fill="#000000" font-family="sans-serif" font-size="48" font-style="italic" lengthAdjust="spacing" textLength="400" x="616" y="3786.1094">Apple Reminders</text><text fill="#000000" font-family="sans-serif" font-size="48" lengthAdjust="spacing" textLength="16" x="1016" y="3786.1094">)</text><rect fill="#F1F1F1" height="136.5313" rx="50" ry="50" style="stroke:#181818;stroke-width:2.0;" width="636" x="412" y="3976.2344"/><text fill="#000000" font-family="sans-serif" font-size="48" lengthAdjust="spacing" textLength="556" x="452" y="4062.6406">Review completed tasks</text><rect fill="#F1F1F1" height="136.5313" rx="50" ry="50" style="stroke:#181818;stroke-width:2.0;" width="532" x="464" y="4252.7656"/><text fill="#000000" font-family="sans-serif" font-size="48" lengthAdjust="spacing" textLength="452" x="504" y="4339.1719">Jot down small wins</text><rect fill="#F1F1F1" height="136.5313" rx="50" ry="50" style="stroke:#181818;stroke-width:2.0;" width="708" x="1184" y="3837.9688"/><text fill="#000000" font-family="sans-serif" font-size="48" font-weight="bold" lengthAdjust="spacing" textLength="220" x="1224" y="3924.375">Calendar</text><text fill="#000000" font-family="sans-serif" font-size="48" lengthAdjust="spacing" textLength="16" x="1460" y="3924.375">(</text><text fill="#000000" font-family="sans-serif" font-size="48" font-style="italic" lengthAdjust="spacing" textLength="360" x="1476" y="3924.375">Apple Calendar</text><text fill="#000000" font-family="sans-serif" font-size="48" lengthAdjust="spacing" textLength="16" x="1836" y="3924.375">)</text><rect fill="#F1F1F1" height="136.5313" rx="50" ry="50" style="stroke:#181818;stroke-width:2.0;" width="448" x="1314" y="4114.5"/><text fill="#000000" font-family="sans-serif" font-size="48" lengthAdjust="spacing" textLength="368" x="1354" y="4200.9063">Review all items</text><rect fill="#F1F1F1" height="136.5313" rx="50" ry="50" style="stroke:#181818;stroke-width:2.0;" width="556" x="2004" y="3699.7031"/><text fill="#000000" font-family="sans-serif" font-size="48" font-weight="bold" lengthAdjust="spacing" textLength="144" x="2044" y="3786.1094">Notes</text><text fill="#000000" font-family="sans-serif" font-size="48" lengthAdjust="spacing" textLength="16" x="2204" y="3786.1094">(</text><text fill="#000000" font-family="sans-serif" font-size="48" font-style="italic" lengthAdjust="spacing" textLength="284" x="2220" y="3786.1094">Apple Notes</text><text fill="#000000" font-family="sans-serif" font-size="48" lengthAdjust="spacing" textLength="16" x="2504" y="3786.1094">)</text><rect fill="#F1F1F1" height="136.5313" rx="50" ry="50" style="stroke:#181818;stroke-width:2.0;" width="448" x="2058" y="3976.2344"/><text fill="#000000" font-family="sans-serif" font-size="48" lengthAdjust="spacing" textLength="368" x="2098" y="4062.6406">Review all notes</text><rect fill="#F1F1F1" height="136.5313" rx="50" ry="50" style="stroke:#181818;stroke-width:2.0;" width="528" x="2018" y="4252.7656"/><text fill="#000000" font-family="sans-serif" font-size="48" lengthAdjust="spacing" textLength="448" x="2058" y="4339.1719">Archive, tag, delete</text><line style="stroke:#181818;stroke-width:6.0;" x1="730" x2="2282" y1="4469.2969" y2="4469.2969"/><rect fill="#DAA520" height="923.5469" style="stroke:#000000;stroke-width:6.0;" width="2780" x="84" y="4557.2969"/><path d="M932,4557.2969 L932,4595.25 L892,4635.25 L84,4635.25 " fill="none" style="stroke:#000000;stroke-width:6.0;"/><text fill="#000000" font-family="sans-serif" font-size="56" font-weight="bold" lengthAdjust="spacing" textLength="792" x="96" y="4615.4375">3. Check goals and projects</text><text fill="#000000" font-family="sans-serif" font-size="56" lengthAdjust="spacing" textLength="16" x="888" y="4615.4375"> </text><line style="stroke:#181818;stroke-width:6.0;" x1="596" x2="2396" y1="4703.25" y2="4703.25"/><rect fill="#F1F1F1" height="136.5313" rx="50" ry="50" style="stroke:#181818;stroke-width:2.0;" width="220" x="486" y="4783.25"/><text fill="#000000" font-family="sans-serif" font-size="48" font-weight="bold" lengthAdjust="spacing" textLength="140" x="526" y="4869.6563">Goals</text><rect fill="#F1F1F1" height="136.5313" rx="50" ry="50" style="stroke:#181818;stroke-width:2.0;" width="632" x="280" y="4999.7813"/><text fill="#000000" font-family="sans-serif" font-size="48" lengthAdjust="spacing" textLength="552" x="320" y="5086.1875">Review weekly progress</text><rect fill="#F1F1F1" height="136.5313" rx="50" ry="50" style="stroke:#181818;stroke-width:2.0;" width="928" x="132" y="5216.3125"/><text fill="#000000" font-family="sans-serif" font-size="48" lengthAdjust="spacing" textLength="848" x="172" y="5302.7188">Adjust to meet monthly/annual goals</text><rect fill="#F1F1F1" height="136.5313" rx="50" ry="50" style="stroke:#181818;stroke-width:2.0;" width="692" x="1172" y="4783.25"/><text fill="#000000" font-family="sans-serif" font-size="48" font-weight="bold" lengthAdjust="spacing" textLength="612" x="1212" y="4869.6563">Areas of responsibilities</text><rect fill="#F1F1F1" height="136.5313" rx="50" ry="50" style="stroke:#181818;stroke-width:2.0;" width="272" x="1382" y="4999.7813"/><text fill="#000000" font-family="sans-serif" font-size="48" lengthAdjust="spacing" textLength="192" x="1422" y="5086.1875">At home</text><rect fill="#F1F1F1" height="136.5313" rx="50" ry="50" style="stroke:#181818;stroke-width:2.0;" width="256" x="1390" y="5216.3125"/><text fill="#000000" font-family="sans-serif" font-size="48" lengthAdjust="spacing" textLength="176" x="1430" y="5302.7188">At work</text><rect fill="#F1F1F1" height="136.5313" rx="50" ry="50" style="stroke:#181818;stroke-width:2.0;" width="372" x="2210" y="4783.25"/><text fill="#000000" font-family="sans-serif" font-size="48" font-weight="bold" lengthAdjust="spacing" textLength="292" x="2250" y="4869.6563">Key metrics</text><rect fill="#F1F1F1" height="136.5313" rx="50" ry="50" style="stroke:#181818;stroke-width:2.0;" width="840" x="1976" y="4999.7813"/><text fill="#000000" font-family="sans-serif" font-size="48" lengthAdjust="spacing" textLength="760" x="2016" y="5086.1875">Track progress on large projects</text><rect fill="#F1F1F1" height="136.5313" rx="50" ry="50" style="stroke:#181818;stroke-width:2.0;" width="680" x="2056" y="5216.3125"/><text fill="#000000" font-family="sans-serif" font-size="48" lengthAdjust="spacing" textLength="600" x="2096" y="5302.7188">Revise tasks, re-prioritize</text><line style="stroke:#181818;stroke-width:6.0;" x1="596" x2="2396" y1="5432.8438" y2="5432.8438"/><rect fill="#D8BFD8" height="707.0156" style="stroke:#000000;stroke-width:6.0;" width="1360" x="794" y="5520.8438"/><path d="M1230,5520.8438 L1230,5558.7969 L1190,5598.7969 L794,5598.7969 " fill="none" style="stroke:#000000;stroke-width:6.0;"/><text fill="#000000" font-family="sans-serif" font-size="56" font-weight="bold" lengthAdjust="spacing" textLength="380" x="806" y="5578.9844">4. Plan ahead</text><text fill="#000000" font-family="sans-serif" font-size="56" lengthAdjust="spacing" textLength="16" x="1186" y="5578.9844"> </text><line style="stroke:#181818;stroke-width:6.0;" x1="1134" x2="1774" y1="5666.7969" y2="5666.7969"/><rect fill="#F1F1F1" height="136.5313" rx="50" ry="50" style="stroke:#181818;stroke-width:2.0;" width="228" x="1020" y="5746.7969"/><text fill="#000000" font-family="sans-serif" font-size="48" font-weight="bold" lengthAdjust="spacing" textLength="148" x="1060" y="5833.2031">Tasks</text><rect fill="#F1F1F1" height="136.5313" rx="50" ry="50" style="stroke:#181818;stroke-width:2.0;" width="488" x="890" y="5963.3281"/><text fill="#000000" font-family="sans-serif" font-size="48" lengthAdjust="spacing" textLength="408" x="930" y="6049.7344">Plan out the week</text><rect fill="#F1F1F1" height="136.5313" rx="50" ry="50" style="stroke:#181818;stroke-width:2.0;" width="220" x="1664" y="5746.7969"/><text fill="#000000" font-family="sans-serif" font-size="48" font-weight="bold" lengthAdjust="spacing" textLength="140" x="1704" y="5833.2031">Goals</text><rect fill="#F1F1F1" height="136.5313" rx="50" ry="50" style="stroke:#181818;stroke-width:2.0;" width="568" x="1490" y="5963.3281"/><text fill="#000000" font-family="sans-serif" font-size="48" lengthAdjust="spacing" textLength="488" x="1530" y="6049.7344">Set weekly objectives</text><line style="stroke:#181818;stroke-width:6.0;" x1="1134" x2="1774" y1="6179.8594" y2="6179.8594"/><rect fill="#FFF8DC" height="1320.0781" style="stroke:#000000;stroke-width:6.0;" width="1556" x="696" y="6267.8594"/><path d="M1248,6267.8594 L1248,6305.8125 L1208,6345.8125 L696,6345.8125 " fill="none" style="stroke:#000000;stroke-width:6.0;"/><text fill="#000000" font-family="sans-serif" font-size="56" font-weight="bold" lengthAdjust="spacing" textLength="496" x="708" y="6326">5. Map the future</text><text fill="#000000" font-family="sans-serif" font-size="56" lengthAdjust="spacing" textLength="16" x="1204" y="6326"> </text><line style="stroke:#181818;stroke-width:6.0;" x1="1104" x2="1842" y1="6413.8125" y2="6413.8125"/><rect fill="#F1F1F1" height="136.5313" rx="50" ry="50" style="stroke:#181818;stroke-width:2.0;" width="624" x="792" y="6493.8125"/><text fill="#000000" font-family="sans-serif" font-size="48" font-weight="bold" lengthAdjust="spacing" textLength="544" x="832" y="6580.2188">Review existing items</text><rect fill="#F1F1F1" height="136.5313" rx="50" ry="50" style="stroke:#181818;stroke-width:2.0;" width="480" x="864" y="6770.3438"/><text fill="#000000" font-family="sans-serif" font-size="48" font-style="italic" lengthAdjust="spacing" textLength="400" x="904" y="6856.75">Apple Reminders</text><rect fill="#F1F1F1" height="136.5313" rx="50" ry="50" style="stroke:#181818;stroke-width:2.0;" width="440" x="884" y="7046.875"/><text fill="#000000" font-family="sans-serif" font-size="48" font-style="italic" lengthAdjust="spacing" textLength="360" x="924" y="7133.2813">Apple Calendar</text><rect fill="#F1F1F1" height="136.5313" rx="50" ry="50" style="stroke:#181818;stroke-width:2.0;" width="364" x="922" y="7323.4063"/><text fill="#000000" font-family="sans-serif" font-size="48" font-style="italic" lengthAdjust="spacing" textLength="284" x="962" y="7409.8125">Apple Notes</text><rect fill="#F1F1F1" height="136.5313" rx="50" ry="50" style="stroke:#181818;stroke-width:2.0;" width="576" x="1554" y="6632.0781"/><text fill="#000000" font-family="sans-serif" font-size="48" font-weight="bold" lengthAdjust="spacing" textLength="496" x="1594" y="6718.4844">Update future plans</text><rect fill="#F1F1F1" height="136.5313" rx="50" ry="50" style="stroke:#181818;stroke-width:2.0;" width="364" x="1660" y="6908.6094"/><text fill="#000000" font-family="sans-serif" font-size="48" font-style="italic" lengthAdjust="spacing" textLength="284" x="1700" y="6995.0156">Apple Notes</text><rect fill="#F1F1F1" height="136.5313" rx="50" ry="50" style="stroke:#181818;stroke-width:2.0;" width="628" x="1528" y="7185.1406"/><text fill="#000000" font-family="sans-serif" font-size="48" lengthAdjust="spacing" textLength="224" x="1568" y="7271.5469">VS Code (</text><text fill="#000000" font-family="sans-serif" font-size="48" font-style="italic" lengthAdjust="spacing" textLength="184" x="1792" y="7271.5469">life-trail</text><text fill="#000000" font-family="sans-serif" font-size="48" lengthAdjust="spacing" textLength="124" x="1992" y="7271.5469">repo)</text><line style="stroke:#181818;stroke-width:6.0;" x1="1104" x2="1842" y1="7539.9375" y2="7539.9375"/><rect fill="#FA8072" height="1629.6719" style="stroke:#000000;stroke-width:6.0;" width="2072" x="438" y="7627.9375"/><path d="M1266,7627.9375 L1266,7665.8906 L1226,7705.8906 L438,7705.8906 " fill="none" style="stroke:#000000;stroke-width:6.0;"/><text fill="#000000" font-family="sans-serif" font-size="56" font-weight="bold" lengthAdjust="spacing" textLength="772" x="450" y="7686.0781">6. Question the status quo</text><text fill="#000000" font-family="sans-serif" font-size="56" lengthAdjust="spacing" textLength="16" x="1222" y="7686.0781"> </text><rect fill="#F1F1F1" height="136.5313" rx="50" ry="50" style="stroke:#181818;stroke-width:2.0;" width="924" x="1012" y="7773.8906"/><text fill="#000000" font-family="sans-serif" font-size="48" font-style="italic" lengthAdjust="spacing" textLength="844" x="1052" y="7860.2969">How do I feel I did this week overall?</text><rect fill="#F1F1F1" height="136.5313" rx="50" ry="50" style="stroke:#181818;stroke-width:2.0;" width="1160" x="894" y="7990.4219"/><text fill="#000000" font-family="sans-serif" font-size="48" font-style="italic" lengthAdjust="spacing" textLength="1080" x="934" y="8076.8281">What enabled me to reach my goals this week?</text><rect fill="#F1F1F1" height="136.5313" rx="50" ry="50" style="stroke:#181818;stroke-width:2.0;" width="1480" x="734" y="8206.9531"/><text fill="#000000" font-family="sans-serif" font-size="48" font-style="italic" lengthAdjust="spacing" textLength="1400" x="774" y="8293.3594">Has anything stopped me from reaching my goals this week?</text><rect fill="#F1F1F1" height="136.5313" rx="50" ry="50" style="stroke:#181818;stroke-width:2.0;" width="1992" x="478" y="8423.4844"/><text fill="#000000" font-family="sans-serif" font-size="48" font-style="italic" lengthAdjust="spacing" textLength="1912" x="518" y="8509.8906">Which actions did I take this week that will propel me towards my long-term goals?</text><rect fill="#F1F1F1" height="136.5313" rx="50" ry="50" style="stroke:#181818;stroke-width:2.0;" width="860" x="1044" y="8640.0156"/><text fill="#000000" font-family="sans-serif" font-size="48" font-style="italic" lengthAdjust="spacing" textLength="780" x="1084" y="8726.4219">How can I improve for next week?</text><rect fill="#F1F1F1" height="136.5313" rx="50" ry="50" style="stroke:#181818;stroke-width:2.0;" width="1652" x="648" y="8856.5469"/><text fill="#000000" font-family="sans-serif" font-size="48" font-style="italic" lengthAdjust="spacing" textLength="1572" x="688" y="8942.9531">What can I do next week that will set me up for my long-term goals?</text><rect fill="#F1F1F1" height="136.5313" rx="50" ry="50" style="stroke:#181818;stroke-width:2.0;" width="1376" x="786" y="9073.0781"/><text fill="#000000" font-family="sans-serif" font-size="48" font-style="italic" lengthAdjust="spacing" textLength="1296" x="826" y="9159.4844">What should I plan for in the next month? Year? 5 Years?</text><ellipse cx="1474" cy="9425.6094" fill="none" rx="40" ry="40" style="stroke:#222222;stroke-width:6.0;"/><line style="stroke:#222222;stroke-width:10.0;" x1="1449.2513" x2="1498.7487" y1="9400.8606" y2="9450.3581"/><line style="stroke:#222222;stroke-width:10.0;" x1="1498.7487" x2="1449.2513" y1="9400.8606" y2="9450.3581"/><line style="stroke:#181818;stroke-width:4.0;" x1="708" x2="708" y1="646.4375" y2="720.4375"/><polygon fill="#181818" points="692,680.4375,708,720.4375,724,680.4375,708,696.4375" style="stroke:#181818;stroke-width:4.0;"/><line style="stroke:#181818;stroke-width:4.0;" x1="1430" x2="1430" y1="646.4375" y2="720.4375"/><polygon fill="#181818" points="1414,680.4375,1430,720.4375,1446,680.4375,1430,696.4375" style="stroke:#181818;stroke-width:4.0;"/><line style="stroke:#181818;stroke-width:4.0;" x1="2196" x2="2196" y1="646.4375" y2="720.4375"/><polygon fill="#181818" points="2180,680.4375,2196,720.4375,2212,680.4375,2196,696.4375" style="stroke:#181818;stroke-width:4.0;"/><line style="stroke:#181818;stroke-width:4.0;" x1="708" x2="708" y1="856.9688" y2="936.9688"/><polygon fill="#181818" points="692,896.9688,708,936.9688,724,896.9688,708,912.9688" style="stroke:#181818;stroke-width:4.0;"/><line style="stroke:#181818;stroke-width:4.0;" x1="1430" x2="1430" y1="856.9688" y2="936.9688"/><polygon fill="#181818" points="1414,896.9688,1430,936.9688,1446,896.9688,1430,912.9688" style="stroke:#181818;stroke-width:4.0;"/><line style="stroke:#181818;stroke-width:4.0;" x1="2196" x2="2196" y1="856.9688" y2="936.9688"/><polygon fill="#181818" points="2180,896.9688,2196,936.9688,2212,896.9688,2196,912.9688" style="stroke:#181818;stroke-width:4.0;"/><line style="stroke:#181818;stroke-width:4.0;" x1="1474" x2="1474" y1="560.4375" y2="640.4375"/><polygon fill="#181818" points="1458,600.4375,1474,640.4375,1490,600.4375,1474,616.4375" style="stroke:#181818;stroke-width:4.0;"/><line style="stroke:#181818;stroke-width:4.0;" x1="1474" x2="1474" y1="942.9688" y2="1016.9688"/><polygon fill="#181818" points="1458,976.9688,1474,1016.9688,1490,976.9688,1474,992.9688" style="stroke:#181818;stroke-width:4.0;"/><line style="stroke:#181818;stroke-width:4.0;" x1="570" x2="570" y1="1726.5625" y2="1866.5625"/><polygon fill="#181818" points="554,1826.5625,570,1866.5625,586,1826.5625,570,1842.5625" style="stroke:#181818;stroke-width:4.0;"/><line style="stroke:#181818;stroke-width:4.0;" x1="1296" x2="1296" y1="1450.0313" y2="1590.0313"/><polygon fill="#181818" points="1280,1550.0313,1296,1590.0313,1312,1550.0313,1296,1566.0313" style="stroke:#181818;stroke-width:4.0;"/><line style="stroke:#181818;stroke-width:4.0;" x1="1296" x2="1296" y1="1726.5625" y2="1866.5625"/><polygon fill="#181818" points="1280,1826.5625,1296,1866.5625,1312,1826.5625,1296,1842.5625" style="stroke:#181818;stroke-width:4.0;"/><line style="stroke:#181818;stroke-width:4.0;" x1="1296" x2="1296" y1="2003.0938" y2="2143.0938"/><polygon fill="#181818" points="1280,2103.0938,1296,2143.0938,1312,2103.0938,1296,2119.0938" style="stroke:#181818;stroke-width:4.0;"/><line style="stroke:#181818;stroke-width:4.0;" x1="2200" x2="2200" y1="1588.2969" y2="1728.2969"/><polygon fill="#181818" points="2184,1688.2969,2200,1728.2969,2216,1688.2969,2200,1704.2969" style="stroke:#181818;stroke-width:4.0;"/><line style="stroke:#181818;stroke-width:4.0;" x1="2200" x2="2200" y1="1864.8281" y2="2004.8281"/><polygon fill="#181818" points="2184,1964.8281,2200,2004.8281,2216,1964.8281,2200,1980.8281" style="stroke:#181818;stroke-width:4.0;"/><line style="stroke:#181818;stroke-width:4.0;" x1="570" x2="570" y1="1239.5" y2="1590.0313"/><polygon fill="#181818" points="554,1550.0313,570,1590.0313,586,1550.0313,570,1566.0313" style="stroke:#181818;stroke-width:4.0;"/><line style="stroke:#181818;stroke-width:4.0;" x1="1296" x2="1296" y1="1239.5" y2="1313.5"/><polygon fill="#181818" points="1280,1273.5,1296,1313.5,1312,1273.5,1296,1289.5" style="stroke:#181818;stroke-width:4.0;"/><line style="stroke:#181818;stroke-width:4.0;" x1="2200" x2="2200" y1="1239.5" y2="1451.7656"/><polygon fill="#181818" points="2184,1411.7656,2200,1451.7656,2216,1411.7656,2200,1427.7656" style="stroke:#181818;stroke-width:4.0;"/><line style="stroke:#181818;stroke-width:4.0;" x1="570" x2="570" y1="2003.0938" y2="2359.625"/><polygon fill="#181818" points="554,2319.625,570,2359.625,586,2319.625,570,2335.625" style="stroke:#181818;stroke-width:4.0;"/><line style="stroke:#181818;stroke-width:4.0;" x1="1296" x2="1296" y1="2279.625" y2="2359.625"/><polygon fill="#181818" points="1280,2319.625,1296,2359.625,1312,2319.625,1296,2335.625" style="stroke:#181818;stroke-width:4.0;"/><line style="stroke:#181818;stroke-width:4.0;" x1="2200" x2="2200" y1="2141.3594" y2="2359.625"/><polygon fill="#181818" points="2184,2319.625,2200,2359.625,2216,2319.625,2200,2335.625" style="stroke:#181818;stroke-width:4.0;"/><line style="stroke:#181818;stroke-width:4.0;" x1="1474" x2="1474" y1="1153.5" y2="1233.5"/><polygon fill="#181818" points="1458,1193.5,1474,1233.5,1490,1193.5,1474,1209.5" style="stroke:#181818;stroke-width:4.0;"/><line style="stroke:#181818;stroke-width:4.0;" x1="1474" x2="1474" y1="2365.625" y2="2439.625"/><polygon fill="#181818" points="1458,2399.625,1474,2439.625,1490,2399.625,1474,2415.625" style="stroke:#181818;stroke-width:4.0;"/><line style="stroke:#181818;stroke-width:4.0;" x1="1908" x2="1908" y1="2872.6875" y2="2952.6875"/><polygon fill="#181818" points="1892,2912.6875,1908,2952.6875,1924,2912.6875,1908,2928.6875" style="stroke:#181818;stroke-width:4.0;"/><line style="stroke:#181818;stroke-width:4.0;" x1="1908" x2="1908" y1="3089.2188" y2="3169.2188"/><polygon fill="#181818" points="1892,3129.2188,1908,3169.2188,1924,3129.2188,1908,3145.2188" style="stroke:#181818;stroke-width:4.0;"/><line style="stroke:#181818;stroke-width:4.0;" x1="860" x2="860" y1="2662.1563" y2="2952.6875"/><polygon fill="#181818" points="844,2912.6875,860,2952.6875,876,2912.6875,860,2928.6875" style="stroke:#181818;stroke-width:4.0;"/><line style="stroke:#181818;stroke-width:4.0;" x1="1908" x2="1908" y1="2662.1563" y2="2736.1563"/><polygon fill="#181818" points="1892,2696.1563,1908,2736.1563,1924,2696.1563,1908,2712.1563" style="stroke:#181818;stroke-width:4.0;"/><line style="stroke:#181818;stroke-width:4.0;" x1="860" x2="860" y1="3089.2188" y2="3385.75"/><polygon fill="#181818" points="844,3345.75,860,3385.75,876,3345.75,860,3361.75" style="stroke:#181818;stroke-width:4.0;"/><line style="stroke:#181818;stroke-width:4.0;" x1="1908" x2="1908" y1="3305.75" y2="3385.75"/><polygon fill="#181818" points="1892,3345.75,1908,3385.75,1924,3345.75,1908,3361.75" style="stroke:#181818;stroke-width:4.0;"/><line style="stroke:#181818;stroke-width:4.0;" x1="1474" x2="1474" y1="2576.1563" y2="2656.1563"/><polygon fill="#181818" points="1458,2616.1563,1474,2656.1563,1490,2616.1563,1474,2632.1563" style="stroke:#181818;stroke-width:4.0;"/><line style="stroke:#181818;stroke-width:4.0;" x1="730" x2="730" y1="3836.2344" y2="3976.2344"/><polygon fill="#181818" points="714,3936.2344,730,3976.2344,746,3936.2344,730,3952.2344" style="stroke:#181818;stroke-width:4.0;"/><line style="stroke:#181818;stroke-width:4.0;" x1="730" x2="730" y1="4112.7656" y2="4252.7656"/><polygon fill="#181818" points="714,4212.7656,730,4252.7656,746,4212.7656,730,4228.7656" style="stroke:#181818;stroke-width:4.0;"/><line style="stroke:#181818;stroke-width:4.0;" x1="1538" x2="1538" y1="3974.5" y2="4114.5"/><polygon fill="#181818" points="1522,4074.5,1538,4114.5,1554,4074.5,1538,4090.5" style="stroke:#181818;stroke-width:4.0;"/><line style="stroke:#181818;stroke-width:4.0;" x1="2282" x2="2282" y1="3836.2344" y2="3976.2344"/><polygon fill="#181818" points="2266,3936.2344,2282,3976.2344,2298,3936.2344,2282,3952.2344" style="stroke:#181818;stroke-width:4.0;"/><line style="stroke:#181818;stroke-width:4.0;" x1="2282" x2="2282" y1="4112.7656" y2="4252.7656"/><polygon fill="#181818" points="2266,4212.7656,2282,4252.7656,2298,4212.7656,2282,4228.7656" style="stroke:#181818;stroke-width:4.0;"/><line style="stroke:#181818;stroke-width:4.0;" x1="730" x2="730" y1="3625.7031" y2="3699.7031"/><polygon fill="#181818" points="714,3659.7031,730,3699.7031,746,3659.7031,730,3675.7031" style="stroke:#181818;stroke-width:4.0;"/><line style="stroke:#181818;stroke-width:4.0;" x1="1538" x2="1538" y1="3625.7031" y2="3837.9688"/><polygon fill="#181818" points="1522,3797.9688,1538,3837.9688,1554,3797.9688,1538,3813.9688" style="stroke:#181818;stroke-width:4.0;"/><line style="stroke:#181818;stroke-width:4.0;" x1="2282" x2="2282" y1="3625.7031" y2="3699.7031"/><polygon fill="#181818" points="2266,3659.7031,2282,3699.7031,2298,3659.7031,2282,3675.7031" style="stroke:#181818;stroke-width:4.0;"/><line style="stroke:#181818;stroke-width:4.0;" x1="730" x2="730" y1="4389.2969" y2="4469.2969"/><polygon fill="#181818" points="714,4429.2969,730,4469.2969,746,4429.2969,730,4445.2969" style="stroke:#181818;stroke-width:4.0;"/><line style="stroke:#181818;stroke-width:4.0;" x1="1538" x2="1538" y1="4251.0313" y2="4469.2969"/><polygon fill="#181818" points="1522,4429.2969,1538,4469.2969,1554,4429.2969,1538,4445.2969" style="stroke:#181818;stroke-width:4.0;"/><line style="stroke:#181818;stroke-width:4.0;" x1="2282" x2="2282" y1="4389.2969" y2="4469.2969"/><polygon fill="#181818" points="2266,4429.2969,2282,4469.2969,2298,4429.2969,2282,4445.2969" style="stroke:#181818;stroke-width:4.0;"/><line style="stroke:#181818;stroke-width:4.0;" x1="1474" x2="1474" y1="3391.75" y2="3619.7031"/><polygon fill="#181818" points="1458,3579.7031,1474,3619.7031,1490,3579.7031,1474,3595.7031" style="stroke:#181818;stroke-width:4.0;"/><line style="stroke:#181818;stroke-width:4.0;" x1="596" x2="596" y1="4919.7813" y2="4999.7813"/><polygon fill="#181818" points="580,4959.7813,596,4999.7813,612,4959.7813,596,4975.7813" style="stroke:#181818;stroke-width:4.0;"/><line style="stroke:#181818;stroke-width:4.0;" x1="596" x2="596" y1="5136.3125" y2="5216.3125"/><polygon fill="#181818" points="580,5176.3125,596,5216.3125,612,5176.3125,596,5192.3125" style="stroke:#181818;stroke-width:4.0;"/><line style="stroke:#181818;stroke-width:4.0;" x1="1518" x2="1518" y1="4919.7813" y2="4999.7813"/><polygon fill="#181818" points="1502,4959.7813,1518,4999.7813,1534,4959.7813,1518,4975.7813" style="stroke:#181818;stroke-width:4.0;"/><line style="stroke:#181818;stroke-width:4.0;" x1="1518" x2="1518" y1="5136.3125" y2="5216.3125"/><polygon fill="#181818" points="1502,5176.3125,1518,5216.3125,1534,5176.3125,1518,5192.3125" style="stroke:#181818;stroke-width:4.0;"/><line style="stroke:#181818;stroke-width:4.0;" x1="2396" x2="2396" y1="4919.7813" y2="4999.7813"/><polygon fill="#181818" points="2380,4959.7813,2396,4999.7813,2412,4959.7813,2396,4975.7813" style="stroke:#181818;stroke-width:4.0;"/><line style="stroke:#181818;stroke-width:4.0;" x1="2396" x2="2396" y1="5136.3125" y2="5216.3125"/><polygon fill="#181818" points="2380,5176.3125,2396,5216.3125,2412,5176.3125,2396,5192.3125" style="stroke:#181818;stroke-width:4.0;"/><line style="stroke:#181818;stroke-width:4.0;" x1="596" x2="596" y1="4709.25" y2="4783.25"/><polygon fill="#181818" points="580,4743.25,596,4783.25,612,4743.25,596,4759.25" style="stroke:#181818;stroke-width:4.0;"/><line style="stroke:#181818;stroke-width:4.0;" x1="1518" x2="1518" y1="4709.25" y2="4783.25"/><polygon fill="#181818" points="1502,4743.25,1518,4783.25,1534,4743.25,1518,4759.25" style="stroke:#181818;stroke-width:4.0;"/><line style="stroke:#181818;stroke-width:4.0;" x1="2396" x2="2396" y1="4709.25" y2="4783.25"/><polygon fill="#181818" points="2380,4743.25,2396,4783.25,2412,4743.25,2396,4759.25" style="stroke:#181818;stroke-width:4.0;"/><line style="stroke:#181818;stroke-width:4.0;" x1="596" x2="596" y1="5352.8438" y2="5432.8438"/><polygon fill="#181818" points="580,5392.8438,596,5432.8438,612,5392.8438,596,5408.8438" style="stroke:#181818;stroke-width:4.0;"/><line style="stroke:#181818;stroke-width:4.0;" x1="1518" x2="1518" y1="5352.8438" y2="5432.8438"/><polygon fill="#181818" points="1502,5392.8438,1518,5432.8438,1534,5392.8438,1518,5408.8438" style="stroke:#181818;stroke-width:4.0;"/><line style="stroke:#181818;stroke-width:4.0;" x1="2396" x2="2396" y1="5352.8438" y2="5432.8438"/><polygon fill="#181818" points="2380,5392.8438,2396,5432.8438,2412,5392.8438,2396,5408.8438" style="stroke:#181818;stroke-width:4.0;"/><line style="stroke:#181818;stroke-width:4.0;" x1="1474" x2="1474" y1="4475.2969" y2="4703.25"/><polygon fill="#181818" points="1458,4663.25,1474,4703.25,1490,4663.25,1474,4679.25" style="stroke:#181818;stroke-width:4.0;"/><line style="stroke:#181818;stroke-width:4.0;" x1="1134" x2="1134" y1="5883.3281" y2="5963.3281"/><polygon fill="#181818" points="1118,5923.3281,1134,5963.3281,1150,5923.3281,1134,5939.3281" style="stroke:#181818;stroke-width:4.0;"/><line style="stroke:#181818;stroke-width:4.0;" x1="1774" x2="1774" y1="5883.3281" y2="5963.3281"/><polygon fill="#181818" points="1758,5923.3281,1774,5963.3281,1790,5923.3281,1774,5939.3281" style="stroke:#181818;stroke-width:4.0;"/><line style="stroke:#181818;stroke-width:4.0;" x1="1134" x2="1134" y1="5672.7969" y2="5746.7969"/><polygon fill="#181818" points="1118,5706.7969,1134,5746.7969,1150,5706.7969,1134,5722.7969" style="stroke:#181818;stroke-width:4.0;"/><line style="stroke:#181818;stroke-width:4.0;" x1="1774" x2="1774" y1="5672.7969" y2="5746.7969"/><polygon fill="#181818" points="1758,5706.7969,1774,5746.7969,1790,5706.7969,1774,5722.7969" style="stroke:#181818;stroke-width:4.0;"/><line style="stroke:#181818;stroke-width:4.0;" x1="1134" x2="1134" y1="6099.8594" y2="6179.8594"/><polygon fill="#181818" points="1118,6139.8594,1134,6179.8594,1150,6139.8594,1134,6155.8594" style="stroke:#181818;stroke-width:4.0;"/><line style="stroke:#181818;stroke-width:4.0;" x1="1774" x2="1774" y1="6099.8594" y2="6179.8594"/><polygon fill="#181818" points="1758,6139.8594,1774,6179.8594,1790,6139.8594,1774,6155.8594" style="stroke:#181818;stroke-width:4.0;"/><line style="stroke:#181818;stroke-width:4.0;" x1="1474" x2="1474" y1="5438.8438" y2="5666.7969"/><polygon fill="#181818" points="1458,5626.7969,1474,5666.7969,1490,5626.7969,1474,5642.7969" style="stroke:#181818;stroke-width:4.0;"/><line style="stroke:#181818;stroke-width:4.0;" x1="1104" x2="1104" y1="6630.3438" y2="6770.3438"/><polygon fill="#181818" points="1088,6730.3438,1104,6770.3438,1120,6730.3438,1104,6746.3438" style="stroke:#181818;stroke-width:4.0;"/><line style="stroke:#181818;stroke-width:4.0;" x1="1104" x2="1104" y1="6906.875" y2="7046.875"/><polygon fill="#181818" points="1088,7006.875,1104,7046.875,1120,7006.875,1104,7022.875" style="stroke:#181818;stroke-width:4.0;"/><line style="stroke:#181818;stroke-width:4.0;" x1="1104" x2="1104" y1="7183.4063" y2="7323.4063"/><polygon fill="#181818" points="1088,7283.4063,1104,7323.4063,1120,7283.4063,1104,7299.4063" style="stroke:#181818;stroke-width:4.0;"/><line style="stroke:#181818;stroke-width:4.0;" x1="1842" x2="1842" y1="6768.6094" y2="6908.6094"/><polygon fill="#181818" points="1826,6868.6094,1842,6908.6094,1858,6868.6094,1842,6884.6094" style="stroke:#181818;stroke-width:4.0;"/><line style="stroke:#181818;stroke-width:4.0;" x1="1842" x2="1842" y1="7045.1406" y2="7185.1406"/><polygon fill="#181818" points="1826,7145.1406,1842,7185.1406,1858,7145.1406,1842,7161.1406" style="stroke:#181818;stroke-width:4.0;"/><line style="stroke:#181818;stroke-width:4.0;" x1="1104" x2="1104" y1="6419.8125" y2="6493.8125"/><polygon fill="#181818" points="1088,6453.8125,1104,6493.8125,1120,6453.8125,1104,6469.8125" style="stroke:#181818;stroke-width:4.0;"/><line style="stroke:#181818;stroke-width:4.0;" x1="1842" x2="1842" y1="6419.8125" y2="6632.0781"/><polygon fill="#181818" points="1826,6592.0781,1842,6632.0781,1858,6592.0781,1842,6608.0781" style="stroke:#181818;stroke-width:4.0;"/><line style="stroke:#181818;stroke-width:4.0;" x1="1104" x2="1104" y1="7459.9375" y2="7539.9375"/><polygon fill="#181818" points="1088,7499.9375,1104,7539.9375,1120,7499.9375,1104,7515.9375" style="stroke:#181818;stroke-width:4.0;"/><line style="stroke:#181818;stroke-width:4.0;" x1="1842" x2="1842" y1="7321.6719" y2="7539.9375"/><polygon fill="#181818" points="1826,7499.9375,1842,7539.9375,1858,7499.9375,1842,7515.9375" style="stroke:#181818;stroke-width:4.0;"/><line style="stroke:#181818;stroke-width:4.0;" x1="1474" x2="1474" y1="6185.8594" y2="6413.8125"/><polygon fill="#181818" points="1458,6373.8125,1474,6413.8125,1490,6373.8125,1474,6389.8125" style="stroke:#181818;stroke-width:4.0;"/><line style="stroke:#181818;stroke-width:4.0;" x1="1474" x2="1474" y1="7910.4219" y2="7990.4219"/><polygon fill="#181818" points="1458,7950.4219,1474,7990.4219,1490,7950.4219,1474,7966.4219" style="stroke:#181818;stroke-width:4.0;"/><line style="stroke:#181818;stroke-width:4.0;" x1="1474" x2="1474" y1="8126.9531" y2="8206.9531"/><polygon fill="#181818" points="1458,8166.9531,1474,8206.9531,1490,8166.9531,1474,8182.9531" style="stroke:#181818;stroke-width:4.0;"/><line style="stroke:#181818;stroke-width:4.0;" x1="1474" x2="1474" y1="8343.4844" y2="8423.4844"/><polygon fill="#181818" points="1458,8383.4844,1474,8423.4844,1490,8383.4844,1474,8399.4844" style="stroke:#181818;stroke-width:4.0;"/><line style="stroke:#181818;stroke-width:4.0;" x1="1474" x2="1474" y1="8560.0156" y2="8640.0156"/><polygon fill="#181818" points="1458,8600.0156,1474,8640.0156,1490,8600.0156,1474,8616.0156" style="stroke:#181818;stroke-width:4.0;"/><line style="stroke:#181818;stroke-width:4.0;" x1="1474" x2="1474" y1="8776.5469" y2="8856.5469"/><polygon fill="#181818" points="1458,8816.5469,1474,8856.5469,1490,8816.5469,1474,8832.5469" style="stroke:#181818;stroke-width:4.0;"/><line style="stroke:#181818;stroke-width:4.0;" x1="1474" x2="1474" y1="8993.0781" y2="9073.0781"/><polygon fill="#181818" points="1458,9033.0781,1474,9073.0781,1490,9033.0781,1474,9049.0781" style="stroke:#181818;stroke-width:4.0;"/><line style="stroke:#181818;stroke-width:4.0;" x1="1474" x2="1474" y1="7545.9375" y2="7773.8906"/><polygon fill="#181818" points="1458,7733.8906,1474,7773.8906,1490,7733.8906,1474,7749.8906" style="stroke:#181818;stroke-width:4.0;"/><line style="stroke:#181818;stroke-width:4.0;" x1="1474" x2="1474" y1="120" y2="423.9063"/><polygon fill="#181818" points="1458,383.9063,1474,423.9063,1490,383.9063,1474,399.9063" style="stroke:#181818;stroke-width:4.0;"/><line style="stroke:#181818;stroke-width:4.0;" x1="1474" x2="1474" y1="9209.6094" y2="9385.6094"/><polygon fill="#181818" points="1458,9345.6094,1474,9385.6094,1490,9345.6094,1474,9361.6094" style="stroke:#181818;stroke-width:4.0;"/><!--MD5=[e76d4e3344a2253a09ca633b2c8aecf9]
@startuml weeklyReview
scale 5
!pragma useVerticalIf on

start
partition #Moccasin "Weekly review " {
    partition #LightSkyBlue "**1. Declutter** " {
        :**Physical space**;
        split
        :Clean desk and workspace;
        split again
        :Tidy random items;
        split again
        :Remove garbage and recycling;
        end split
        
        :**Mental space**;
        split
            :Emails (//Mail//);
            :Archive, tag, delete;
        split again
            :Text messages (//Messages//);
            ://Slack//;
            ://WhatsApp//;
            :Reply, archive;
        split again
            :Idea dump (personal/professional);
            ://Apple Notes//;
            ://Apple Reminders//;
        end split

        :**Digital space**;
        split
            :File away items from desktop;
        split again
            :Run desktop cleaner tools (optimize storage);
            :Remove large, unused files;
            :Optimize backup storage;
        end split
    }

    partition #TECHNOLOGY "**2. Reflect** " {
        split
            :**Todos** (//Apple Reminders//);
            :Review completed tasks;
            :Jot down small wins;
        split again
            :**Calendar** (//Apple Calendar//);
            :Review all items;
        split again
            :**Notes** (//Apple Notes//);
            :Review all notes;
            :Archive, tag, delete;
        end split
    }

    partition #GoldenRod "**3. Check goals and projects** " {
        split
            :**Goals**;
            :Review weekly progress;
            :Adjust to meet monthly/annual goals;
        split again
            :**Areas of responsibilities**;
            :At home;
            :At work;
        split again
            :**Key metrics**;
            :Track progress on large projects;
            :Revise tasks, re-prioritize;
        end split
    }

    partition #Thistle "**4. Plan ahead** " {
        split
            :**Tasks**;
            :Plan out the week;
        split again
            :**Goals**;
            :Set weekly objectives;
        end split
    }

    partition #Cornsilk "**5. Map the future** " {
        split
            :**Review existing items**;
            ://Apple Reminders//;
            ://Apple Calendar//;
            ://Apple Notes//;
        split again
            :**Update future plans**;
            ://Apple Notes//;
            :VS Code (//life-trail// repo);
        end split
    }

    partition #Salmon "**6. Question the status quo** " {
        ://How do I feel I did this week overall?//;
        ://What enabled me to reach my goals this week?//;
        ://Has anything stopped me from reaching my goals this week?//;
        ://Which actions did I take this week that will propel me towards my long-term goals?//;
        ://How can I improve for next week?//;
        ://What can I do next week that will set me up for my long-term goals?//;
        ://What should I plan for in the next month? Year? 5 Years?//;
    }
}
end
@enduml

PlantUML version 1.2022.7(Mon Aug 22 12:01:30 CDT 2022)
(GPL source distribution)
Java Runtime: OpenJDK Runtime Environment
JVM: OpenJDK 64-Bit Server VM
Default Encoding: UTF-8
Language: en
Country: MX
--></g></svg>