<svg width="2866" height="1664" viewBox="0 0 2866 1664" fill="none" xmlns="http://www.w3.org/2000/svg">
<rect width="2866" height="1664" fill="#282923"/>
<path d="M2788.51 511.409L2748.51 488.315V534.503L2788.51 511.409ZM77.5208 515.409H2752.51V507.409H77.5208V515.409Z" fill="#E5F1FF"/>
<line x1="2624.65" y1="469.087" x2="2624.65" y2="553.73" stroke="#E5F1FF" stroke-width="9"/>
<path d="M2788.49 1136.83L2748.49 1113.74V1159.92L2788.49 1136.83ZM77.5063 1140.83H2752.49V1132.83H77.5063V1140.83Z" fill="#E5F1FF"/>
<line x1="2624.64" y1="1094.51" x2="2624.64" y2="1179.15" stroke="#E5F1FF" stroke-width="9"/>
<rect y="680.894" width="2866" height="297.427" fill="#99CAFF"/>
<circle cx="363.153" cy="510.95" r="54.5414" fill="#FFC005" stroke="#E5F1FF" stroke-width="8"/>
<circle cx="600.267" cy="510.95" r="54.5414" fill="#3395FF" stroke="#E5F1FF" stroke-width="8"/>
<circle cx="600.267" cy="1134.46" r="54.5414" fill="#3395FF" stroke="#E5F1FF" stroke-width="8"/>
<circle cx="837.382" cy="1134.46" r="54.5414" fill="#FFC005" stroke="#E5F1FF" stroke-width="8"/>
<path d="M821.364 866V817.318H805.136V808.727H821.364V804.909C821.364 799.755 823.368 795.777 827.377 792.977C831.45 790.114 836.477 788.682 842.459 788.682C845.386 788.682 847.995 788.936 850.286 789.445C852.641 789.955 854.741 790.527 856.586 791.164L854.677 799.182C853.277 798.736 851.559 798.323 849.523 797.941C847.55 797.495 845.195 797.273 842.459 797.273C838.959 797.273 836.159 797.877 834.059 799.086C831.959 800.232 830.909 802.141 830.909 804.814V808.727H854.773V817.318H830.909V866H821.364ZM873.901 866V857.409H892.992V817.318H873.901V808.727H902.537V857.409H921.628V866H873.901ZM897.765 798.227C895.346 798.227 893.374 797.845 891.846 797.082C890.383 796.318 889.651 794.886 889.651 792.786V792.118C889.651 789.955 890.383 788.491 891.846 787.727C893.374 786.9 895.346 786.486 897.765 786.486C900.183 786.486 902.124 786.9 903.587 787.727C905.115 788.491 905.878 789.955 905.878 792.118V792.786C905.878 794.886 905.115 796.318 903.587 797.082C902.06 797.845 900.119 798.227 897.765 798.227ZM940.756 866V857.409H959.847V798.227H940.756V789.636H969.393V857.409H988.484V866H940.756ZM1040.93 866.859C1034.63 866.859 1029.73 865.3 1026.23 862.182C1022.73 859.064 1020.98 854.291 1020.98 847.864V817.318H1004.75V808.727H1020.98V789.636H1030.52V808.727H1055.34V817.318H1030.52V847.005C1030.52 850.695 1031.44 853.432 1033.29 855.214C1035.13 856.995 1037.87 857.886 1041.5 857.886C1043.92 857.886 1046.18 857.727 1048.28 857.409C1050.38 857.027 1052.38 856.55 1054.29 855.977L1056.2 864.664C1054.03 865.3 1051.71 865.809 1049.23 866.191C1046.81 866.636 1044.04 866.859 1040.93 866.859ZM1122.39 853.4C1120.67 858.173 1118.06 861.641 1114.56 863.805C1111.06 865.905 1105.68 866.955 1098.43 866.955C1090.85 866.955 1084.97 865.141 1080.77 861.514C1076.57 857.823 1074.47 852.382 1074.47 845.191V829.823C1074.47 822.441 1076.66 816.936 1081.05 813.309C1085.51 809.618 1091.3 807.773 1098.43 807.773C1105.62 807.773 1111.38 809.65 1115.7 813.405C1120.03 817.095 1122.19 822.791 1122.19 830.491V839.273H1084.01V845.286C1084.01 850.059 1085.19 853.527 1087.54 855.691C1089.96 857.791 1093.56 858.841 1098.33 858.841C1102.91 858.841 1106.25 858.205 1108.35 856.932C1110.45 855.659 1112.04 853.591 1113.13 850.727L1122.39 853.4ZM1084.01 829.823V832.114H1112.65V830.682C1112.65 825.527 1111.44 821.773 1109.02 819.418C1106.67 817.064 1103.1 815.886 1098.33 815.886C1093.56 815.886 1089.96 817.032 1087.54 819.323C1085.19 821.55 1084.01 825.05 1084.01 829.823ZM1146.1 866V808.727H1155.64V818.273H1158.5C1159.84 814.645 1161.88 812.005 1164.61 810.35C1167.35 808.632 1170.66 807.773 1174.54 807.773C1178.8 807.773 1182.37 809.205 1185.23 812.068C1188.1 814.868 1189.53 818.845 1189.53 824V832.591H1180.46V827.436C1180.46 823.809 1179.63 821.136 1177.98 819.418C1176.39 817.7 1173.94 816.841 1170.63 816.841C1167.64 816.841 1164.9 817.573 1162.42 819.036C1160 820.5 1157.74 822.791 1155.64 825.909V866H1146.1ZM1251.13 886.045C1241.14 883.691 1233.06 878.25 1226.89 869.723C1220.78 861.195 1217.72 850.409 1217.72 837.364C1217.72 824.318 1220.78 813.532 1226.89 805.005C1233.06 796.477 1241.14 791.036 1251.13 788.682L1252.09 796.127C1243.56 798.482 1237.29 803.414 1233.28 810.923C1229.27 818.368 1227.27 827.182 1227.27 837.364C1227.27 847.545 1229.27 856.391 1233.28 863.9C1237.29 871.345 1243.56 876.245 1252.09 878.6L1251.13 886.045ZM1313.12 866L1298.32 844.141L1284.2 866H1273.6L1293.65 837.268L1274.27 808.727H1284.96L1299.18 829.727L1313.6 808.727H1324.19L1303.96 836.791L1323.81 866H1313.12ZM1405.88 824V814.455H1459.34V824H1405.88ZM1405.88 850.727V841.182H1459.34V850.727H1405.88ZM1475.6 864.091V855.023L1515.69 832.591L1475.6 810.159V801.091L1523.33 827.818V837.364L1475.6 864.091ZM1647.4 866L1632.6 844.141L1618.47 866H1607.88L1627.92 837.268L1608.55 808.727H1619.24L1633.46 829.727L1647.87 808.727H1658.47L1638.23 836.791L1658.09 866H1647.4ZM1743.02 864.091V855.023L1783.11 832.591L1743.02 810.159V801.091L1790.75 827.818V837.364L1743.02 864.091ZM1879.6 866V857.409H1900.6V801.091H1897.83C1895.66 804.909 1892.86 807.614 1889.43 809.205C1886.06 810.795 1882.14 811.209 1877.69 810.445L1876.73 801.091C1881.63 801.664 1886.12 800.995 1890.19 799.086C1894.26 797.114 1897.83 793.964 1900.88 789.636H1910.14V857.409H1929.23V866H1879.6ZM1967.45 866.955C1959.05 866.955 1952.66 864.155 1948.27 858.555C1943.87 852.891 1941.68 844.65 1941.68 833.832V822.186C1941.68 811.241 1943.87 802.936 1948.27 797.273C1952.66 791.545 1959.08 788.682 1967.55 788.682C1975.95 788.682 1982.31 791.545 1986.64 797.273C1991.03 802.936 1993.22 811.241 1993.22 822.186V833.832C1993.22 844.65 1991.03 852.891 1986.64 858.555C1982.25 864.155 1975.85 866.955 1967.45 866.955ZM1967.45 858.364C1973.24 858.364 1977.38 856.455 1979.86 852.636C1982.41 848.818 1983.68 842.55 1983.68 833.832V822.186C1983.68 813.277 1982.41 806.914 1979.86 803.095C1977.38 799.214 1973.24 797.273 1967.45 797.273C1961.66 797.273 1957.49 799.214 1954.95 803.095C1952.47 806.914 1951.22 813.277 1951.22 822.186V833.832C1951.22 842.55 1952.47 848.818 1954.95 852.636C1957.49 856.455 1961.66 858.364 1967.45 858.364ZM1967.45 835.264C1965.42 835.264 1963.76 834.914 1962.49 834.214C1961.22 833.514 1960.58 832.177 1960.58 830.205V825.527C1960.58 823.618 1961.22 822.314 1962.49 821.614C1963.76 820.85 1965.42 820.468 1967.45 820.468C1969.49 820.468 1971.11 820.85 1972.32 821.614C1973.59 822.314 1974.23 823.618 1974.23 825.527V830.205C1974.23 832.177 1973.59 833.514 1972.32 834.214C1971.05 834.914 1969.42 835.264 1967.45 835.264ZM2015.22 886.045L2014.26 878.6C2022.79 876.245 2029.06 871.314 2033.07 863.805C2037.08 856.232 2039.08 847.418 2039.08 837.364C2039.08 827.309 2037.08 818.527 2033.07 811.018C2029.06 803.445 2022.79 798.482 2014.26 796.127L2015.22 788.682C2025.21 791.036 2033.26 796.509 2039.37 805.1C2045.54 813.627 2048.63 824.382 2048.63 837.364C2048.63 850.345 2045.54 861.1 2039.37 869.627C2033.26 878.218 2025.21 883.691 2015.22 886.045Z" fill="#001833"/>
<circle cx="1311.61" cy="1134.46" r="54.5414" fill="#3395FF" stroke="#E5F1FF" stroke-width="8"/>
<circle cx="837.382" cy="510.95" r="54.5414" fill="#FFC005" stroke="#E5F1FF" stroke-width="8"/>
<circle cx="1074.5" cy="510.95" r="54.5414" fill="#9CFA53" stroke="#E5F1FF" stroke-width="8"/>
<circle cx="1311.61" cy="510.95" r="54.5414" fill="#3395FF" stroke="#E5F1FF" stroke-width="8"/>
<circle cx="1548.73" cy="510.95" r="54.5414" fill="#9CFA53" stroke="#E5F1FF" stroke-width="8"/>
<path d="M351.068 529.45V526.126L363.551 512.461C365.016 510.861 366.222 509.47 367.17 508.288C368.118 507.094 368.82 505.974 369.275 504.927C369.743 503.869 369.977 502.761 369.977 501.603C369.977 500.274 369.657 499.123 369.017 498.15C368.389 497.178 367.527 496.427 366.431 495.897C365.336 495.368 364.105 495.103 362.738 495.103C361.286 495.103 360.018 495.405 358.934 496.008C357.863 496.599 357.032 497.43 356.441 498.501C355.863 499.572 355.573 500.828 355.573 502.268H351.215C351.215 500.052 351.726 498.107 352.748 496.433C353.77 494.759 355.161 493.454 356.921 492.518C358.694 491.583 360.682 491.115 362.886 491.115C365.102 491.115 367.065 491.583 368.777 492.518C370.488 493.454 371.83 494.716 372.802 496.304C373.775 497.892 374.261 499.658 374.261 501.603C374.261 502.994 374.009 504.355 373.504 505.684C373.011 507.002 372.15 508.473 370.919 510.098C369.7 511.71 368.007 513.68 365.84 516.007L357.346 525.092V525.387H374.926V529.45H351.068Z" fill="#001833"/>
<path d="M809.797 529.45V526.126L822.28 512.461C823.745 510.861 824.951 509.47 825.899 508.288C826.847 507.094 827.549 505.974 828.004 504.927C828.472 503.869 828.706 502.761 828.706 501.603C828.706 500.274 828.386 499.123 827.745 498.15C827.118 497.178 826.256 496.427 825.16 495.897C824.065 495.368 822.834 495.103 821.467 495.103C820.014 495.103 818.746 495.405 817.663 496.008C816.592 496.599 815.761 497.43 815.17 498.501C814.592 499.572 814.302 500.828 814.302 502.268H809.944C809.944 500.052 810.455 498.107 811.477 496.433C812.499 494.759 813.89 493.454 815.65 492.518C817.423 491.583 819.411 491.115 821.615 491.115C823.831 491.115 825.794 491.583 827.505 492.518C829.217 493.454 830.558 494.716 831.531 496.304C832.504 497.892 832.99 499.658 832.99 501.603C832.99 502.994 832.737 504.355 832.233 505.684C831.74 507.002 830.879 508.473 829.647 510.098C828.429 511.71 826.736 513.68 824.569 516.007L816.075 525.092V525.387H833.655V529.45H809.797ZM841.281 529.45V526.126L853.764 512.461C855.229 510.861 856.435 509.47 857.383 508.288C858.331 507.094 859.033 505.974 859.488 504.927C859.956 503.869 860.19 502.761 860.19 501.603C860.19 500.274 859.87 499.123 859.23 498.15C858.602 497.178 857.74 496.427 856.645 495.897C855.549 495.368 854.318 495.103 852.951 495.103C851.499 495.103 850.231 495.405 849.147 496.008C848.076 496.599 847.245 497.43 846.655 498.501C846.076 499.572 845.787 500.828 845.787 502.268H841.429C841.429 500.052 841.94 498.107 842.961 496.433C843.983 494.759 845.374 493.454 847.135 492.518C848.907 491.583 850.896 491.115 853.099 491.115C855.315 491.115 857.279 491.583 858.99 492.518C860.701 493.454 862.043 494.716 863.015 496.304C863.988 497.892 864.474 499.658 864.474 501.603C864.474 502.994 864.222 504.355 863.717 505.684C863.225 507.002 862.363 508.473 861.132 510.098C859.913 511.71 858.22 513.68 856.054 516.007L847.559 525.092V525.387H865.139V529.45H841.281Z" fill="#001833"/>
<path d="M809.797 1152.96V1149.64L822.28 1135.97C823.745 1134.37 824.951 1132.98 825.899 1131.8C826.847 1130.61 827.549 1129.49 828.004 1128.44C828.472 1127.38 828.706 1126.27 828.706 1125.12C828.706 1123.79 828.386 1122.64 827.745 1121.66C827.118 1120.69 826.256 1119.94 825.16 1119.41C824.065 1118.88 822.834 1118.62 821.467 1118.62C820.014 1118.62 818.746 1118.92 817.663 1119.52C816.592 1120.11 815.761 1120.94 815.17 1122.01C814.592 1123.09 814.302 1124.34 814.302 1125.78H809.944C809.944 1123.57 810.455 1121.62 811.477 1119.95C812.499 1118.27 813.89 1116.97 815.65 1116.03C817.423 1115.1 819.411 1114.63 821.615 1114.63C823.831 1114.63 825.794 1115.1 827.505 1116.03C829.217 1116.97 830.558 1118.23 831.531 1119.82C832.504 1121.4 832.99 1123.17 832.99 1125.12C832.99 1126.51 832.737 1127.87 832.233 1129.2C831.74 1130.51 830.879 1131.99 829.647 1133.61C828.429 1135.22 826.736 1137.19 824.569 1139.52L816.075 1148.61V1148.9H833.655V1152.96H809.797ZM841.281 1152.96V1149.64L853.764 1135.97C855.229 1134.37 856.435 1132.98 857.383 1131.8C858.331 1130.61 859.033 1129.49 859.488 1128.44C859.956 1127.38 860.19 1126.27 860.19 1125.12C860.19 1123.79 859.87 1122.64 859.23 1121.66C858.602 1120.69 857.74 1119.94 856.645 1119.41C855.549 1118.88 854.318 1118.62 852.951 1118.62C851.499 1118.62 850.231 1118.92 849.147 1119.52C848.076 1120.11 847.245 1120.94 846.655 1122.01C846.076 1123.09 845.787 1124.34 845.787 1125.78H841.429C841.429 1123.57 841.94 1121.62 842.961 1119.95C843.983 1118.27 845.374 1116.97 847.135 1116.03C848.907 1115.1 850.896 1114.63 853.099 1114.63C855.315 1114.63 857.279 1115.1 858.99 1116.03C860.701 1116.97 862.043 1118.23 863.015 1119.82C863.988 1121.4 864.474 1123.17 864.474 1125.12C864.474 1126.51 864.222 1127.87 863.717 1129.2C863.225 1130.51 862.363 1131.99 861.132 1133.61C859.913 1135.22 858.22 1137.19 856.054 1139.52L847.559 1148.61V1148.9H865.139V1152.96H841.281Z" fill="#001833"/>
<path d="M583.961 529.967C581.523 529.967 579.35 529.548 577.442 528.711C575.546 527.874 574.038 526.711 572.918 525.221C571.81 523.719 571.207 521.977 571.108 519.995H575.762C575.86 521.214 576.279 522.267 577.017 523.153C577.756 524.027 578.722 524.704 579.917 525.184C581.111 525.664 582.434 525.905 583.887 525.905C585.512 525.905 586.952 525.621 588.208 525.055C589.463 524.489 590.448 523.701 591.162 522.691C591.876 521.682 592.233 520.512 592.233 519.183C592.233 517.792 591.889 516.567 591.199 515.508C590.51 514.437 589.5 513.6 588.171 512.997C586.841 512.394 585.216 512.092 583.296 512.092H580.267V508.03H583.296C584.798 508.03 586.115 507.759 587.248 507.217C588.392 506.675 589.285 505.912 589.925 504.927C590.578 503.942 590.904 502.785 590.904 501.456C590.904 500.175 590.621 499.061 590.054 498.113C589.488 497.165 588.688 496.427 587.654 495.897C586.632 495.368 585.426 495.103 584.035 495.103C582.73 495.103 581.499 495.343 580.341 495.824C579.196 496.291 578.261 496.975 577.535 497.873C576.808 498.76 576.414 499.831 576.353 501.086H571.921C571.995 499.104 572.592 497.369 573.712 495.879C574.832 494.377 576.297 493.208 578.107 492.37C579.929 491.533 581.929 491.115 584.108 491.115C586.447 491.115 588.454 491.589 590.128 492.537C591.802 493.472 593.089 494.709 593.988 496.248C594.886 497.787 595.336 499.449 595.336 501.234C595.336 503.364 594.776 505.18 593.655 506.682C592.547 508.183 591.039 509.224 589.131 509.802V510.098C591.519 510.492 593.384 511.507 594.726 513.145C596.068 514.77 596.739 516.782 596.739 519.183C596.739 521.239 596.179 523.085 595.059 524.723C593.951 526.348 592.436 527.628 590.516 528.564C588.596 529.499 586.41 529.967 583.961 529.967ZM616.627 529.967C613.845 529.967 611.475 529.21 609.517 527.696C607.56 526.169 606.064 523.959 605.03 521.066C603.996 518.161 603.479 514.653 603.479 510.541C603.479 506.454 603.996 502.964 605.03 500.071C606.077 497.165 607.579 494.95 609.536 493.423C611.506 491.884 613.869 491.115 616.627 491.115C619.384 491.115 621.742 491.884 623.699 493.423C625.669 494.95 627.171 497.165 628.205 500.071C629.251 502.964 629.775 506.454 629.775 510.541C629.775 514.653 629.258 518.161 628.223 521.066C627.189 523.959 625.694 526.169 623.736 527.696C621.779 529.21 619.409 529.967 616.627 529.967ZM616.627 525.905C619.384 525.905 621.526 524.575 623.053 521.916C624.579 519.257 625.343 515.465 625.343 510.541C625.343 507.266 624.992 504.478 624.29 502.176C623.601 499.874 622.604 498.119 621.299 496.913C620.006 495.707 618.449 495.103 616.627 495.103C613.894 495.103 611.758 496.451 610.219 499.147C608.68 501.831 607.911 505.629 607.911 510.541C607.911 513.816 608.256 516.598 608.945 518.887C609.634 521.177 610.625 522.919 611.918 524.113C613.223 525.307 614.793 525.905 616.627 525.905Z" fill="#001833"/>
<path d="M583.961 1153.48C581.523 1153.48 579.35 1153.06 577.442 1152.22C575.546 1151.39 574.038 1150.22 572.918 1148.73C571.81 1147.23 571.207 1145.49 571.108 1143.51H575.762C575.86 1144.73 576.279 1145.78 577.017 1146.67C577.756 1147.54 578.722 1148.22 579.917 1148.7C581.111 1149.18 582.434 1149.42 583.887 1149.42C585.512 1149.42 586.952 1149.13 588.208 1148.57C589.463 1148 590.448 1147.21 591.162 1146.2C591.876 1145.2 592.233 1144.03 592.233 1142.7C592.233 1141.3 591.889 1140.08 591.199 1139.02C590.51 1137.95 589.5 1137.11 588.171 1136.51C586.841 1135.91 585.216 1135.61 583.296 1135.61H580.267V1131.54H583.296C584.798 1131.54 586.115 1131.27 587.248 1130.73C588.392 1130.19 589.285 1129.43 589.925 1128.44C590.578 1127.46 590.904 1126.3 590.904 1124.97C590.904 1123.69 590.621 1122.57 590.054 1121.63C589.488 1120.68 588.688 1119.94 587.654 1119.41C586.632 1118.88 585.426 1118.62 584.035 1118.62C582.73 1118.62 581.499 1118.86 580.341 1119.34C579.196 1119.8 578.261 1120.49 577.535 1121.39C576.808 1122.27 576.414 1123.34 576.353 1124.6H571.921C571.995 1122.62 572.592 1120.88 573.712 1119.39C574.832 1117.89 576.297 1116.72 578.107 1115.88C579.929 1115.05 581.929 1114.63 584.108 1114.63C586.447 1114.63 588.454 1115.1 590.128 1116.05C591.802 1116.99 593.089 1118.22 593.988 1119.76C594.886 1121.3 595.336 1122.96 595.336 1124.75C595.336 1126.88 594.776 1128.69 593.655 1130.19C592.547 1131.7 591.039 1132.74 589.131 1133.32V1133.61C591.519 1134 593.384 1135.02 594.726 1136.66C596.068 1138.28 596.739 1140.3 596.739 1142.7C596.739 1144.75 596.179 1146.6 595.059 1148.24C593.951 1149.86 592.436 1151.14 590.516 1152.08C588.596 1153.01 586.41 1153.48 583.961 1153.48ZM616.627 1153.48C613.845 1153.48 611.475 1152.72 609.517 1151.21C607.56 1149.68 606.064 1147.47 605.03 1144.58C603.996 1141.67 603.479 1138.17 603.479 1134.05C603.479 1129.97 603.996 1126.48 605.03 1123.58C606.077 1120.68 607.579 1118.46 609.536 1116.94C611.506 1115.4 613.869 1114.63 616.627 1114.63C619.384 1114.63 621.742 1115.4 623.699 1116.94C625.669 1118.46 627.171 1120.68 628.205 1123.58C629.251 1126.48 629.775 1129.97 629.775 1134.05C629.775 1138.17 629.258 1141.67 628.223 1144.58C627.189 1147.47 625.694 1149.68 623.736 1151.21C621.779 1152.72 619.409 1153.48 616.627 1153.48ZM616.627 1149.42C619.384 1149.42 621.526 1148.09 623.053 1145.43C624.579 1142.77 625.343 1138.98 625.343 1134.05C625.343 1130.78 624.992 1127.99 624.29 1125.69C623.601 1123.39 622.604 1121.63 621.299 1120.43C620.006 1119.22 618.449 1118.62 616.627 1118.62C613.894 1118.62 611.758 1119.96 610.219 1122.66C608.68 1125.34 607.911 1129.14 607.911 1134.05C607.911 1137.33 608.256 1140.11 608.945 1142.4C609.634 1144.69 610.625 1146.43 611.918 1147.63C613.223 1148.82 614.793 1149.42 616.627 1149.42Z" fill="#001833"/>
<path d="M1296.58 529.967C1295.03 529.942 1293.48 529.647 1291.93 529.081C1290.38 528.514 1288.96 527.56 1287.68 526.218C1286.4 524.864 1285.37 523.036 1284.6 520.734C1283.82 518.42 1283.43 515.514 1283.43 512.018C1283.43 508.67 1283.75 505.703 1284.38 503.118C1285 500.52 1285.92 498.335 1287.11 496.562C1288.3 494.777 1289.74 493.423 1291.43 492.5C1293.13 491.576 1295.04 491.115 1297.17 491.115C1299.29 491.115 1301.17 491.539 1302.82 492.389C1304.49 493.226 1305.84 494.396 1306.89 495.897C1307.93 497.399 1308.61 499.129 1308.92 501.086H1304.41C1303.99 499.387 1303.18 497.978 1301.97 496.858C1300.77 495.737 1299.17 495.177 1297.17 495.177C1294.24 495.177 1291.94 496.451 1290.25 499C1288.57 501.548 1287.73 505.124 1287.72 509.728H1288.01C1288.7 508.682 1289.52 507.789 1290.47 507.051C1291.43 506.3 1292.49 505.721 1293.65 505.315C1294.8 504.909 1296.03 504.706 1297.32 504.706C1299.49 504.706 1301.47 505.247 1303.27 506.331C1305.06 507.402 1306.5 508.885 1307.59 510.781C1308.67 512.664 1309.21 514.825 1309.21 517.262C1309.21 519.601 1308.69 521.744 1307.64 523.689C1306.6 525.621 1305.13 527.16 1303.23 528.305C1301.35 529.438 1299.13 529.992 1296.58 529.967ZM1296.58 525.905C1298.13 525.905 1299.52 525.517 1300.76 524.741C1302 523.966 1302.98 522.925 1303.69 521.62C1304.42 520.316 1304.78 518.863 1304.78 517.262C1304.78 515.699 1304.43 514.277 1303.73 512.997C1303.04 511.704 1302.09 510.676 1300.87 509.913C1299.66 509.15 1298.28 508.768 1296.73 508.768C1295.56 508.768 1294.47 509.002 1293.46 509.47C1292.45 509.925 1291.57 510.553 1290.8 511.353C1290.05 512.154 1289.46 513.071 1289.03 514.105C1288.6 515.127 1288.38 516.204 1288.38 517.336C1288.38 518.838 1288.73 520.242 1289.44 521.547C1290.15 522.851 1291.12 523.904 1292.35 524.704C1293.6 525.504 1295.01 525.905 1296.58 525.905ZM1328.81 529.967C1326.03 529.967 1323.66 529.21 1321.7 527.696C1319.74 526.169 1318.25 523.959 1317.21 521.066C1316.18 518.161 1315.66 514.653 1315.66 510.541C1315.66 506.454 1316.18 502.964 1317.21 500.071C1318.26 497.165 1319.76 494.95 1321.72 493.423C1323.69 491.884 1326.05 491.115 1328.81 491.115C1331.57 491.115 1333.93 491.884 1335.88 493.423C1337.85 494.95 1339.35 497.165 1340.39 500.071C1341.43 502.964 1341.96 506.454 1341.96 510.541C1341.96 514.653 1341.44 518.161 1340.41 521.066C1339.37 523.959 1337.88 526.169 1335.92 527.696C1333.96 529.21 1331.59 529.967 1328.81 529.967ZM1328.81 525.905C1331.57 525.905 1333.71 524.575 1335.24 521.916C1336.76 519.257 1337.53 515.465 1337.53 510.541C1337.53 507.266 1337.18 504.478 1336.47 502.176C1335.78 499.874 1334.79 498.119 1333.48 496.913C1332.19 495.707 1330.63 495.103 1328.81 495.103C1326.08 495.103 1323.94 496.451 1322.4 499.147C1320.86 501.831 1320.09 505.629 1320.09 510.541C1320.09 513.816 1320.44 516.598 1321.13 518.887C1321.82 521.177 1322.81 522.919 1324.1 524.113C1325.41 525.307 1326.98 525.905 1328.81 525.905Z" fill="#001833"/>
<path d="M1296.58 1153.48C1295.03 1153.46 1293.48 1153.16 1291.93 1152.59C1290.38 1152.03 1288.96 1151.07 1287.68 1149.73C1286.4 1148.38 1285.37 1146.55 1284.6 1144.25C1283.82 1141.93 1283.43 1139.03 1283.43 1135.53C1283.43 1132.18 1283.75 1129.22 1284.38 1126.63C1285 1124.03 1285.92 1121.85 1287.11 1120.08C1288.3 1118.29 1289.74 1116.94 1291.43 1116.01C1293.13 1115.09 1295.04 1114.63 1297.17 1114.63C1299.29 1114.63 1301.17 1115.05 1302.82 1115.9C1304.49 1116.74 1305.84 1117.91 1306.89 1119.41C1307.93 1120.91 1308.61 1122.64 1308.92 1124.6H1304.41C1303.99 1122.9 1303.18 1121.49 1301.97 1120.37C1300.77 1119.25 1299.17 1118.69 1297.17 1118.69C1294.24 1118.69 1291.94 1119.96 1290.25 1122.51C1288.57 1125.06 1287.73 1128.64 1287.72 1133.24H1288.01C1288.7 1132.2 1289.52 1131.3 1290.47 1130.56C1291.43 1129.81 1292.49 1129.23 1293.65 1128.83C1294.8 1128.42 1296.03 1128.22 1297.32 1128.22C1299.49 1128.22 1301.47 1128.76 1303.27 1129.84C1305.06 1130.91 1306.5 1132.4 1307.59 1134.29C1308.67 1136.18 1309.21 1138.34 1309.21 1140.78C1309.21 1143.11 1308.69 1145.26 1307.64 1147.2C1306.6 1149.13 1305.13 1150.67 1303.23 1151.82C1301.35 1152.95 1299.13 1153.5 1296.58 1153.48ZM1296.58 1149.42C1298.13 1149.42 1299.52 1149.03 1300.76 1148.25C1302 1147.48 1302.98 1146.44 1303.69 1145.13C1304.42 1143.83 1304.78 1142.38 1304.78 1140.78C1304.78 1139.21 1304.43 1137.79 1303.73 1136.51C1303.04 1135.22 1302.09 1134.19 1300.87 1133.43C1299.66 1132.66 1298.28 1132.28 1296.73 1132.28C1295.56 1132.28 1294.47 1132.52 1293.46 1132.98C1292.45 1133.44 1291.57 1134.07 1290.8 1134.87C1290.05 1135.67 1289.46 1136.58 1289.03 1137.62C1288.6 1138.64 1288.38 1139.72 1288.38 1140.85C1288.38 1142.35 1288.73 1143.75 1289.44 1145.06C1290.15 1146.36 1291.12 1147.42 1292.35 1148.22C1293.6 1149.02 1295.01 1149.42 1296.58 1149.42ZM1328.81 1153.48C1326.03 1153.48 1323.66 1152.72 1321.7 1151.21C1319.74 1149.68 1318.25 1147.47 1317.21 1144.58C1316.18 1141.67 1315.66 1138.17 1315.66 1134.05C1315.66 1129.97 1316.18 1126.48 1317.21 1123.58C1318.26 1120.68 1319.76 1118.46 1321.72 1116.94C1323.69 1115.4 1326.05 1114.63 1328.81 1114.63C1331.57 1114.63 1333.93 1115.4 1335.88 1116.94C1337.85 1118.46 1339.35 1120.68 1340.39 1123.58C1341.43 1126.48 1341.96 1129.97 1341.96 1134.05C1341.96 1138.17 1341.44 1141.67 1340.41 1144.58C1339.37 1147.47 1337.88 1149.68 1335.92 1151.21C1333.96 1152.72 1331.59 1153.48 1328.81 1153.48ZM1328.81 1149.42C1331.57 1149.42 1333.71 1148.09 1335.24 1145.43C1336.76 1142.77 1337.53 1138.98 1337.53 1134.05C1337.53 1130.78 1337.18 1127.99 1336.47 1125.69C1335.78 1123.39 1334.79 1121.63 1333.48 1120.43C1332.19 1119.22 1330.63 1118.62 1328.81 1118.62C1326.08 1118.62 1323.94 1119.96 1322.4 1122.66C1320.86 1125.34 1320.09 1129.14 1320.09 1134.05C1320.09 1137.33 1320.44 1140.11 1321.13 1142.4C1321.82 1144.69 1322.81 1146.43 1324.1 1147.63C1325.41 1148.82 1326.98 1149.42 1328.81 1149.42Z" fill="#001833"/>
<path d="M1553.44 491.632V529.45H1548.86V496.433H1548.63L1539.4 502.564V497.91L1548.86 491.632H1553.44Z" fill="#001833"/>
<path d="M1074.23 529.967C1072.06 529.967 1070.11 529.536 1068.38 528.674C1066.64 527.813 1065.25 526.631 1064.2 525.129C1063.16 523.627 1062.58 521.916 1062.49 519.995H1066.92C1067.09 521.707 1067.86 523.122 1069.24 524.243C1070.63 525.351 1072.3 525.905 1074.23 525.905C1075.78 525.905 1077.16 525.541 1078.37 524.815C1079.58 524.089 1080.54 523.092 1081.23 521.824C1081.93 520.543 1082.28 519.097 1082.28 517.484C1082.28 515.834 1081.92 514.363 1081.19 513.071C1080.48 511.766 1079.49 510.738 1078.24 509.987C1076.98 509.236 1075.55 508.854 1073.93 508.842C1072.78 508.83 1071.59 509.008 1070.37 509.378C1069.15 509.735 1068.15 510.196 1067.36 510.762L1063.08 510.245L1065.37 491.632H1085.01V495.694H1069.21L1067.88 506.848H1068.1C1068.87 506.232 1069.85 505.721 1071.02 505.315C1072.19 504.909 1073.4 504.706 1074.67 504.706C1076.99 504.706 1079.05 505.26 1080.86 506.368C1082.68 507.463 1084.11 508.965 1085.14 510.873C1086.19 512.781 1086.71 514.96 1086.71 517.41C1086.71 519.823 1086.17 521.977 1085.09 523.873C1084.02 525.757 1082.54 527.246 1080.66 528.342C1078.77 529.425 1076.63 529.967 1074.23 529.967Z" fill="#001833"/>
<path d="M225.614 411.565C243.837 393.342 270.788 388.811 294.491 381.963C327.964 372.293 364.91 368.679 399.612 368.679C404.692 368.679 411.469 369.84 416.362 368.39C426.595 365.358 439.772 368.679 450.439 368.679C480.82 368.679 511.06 369.979 541.409 369.979C559.248 369.979 577.185 372.361 594.98 373.588C615.619 375.012 636.5 373.922 657.071 375.827C678.847 377.843 701.199 376.476 723.06 376.476C740.96 376.476 759 374.244 776.342 369.69C785.522 367.279 794.811 365.086 803.85 362.181C813.76 358.996 824.565 357.459 833.74 352.434C845.493 345.998 857.936 341.026 870.128 335.54C877.541 332.204 882.624 325.904 889.693 322.183C895.734 319.004 893.495 329.255 893.592 332.869C894.009 348.276 902.515 357.829 914.674 366.08C923.03 371.75 933.629 375.441 942.976 379.076C954.595 383.594 968.096 388.702 980.663 389.4C1020.9 391.635 1061.81 389.472 1102.1 389.472C1121.59 389.472 1141.32 388.525 1160.73 386.873C1184.68 384.834 1208.98 382.637 1232.85 379.653C1264.86 375.652 1296.68 370.599 1328.66 366.369C1354.14 362.998 1380.52 364.78 1406.2 364.78C1421.89 364.78 1437.58 364.646 1453.27 364.78C1474.79 364.964 1497.22 364.793 1518.68 366.369C1538.94 367.855 1559.77 368.329 1579.76 371.928C1588.97 373.585 1598.53 374.066 1607.63 375.971C1616.19 377.761 1624.42 381.358 1632.9 383.48C1642.54 385.89 1658.22 396.938 1662.94 406.366" stroke="#FF8C8C" stroke-width="10" stroke-linecap="round"/>
<path d="M694.791 296.221V255.311H701.076V296.221H694.791ZM697.987 248.493C696.762 248.493 695.705 248.076 694.817 247.241C693.947 246.407 693.512 245.404 693.512 244.232C693.512 243.06 693.947 242.057 694.817 241.222C695.705 240.388 696.762 239.971 697.987 239.971C699.212 239.971 700.259 240.388 701.129 241.222C702.017 242.057 702.461 243.06 702.461 244.232C702.461 245.404 702.017 246.407 701.129 247.241C700.259 248.076 699.212 248.493 697.987 248.493ZM718.874 271.611V296.221H712.589V255.311H718.661V261.703H719.194C720.152 259.626 721.608 257.957 723.562 256.696C725.515 255.418 728.036 254.779 731.125 254.779C733.895 254.779 736.319 255.347 738.396 256.483C740.474 257.602 742.09 259.306 743.244 261.597C744.398 263.87 744.975 266.746 744.975 270.226V296.221H738.689V270.652C738.689 267.439 737.855 264.935 736.186 263.142C734.517 261.331 732.226 260.425 729.314 260.425C727.308 260.425 725.515 260.86 723.934 261.73C722.372 262.6 721.138 263.87 720.232 265.539C719.327 267.208 718.874 269.232 718.874 271.611ZM756.461 311.561V255.311H762.533V261.81H763.279C763.74 261.1 764.38 260.194 765.196 259.093C766.031 257.975 767.221 256.98 768.765 256.11C770.328 255.223 772.441 254.779 775.104 254.779C778.549 254.779 781.585 255.64 784.213 257.362C786.841 259.085 788.891 261.526 790.365 264.686C791.839 267.847 792.576 271.576 792.576 275.873C792.576 280.205 791.839 283.96 790.365 287.138C788.891 290.299 786.849 292.749 784.239 294.489C781.629 296.212 778.62 297.073 775.211 297.073C772.583 297.073 770.479 296.638 768.898 295.768C767.318 294.88 766.102 293.877 765.25 292.758C764.397 291.622 763.74 290.681 763.279 289.935H762.746V311.561H756.461ZM762.64 275.766C762.64 278.855 763.092 281.581 763.998 283.942C764.903 286.286 766.226 288.124 767.966 289.456C769.706 290.77 771.837 291.426 774.358 291.426C776.986 291.426 779.179 290.734 780.937 289.349C782.712 287.946 784.044 286.064 784.932 283.703C785.837 281.324 786.29 278.678 786.29 275.766C786.29 272.89 785.846 270.297 784.958 267.989C784.088 265.663 782.766 263.825 780.99 262.476C779.232 261.109 777.022 260.425 774.358 260.425C771.802 260.425 769.653 261.073 767.913 262.369C766.173 263.648 764.859 265.441 763.971 267.749C763.083 270.04 762.64 272.712 762.64 275.766ZM827.945 279.495V255.311H834.23V296.221H827.945V289.296H827.519C826.56 291.373 825.069 293.14 823.044 294.596C821.02 296.034 818.463 296.753 815.374 296.753C812.817 296.753 810.544 296.194 808.556 295.075C806.567 293.939 805.005 292.234 803.868 289.962C802.732 287.671 802.164 284.786 802.164 281.306V255.311H808.449V280.88C808.449 283.863 809.284 286.242 810.953 288.017C812.64 289.793 814.788 290.681 817.398 290.681C818.961 290.681 820.55 290.281 822.166 289.482C823.799 288.683 825.166 287.458 826.267 285.807C827.386 284.156 827.945 282.051 827.945 279.495ZM863.534 255.311V260.638H842.334V255.311H863.534ZM848.513 245.51H854.798V284.502C854.798 286.277 855.056 287.609 855.571 288.497C856.103 289.367 856.778 289.953 857.595 290.255C858.429 290.539 859.308 290.681 860.231 290.681C860.924 290.681 861.492 290.645 861.936 290.574C862.38 290.485 862.735 290.414 863.001 290.361L864.28 296.007C863.854 296.167 863.259 296.327 862.495 296.487C861.732 296.664 860.764 296.753 859.592 296.753C857.817 296.753 856.077 296.371 854.372 295.608C852.685 294.844 851.283 293.681 850.164 292.119C849.063 290.556 848.513 288.586 848.513 286.206V245.51ZM923.06 264.473L917.414 266.071C917.059 265.13 916.535 264.216 915.842 263.328C915.168 262.423 914.244 261.677 913.072 261.091C911.901 260.505 910.4 260.212 908.571 260.212C906.068 260.212 903.981 260.789 902.312 261.943C900.661 263.08 899.836 264.527 899.836 266.284C899.836 267.847 900.404 269.081 901.54 269.986C902.676 270.892 904.452 271.647 906.867 272.25L912.939 273.742C916.597 274.63 919.322 275.988 921.116 277.817C922.909 279.628 923.806 281.963 923.806 284.821C923.806 287.165 923.131 289.26 921.782 291.107C920.45 292.953 918.586 294.409 916.188 295.475C913.791 296.54 911.004 297.073 907.826 297.073C903.653 297.073 900.2 296.167 897.465 294.356C894.731 292.545 893 289.899 892.272 286.419L898.238 284.928C898.806 287.13 899.88 288.781 901.46 289.882C903.058 290.983 905.144 291.533 907.719 291.533C910.649 291.533 912.975 290.912 914.697 289.669C916.437 288.408 917.307 286.899 917.307 285.141C917.307 283.721 916.81 282.531 915.816 281.572C914.821 280.596 913.294 279.868 911.235 279.388L904.416 277.79C900.67 276.902 897.918 275.526 896.16 273.662C894.42 271.78 893.55 269.427 893.55 266.604C893.55 264.296 894.198 262.254 895.494 260.478C896.808 258.703 898.593 257.309 900.848 256.297C903.12 255.285 905.695 254.779 908.571 254.779C912.62 254.779 915.798 255.667 918.106 257.442C920.432 259.218 922.083 261.561 923.06 264.473ZM951.058 255.311V260.638H929.858V255.311H951.058ZM936.037 245.51H942.323V284.502C942.323 286.277 942.58 287.609 943.095 288.497C943.628 289.367 944.302 289.953 945.119 290.255C945.954 290.539 946.833 290.681 947.756 290.681C948.448 290.681 949.017 290.645 949.46 290.574C949.904 290.485 950.259 290.414 950.526 290.361L951.804 296.007C951.378 296.167 950.783 296.327 950.02 296.487C949.256 296.664 948.289 296.753 947.117 296.753C945.341 296.753 943.601 296.371 941.897 295.608C940.21 294.844 938.807 293.681 937.688 292.119C936.588 290.556 936.037 288.586 936.037 286.206V245.51ZM960.513 296.221V255.311H966.586V261.49H967.012C967.758 259.466 969.107 257.824 971.06 256.563C973.013 255.303 975.215 254.672 977.665 254.672C978.127 254.672 978.704 254.681 979.397 254.699C980.089 254.717 980.613 254.743 980.968 254.779V261.171C980.755 261.118 980.267 261.038 979.503 260.931C978.757 260.807 977.967 260.745 977.133 260.745C975.144 260.745 973.368 261.162 971.806 261.996C970.261 262.813 969.036 263.95 968.131 265.406C967.243 266.844 966.799 268.486 966.799 270.333V296.221H960.513ZM1004.33 297.073C1000.38 297.073 996.984 296.203 994.125 294.463C991.284 292.705 989.091 290.255 987.546 287.112C986.019 283.951 985.256 280.276 985.256 276.086C985.256 271.895 986.019 268.202 987.546 265.006C989.091 261.792 991.24 259.289 993.992 257.495C996.762 255.684 999.993 254.779 1003.69 254.779C1005.82 254.779 1007.92 255.134 1010 255.844C1012.08 256.554 1013.97 257.708 1015.67 259.306C1017.38 260.887 1018.73 262.982 1019.75 265.592C1020.76 268.202 1021.26 271.416 1021.26 275.233V277.897H989.73V272.463H1014.87C1014.87 270.155 1014.41 268.096 1013.49 266.284C1012.58 264.473 1011.29 263.044 1009.6 261.996C1007.93 260.949 1005.96 260.425 1003.69 260.425C1001.18 260.425 999.017 261.047 997.188 262.289C995.377 263.515 993.983 265.113 993.006 267.083C992.03 269.054 991.541 271.167 991.541 273.422V277.044C991.541 280.134 992.074 282.753 993.139 284.901C994.223 287.032 995.723 288.657 997.64 289.775C999.558 290.876 1001.79 291.426 1004.33 291.426C1005.98 291.426 1007.47 291.196 1008.8 290.734C1010.15 290.255 1011.31 289.544 1012.29 288.603C1013.27 287.645 1014.02 286.455 1014.55 285.034L1020.63 286.739C1019.99 288.799 1018.91 290.61 1017.4 292.172C1015.89 293.717 1014.03 294.924 1011.81 295.794C1009.59 296.647 1007.1 297.073 1004.33 297.073ZM1042.86 297.179C1040.27 297.179 1037.92 296.691 1035.81 295.714C1033.69 294.72 1032.02 293.291 1030.77 291.426C1029.53 289.544 1028.91 287.272 1028.91 284.608C1028.91 282.265 1029.37 280.365 1030.29 278.909C1031.22 277.435 1032.45 276.281 1034 275.446C1035.54 274.612 1037.24 273.99 1039.11 273.582C1040.99 273.156 1042.88 272.819 1044.78 272.57C1047.27 272.25 1049.28 272.011 1050.83 271.851C1052.39 271.673 1053.53 271.38 1054.24 270.972C1054.96 270.564 1055.33 269.853 1055.33 268.841V268.628C1055.33 266 1054.61 263.958 1053.17 262.502C1051.75 261.047 1049.59 260.319 1046.7 260.319C1043.7 260.319 1041.35 260.975 1039.64 262.289C1037.94 263.603 1036.74 265.006 1036.05 266.498L1030.08 264.367C1031.15 261.881 1032.57 259.946 1034.34 258.561C1036.13 257.158 1038.09 256.181 1040.2 255.631C1042.33 255.063 1044.43 254.779 1046.49 254.779C1047.8 254.779 1049.31 254.939 1051.01 255.258C1052.74 255.56 1054.4 256.19 1055.99 257.149C1057.61 258.108 1058.95 259.555 1060.02 261.49C1061.08 263.426 1061.61 266.018 1061.61 269.267V296.221H1055.33V290.681H1055.01C1054.58 291.569 1053.87 292.518 1052.88 293.531C1051.88 294.543 1050.56 295.404 1048.91 296.114C1047.26 296.824 1045.24 297.179 1042.86 297.179ZM1043.82 291.533C1046.31 291.533 1048.4 291.045 1050.11 290.068C1051.83 289.092 1053.13 287.831 1054 286.286C1054.88 284.741 1055.33 283.117 1055.33 281.412V275.659C1055.06 275.979 1054.48 276.272 1053.57 276.538C1052.68 276.787 1051.65 277.009 1050.48 277.204C1049.33 277.382 1048.2 277.542 1047.1 277.684C1046.02 277.808 1045.14 277.914 1044.46 278.003C1042.83 278.216 1041.3 278.562 1039.88 279.042C1038.48 279.504 1037.34 280.205 1036.47 281.146C1035.62 282.069 1035.19 283.33 1035.19 284.928C1035.19 287.112 1036 288.763 1037.62 289.882C1039.25 290.983 1041.32 291.533 1043.82 291.533ZM1073.09 296.221V255.311H1079.16V261.703H1079.69C1080.54 259.52 1081.92 257.824 1083.82 256.616C1085.72 255.391 1088 254.779 1090.66 254.779C1093.36 254.779 1095.61 255.391 1097.4 256.616C1099.21 257.824 1100.63 259.52 1101.64 261.703H1102.06C1103.11 259.591 1104.68 257.913 1106.78 256.67C1108.87 255.409 1111.39 254.779 1114.32 254.779C1117.97 254.779 1120.96 255.924 1123.29 258.214C1125.62 260.487 1126.78 264.029 1126.78 268.841V296.221H1120.49V268.841C1120.49 265.823 1119.67 263.665 1118.02 262.369C1116.37 261.073 1114.42 260.425 1112.18 260.425C1109.31 260.425 1107.08 261.295 1105.5 263.035C1103.92 264.757 1103.13 266.941 1103.13 269.587V296.221H1096.74V268.202C1096.74 265.876 1095.98 264.003 1094.47 262.582C1092.96 261.144 1091.02 260.425 1088.64 260.425C1087.01 260.425 1085.48 260.86 1084.06 261.73C1082.66 262.6 1081.52 263.808 1080.65 265.352C1079.8 266.879 1079.37 268.646 1079.37 270.652V296.221H1073.09Z" fill="#FF8C8C"/>
<path d="M721.7 1440.7C718.006 1440.7 714.766 1439.82 711.978 1438.07C709.208 1436.31 707.042 1433.85 705.48 1430.69C703.935 1427.53 703.163 1423.84 703.163 1419.61C703.163 1415.35 703.935 1411.63 705.48 1408.45C707.042 1405.27 709.208 1402.8 711.978 1401.05C714.766 1399.29 718.006 1398.41 721.7 1398.41C725.393 1398.41 728.624 1399.29 731.394 1401.05C734.182 1402.8 736.348 1405.27 737.893 1408.45C739.455 1411.63 740.236 1415.35 740.236 1419.61C740.236 1423.84 739.455 1427.53 737.893 1430.69C736.348 1433.85 734.182 1436.31 731.394 1438.07C728.624 1439.82 725.393 1440.7 721.7 1440.7ZM721.7 1435.06C724.505 1435.06 726.813 1434.34 728.624 1432.9C730.435 1431.46 731.776 1429.57 732.646 1427.23C733.516 1424.88 733.951 1422.34 733.951 1419.61C733.951 1416.88 733.516 1414.33 732.646 1411.97C731.776 1409.6 730.435 1407.7 728.624 1406.24C726.813 1404.78 724.505 1404.06 721.7 1404.06C718.894 1404.06 716.586 1404.78 714.775 1406.24C712.964 1407.7 711.623 1409.6 710.753 1411.97C709.883 1414.33 709.448 1416.88 709.448 1419.61C709.448 1422.34 709.883 1424.88 710.753 1427.23C711.623 1429.57 712.964 1431.46 714.775 1432.9C716.586 1434.34 718.894 1435.06 721.7 1435.06ZM775.612 1423.13V1398.94H781.898V1439.85H775.612V1432.93H775.186C774.228 1435 772.736 1436.77 770.712 1438.23C768.688 1439.66 766.131 1440.38 763.041 1440.38C760.485 1440.38 758.212 1439.82 756.223 1438.71C754.235 1437.57 752.672 1435.87 751.536 1433.59C750.399 1431.3 749.831 1428.42 749.831 1424.94V1398.94H756.117V1424.51C756.117 1427.49 756.951 1429.87 758.62 1431.65C760.307 1433.42 762.456 1434.31 765.066 1434.31C766.628 1434.31 768.217 1433.91 769.833 1433.11C771.467 1432.31 772.834 1431.09 773.935 1429.44C775.053 1427.79 775.612 1425.68 775.612 1423.13ZM811.202 1398.94V1404.27H790.001V1398.94H811.202ZM796.18 1389.14H802.466V1428.13C802.466 1429.91 802.723 1431.24 803.238 1432.13C803.771 1433 804.445 1433.58 805.262 1433.89C806.097 1434.17 806.976 1434.31 807.899 1434.31C808.591 1434.31 809.16 1434.28 809.603 1434.2C810.047 1434.12 810.403 1434.05 810.669 1433.99L811.947 1439.64C811.521 1439.8 810.926 1439.96 810.163 1440.12C809.399 1440.3 808.432 1440.38 807.26 1440.38C805.484 1440.38 803.744 1440 802.04 1439.24C800.353 1438.48 798.95 1437.31 797.831 1435.75C796.731 1434.19 796.18 1432.22 796.18 1429.84V1389.14ZM820.656 1455.19V1398.94H826.729V1405.44H827.475C827.936 1404.73 828.575 1403.82 829.392 1402.72C830.227 1401.61 831.416 1400.61 832.961 1399.74C834.524 1398.85 836.637 1398.41 839.3 1398.41C842.744 1398.41 845.781 1399.27 848.409 1400.99C851.036 1402.72 853.087 1405.16 854.561 1408.32C856.035 1411.48 856.771 1415.21 856.771 1419.5C856.771 1423.84 856.035 1427.59 854.561 1430.77C853.087 1433.93 851.045 1436.38 848.435 1438.12C845.825 1439.84 842.815 1440.7 839.406 1440.7C836.779 1440.7 834.675 1440.27 833.094 1439.4C831.514 1438.51 830.298 1437.51 829.445 1436.39C828.593 1435.25 827.936 1434.31 827.475 1433.57H826.942V1455.19H820.656ZM826.835 1419.4C826.835 1422.49 827.288 1425.21 828.194 1427.57C829.099 1429.92 830.422 1431.75 832.162 1433.09C833.902 1434.4 836.033 1435.06 838.554 1435.06C841.182 1435.06 843.375 1434.36 845.133 1432.98C846.908 1431.58 848.24 1429.69 849.128 1427.33C850.033 1424.95 850.486 1422.31 850.486 1419.4C850.486 1416.52 850.042 1413.93 849.154 1411.62C848.284 1409.29 846.961 1407.46 845.186 1406.11C843.428 1404.74 841.217 1404.06 838.554 1404.06C835.997 1404.06 833.849 1404.7 832.109 1406C830.369 1407.28 829.055 1409.07 828.167 1411.38C827.279 1413.67 826.835 1416.34 826.835 1419.4ZM892.141 1423.13V1398.94H898.426V1439.85H892.141V1432.93H891.715C890.756 1435 889.264 1436.77 887.24 1438.23C885.216 1439.66 882.659 1440.38 879.57 1440.38C877.013 1440.38 874.74 1439.82 872.752 1438.71C870.763 1437.57 869.2 1435.87 868.064 1433.59C866.928 1431.3 866.36 1428.42 866.36 1424.94V1398.94H872.645V1424.51C872.645 1427.49 873.48 1429.87 875.149 1431.65C876.835 1433.42 878.984 1434.31 881.594 1434.31C883.156 1434.31 884.746 1433.91 886.361 1433.11C887.995 1432.31 889.362 1431.09 890.463 1429.44C891.581 1427.79 892.141 1425.68 892.141 1423.13ZM927.73 1398.94V1404.27H906.53V1398.94H927.73ZM912.709 1389.14H918.994V1428.13C918.994 1429.91 919.251 1431.24 919.766 1432.13C920.299 1433 920.974 1433.58 921.791 1433.89C922.625 1434.17 923.504 1434.31 924.427 1434.31C925.12 1434.31 925.688 1434.28 926.132 1434.2C926.576 1434.12 926.931 1434.05 927.197 1433.99L928.476 1439.64C928.049 1439.8 927.455 1439.96 926.691 1440.12C925.928 1440.3 924.96 1440.38 923.788 1440.38C922.012 1440.38 920.272 1440 918.568 1439.24C916.881 1438.48 915.478 1437.31 914.36 1435.75C913.259 1434.19 912.709 1432.22 912.709 1429.84V1389.14ZM987.256 1408.1L981.609 1409.7C981.254 1408.76 980.731 1407.85 980.038 1406.96C979.363 1406.05 978.44 1405.31 977.268 1404.72C976.096 1404.14 974.596 1403.84 972.767 1403.84C970.264 1403.84 968.177 1404.42 966.508 1405.57C964.857 1406.71 964.031 1408.16 964.031 1409.92C964.031 1411.48 964.599 1412.71 965.736 1413.62C966.872 1414.52 968.648 1415.28 971.063 1415.88L977.135 1417.37C980.793 1418.26 983.518 1419.62 985.312 1421.45C987.105 1423.26 988.001 1425.59 988.001 1428.45C988.001 1430.8 987.327 1432.89 985.977 1434.74C984.646 1436.58 982.781 1438.04 980.384 1439.11C977.987 1440.17 975.2 1440.7 972.021 1440.7C967.849 1440.7 964.395 1439.8 961.661 1437.99C958.927 1436.18 957.195 1433.53 956.467 1430.05L962.433 1428.56C963.001 1430.76 964.076 1432.41 965.656 1433.51C967.254 1434.61 969.34 1435.16 971.915 1435.16C974.845 1435.16 977.171 1434.54 978.893 1433.3C980.633 1432.04 981.503 1430.53 981.503 1428.77C981.503 1427.35 981.006 1426.16 980.011 1425.2C979.017 1424.23 977.49 1423.5 975.43 1423.02L968.612 1421.42C964.866 1420.53 962.114 1419.16 960.356 1417.29C958.616 1415.41 957.746 1413.06 957.746 1410.23C957.746 1407.93 958.394 1405.88 959.69 1404.11C961.004 1402.33 962.788 1400.94 965.043 1399.93C967.316 1398.92 969.891 1398.41 972.767 1398.41C976.815 1398.41 979.994 1399.3 982.302 1401.07C984.628 1402.85 986.279 1405.19 987.256 1408.1ZM1015.25 1398.94V1404.27H994.054V1398.94H1015.25ZM1000.23 1389.14H1006.52V1428.13C1006.52 1429.91 1006.78 1431.24 1007.29 1432.13C1007.82 1433 1008.5 1433.58 1009.31 1433.89C1010.15 1434.17 1011.03 1434.31 1011.95 1434.31C1012.64 1434.31 1013.21 1434.28 1013.66 1434.2C1014.1 1434.12 1014.46 1434.05 1014.72 1433.99L1016 1439.64C1015.57 1439.8 1014.98 1439.96 1014.22 1440.12C1013.45 1440.3 1012.48 1440.38 1011.31 1440.38C1009.54 1440.38 1007.8 1440 1006.09 1439.24C1004.41 1438.48 1003 1437.31 1001.88 1435.75C1000.78 1434.19 1000.23 1432.22 1000.23 1429.84V1389.14ZM1024.71 1439.85V1398.94H1030.78V1405.12H1031.21C1031.95 1403.1 1033.3 1401.45 1035.26 1400.19C1037.21 1398.93 1039.41 1398.3 1041.86 1398.3C1042.32 1398.3 1042.9 1398.31 1043.59 1398.33C1044.28 1398.35 1044.81 1398.37 1045.16 1398.41V1404.8C1044.95 1404.75 1044.46 1404.67 1043.7 1404.56C1042.95 1404.44 1042.16 1404.38 1041.33 1404.38C1039.34 1404.38 1037.56 1404.79 1036 1405.63C1034.46 1406.44 1033.23 1407.58 1032.33 1409.04C1031.44 1410.47 1030.99 1412.12 1030.99 1413.96V1439.85H1024.71ZM1068.52 1440.7C1064.58 1440.7 1061.18 1439.83 1058.32 1438.09C1055.48 1436.34 1053.29 1433.89 1051.74 1430.74C1050.22 1427.58 1049.45 1423.91 1049.45 1419.72C1049.45 1415.53 1050.22 1411.83 1051.74 1408.64C1053.29 1405.42 1055.44 1402.92 1058.19 1401.13C1060.96 1399.31 1064.19 1398.41 1067.88 1398.41C1070.01 1398.41 1072.12 1398.76 1074.19 1399.47C1076.27 1400.19 1078.16 1401.34 1079.87 1402.94C1081.57 1404.52 1082.93 1406.61 1083.94 1409.22C1084.95 1411.83 1085.46 1415.05 1085.46 1418.86V1421.53H1053.93V1416.09H1079.07C1079.07 1413.79 1078.61 1411.73 1077.68 1409.92C1076.78 1408.1 1075.48 1406.67 1073.79 1405.63C1072.13 1404.58 1070.15 1404.06 1067.88 1404.06C1065.38 1404.06 1063.21 1404.68 1061.38 1405.92C1059.57 1407.15 1058.18 1408.74 1057.2 1410.71C1056.23 1412.69 1055.74 1414.8 1055.74 1417.05V1420.68C1055.74 1423.76 1056.27 1426.38 1057.34 1428.53C1058.42 1430.66 1059.92 1432.29 1061.84 1433.41C1063.75 1434.51 1065.98 1435.06 1068.52 1435.06C1070.17 1435.06 1071.66 1434.83 1073 1434.36C1074.35 1433.89 1075.51 1433.18 1076.48 1432.23C1077.46 1431.28 1078.22 1430.09 1078.75 1428.67L1084.82 1430.37C1084.18 1432.43 1083.11 1434.24 1081.6 1435.8C1080.09 1437.35 1078.22 1438.56 1076.01 1439.43C1073.79 1440.28 1071.29 1440.7 1068.52 1440.7ZM1107.06 1440.81C1104.47 1440.81 1102.12 1440.32 1100 1439.35C1097.89 1438.35 1096.21 1436.92 1094.97 1435.06C1093.73 1433.18 1093.1 1430.9 1093.1 1428.24C1093.1 1425.9 1093.57 1424 1094.49 1422.54C1095.41 1421.07 1096.65 1419.91 1098.19 1419.08C1099.74 1418.24 1101.44 1417.62 1103.3 1417.21C1105.19 1416.79 1107.08 1416.45 1108.98 1416.2C1111.46 1415.88 1113.48 1415.64 1115.02 1415.48C1116.59 1415.3 1117.72 1415.01 1118.43 1414.6C1119.16 1414.19 1119.52 1413.48 1119.52 1412.47V1412.26C1119.52 1409.63 1118.81 1407.59 1117.37 1406.13C1115.95 1404.68 1113.79 1403.95 1110.9 1403.95C1107.89 1403.95 1105.54 1404.61 1103.84 1405.92C1102.13 1407.23 1100.93 1408.64 1100.24 1410.13L1094.28 1408C1095.34 1405.51 1096.76 1403.58 1098.54 1402.19C1100.33 1400.79 1102.28 1399.81 1104.4 1399.26C1106.53 1398.69 1108.62 1398.41 1110.68 1398.41C1112 1398.41 1113.51 1398.57 1115.21 1398.89C1116.93 1399.19 1118.59 1399.82 1120.19 1400.78C1121.81 1401.74 1123.15 1403.19 1124.21 1405.12C1125.28 1407.06 1125.81 1409.65 1125.81 1412.9V1439.85H1119.52V1434.31H1119.2C1118.78 1435.2 1118.07 1436.15 1117.07 1437.16C1116.08 1438.17 1114.76 1439.03 1113.11 1439.74C1111.45 1440.45 1109.44 1440.81 1107.06 1440.81ZM1108.02 1435.16C1110.5 1435.16 1112.6 1434.68 1114.3 1433.7C1116.03 1432.72 1117.32 1431.46 1118.19 1429.92C1119.08 1428.37 1119.52 1426.75 1119.52 1425.04V1419.29C1119.26 1419.61 1118.67 1419.9 1117.77 1420.17C1116.88 1420.42 1115.85 1420.64 1114.68 1420.83C1113.52 1421.01 1112.4 1421.17 1111.29 1421.31C1110.21 1421.44 1109.33 1421.55 1108.66 1421.63C1107.02 1421.85 1105.5 1422.19 1104.08 1422.67C1102.67 1423.13 1101.54 1423.84 1100.67 1424.78C1099.82 1425.7 1099.39 1426.96 1099.39 1428.56C1099.39 1430.74 1100.2 1432.39 1101.81 1433.51C1103.45 1434.61 1105.52 1435.16 1108.02 1435.16ZM1137.28 1439.85V1398.94H1143.35V1405.33H1143.89C1144.74 1403.15 1146.12 1401.45 1148.02 1400.25C1149.92 1399.02 1152.2 1398.41 1154.86 1398.41C1157.56 1398.41 1159.81 1399.02 1161.6 1400.25C1163.41 1401.45 1164.82 1403.15 1165.83 1405.33H1166.26C1167.31 1403.22 1168.88 1401.54 1170.97 1400.3C1173.07 1399.04 1175.58 1398.41 1178.51 1398.41C1182.17 1398.41 1185.16 1399.55 1187.49 1401.85C1189.81 1404.12 1190.98 1407.66 1190.98 1412.47V1439.85H1184.69V1412.47C1184.69 1409.45 1183.86 1407.3 1182.21 1406C1180.56 1404.7 1178.62 1404.06 1176.38 1404.06C1173.5 1404.06 1171.28 1404.93 1169.7 1406.67C1168.12 1408.39 1167.32 1410.57 1167.32 1413.22V1439.85H1160.93V1411.83C1160.93 1409.51 1160.18 1407.63 1158.67 1406.21C1157.16 1404.77 1155.22 1404.06 1152.84 1404.06C1151.2 1404.06 1149.68 1404.49 1148.26 1405.36C1146.85 1406.23 1145.72 1407.44 1144.85 1408.98C1143.99 1410.51 1143.57 1412.28 1143.57 1414.28V1439.85H1137.28Z" fill="#FF8C8C"/>
<path d="M467.942 1229.29C468.69 1242.76 477.713 1252.03 488.981 1258C497.579 1262.55 506.285 1263.81 515.663 1265.97C533.96 1270.2 551.626 1272.87 570.378 1274.56C598.018 1277.06 626.33 1278.53 654.044 1277.32C684.307 1276.01 714.555 1277.87 744.826 1277.87C772.312 1277.87 799.835 1275.71 827.327 1276.83C860.298 1278.18 893.133 1286.86 924.794 1295.54C930.568 1297.12 933.079 1298.77 937.185 1303.33C939.9 1306.35 946.648 1310.21 948.226 1313.76C950.211 1318.22 954.248 1322.44 954.85 1327.56C955.388 1332.13 958.287 1319.91 958.408 1319.22C958.997 1315.82 959.563 1312.57 961.475 1309.65C975.536 1288.14 1000.21 1283.45 1024.41 1281.43C1063.93 1278.14 1104.46 1282.29 1144.08 1282.29C1185.17 1282.29 1226.14 1285.6 1267.25 1285.6C1296.19 1285.6 1325.75 1287.49 1354.54 1284.25C1361.81 1283.44 1368.83 1280.8 1375.51 1277.87C1382.57 1274.79 1392.14 1273.31 1399.8 1272.35C1413.16 1270.68 1423.21 1263.81 1431.58 1253.58C1439.77 1243.57 1444.81 1231.18 1449.73 1219.36C1452.61 1212.44 1457.22 1203.88 1457.22 1196.17" stroke="#FF8C8C" stroke-width="10" stroke-linecap="round"/>
<path d="M2094.69 708.944C2106.79 708.944 2118.99 709.48 2130.88 711.736C2139.1 713.295 2146.58 718.08 2154 721.79C2168.99 729.283 2169.08 740.255 2169.08 755.133C2169.08 763.263 2164.8 775.339 2171.1 782.333C2187.76 800.853 2217.17 805.535 2240.18 810.985C2250.56 813.443 2238.92 811.547 2235.33 810.985C2227.8 809.809 2219.87 810.483 2212.26 810.483C2203.16 810.483 2183.04 821.079 2186.4 832.823C2188.42 839.893 2187.98 849.367 2188.19 856.728C2188.46 866.662 2191.28 877.814 2187.63 887.446C2183.36 898.69 2171.28 907.203 2161.54 913.473C2151.81 919.749 2144.3 923.08 2132.89 923.08" stroke="#BF0000" stroke-width="10" stroke-linecap="round"/>
<path d="M2303.26 832.852C2299.57 832.852 2296.33 831.973 2293.54 830.216C2290.77 828.458 2288.6 825.999 2287.04 822.838C2285.5 819.678 2284.72 815.984 2284.72 811.759C2284.72 807.497 2285.5 803.777 2287.04 800.599C2288.6 797.421 2290.77 794.953 2293.54 793.195C2296.33 791.437 2299.57 790.558 2303.26 790.558C2306.95 790.558 2310.18 791.437 2312.95 793.195C2315.74 794.953 2317.91 797.421 2319.45 800.599C2321.02 803.777 2321.8 807.497 2321.8 811.759C2321.8 815.984 2321.02 819.678 2319.45 822.838C2317.91 825.999 2315.74 828.458 2312.95 830.216C2310.18 831.973 2306.95 832.852 2303.26 832.852ZM2303.26 827.206C2306.07 827.206 2308.37 826.487 2310.18 825.049C2312 823.61 2313.34 821.719 2314.21 819.376C2315.08 817.032 2315.51 814.493 2315.51 811.759C2315.51 809.024 2315.08 806.476 2314.21 804.115C2313.34 801.753 2312 799.844 2310.18 798.388C2308.37 796.933 2306.07 796.205 2303.26 796.205C2300.45 796.205 2298.15 796.933 2296.34 798.388C2294.52 799.844 2293.18 801.753 2292.31 804.115C2291.44 806.476 2291.01 809.024 2291.01 811.759C2291.01 814.493 2291.44 817.032 2292.31 819.376C2293.18 821.719 2294.52 823.61 2296.34 825.049C2298.15 826.487 2300.45 827.206 2303.26 827.206ZM2331.39 847.341V791.091H2337.46V797.589H2338.21C2338.67 796.879 2339.31 795.974 2340.13 794.873C2340.96 793.754 2342.15 792.76 2343.7 791.89C2345.26 791.002 2347.37 790.558 2350.04 790.558C2353.48 790.558 2356.52 791.419 2359.14 793.142C2361.77 794.864 2363.82 797.305 2365.3 800.466C2366.77 803.626 2367.51 807.355 2367.51 811.652C2367.51 815.984 2366.77 819.74 2365.3 822.918C2363.82 826.078 2361.78 828.529 2359.17 830.269C2356.56 831.991 2353.55 832.852 2350.14 832.852C2347.51 832.852 2345.41 832.417 2343.83 831.547C2342.25 830.659 2341.03 829.656 2340.18 828.538C2339.33 827.401 2338.67 826.46 2338.21 825.714H2337.68V847.341H2331.39ZM2337.57 811.545C2337.57 814.635 2338.02 817.36 2338.93 819.722C2339.83 822.066 2341.16 823.903 2342.9 825.235C2344.64 826.549 2346.77 827.206 2349.29 827.206C2351.92 827.206 2354.11 826.513 2355.87 825.129C2357.64 823.726 2358.98 821.844 2359.86 819.482C2360.77 817.103 2361.22 814.457 2361.22 811.545C2361.22 808.669 2360.78 806.077 2359.89 803.768C2359.02 801.442 2357.7 799.605 2355.92 798.255C2354.16 796.888 2351.95 796.205 2349.29 796.205C2346.73 796.205 2344.58 796.853 2342.84 798.149C2341.1 799.427 2339.79 801.221 2338.9 803.529C2338.01 805.819 2337.57 808.491 2337.57 811.545ZM2394.25 832.852C2390.31 832.852 2386.9 831.982 2384.05 830.242C2381.21 828.484 2379.01 826.034 2377.47 822.891C2375.94 819.731 2375.18 816.055 2375.18 811.865C2375.18 807.675 2375.94 803.982 2377.47 800.786C2379.01 797.572 2381.16 795.068 2383.91 793.275C2386.68 791.464 2389.91 790.558 2393.61 790.558C2395.74 790.558 2397.84 790.913 2399.92 791.624C2402 792.334 2403.89 793.488 2405.59 795.086C2407.3 796.666 2408.66 798.761 2409.67 801.371C2410.68 803.982 2411.19 807.195 2411.19 811.013V813.676H2379.65V808.243H2404.79C2404.79 805.935 2404.33 803.875 2403.41 802.064C2402.5 800.253 2401.21 798.824 2399.52 797.776C2397.85 796.728 2395.88 796.205 2393.61 796.205C2391.1 796.205 2388.94 796.826 2387.11 798.069C2385.3 799.294 2383.9 800.892 2382.93 802.863C2381.95 804.834 2381.46 806.947 2381.46 809.202V812.824C2381.46 815.913 2382 818.532 2383.06 820.681C2384.14 822.811 2385.64 824.436 2387.56 825.555C2389.48 826.656 2391.71 827.206 2394.25 827.206C2395.9 827.206 2397.39 826.975 2398.72 826.513C2400.07 826.034 2401.23 825.324 2402.21 824.383C2403.19 823.424 2403.94 822.234 2404.47 820.814L2410.55 822.518C2409.91 824.578 2408.83 826.389 2407.32 827.952C2405.81 829.496 2403.95 830.704 2401.73 831.574C2399.51 832.426 2397.02 832.852 2394.25 832.852ZM2420.75 832V791.091H2426.82V797.27H2427.25C2427.99 795.246 2429.34 793.603 2431.29 792.343C2433.25 791.082 2435.45 790.452 2437.9 790.452C2438.36 790.452 2438.94 790.461 2439.63 790.478C2440.32 790.496 2440.85 790.523 2441.2 790.558V796.95C2440.99 796.897 2440.5 796.817 2439.74 796.711C2438.99 796.586 2438.2 796.524 2437.37 796.524C2435.38 796.524 2433.6 796.941 2432.04 797.776C2430.5 798.593 2429.27 799.729 2428.36 801.185C2427.48 802.623 2427.03 804.266 2427.03 806.112V832H2420.75ZM2460.69 832.959C2458.1 832.959 2455.75 832.471 2453.63 831.494C2451.52 830.5 2449.84 829.07 2448.6 827.206C2447.36 825.324 2446.73 823.051 2446.73 820.388C2446.73 818.044 2447.2 816.144 2448.12 814.688C2449.04 813.214 2450.28 812.06 2451.82 811.226C2453.37 810.391 2455.07 809.77 2456.94 809.362C2458.82 808.935 2460.71 808.598 2462.61 808.349C2465.09 808.03 2467.11 807.79 2468.65 807.63C2470.22 807.453 2471.35 807.16 2472.06 806.751C2472.79 806.343 2473.16 805.633 2473.16 804.621V804.408C2473.16 801.78 2472.44 799.738 2471 798.282C2469.58 796.826 2467.42 796.098 2464.53 796.098C2461.53 796.098 2459.17 796.755 2457.47 798.069C2455.76 799.383 2454.57 800.786 2453.87 802.277L2447.91 800.146C2448.97 797.661 2450.39 795.725 2452.17 794.34C2453.96 792.937 2455.91 791.961 2458.03 791.411C2460.16 790.842 2462.25 790.558 2464.31 790.558C2465.63 790.558 2467.14 790.718 2468.84 791.038C2470.56 791.339 2472.22 791.97 2473.82 792.929C2475.44 793.887 2476.78 795.335 2477.84 797.27C2478.91 799.205 2479.44 801.798 2479.44 805.047V832H2473.16V826.46H2472.84C2472.41 827.348 2471.7 828.298 2470.71 829.31C2469.71 830.322 2468.39 831.183 2466.74 831.893C2465.09 832.604 2463.07 832.959 2460.69 832.959ZM2461.65 827.312C2464.14 827.312 2466.23 826.824 2467.94 825.848C2469.66 824.871 2470.95 823.61 2471.82 822.066C2472.71 820.521 2473.16 818.896 2473.16 817.192V811.439C2472.89 811.759 2472.3 812.051 2471.4 812.318C2470.51 812.566 2469.48 812.788 2468.31 812.984C2467.15 813.161 2466.03 813.321 2464.93 813.463C2463.84 813.587 2462.96 813.694 2462.29 813.783C2460.66 813.996 2459.13 814.342 2457.71 814.821C2456.31 815.283 2455.17 815.984 2454.3 816.925C2453.45 817.849 2453.02 819.109 2453.02 820.707C2453.02 822.891 2453.83 824.543 2455.44 825.661C2457.08 826.762 2459.15 827.312 2461.65 827.312ZM2508.7 791.091V796.418H2487.5V791.091H2508.7ZM2493.68 781.29H2499.97V820.281C2499.97 822.057 2500.23 823.388 2500.74 824.276C2501.27 825.146 2501.95 825.732 2502.77 826.034C2503.6 826.318 2504.48 826.46 2505.4 826.46C2506.09 826.46 2506.66 826.425 2507.11 826.354C2507.55 826.265 2507.91 826.194 2508.17 826.141L2509.45 831.787C2509.02 831.947 2508.43 832.107 2507.67 832.266C2506.9 832.444 2505.93 832.533 2504.76 832.533C2502.99 832.533 2501.25 832.151 2499.54 831.387C2497.86 830.624 2496.45 829.461 2495.33 827.898C2494.23 826.336 2493.68 824.365 2493.68 821.986V781.29ZM2534.34 832.852C2530.65 832.852 2527.41 831.973 2524.62 830.216C2521.85 828.458 2519.68 825.999 2518.12 822.838C2516.57 819.678 2515.8 815.984 2515.8 811.759C2515.8 807.497 2516.57 803.777 2518.12 800.599C2519.68 797.421 2521.85 794.953 2524.62 793.195C2527.41 791.437 2530.65 790.558 2534.34 790.558C2538.03 790.558 2541.26 791.437 2544.03 793.195C2546.82 794.953 2548.99 797.421 2550.53 800.599C2552.09 803.777 2552.88 807.497 2552.88 811.759C2552.88 815.984 2552.09 819.678 2550.53 822.838C2548.99 825.999 2546.82 828.458 2544.03 830.216C2541.26 831.973 2538.03 832.852 2534.34 832.852ZM2534.34 827.206C2537.14 827.206 2539.45 826.487 2541.26 825.049C2543.07 823.61 2544.42 821.719 2545.29 819.376C2546.16 817.032 2546.59 814.493 2546.59 811.759C2546.59 809.024 2546.16 806.476 2545.29 804.115C2544.42 801.753 2543.07 799.844 2541.26 798.388C2539.45 796.933 2537.14 796.205 2534.34 796.205C2531.53 796.205 2529.23 796.933 2527.41 798.388C2525.6 799.844 2524.26 801.753 2523.39 804.115C2522.52 806.476 2522.09 809.024 2522.09 811.759C2522.09 814.493 2522.52 817.032 2523.39 819.376C2524.26 821.719 2525.6 823.61 2527.41 825.049C2529.23 826.487 2531.53 827.206 2534.34 827.206ZM2562.47 832V791.091H2568.54V797.27H2568.97C2569.72 795.246 2571.06 793.603 2573.02 792.343C2574.97 791.082 2577.17 790.452 2579.62 790.452C2580.08 790.452 2580.66 790.461 2581.35 790.478C2582.05 790.496 2582.57 790.523 2582.93 790.558V796.95C2582.71 796.897 2582.22 796.817 2581.46 796.711C2580.71 796.586 2579.92 796.524 2579.09 796.524C2577.1 796.524 2575.33 796.941 2573.76 797.776C2572.22 798.593 2570.99 799.729 2570.09 801.185C2569.2 802.623 2568.76 804.266 2568.76 806.112V832H2562.47Z" fill="#BF0000"/>
<path d="M2093.68 1443.68C2096.38 1444.24 2099.03 1442.5 2099.59 1439.8C2100.15 1437.09 2098.41 1434.45 2095.7 1433.89L2093.68 1443.68ZM1802.69 1165.96L1775.21 1216.74L1832.92 1215.15L1802.69 1165.96ZM2095.7 1433.89C2049.19 1424.25 1982.34 1401.75 1924.63 1364.75C1866.85 1327.72 1819.03 1276.68 1808.87 1210.18L1798.98 1211.69C1809.76 1282.27 1860.34 1335.42 1919.23 1373.17C1978.18 1410.96 2046.24 1433.85 2093.68 1443.68L2095.7 1433.89Z" fill="#FF8C8C"/>
<path d="M2153.39 1425.37V1430.7H2132.19V1425.37H2153.39ZM2138.37 1415.57H2144.66V1454.56C2144.66 1456.34 2144.91 1457.67 2145.43 1458.56C2145.96 1459.43 2146.64 1460.02 2147.45 1460.32C2148.29 1460.6 2149.17 1460.74 2150.09 1460.74C2150.78 1460.74 2151.35 1460.71 2151.8 1460.64C2152.24 1460.55 2152.59 1460.48 2152.86 1460.42L2154.14 1466.07C2153.71 1466.23 2153.12 1466.39 2152.35 1466.55C2151.59 1466.73 2150.62 1466.82 2149.45 1466.82C2147.68 1466.82 2145.94 1466.43 2144.23 1465.67C2142.54 1464.91 2141.14 1463.74 2140.02 1462.18C2138.92 1460.62 2138.37 1458.65 2138.37 1456.27V1415.57ZM2162.85 1466.28V1425.37H2169.13V1466.28H2162.85ZM2166.04 1418.56C2164.82 1418.56 2163.76 1418.14 2162.87 1417.3C2162 1416.47 2161.57 1415.47 2161.57 1414.29C2161.57 1413.12 2162 1412.12 2162.87 1411.28C2163.76 1410.45 2164.82 1410.03 2166.04 1410.03C2167.27 1410.03 2168.32 1410.45 2169.19 1411.28C2170.07 1412.12 2170.52 1413.12 2170.52 1414.29C2170.52 1415.47 2170.07 1416.47 2169.19 1417.3C2168.32 1418.14 2167.27 1418.56 2166.04 1418.56ZM2180.65 1466.28V1425.37H2186.72V1431.77H2187.25C2188.1 1429.58 2189.48 1427.89 2191.38 1426.68C2193.28 1425.45 2195.56 1424.84 2198.22 1424.84C2200.92 1424.84 2203.17 1425.45 2204.96 1426.68C2206.77 1427.89 2208.18 1429.58 2209.2 1431.77H2209.62C2210.67 1429.65 2212.24 1427.97 2214.34 1426.73C2216.43 1425.47 2218.94 1424.84 2221.87 1424.84C2225.53 1424.84 2228.52 1425.99 2230.85 1428.28C2233.18 1430.55 2234.34 1434.09 2234.34 1438.9V1466.28H2228.05V1438.9C2228.05 1435.89 2227.23 1433.73 2225.58 1432.43C2223.93 1431.14 2221.98 1430.49 2219.74 1430.49C2216.87 1430.49 2214.64 1431.36 2213.06 1433.1C2211.48 1434.82 2210.69 1437 2210.69 1439.65V1466.28H2204.3V1438.26C2204.3 1435.94 2203.54 1434.07 2202.03 1432.64C2200.52 1431.21 2198.58 1430.49 2196.2 1430.49C2194.57 1430.49 2193.04 1430.92 2191.62 1431.79C2190.22 1432.66 2189.08 1433.87 2188.21 1435.41C2187.36 1436.94 2186.93 1438.71 2186.93 1440.71V1466.28H2180.65ZM2262.98 1467.14C2259.04 1467.14 2255.64 1466.27 2252.78 1464.53C2249.94 1462.77 2247.75 1460.32 2246.2 1457.17C2244.68 1454.01 2243.91 1450.34 2243.91 1446.15C2243.91 1441.96 2244.68 1438.26 2246.2 1435.07C2247.75 1431.85 2249.9 1429.35 2252.65 1427.56C2255.42 1425.75 2258.65 1424.84 2262.34 1424.84C2264.47 1424.84 2266.58 1425.2 2268.66 1425.91C2270.73 1426.62 2272.62 1427.77 2274.33 1429.37C2276.03 1430.95 2277.39 1433.04 2278.4 1435.65C2279.42 1438.26 2279.92 1441.48 2279.92 1445.3V1447.96H2248.39V1442.53H2273.53C2273.53 1440.22 2273.07 1438.16 2272.15 1436.35C2271.24 1434.54 2269.94 1433.11 2268.26 1432.06C2266.59 1431.01 2264.62 1430.49 2262.34 1430.49C2259.84 1430.49 2257.67 1431.11 2255.85 1432.35C2254.03 1433.58 2252.64 1435.17 2251.66 1437.15C2250.69 1439.12 2250.2 1441.23 2250.2 1443.48V1447.11C2250.2 1450.2 2250.73 1452.82 2251.8 1454.96C2252.88 1457.09 2254.38 1458.72 2256.3 1459.84C2258.22 1460.94 2260.44 1461.49 2262.98 1461.49C2264.63 1461.49 2266.13 1461.26 2267.46 1460.8C2268.81 1460.32 2269.97 1459.61 2270.95 1458.67C2271.92 1457.71 2272.68 1456.52 2273.21 1455.1L2279.28 1456.8C2278.64 1458.86 2277.57 1460.67 2276.06 1462.23C2274.55 1463.78 2272.69 1464.99 2270.47 1465.86C2268.25 1466.71 2265.75 1467.14 2262.98 1467.14ZM2295.77 1411.74V1466.28H2289.48V1411.74H2295.77ZM2307.28 1466.28V1425.37H2313.57V1466.28H2307.28ZM2310.48 1418.56C2309.25 1418.56 2308.2 1418.14 2307.31 1417.3C2306.44 1416.47 2306 1415.47 2306 1414.29C2306 1413.12 2306.44 1412.12 2307.31 1411.28C2308.2 1410.45 2309.25 1410.03 2310.48 1410.03C2311.7 1410.03 2312.75 1410.45 2313.62 1411.28C2314.51 1412.12 2314.95 1413.12 2314.95 1414.29C2314.95 1415.47 2314.51 1416.47 2313.62 1417.3C2312.75 1418.14 2311.7 1418.56 2310.48 1418.56ZM2331.37 1441.67V1466.28H2325.08V1425.37H2331.15V1431.77H2331.68C2332.64 1429.69 2334.1 1428.02 2336.05 1426.76C2338.01 1425.48 2340.53 1424.84 2343.62 1424.84C2346.39 1424.84 2348.81 1425.41 2350.89 1426.55C2352.96 1427.66 2354.58 1429.37 2355.73 1431.66C2356.89 1433.93 2357.47 1436.81 2357.47 1440.29V1466.28H2351.18V1440.71C2351.18 1437.5 2350.35 1435 2348.68 1433.2C2347.01 1431.39 2344.72 1430.49 2341.81 1430.49C2339.8 1430.49 2338.01 1430.92 2336.43 1431.79C2334.86 1432.66 2333.63 1433.93 2332.72 1435.6C2331.82 1437.27 2331.37 1439.29 2331.37 1441.67ZM2386.1 1467.14C2382.16 1467.14 2378.76 1466.27 2375.9 1464.53C2373.06 1462.77 2370.87 1460.32 2369.32 1457.17C2367.8 1454.01 2367.03 1450.34 2367.03 1446.15C2367.03 1441.96 2367.8 1438.26 2369.32 1435.07C2370.87 1431.85 2373.02 1429.35 2375.77 1427.56C2378.54 1425.75 2381.77 1424.84 2385.46 1424.84C2387.6 1424.84 2389.7 1425.2 2391.78 1425.91C2393.85 1426.62 2395.74 1427.77 2397.45 1429.37C2399.15 1430.95 2400.51 1433.04 2401.52 1435.65C2402.54 1438.26 2403.04 1441.48 2403.04 1445.3V1447.96H2371.51V1442.53H2396.65C2396.65 1440.22 2396.19 1438.16 2395.27 1436.35C2394.36 1434.54 2393.06 1433.11 2391.38 1432.06C2389.71 1431.01 2387.74 1430.49 2385.46 1430.49C2382.96 1430.49 2380.79 1431.11 2378.97 1432.35C2377.15 1433.58 2375.76 1435.17 2374.78 1437.15C2373.81 1439.12 2373.32 1441.23 2373.32 1443.48V1447.11C2373.32 1450.2 2373.85 1452.82 2374.92 1454.96C2376 1457.09 2377.5 1458.72 2379.42 1459.84C2381.34 1460.94 2383.56 1461.49 2386.1 1461.49C2387.75 1461.49 2389.25 1461.26 2390.58 1460.8C2391.93 1460.32 2393.09 1459.61 2394.07 1458.67C2395.04 1457.71 2395.8 1456.52 2396.33 1455.1L2402.4 1456.8C2401.76 1458.86 2400.69 1460.67 2399.18 1462.23C2397.67 1463.78 2395.81 1464.99 2393.59 1465.86C2391.37 1466.71 2388.87 1467.14 2386.1 1467.14Z" fill="#FF8C8C"/>
<path d="M2376.4 233.605C2370.45 233.605 2365.95 232.309 2362.9 229.719C2359.9 227.082 2358.4 223.219 2358.4 218.128V207.082C2358.4 201.9 2359.9 197.991 2362.9 195.355C2365.95 192.673 2370.42 191.332 2376.33 191.332C2381.6 191.332 2385.65 192.537 2388.47 194.946C2391.33 197.309 2392.92 200.787 2393.24 205.378L2386.56 205.787C2386.38 202.969 2385.45 200.878 2383.76 199.514C2382.08 198.15 2379.58 197.469 2376.26 197.469C2372.54 197.469 2369.76 198.264 2367.95 199.855C2366.13 201.4 2365.22 203.809 2365.22 207.082V218.128C2365.22 221.264 2366.13 223.605 2367.95 225.15C2369.81 226.696 2372.63 227.469 2376.4 227.469C2379.67 227.469 2382.15 226.9 2383.83 225.764C2385.51 224.582 2386.42 222.832 2386.56 220.514L2393.24 220.923C2392.92 225.105 2391.35 228.264 2388.54 230.4C2385.72 232.537 2381.67 233.605 2376.4 233.605ZM2423.2 233.605C2417.7 233.605 2413.47 232.287 2410.52 229.65C2407.61 226.969 2406.15 223.128 2406.15 218.128V207.082C2406.15 202.037 2407.63 198.15 2410.59 195.423C2413.54 192.696 2417.77 191.332 2423.27 191.332C2428.72 191.332 2432.9 192.696 2435.81 195.423C2438.77 198.15 2440.24 202.037 2440.24 207.082V218.128C2440.24 223.128 2438.77 226.969 2435.81 229.65C2432.9 232.287 2428.7 233.605 2423.2 233.605ZM2423.2 227.469C2426.65 227.469 2429.22 226.696 2430.9 225.15C2432.59 223.605 2433.43 221.264 2433.43 218.128V207.082C2433.43 203.809 2432.59 201.4 2430.9 199.855C2429.22 198.264 2426.65 197.469 2423.2 197.469C2419.74 197.469 2417.18 198.264 2415.49 199.855C2413.81 201.4 2412.97 203.809 2412.97 207.082V218.128C2412.97 221.264 2413.81 223.605 2415.49 225.15C2417.18 226.696 2419.74 227.469 2423.2 227.469ZM2457.45 203.605V232.923H2451.18V192.014H2457.45V197.469H2458.82C2459.68 195.559 2460.82 194.059 2462.23 192.969C2463.64 191.878 2465.11 191.332 2466.66 191.332C2468.43 191.332 2469.91 191.878 2471.09 192.969C2472.32 194.014 2473.16 195.514 2473.61 197.469H2475.11C2475.98 195.559 2477.14 194.059 2478.59 192.969C2480.09 191.878 2481.68 191.332 2483.36 191.332C2485.64 191.332 2487.43 192.264 2488.75 194.128C2490.07 195.946 2490.73 198.423 2490.73 201.559V232.923H2484.45V202.65C2484.45 200.605 2484.18 199.059 2483.64 198.014C2483.09 196.969 2482.29 196.446 2481.25 196.446C2480.39 196.446 2479.29 197.082 2477.98 198.355C2476.7 199.628 2475.41 201.378 2474.09 203.605V232.923H2467.82V202.65C2467.82 200.605 2467.52 199.059 2466.93 198.014C2466.39 196.969 2465.59 196.446 2464.54 196.446C2463.64 196.446 2462.57 197.059 2461.34 198.287C2460.16 199.514 2458.86 201.287 2457.45 203.605ZM2518.09 227.605C2521.91 227.605 2524.66 226.832 2526.34 225.287C2528.07 223.741 2528.93 221.264 2528.93 217.855V206.809C2528.93 203.673 2528.28 201.4 2526.96 199.991C2525.68 198.537 2523.62 197.809 2520.75 197.809C2518.48 197.809 2516.37 198.378 2514.41 199.514C2512.46 200.65 2510.48 202.469 2508.48 204.969V225.014C2509.89 225.878 2511.34 226.537 2512.84 226.991C2514.39 227.4 2516.14 227.605 2518.09 227.605ZM2518.16 233.605C2516.62 233.605 2514.98 233.423 2513.25 233.059C2511.57 232.741 2509.98 232.287 2508.48 231.696V246.559H2501.66V192.014H2508.48V198.832H2510.53C2511.66 196.514 2513.3 194.696 2515.43 193.378C2517.62 192.014 2519.96 191.332 2522.46 191.332C2526.55 191.332 2529.78 192.741 2532.14 195.559C2534.55 198.332 2535.75 202.105 2535.75 206.878V217.991C2535.75 222.809 2534.16 226.628 2530.98 229.446C2527.84 232.219 2523.57 233.605 2518.16 233.605ZM2549.42 232.923V226.787H2563.05V184.514H2549.42V178.378H2569.87V226.787H2583.51V232.923H2549.42ZM2631.4 223.923C2630.17 227.332 2628.31 229.809 2625.81 231.355C2623.31 232.855 2619.46 233.605 2614.28 233.605C2608.87 233.605 2604.67 232.309 2601.67 229.719C2598.67 227.082 2597.17 223.196 2597.17 218.059V207.082C2597.17 201.809 2598.74 197.878 2601.87 195.287C2605.06 192.65 2609.19 191.332 2614.28 191.332C2619.42 191.332 2623.53 192.673 2626.62 195.355C2629.71 197.991 2631.26 202.059 2631.26 207.559V213.832H2603.99V218.128C2603.99 221.537 2604.83 224.014 2606.51 225.559C2608.24 227.059 2610.81 227.809 2614.21 227.809C2617.49 227.809 2619.87 227.355 2621.37 226.446C2622.87 225.537 2624.01 224.059 2624.78 222.014L2631.4 223.923ZM2603.99 207.082V208.719H2624.44V207.696C2624.44 204.014 2623.58 201.332 2621.85 199.65C2620.17 197.969 2617.62 197.128 2614.21 197.128C2610.81 197.128 2608.24 197.946 2606.51 199.582C2604.83 201.173 2603.99 203.673 2603.99 207.082ZM2668.72 233.537C2664.22 233.537 2660.72 232.423 2658.22 230.196C2655.72 227.969 2654.47 224.559 2654.47 219.969V198.15H2642.88V192.014H2654.47V178.378H2661.29V192.014H2679.01V198.15H2661.29V219.355C2661.29 221.991 2661.95 223.946 2663.26 225.219C2664.58 226.491 2666.54 227.128 2669.13 227.128C2670.86 227.128 2672.47 227.014 2673.97 226.787C2675.47 226.514 2676.9 226.173 2678.26 225.764L2679.63 231.969C2678.08 232.423 2676.42 232.787 2674.65 233.059C2672.92 233.378 2670.95 233.537 2668.72 233.537ZM2726.9 223.923C2725.68 227.332 2723.81 229.809 2721.31 231.355C2718.81 232.855 2714.97 233.605 2709.79 233.605C2704.38 233.605 2700.18 232.309 2697.18 229.719C2694.18 227.082 2692.68 223.196 2692.68 218.059V207.082C2692.68 201.809 2694.25 197.878 2697.38 195.287C2700.56 192.65 2704.7 191.332 2709.79 191.332C2714.93 191.332 2719.04 192.673 2722.13 195.355C2725.22 197.991 2726.77 202.059 2726.77 207.559V213.832H2699.5V218.128C2699.5 221.537 2700.34 224.014 2702.02 225.559C2703.75 227.059 2706.31 227.809 2709.72 227.809C2713 227.809 2715.38 227.355 2716.88 226.446C2718.38 225.537 2719.52 224.059 2720.29 222.014L2726.9 223.923ZM2699.5 207.082V208.719H2719.95V207.696C2719.95 204.014 2719.09 201.332 2717.36 199.65C2715.68 197.969 2713.13 197.128 2709.72 197.128C2706.31 197.128 2703.75 197.946 2702.02 199.582C2700.34 201.173 2699.5 203.673 2699.5 207.082ZM2771.11 247.241C2763.98 245.559 2758.2 241.673 2753.79 235.582C2749.43 229.491 2747.25 221.787 2747.25 212.469C2747.25 203.15 2749.43 195.446 2753.79 189.355C2758.2 183.264 2763.98 179.378 2771.11 177.696L2771.79 183.014C2765.7 184.696 2761.23 188.219 2758.36 193.582C2755.5 198.9 2754.07 205.196 2754.07 212.469C2754.07 219.741 2755.5 226.059 2758.36 231.423C2761.23 236.741 2765.7 240.241 2771.79 241.923L2771.11 247.241ZM2791.59 247.241L2790.91 241.923C2797 240.241 2801.48 236.719 2804.34 231.355C2807.21 225.946 2808.64 219.65 2808.64 212.469C2808.64 205.287 2807.21 199.014 2804.34 193.65C2801.48 188.241 2797 184.696 2790.91 183.014L2791.59 177.696C2798.73 179.378 2804.48 183.287 2808.84 189.423C2813.25 195.514 2815.46 203.196 2815.46 212.469C2815.46 221.741 2813.25 229.423 2808.84 235.514C2804.48 241.65 2798.73 245.559 2791.59 247.241ZM2404.23 299.314V323.923H2397.95V283.014H2404.02V289.406H2404.55C2405.51 287.329 2406.97 285.66 2408.92 284.399C2410.87 283.121 2413.39 282.481 2416.48 282.481C2419.25 282.481 2421.68 283.05 2423.76 284.186C2425.83 285.304 2427.45 287.009 2428.6 289.3C2429.76 291.572 2430.33 294.449 2430.33 297.929V323.923H2424.05V298.355C2424.05 295.141 2423.21 292.638 2421.54 290.844C2419.88 289.033 2417.59 288.128 2414.67 288.128C2412.67 288.128 2410.87 288.563 2409.29 289.433C2407.73 290.303 2406.5 291.572 2405.59 293.241C2404.69 294.91 2404.23 296.934 2404.23 299.314ZM2458.44 324.775C2454.75 324.775 2451.51 323.896 2448.72 322.139C2445.95 320.381 2443.78 317.922 2442.22 314.761C2440.67 311.601 2439.9 307.907 2439.9 303.682C2439.9 299.42 2440.67 295.7 2442.22 292.522C2443.78 289.344 2445.95 286.876 2448.72 285.118C2451.51 283.36 2454.75 282.481 2458.44 282.481C2462.13 282.481 2465.36 283.36 2468.13 285.118C2470.92 286.876 2473.09 289.344 2474.63 292.522C2476.19 295.7 2476.98 299.42 2476.98 303.682C2476.98 307.907 2476.19 311.601 2474.63 314.761C2473.09 317.922 2470.92 320.381 2468.13 322.139C2465.36 323.896 2462.13 324.775 2458.44 324.775ZM2458.44 319.129C2461.24 319.129 2463.55 318.41 2465.36 316.972C2467.17 315.534 2468.52 313.643 2469.39 311.299C2470.26 308.955 2470.69 306.416 2470.69 303.682C2470.69 300.947 2470.26 298.399 2469.39 296.038C2468.52 293.676 2467.17 291.768 2465.36 290.312C2463.55 288.856 2461.24 288.128 2458.44 288.128C2455.63 288.128 2453.33 288.856 2451.51 290.312C2449.7 291.768 2448.36 293.676 2447.49 296.038C2446.62 298.399 2446.19 300.947 2446.19 303.682C2446.19 306.416 2446.62 308.955 2447.49 311.299C2448.36 313.643 2449.7 315.534 2451.51 316.972C2453.33 318.41 2455.63 319.129 2458.44 319.129ZM2504.36 283.014V288.341H2483.16V283.014H2504.36ZM2489.34 273.213H2495.63V312.204C2495.63 313.98 2495.88 315.312 2496.4 316.199C2496.93 317.069 2497.61 317.655 2498.42 317.957C2499.26 318.241 2500.14 318.383 2501.06 318.383C2501.75 318.383 2502.32 318.348 2502.76 318.277C2503.21 318.188 2503.56 318.117 2503.83 318.064L2505.11 323.71C2504.68 323.87 2504.09 324.03 2503.32 324.189C2502.56 324.367 2501.59 324.456 2500.42 324.456C2498.64 324.456 2496.9 324.074 2495.2 323.311C2493.51 322.547 2492.11 321.384 2490.99 319.822C2489.89 318.259 2489.34 316.288 2489.34 313.909V273.213ZM2513.82 323.923V283.014H2520.1V323.923H2513.82ZM2517.01 276.196C2515.79 276.196 2514.73 275.779 2513.84 274.944C2512.97 274.11 2512.54 273.106 2512.54 271.934C2512.54 270.763 2512.97 269.759 2513.84 268.925C2514.73 268.09 2515.79 267.673 2517.01 267.673C2518.24 267.673 2519.29 268.09 2520.16 268.925C2521.04 269.759 2521.49 270.763 2521.49 271.934C2521.49 273.106 2521.04 274.11 2520.16 274.944C2519.29 275.779 2518.24 276.196 2517.01 276.196ZM2549.83 283.014V288.341H2527.78V283.014H2549.83ZM2534.38 323.923V277.368C2534.38 275.024 2534.93 273.071 2536.04 271.508C2537.14 269.946 2538.57 268.774 2540.32 267.993C2542.08 267.211 2543.94 266.821 2545.89 266.821C2547.43 266.821 2548.7 266.945 2549.67 267.194C2550.65 267.442 2551.38 267.673 2551.86 267.886L2550.04 273.319C2549.73 273.213 2549.28 273.08 2548.71 272.92C2548.16 272.76 2547.43 272.68 2546.53 272.68C2544.45 272.68 2542.95 273.204 2542.03 274.252C2541.12 275.299 2540.67 276.835 2540.67 278.859V323.923H2534.38ZM2558.64 323.923V283.014H2564.93V323.923H2558.64ZM2561.84 276.196C2560.61 276.196 2559.56 275.779 2558.67 274.944C2557.8 274.11 2557.36 273.106 2557.36 271.934C2557.36 270.763 2557.8 269.759 2558.67 268.925C2559.56 268.09 2560.61 267.673 2561.84 267.673C2563.06 267.673 2564.11 268.09 2564.98 268.925C2565.87 269.759 2566.31 270.763 2566.31 271.934C2566.31 273.106 2565.87 274.11 2564.98 274.944C2564.11 275.779 2563.06 276.196 2561.84 276.196ZM2593.06 324.775C2589.22 324.775 2585.92 323.87 2583.15 322.059C2580.38 320.248 2578.25 317.753 2576.76 314.575C2575.27 311.396 2574.52 307.765 2574.52 303.682C2574.52 299.527 2575.28 295.86 2576.81 292.682C2578.36 289.486 2580.5 286.991 2583.26 285.198C2586.03 283.387 2589.26 282.481 2592.95 282.481C2595.83 282.481 2598.42 283.014 2600.73 284.079C2603.04 285.145 2604.93 286.636 2606.4 288.554C2607.88 290.471 2608.79 292.709 2609.14 295.265H2602.86C2602.38 293.401 2601.31 291.75 2599.66 290.312C2598.03 288.856 2595.83 288.128 2593.06 288.128C2590.61 288.128 2588.46 288.767 2586.61 290.045C2584.78 291.306 2583.35 293.09 2582.32 295.399C2581.31 297.689 2580.81 300.379 2580.81 303.469C2580.81 306.629 2581.3 309.381 2582.3 311.725C2583.31 314.069 2584.73 315.889 2586.56 317.185C2588.41 318.481 2590.57 319.129 2593.06 319.129C2594.69 319.129 2596.17 318.845 2597.51 318.277C2598.84 317.709 2599.96 316.892 2600.89 315.827C2601.81 314.761 2602.47 313.483 2602.86 311.991H2609.14C2608.79 314.406 2607.91 316.581 2606.51 318.516C2605.12 320.434 2603.29 321.961 2600.99 323.097C2598.72 324.216 2596.08 324.775 2593.06 324.775ZM2630.37 324.882C2627.78 324.882 2625.43 324.394 2623.31 323.417C2621.2 322.423 2619.52 320.993 2618.28 319.129C2617.04 317.247 2616.42 314.974 2616.42 312.311C2616.42 309.967 2616.88 308.067 2617.8 306.611C2618.72 305.138 2619.96 303.983 2621.5 303.149C2623.05 302.314 2624.75 301.693 2626.62 301.285C2628.5 300.858 2630.39 300.521 2632.29 300.273C2634.77 299.953 2636.79 299.713 2638.33 299.553C2639.9 299.376 2641.03 299.083 2641.74 298.675C2642.47 298.266 2642.84 297.556 2642.84 296.544V296.331C2642.84 293.703 2642.12 291.661 2640.68 290.205C2639.26 288.749 2637.1 288.021 2634.21 288.021C2631.21 288.021 2628.85 288.678 2627.15 289.992C2625.44 291.306 2624.25 292.709 2623.55 294.2L2617.59 292.069C2618.65 289.584 2620.07 287.648 2621.85 286.263C2623.64 284.861 2625.6 283.884 2627.71 283.334C2629.84 282.765 2631.93 282.481 2633.99 282.481C2635.31 282.481 2636.82 282.641 2638.52 282.961C2640.24 283.263 2641.9 283.893 2643.5 284.852C2645.12 285.811 2646.46 287.258 2647.52 289.193C2648.59 291.128 2649.12 293.721 2649.12 296.97V323.923H2642.84V318.383H2642.52C2642.09 319.271 2641.38 320.221 2640.39 321.233C2639.39 322.245 2638.07 323.106 2636.42 323.817C2634.77 324.527 2632.75 324.882 2630.37 324.882ZM2631.33 319.236C2633.82 319.236 2635.91 318.747 2637.62 317.771C2639.34 316.794 2640.63 315.534 2641.5 313.989C2642.39 312.444 2642.84 310.819 2642.84 309.115V303.362C2642.57 303.682 2641.98 303.975 2641.08 304.241C2640.19 304.49 2639.16 304.711 2637.99 304.907C2636.83 305.084 2635.71 305.244 2634.61 305.386C2633.52 305.51 2632.64 305.617 2631.97 305.706C2630.34 305.919 2628.81 306.265 2627.39 306.744C2625.99 307.206 2624.85 307.907 2623.98 308.849C2623.13 309.772 2622.7 311.032 2622.7 312.63C2622.7 314.814 2623.51 316.466 2625.12 317.584C2626.76 318.685 2628.83 319.236 2631.33 319.236ZM2678.39 283.014V288.341H2657.18V283.014H2678.39ZM2663.36 273.213H2669.65V312.204C2669.65 313.98 2669.91 315.312 2670.42 316.199C2670.95 317.069 2671.63 317.655 2672.45 317.957C2673.28 318.241 2674.16 318.383 2675.08 318.383C2675.78 318.383 2676.34 318.348 2676.79 318.277C2677.23 318.188 2677.59 318.117 2677.85 318.064L2679.13 323.71C2678.7 323.87 2678.11 324.03 2677.35 324.189C2676.58 324.367 2675.62 324.456 2674.44 324.456C2672.67 324.456 2670.93 324.074 2669.22 323.311C2667.54 322.547 2666.13 321.384 2665.02 319.822C2663.91 318.259 2663.36 316.288 2663.36 313.909V273.213ZM2687.84 323.923V283.014H2694.13V323.923H2687.84ZM2691.04 276.196C2689.81 276.196 2688.75 275.779 2687.87 274.944C2687 274.11 2686.56 273.106 2686.56 271.934C2686.56 270.763 2687 269.759 2687.87 268.925C2688.75 268.09 2689.81 267.673 2691.04 267.673C2692.26 267.673 2693.31 268.09 2694.18 268.925C2695.07 269.759 2695.51 270.763 2695.51 271.934C2695.51 273.106 2695.07 274.11 2694.18 274.944C2693.31 275.779 2692.26 276.196 2691.04 276.196ZM2722.26 324.775C2718.56 324.775 2715.32 323.896 2712.54 322.139C2709.77 320.381 2707.6 317.922 2706.04 314.761C2704.49 311.601 2703.72 307.907 2703.72 303.682C2703.72 299.42 2704.49 295.7 2706.04 292.522C2707.6 289.344 2709.77 286.876 2712.54 285.118C2715.32 283.36 2718.56 282.481 2722.26 282.481C2725.95 282.481 2729.18 283.36 2731.95 285.118C2734.74 286.876 2736.91 289.344 2738.45 292.522C2740.01 295.7 2740.79 299.42 2740.79 303.682C2740.79 307.907 2740.01 311.601 2738.45 314.761C2736.91 317.922 2734.74 320.381 2731.95 322.139C2729.18 323.896 2725.95 324.775 2722.26 324.775ZM2722.26 319.129C2725.06 319.129 2727.37 318.41 2729.18 316.972C2730.99 315.534 2732.33 313.643 2733.2 311.299C2734.07 308.955 2734.51 306.416 2734.51 303.682C2734.51 300.947 2734.07 298.399 2733.2 296.038C2732.33 293.676 2730.99 291.768 2729.18 290.312C2727.37 288.856 2725.06 288.128 2722.26 288.128C2719.45 288.128 2717.14 288.856 2715.33 290.312C2713.52 291.768 2712.18 293.676 2711.31 296.038C2710.44 298.399 2710.01 300.947 2710.01 303.682C2710.01 306.416 2710.44 308.955 2711.31 311.299C2712.18 313.643 2713.52 315.534 2715.33 316.972C2717.14 318.41 2719.45 319.129 2722.26 319.129ZM2756.67 299.314V323.923H2750.39V283.014H2756.46V289.406H2756.99C2757.95 287.329 2759.41 285.66 2761.36 284.399C2763.31 283.121 2765.84 282.481 2768.93 282.481C2771.7 282.481 2774.12 283.05 2776.2 284.186C2778.27 285.304 2779.89 287.009 2781.04 289.3C2782.2 291.572 2782.78 294.449 2782.78 297.929V323.923H2776.49V298.355C2776.49 295.141 2775.66 292.638 2773.99 290.844C2772.32 289.033 2770.03 288.128 2767.11 288.128C2765.11 288.128 2763.31 288.563 2761.73 289.433C2760.17 290.303 2758.94 291.572 2758.03 293.241C2757.13 294.91 2756.67 296.934 2756.67 299.314Z" fill="#FF8C8C"/>
<path d="M2555.32 351.165C2555.97 348.482 2554.32 345.778 2551.64 345.126C2548.96 344.474 2546.25 346.121 2545.6 348.804L2555.32 351.165ZM2609.9 453.175L2588.88 399.406L2552.82 444.502L2609.9 453.175ZM2545.6 348.804C2541.58 365.347 2543.91 398.036 2571.03 428.409L2578.49 421.749C2553.59 393.861 2552.06 364.554 2555.32 351.165L2545.6 348.804Z" fill="#FF8C8C"/>
</svg>
